<?xml version="1.0" encoding="utf-8" standalone="no"?>
<!DOCTYPE svg PUBLIC "-//W3C//DTD SVG 1.1//EN"
  "http://www.w3.org/Graphics/SVG/1.1/DTD/svg11.dtd">
<!-- Created with matplotlib (http://matplotlib.org/) -->
<svg height="391pt" version="1.1" viewBox="0 0 610 391" width="610pt" xmlns="http://www.w3.org/2000/svg" xmlns:xlink="http://www.w3.org/1999/xlink">
 <defs>
  <style type="text/css">
*{stroke-linecap:butt;stroke-linejoin:round;}
  </style>
 </defs>
 <g id="figure_1">
  <g id="patch_1">
   <path d="
M0 391.555
L610.289 391.555
L610.289 0
L0 0
z
" style="fill:#ffffff;"/>
  </g>
  <g id="axes_1">
   <g id="line2d_1">
    <defs>
     <path d="
M0 3
C0.795609 3 1.55874 2.6839 2.12132 2.12132
C2.6839 1.55874 3 0.795609 3 0
C3 -0.795609 2.6839 -1.55874 2.12132 -2.12132
C1.55874 -2.6839 0.795609 -3 0 -3
C-0.795609 -3 -1.55874 -2.6839 -2.12132 -2.12132
C-2.6839 -1.55874 -3 -0.795609 -3 0
C-3 0.795609 -2.6839 1.55874 -2.12132 2.12132
C-1.55874 2.6839 -0.795609 3 0 3
z
" id="md175be6dbf" style="stroke:#000000;stroke-width:0.5;"/>
    </defs>
    <g clip-path="url(#p694ff789fa)">
     <use style="fill:#ff0000;stroke:#000000;stroke-width:0.5;" x="38.27125" xlink:href="#md175be6dbf" y="23.14175"/>
     <use style="fill:#ff0000;stroke:#000000;stroke-width:0.5;" x="47.57125" xlink:href="#md175be6dbf" y="27.1163378439"/>
     <use style="fill:#ff0000;stroke:#000000;stroke-width:0.5;" x="56.87125" xlink:href="#md175be6dbf" y="38.6378540752"/>
     <use style="fill:#ff0000;stroke:#000000;stroke-width:0.5;" x="66.17125" xlink:href="#md175be6dbf" y="56.5402661432"/>
     <use style="fill:#ff0000;stroke:#000000;stroke-width:0.5;" x="75.47125" xlink:href="#md175be6dbf" y="79.0117643181"/>
     <use style="fill:#ff0000;stroke:#000000;stroke-width:0.5;" x="177.77125" xlink:href="#md175be6dbf" y="95.4203686184"/>
     <use style="fill:#ff0000;stroke:#000000;stroke-width:0.5;" x="187.07125" xlink:href="#md175be6dbf" y="71.1468329446"/>
     <use style="fill:#ff0000;stroke:#000000;stroke-width:0.5;" x="196.37125" xlink:href="#md175be6dbf" y="49.9641289534"/>
     <use style="fill:#ff0000;stroke:#000000;stroke-width:0.5;" x="205.67125" xlink:href="#md175be6dbf" y="34.0160476069"/>
     <use style="fill:#ff0000;stroke:#000000;stroke-width:0.5;" x="214.97125" xlink:href="#md175be6dbf" y="24.9166110179"/>
     <use style="fill:#ff0000;stroke:#000000;stroke-width:0.5;" x="224.27125" xlink:href="#md175be6dbf" y="23.5867256926"/>
     <use style="fill:#ff0000;stroke:#000000;stroke-width:0.5;" x="233.57125" xlink:href="#md175be6dbf" y="30.1609823867"/>
     <use style="fill:#ff0000;stroke:#000000;stroke-width:0.5;" x="242.87125" xlink:href="#md175be6dbf" y="43.9740348777"/>
     <use style="fill:#ff0000;stroke:#000000;stroke-width:0.5;" x="252.17125" xlink:href="#md175be6dbf" y="63.6279361848"/>
     <use style="fill:#ff0000;stroke:#000000;stroke-width:0.5;" x="261.47125" xlink:href="#md175be6dbf" y="87.1336174899"/>
     <use style="fill:#ff0000;stroke:#000000;stroke-width:0.5;" x="363.77125" xlink:href="#md175be6dbf" y="87.1336174899"/>
     <use style="fill:#ff0000;stroke:#000000;stroke-width:0.5;" x="373.07125" xlink:href="#md175be6dbf" y="63.6279361848"/>
     <use style="fill:#ff0000;stroke:#000000;stroke-width:0.5;" x="382.37125" xlink:href="#md175be6dbf" y="43.9740348777"/>
     <use style="fill:#ff0000;stroke:#000000;stroke-width:0.5;" x="391.67125" xlink:href="#md175be6dbf" y="30.1609823867"/>
     <use style="fill:#ff0000;stroke:#000000;stroke-width:0.5;" x="400.97125" xlink:href="#md175be6dbf" y="23.5867256926"/>
     <use style="fill:#ff0000;stroke:#000000;stroke-width:0.5;" x="410.27125" xlink:href="#md175be6dbf" y="24.9166110179"/>
     <use style="fill:#ff0000;stroke:#000000;stroke-width:0.5;" x="419.57125" xlink:href="#md175be6dbf" y="34.0160476069"/>
     <use style="fill:#ff0000;stroke:#000000;stroke-width:0.5;" x="428.87125" xlink:href="#md175be6dbf" y="49.9641289534"/>
     <use style="fill:#ff0000;stroke:#000000;stroke-width:0.5;" x="438.17125" xlink:href="#md175be6dbf" y="71.1468329446"/>
     <use style="fill:#ff0000;stroke:#000000;stroke-width:0.5;" x="447.47125" xlink:href="#md175be6dbf" y="95.4203686184"/>
     <use style="fill:#ff0000;stroke:#000000;stroke-width:0.5;" x="549.77125" xlink:href="#md175be6dbf" y="79.0117643181"/>
     <use style="fill:#ff0000;stroke:#000000;stroke-width:0.5;" x="559.07125" xlink:href="#md175be6dbf" y="56.5402661432"/>
     <use style="fill:#ff0000;stroke:#000000;stroke-width:0.5;" x="568.37125" xlink:href="#md175be6dbf" y="38.6378540752"/>
     <use style="fill:#ff0000;stroke:#000000;stroke-width:0.5;" x="577.67125" xlink:href="#md175be6dbf" y="27.1163378439"/>
     <use style="fill:#ff0000;stroke:#000000;stroke-width:0.5;" x="586.97125" xlink:href="#md175be6dbf" y="23.14175"/>
    </g>
   </g>
   <g id="line2d_2">
    <path clip-path="url(#p694ff789fa)" d="
M38.2713 101.687
L38.2713 23.1417" style="fill:none;stroke:#ff0000;stroke-linecap:square;"/>
   </g>
   <g id="line2d_3">
    <path clip-path="url(#p694ff789fa)" d="
M47.5713 101.687
L47.5713 27.1163" style="fill:none;stroke:#ff0000;stroke-linecap:square;"/>
   </g>
   <g id="line2d_4">
    <path clip-path="url(#p694ff789fa)" d="
M56.8713 101.687
L56.8713 38.6379" style="fill:none;stroke:#ff0000;stroke-linecap:square;"/>
   </g>
   <g id="line2d_5">
    <path clip-path="url(#p694ff789fa)" d="
M66.1713 101.687
L66.1713 56.5403" style="fill:none;stroke:#ff0000;stroke-linecap:square;"/>
   </g>
   <g id="line2d_6">
    <path clip-path="url(#p694ff789fa)" d="
M75.4712 101.687
L75.4712 79.0118" style="fill:none;stroke:#ff0000;stroke-linecap:square;"/>
   </g>
   <g id="line2d_7">
    <path clip-path="url(#p694ff789fa)" d="
M177.771 101.687
L177.771 95.4204" style="fill:none;stroke:#ff0000;stroke-linecap:square;"/>
   </g>
   <g id="line2d_8">
    <path clip-path="url(#p694ff789fa)" d="
M187.071 101.687
L187.071 71.1468" style="fill:none;stroke:#ff0000;stroke-linecap:square;"/>
   </g>
   <g id="line2d_9">
    <path clip-path="url(#p694ff789fa)" d="
M196.371 101.687
L196.371 49.9641" style="fill:none;stroke:#ff0000;stroke-linecap:square;"/>
   </g>
   <g id="line2d_10">
    <path clip-path="url(#p694ff789fa)" d="
M205.671 101.687
L205.671 34.016" style="fill:none;stroke:#ff0000;stroke-linecap:square;"/>
   </g>
   <g id="line2d_11">
    <path clip-path="url(#p694ff789fa)" d="
M214.971 101.687
L214.971 24.9166" style="fill:none;stroke:#ff0000;stroke-linecap:square;"/>
   </g>
   <g id="line2d_12">
    <path clip-path="url(#p694ff789fa)" d="
M224.271 101.687
L224.271 23.5867" style="fill:none;stroke:#ff0000;stroke-linecap:square;"/>
   </g>
   <g id="line2d_13">
    <path clip-path="url(#p694ff789fa)" d="
M233.571 101.687
L233.571 30.161" style="fill:none;stroke:#ff0000;stroke-linecap:square;"/>
   </g>
   <g id="line2d_14">
    <path clip-path="url(#p694ff789fa)" d="
M242.871 101.687
L242.871 43.974" style="fill:none;stroke:#ff0000;stroke-linecap:square;"/>
   </g>
   <g id="line2d_15">
    <path clip-path="url(#p694ff789fa)" d="
M252.171 101.687
L252.171 63.6279" style="fill:none;stroke:#ff0000;stroke-linecap:square;"/>
   </g>
   <g id="line2d_16">
    <path clip-path="url(#p694ff789fa)" d="
M261.471 101.687
L261.471 87.1336" style="fill:none;stroke:#ff0000;stroke-linecap:square;"/>
   </g>
   <g id="line2d_17">
    <path clip-path="url(#p694ff789fa)" d="
M363.771 101.687
L363.771 87.1336" style="fill:none;stroke:#ff0000;stroke-linecap:square;"/>
   </g>
   <g id="line2d_18">
    <path clip-path="url(#p694ff789fa)" d="
M373.071 101.687
L373.071 63.6279" style="fill:none;stroke:#ff0000;stroke-linecap:square;"/>
   </g>
   <g id="line2d_19">
    <path clip-path="url(#p694ff789fa)" d="
M382.371 101.687
L382.371 43.974" style="fill:none;stroke:#ff0000;stroke-linecap:square;"/>
   </g>
   <g id="line2d_20">
    <path clip-path="url(#p694ff789fa)" d="
M391.671 101.687
L391.671 30.161" style="fill:none;stroke:#ff0000;stroke-linecap:square;"/>
   </g>
   <g id="line2d_21">
    <path clip-path="url(#p694ff789fa)" d="
M400.971 101.687
L400.971 23.5867" style="fill:none;stroke:#ff0000;stroke-linecap:square;"/>
   </g>
   <g id="line2d_22">
    <path clip-path="url(#p694ff789fa)" d="
M410.271 101.687
L410.271 24.9166" style="fill:none;stroke:#ff0000;stroke-linecap:square;"/>
   </g>
   <g id="line2d_23">
    <path clip-path="url(#p694ff789fa)" d="
M419.571 101.687
L419.571 34.016" style="fill:none;stroke:#ff0000;stroke-linecap:square;"/>
   </g>
   <g id="line2d_24">
    <path clip-path="url(#p694ff789fa)" d="
M428.871 101.687
L428.871 49.9641" style="fill:none;stroke:#ff0000;stroke-linecap:square;"/>
   </g>
   <g id="line2d_25">
    <path clip-path="url(#p694ff789fa)" d="
M438.171 101.687
L438.171 71.1468" style="fill:none;stroke:#ff0000;stroke-linecap:square;"/>
   </g>
   <g id="line2d_26">
    <path clip-path="url(#p694ff789fa)" d="
M447.471 101.687
L447.471 95.4204" style="fill:none;stroke:#ff0000;stroke-linecap:square;"/>
   </g>
   <g id="line2d_27">
    <path clip-path="url(#p694ff789fa)" d="
M549.771 101.687
L549.771 79.0118" style="fill:none;stroke:#ff0000;stroke-linecap:square;"/>
   </g>
   <g id="line2d_28">
    <path clip-path="url(#p694ff789fa)" d="
M559.071 101.687
L559.071 56.5403" style="fill:none;stroke:#ff0000;stroke-linecap:square;"/>
   </g>
   <g id="line2d_29">
    <path clip-path="url(#p694ff789fa)" d="
M568.371 101.687
L568.371 38.6379" style="fill:none;stroke:#ff0000;stroke-linecap:square;"/>
   </g>
   <g id="line2d_30">
    <path clip-path="url(#p694ff789fa)" d="
M577.671 101.687
L577.671 27.1163" style="fill:none;stroke:#ff0000;stroke-linecap:square;"/>
   </g>
   <g id="line2d_31">
    <path clip-path="url(#p694ff789fa)" d="
M586.971 101.687
L586.971 23.1417" style="fill:none;stroke:#ff0000;stroke-linecap:square;"/>
   </g>
   <g id="line2d_32">
    <path clip-path="url(#p694ff789fa)" d="
M38.2713 101.687
L586.971 101.687" style="fill:none;stroke:#ff0000;stroke-linecap:square;"/>
   </g>
   <g id="line2d_33">
    <defs>
     <path d="
M0 3
C0.795609 3 1.55874 2.6839 2.12132 2.12132
C2.6839 1.55874 3 0.795609 3 0
C3 -0.795609 2.6839 -1.55874 2.12132 -2.12132
C1.55874 -2.6839 0.795609 -3 0 -3
C-0.795609 -3 -1.55874 -2.6839 -2.12132 -2.12132
C-2.6839 -1.55874 -3 -0.795609 -3 0
C-3 0.795609 -2.6839 1.55874 -2.12132 2.12132
C-1.55874 2.6839 -0.795609 3 0 3
z
" id="mf1e9a9e4ae" style="stroke:#000000;stroke-width:0.5;"/>
    </defs>
    <g clip-path="url(#p694ff789fa)">
     <use style="fill:#0000ff;stroke:#000000;stroke-width:0.5;" x="84.77125" xlink:href="#mf1e9a9e4ae" y="103.778125502"/>
     <use style="fill:#0000ff;stroke:#000000;stroke-width:0.5;" x="94.07125" xlink:href="#mf1e9a9e4ae" y="128.332875484"/>
     <use style="fill:#0000ff;stroke:#000000;stroke-width:0.5;" x="103.37125" xlink:href="#mf1e9a9e4ae" y="150.190956119"/>
     <use style="fill:#0000ff;stroke:#000000;stroke-width:0.5;" x="112.67125" xlink:href="#mf1e9a9e4ae" y="167.140225099"/>
     <use style="fill:#0000ff;stroke:#000000;stroke-width:0.5;" x="121.97125" xlink:href="#mf1e9a9e4ae" y="177.465335332"/>
     <use style="fill:#0000ff;stroke:#000000;stroke-width:0.5;" x="131.27125" xlink:href="#mf1e9a9e4ae" y="180.121336279"/>
     <use style="fill:#0000ff;stroke:#000000;stroke-width:0.5;" x="140.57125" xlink:href="#mf1e9a9e4ae" y="174.839427938"/>
     <use style="fill:#0000ff;stroke:#000000;stroke-width:0.5;" x="149.87125" xlink:href="#mf1e9a9e4ae" y="162.154164698"/>
     <use style="fill:#0000ff;stroke:#000000;stroke-width:0.5;" x="159.17125" xlink:href="#mf1e9a9e4ae" y="143.349355874"/>
     <use style="fill:#0000ff;stroke:#000000;stroke-width:0.5;" x="168.47125" xlink:href="#mf1e9a9e4ae" y="120.328138063"/>
     <use style="fill:#0000ff;stroke:#000000;stroke-width:0.5;" x="270.77125" xlink:href="#mf1e9a9e4ae" y="112.112191416"/>
     <use style="fill:#0000ff;stroke:#000000;stroke-width:0.5;" x="280.07125" xlink:href="#mf1e9a9e4ae" y="136.035706807"/>
     <use style="fill:#0000ff;stroke:#000000;stroke-width:0.5;" x="289.37125" xlink:href="#mf1e9a9e4ae" y="156.482989478"/>
     <use style="fill:#0000ff;stroke:#000000;stroke-width:0.5;" x="298.67125" xlink:href="#mf1e9a9e4ae" y="171.384676623"/>
     <use style="fill:#0000ff;stroke:#000000;stroke-width:0.5;" x="307.97125" xlink:href="#mf1e9a9e4ae" y="179.232646225"/>
     <use style="fill:#0000ff;stroke:#000000;stroke-width:0.5;" x="317.27125" xlink:href="#mf1e9a9e4ae" y="179.232646225"/>
     <use style="fill:#0000ff;stroke:#000000;stroke-width:0.5;" x="326.57125" xlink:href="#mf1e9a9e4ae" y="171.384676623"/>
     <use style="fill:#0000ff;stroke:#000000;stroke-width:0.5;" x="335.87125" xlink:href="#mf1e9a9e4ae" y="156.482989478"/>
     <use style="fill:#0000ff;stroke:#000000;stroke-width:0.5;" x="345.17125" xlink:href="#mf1e9a9e4ae" y="136.035706807"/>
     <use style="fill:#0000ff;stroke:#000000;stroke-width:0.5;" x="354.47125" xlink:href="#mf1e9a9e4ae" y="112.112191416"/>
     <use style="fill:#0000ff;stroke:#000000;stroke-width:0.5;" x="456.77125" xlink:href="#mf1e9a9e4ae" y="120.328138063"/>
     <use style="fill:#0000ff;stroke:#000000;stroke-width:0.5;" x="466.07125" xlink:href="#mf1e9a9e4ae" y="143.349355874"/>
     <use style="fill:#0000ff;stroke:#000000;stroke-width:0.5;" x="475.37125" xlink:href="#mf1e9a9e4ae" y="162.154164698"/>
     <use style="fill:#0000ff;stroke:#000000;stroke-width:0.5;" x="484.67125" xlink:href="#mf1e9a9e4ae" y="174.839427938"/>
     <use style="fill:#0000ff;stroke:#000000;stroke-width:0.5;" x="493.97125" xlink:href="#mf1e9a9e4ae" y="180.121336279"/>
     <use style="fill:#0000ff;stroke:#000000;stroke-width:0.5;" x="503.27125" xlink:href="#mf1e9a9e4ae" y="177.465335332"/>
     <use style="fill:#0000ff;stroke:#000000;stroke-width:0.5;" x="512.57125" xlink:href="#mf1e9a9e4ae" y="167.140225099"/>
     <use style="fill:#0000ff;stroke:#000000;stroke-width:0.5;" x="521.87125" xlink:href="#mf1e9a9e4ae" y="150.190956119"/>
     <use style="fill:#0000ff;stroke:#000000;stroke-width:0.5;" x="531.17125" xlink:href="#mf1e9a9e4ae" y="128.332875484"/>
     <use style="fill:#0000ff;stroke:#000000;stroke-width:0.5;" x="540.47125" xlink:href="#mf1e9a9e4ae" y="103.778125502"/>
    </g>
   </g>
   <g id="line2d_34">
    <path clip-path="url(#p694ff789fa)" d="
M84.7713 101.687
L84.7713 103.778" style="fill:none;stroke:#0000ff;stroke-linecap:square;"/>
   </g>
   <g id="line2d_35">
    <path clip-path="url(#p694ff789fa)" d="
M94.0713 101.687
L94.0713 128.333" style="fill:none;stroke:#0000ff;stroke-linecap:square;"/>
   </g>
   <g id="line2d_36">
    <path clip-path="url(#p694ff789fa)" d="
M103.371 101.687
L103.371 150.191" style="fill:none;stroke:#0000ff;stroke-linecap:square;"/>
   </g>
   <g id="line2d_37">
    <path clip-path="url(#p694ff789fa)" d="
M112.671 101.687
L112.671 167.14" style="fill:none;stroke:#0000ff;stroke-linecap:square;"/>
   </g>
   <g id="line2d_38">
    <path clip-path="url(#p694ff789fa)" d="
M121.971 101.687
L121.971 177.465" style="fill:none;stroke:#0000ff;stroke-linecap:square;"/>
   </g>
   <g id="line2d_39">
    <path clip-path="url(#p694ff789fa)" d="
M131.271 101.687
L131.271 180.121" style="fill:none;stroke:#0000ff;stroke-linecap:square;"/>
   </g>
   <g id="line2d_40">
    <path clip-path="url(#p694ff789fa)" d="
M140.571 101.687
L140.571 174.839" style="fill:none;stroke:#0000ff;stroke-linecap:square;"/>
   </g>
   <g id="line2d_41">
    <path clip-path="url(#p694ff789fa)" d="
M149.871 101.687
L149.871 162.154" style="fill:none;stroke:#0000ff;stroke-linecap:square;"/>
   </g>
   <g id="line2d_42">
    <path clip-path="url(#p694ff789fa)" d="
M159.171 101.687
L159.171 143.349" style="fill:none;stroke:#0000ff;stroke-linecap:square;"/>
   </g>
   <g id="line2d_43">
    <path clip-path="url(#p694ff789fa)" d="
M168.471 101.687
L168.471 120.328" style="fill:none;stroke:#0000ff;stroke-linecap:square;"/>
   </g>
   <g id="line2d_44">
    <path clip-path="url(#p694ff789fa)" d="
M270.771 101.687
L270.771 112.112" style="fill:none;stroke:#0000ff;stroke-linecap:square;"/>
   </g>
   <g id="line2d_45">
    <path clip-path="url(#p694ff789fa)" d="
M280.071 101.687
L280.071 136.036" style="fill:none;stroke:#0000ff;stroke-linecap:square;"/>
   </g>
   <g id="line2d_46">
    <path clip-path="url(#p694ff789fa)" d="
M289.371 101.687
L289.371 156.483" style="fill:none;stroke:#0000ff;stroke-linecap:square;"/>
   </g>
   <g id="line2d_47">
    <path clip-path="url(#p694ff789fa)" d="
M298.671 101.687
L298.671 171.385" style="fill:none;stroke:#0000ff;stroke-linecap:square;"/>
   </g>
   <g id="line2d_48">
    <path clip-path="url(#p694ff789fa)" d="
M307.971 101.687
L307.971 179.233" style="fill:none;stroke:#0000ff;stroke-linecap:square;"/>
   </g>
   <g id="line2d_49">
    <path clip-path="url(#p694ff789fa)" d="
M317.271 101.687
L317.271 179.233" style="fill:none;stroke:#0000ff;stroke-linecap:square;"/>
   </g>
   <g id="line2d_50">
    <path clip-path="url(#p694ff789fa)" d="
M326.571 101.687
L326.571 171.385" style="fill:none;stroke:#0000ff;stroke-linecap:square;"/>
   </g>
   <g id="line2d_51">
    <path clip-path="url(#p694ff789fa)" d="
M335.871 101.687
L335.871 156.483" style="fill:none;stroke:#0000ff;stroke-linecap:square;"/>
   </g>
   <g id="line2d_52">
    <path clip-path="url(#p694ff789fa)" d="
M345.171 101.687
L345.171 136.036" style="fill:none;stroke:#0000ff;stroke-linecap:square;"/>
   </g>
   <g id="line2d_53">
    <path clip-path="url(#p694ff789fa)" d="
M354.471 101.687
L354.471 112.112" style="fill:none;stroke:#0000ff;stroke-linecap:square;"/>
   </g>
   <g id="line2d_54">
    <path clip-path="url(#p694ff789fa)" d="
M456.771 101.687
L456.771 120.328" style="fill:none;stroke:#0000ff;stroke-linecap:square;"/>
   </g>
   <g id="line2d_55">
    <path clip-path="url(#p694ff789fa)" d="
M466.071 101.687
L466.071 143.349" style="fill:none;stroke:#0000ff;stroke-linecap:square;"/>
   </g>
   <g id="line2d_56">
    <path clip-path="url(#p694ff789fa)" d="
M475.371 101.687
L475.371 162.154" style="fill:none;stroke:#0000ff;stroke-linecap:square;"/>
   </g>
   <g id="line2d_57">
    <path clip-path="url(#p694ff789fa)" d="
M484.671 101.687
L484.671 174.839" style="fill:none;stroke:#0000ff;stroke-linecap:square;"/>
   </g>
   <g id="line2d_58">
    <path clip-path="url(#p694ff789fa)" d="
M493.971 101.687
L493.971 180.121" style="fill:none;stroke:#0000ff;stroke-linecap:square;"/>
   </g>
   <g id="line2d_59">
    <path clip-path="url(#p694ff789fa)" d="
M503.271 101.687
L503.271 177.465" style="fill:none;stroke:#0000ff;stroke-linecap:square;"/>
   </g>
   <g id="line2d_60">
    <path clip-path="url(#p694ff789fa)" d="
M512.571 101.687
L512.571 167.14" style="fill:none;stroke:#0000ff;stroke-linecap:square;"/>
   </g>
   <g id="line2d_61">
    <path clip-path="url(#p694ff789fa)" d="
M521.871 101.687
L521.871 150.191" style="fill:none;stroke:#0000ff;stroke-linecap:square;"/>
   </g>
   <g id="line2d_62">
    <path clip-path="url(#p694ff789fa)" d="
M531.171 101.687
L531.171 128.333" style="fill:none;stroke:#0000ff;stroke-linecap:square;"/>
   </g>
   <g id="line2d_63">
    <path clip-path="url(#p694ff789fa)" d="
M540.471 101.687
L540.471 103.778" style="fill:none;stroke:#0000ff;stroke-linecap:square;"/>
   </g>
   <g id="line2d_64">
    <path clip-path="url(#p694ff789fa)" d="
M84.7713 101.687
L540.471 101.687" style="fill:none;stroke:#ff0000;stroke-linecap:square;"/>
   </g>
   <g id="text_1">
    <!-- cos(2pi/20 t) -->
    <defs>
     <path d="
M25.3906 72.9062
L33.6875 72.9062
L8.29688 -9.28125
L0 -9.28125
z
" id="DejaVuSans-2f"/>
     <path d="
M30.6094 48.3906
Q23.3906 48.3906 19.1875 42.75
Q14.9844 37.1094 14.9844 27.2969
Q14.9844 17.4844 19.1562 11.8438
Q23.3438 6.20312 30.6094 6.20312
Q37.7969 6.20312 41.9844 11.8594
Q46.1875 17.5312 46.1875 27.2969
Q46.1875 37.0156 41.9844 42.7031
Q37.7969 48.3906 30.6094 48.3906
M30.6094 56
Q42.3281 56 49.0156 48.375
Q55.7188 40.7656 55.7188 27.2969
Q55.7188 13.875 49.0156 6.21875
Q42.3281 -1.42188 30.6094 -1.42188
Q18.8438 -1.42188 12.1719 6.21875
Q5.51562 13.875 5.51562 27.2969
Q5.51562 40.7656 12.1719 48.375
Q18.8438 56 30.6094 56" id="DejaVuSans-6f"/>
     <path d="
M18.1094 8.20312
L18.1094 -20.7969
L9.07812 -20.7969
L9.07812 54.6875
L18.1094 54.6875
L18.1094 46.3906
Q20.9531 51.2656 25.2656 53.625
Q29.5938 56 35.5938 56
Q45.5625 56 51.7812 48.0938
Q58.0156 40.1875 58.0156 27.2969
Q58.0156 14.4062 51.7812 6.48438
Q45.5625 -1.42188 35.5938 -1.42188
Q29.5938 -1.42188 25.2656 0.953125
Q20.9531 3.32812 18.1094 8.20312
M48.6875 27.2969
Q48.6875 37.2031 44.6094 42.8438
Q40.5312 48.4844 33.4062 48.4844
Q26.2656 48.4844 22.1875 42.8438
Q18.1094 37.2031 18.1094 27.2969
Q18.1094 17.3906 22.1875 11.75
Q26.2656 6.10938 33.4062 6.10938
Q40.5312 6.10938 44.6094 11.75
Q48.6875 17.3906 48.6875 27.2969" id="DejaVuSans-70"/>
     <path d="
M31.7812 66.4062
Q24.1719 66.4062 20.3281 58.9062
Q16.5 51.4219 16.5 36.375
Q16.5 21.3906 20.3281 13.8906
Q24.1719 6.39062 31.7812 6.39062
Q39.4531 6.39062 43.2812 13.8906
Q47.125 21.3906 47.125 36.375
Q47.125 51.4219 43.2812 58.9062
Q39.4531 66.4062 31.7812 66.4062
M31.7812 74.2188
Q44.0469 74.2188 50.5156 64.5156
Q56.9844 54.8281 56.9844 36.375
Q56.9844 17.9688 50.5156 8.26562
Q44.0469 -1.42188 31.7812 -1.42188
Q19.5312 -1.42188 13.0625 8.26562
Q6.59375 17.9688 6.59375 36.375
Q6.59375 54.8281 13.0625 64.5156
Q19.5312 74.2188 31.7812 74.2188" id="DejaVuSans-30"/>
     <path id="DejaVuSans-20"/>
     <path d="
M19.1875 8.29688
L53.6094 8.29688
L53.6094 0
L7.32812 0
L7.32812 8.29688
Q12.9375 14.1094 22.625 23.8906
Q32.3281 33.6875 34.8125 36.5312
Q39.5469 41.8438 41.4219 45.5312
Q43.3125 49.2188 43.3125 52.7812
Q43.3125 58.5938 39.2344 62.25
Q35.1562 65.9219 28.6094 65.9219
Q23.9688 65.9219 18.8125 64.3125
Q13.6719 62.7031 7.8125 59.4219
L7.8125 69.3906
Q13.7656 71.7812 18.9375 73
Q24.125 74.2188 28.4219 74.2188
Q39.75 74.2188 46.4844 68.5469
Q53.2188 62.8906 53.2188 53.4219
Q53.2188 48.9219 51.5312 44.8906
Q49.8594 40.875 45.4062 35.4062
Q44.1875 33.9844 37.6406 27.2188
Q31.1094 20.4531 19.1875 8.29688" id="DejaVuSans-32"/>
     <path d="
M9.42188 54.6875
L18.4062 54.6875
L18.4062 0
L9.42188 0
z

M9.42188 75.9844
L18.4062 75.9844
L18.4062 64.5938
L9.42188 64.5938
z
" id="DejaVuSans-69"/>
     <path d="
M18.3125 70.2188
L18.3125 54.6875
L36.8125 54.6875
L36.8125 47.7031
L18.3125 47.7031
L18.3125 18.0156
Q18.3125 11.3281 20.1406 9.42188
Q21.9688 7.51562 27.5938 7.51562
L36.8125 7.51562
L36.8125 0
L27.5938 0
Q17.1875 0 13.2344 3.875
Q9.28125 7.76562 9.28125 18.0156
L9.28125 47.7031
L2.6875 47.7031
L2.6875 54.6875
L9.28125 54.6875
L9.28125 70.2188
z
" id="DejaVuSans-74"/>
     <path d="
M31 75.875
Q24.4688 64.6562 21.2812 53.6562
Q18.1094 42.6719 18.1094 31.3906
Q18.1094 20.125 21.3125 9.0625
Q24.5156 -2 31 -13.1875
L23.1875 -13.1875
Q15.875 -1.70312 12.2344 9.375
Q8.59375 20.4531 8.59375 31.3906
Q8.59375 42.2812 12.2031 53.3125
Q15.8281 64.3594 23.1875 75.875
z
" id="DejaVuSans-28"/>
     <path d="
M8.01562 75.875
L15.8281 75.875
Q23.1406 64.3594 26.7812 53.3125
Q30.4219 42.2812 30.4219 31.3906
Q30.4219 20.4531 26.7812 9.375
Q23.1406 -1.70312 15.8281 -13.1875
L8.01562 -13.1875
Q14.5 -2 17.7031 9.0625
Q20.9062 20.125 20.9062 31.3906
Q20.9062 42.6719 17.7031 53.6562
Q14.5 64.6562 8.01562 75.875" id="DejaVuSans-29"/>
     <path d="
M48.7812 52.5938
L48.7812 44.1875
Q44.9688 46.2969 41.1406 47.3438
Q37.3125 48.3906 33.4062 48.3906
Q24.6562 48.3906 19.8125 42.8438
Q14.9844 37.3125 14.9844 27.2969
Q14.9844 17.2812 19.8125 11.7344
Q24.6562 6.20312 33.4062 6.20312
Q37.3125 6.20312 41.1406 7.25
Q44.9688 8.29688 48.7812 10.4062
L48.7812 2.09375
Q45.0156 0.34375 40.9844 -0.53125
Q36.9688 -1.42188 32.4219 -1.42188
Q20.0625 -1.42188 12.7812 6.34375
Q5.51562 14.1094 5.51562 27.2969
Q5.51562 40.6719 12.8594 48.3281
Q20.2188 56 33.0156 56
Q37.1562 56 41.1094 55.1406
Q45.0625 54.2969 48.7812 52.5938" id="DejaVuSans-63"/>
     <path d="
M44.2812 53.0781
L44.2812 44.5781
Q40.4844 46.5312 36.375 47.5
Q32.2812 48.4844 27.875 48.4844
Q21.1875 48.4844 17.8438 46.4375
Q14.5 44.3906 14.5 40.2812
Q14.5 37.1562 16.8906 35.375
Q19.2812 33.5938 26.5156 31.9844
L29.5938 31.2969
Q39.1562 29.25 43.1875 25.5156
Q47.2188 21.7812 47.2188 15.0938
Q47.2188 7.46875 41.1875 3.01562
Q35.1562 -1.42188 24.6094 -1.42188
Q20.2188 -1.42188 15.4531 -0.5625
Q10.6875 0.296875 5.42188 2
L5.42188 11.2812
Q10.4062 8.6875 15.2344 7.39062
Q20.0625 6.10938 24.8125 6.10938
Q31.1562 6.10938 34.5625 8.28125
Q37.9844 10.4531 37.9844 14.4062
Q37.9844 18.0625 35.5156 20.0156
Q33.0625 21.9688 24.7031 23.7812
L21.5781 24.5156
Q13.2344 26.2656 9.51562 29.9062
Q5.8125 33.5469 5.8125 39.8906
Q5.8125 47.6094 11.2812 51.7969
Q16.75 56 26.8125 56
Q31.7812 56 36.1719 55.2656
Q40.5781 54.5469 44.2812 53.0781" id="DejaVuSans-73"/>
    </defs>
    <g transform="translate(272.306125 18.14175)scale(0.144 -0.144)">
     <use xlink:href="#DejaVuSans-63"/>
     <use x="54.98046875" xlink:href="#DejaVuSans-6f"/>
     <use x="116.162109375" xlink:href="#DejaVuSans-73"/>
     <use x="168.26171875" xlink:href="#DejaVuSans-28"/>
     <use x="207.275390625" xlink:href="#DejaVuSans-32"/>
     <use x="270.8984375" xlink:href="#DejaVuSans-70"/>
     <use x="334.375" xlink:href="#DejaVuSans-69"/>
     <use x="362.158203125" xlink:href="#DejaVuSans-2f"/>
     <use x="395.849609375" xlink:href="#DejaVuSans-32"/>
     <use x="459.47265625" xlink:href="#DejaVuSans-30"/>
     <use x="523.095703125" xlink:href="#DejaVuSans-20"/>
     <use x="554.8828125" xlink:href="#DejaVuSans-74"/>
     <use x="594.091796875" xlink:href="#DejaVuSans-29"/>
    </g>
   </g>
  </g>
  <g id="axes_2">
   <g id="line2d_65">
    <g clip-path="url(#p701fea8ccb)">
     <use style="fill:#ff0000;stroke:#000000;stroke-width:0.5;" x="38.27125" xlink:href="#md175be6dbf" y="211.650840909"/>
     <use style="fill:#ff0000;stroke:#000000;stroke-width:0.5;" x="47.57125" xlink:href="#md175be6dbf" y="219.398892947"/>
     <use style="fill:#ff0000;stroke:#000000;stroke-width:0.5;" x="56.87125" xlink:href="#md175be6dbf" y="239.585848068"/>
     <use style="fill:#ff0000;stroke:#000000;stroke-width:0.5;" x="66.17125" xlink:href="#md175be6dbf" y="264.246403651"/>
     <use style="fill:#ff0000;stroke:#000000;stroke-width:0.5;" x="75.47125" xlink:href="#md175be6dbf" y="283.650078459"/>
     <use style="fill:#ff0000;stroke:#000000;stroke-width:0.5;" x="84.77125" xlink:href="#md175be6dbf" y="290.140634048"/>
     <use style="fill:#ff0000;stroke:#000000;stroke-width:0.5;" x="94.07125" xlink:href="#md175be6dbf" y="281.157048258"/>
     <use style="fill:#ff0000;stroke:#000000;stroke-width:0.5;" x="103.37125" xlink:href="#md175be6dbf" y="260.24403494"/>
     <use style="fill:#ff0000;stroke:#000000;stroke-width:0.5;" x="112.67125" xlink:href="#md175be6dbf" y="235.653382381"/>
     <use style="fill:#ff0000;stroke:#000000;stroke-width:0.5;" x="121.97125" xlink:href="#md175be6dbf" y="217.087989713"/>
     <use style="fill:#ff0000;stroke:#000000;stroke-width:0.5;" x="131.27125" xlink:href="#md175be6dbf" y="211.873328755"/>
     <use style="fill:#ff0000;stroke:#000000;stroke-width:0.5;" x="140.57125" xlink:href="#md175be6dbf" y="222.066983348"/>
     <use style="fill:#ff0000;stroke:#000000;stroke-width:0.5;" x="149.87125" xlink:href="#md175be6dbf" y="243.646774654"/>
     <use style="fill:#ff0000;stroke:#000000;stroke-width:0.5;" x="159.17125" xlink:href="#md175be6dbf" y="268.097819313"/>
     <use style="fill:#ff0000;stroke:#000000;stroke-width:0.5;" x="168.47125" xlink:href="#md175be6dbf" y="285.77230422"/>
     <use style="fill:#ff0000;stroke:#000000;stroke-width:0.5;" x="177.77125" xlink:href="#md175be6dbf" y="289.696289022"/>
     <use style="fill:#ff0000;stroke:#000000;stroke-width:0.5;" x="187.07125" xlink:href="#md175be6dbf" y="278.321460648"/>
     <use style="fill:#ff0000;stroke:#000000;stroke-width:0.5;" x="196.37125" xlink:href="#md175be6dbf" y="256.136061617"/>
     <use style="fill:#ff0000;stroke:#000000;stroke-width:0.5;" x="205.67125" xlink:href="#md175be6dbf" y="231.893934001"/>
     <use style="fill:#ff0000;stroke:#000000;stroke-width:0.5;" x="214.97125" xlink:href="#md175be6dbf" y="215.160457102"/>
     <use style="fill:#ff0000;stroke:#000000;stroke-width:0.5;" x="224.27125" xlink:href="#md175be6dbf" y="212.538271418"/>
     <use style="fill:#ff0000;stroke:#000000;stroke-width:0.5;" x="233.57125" xlink:href="#md175be6dbf" y="225.062030386"/>
     <use style="fill:#ff0000;stroke:#000000;stroke-width:0.5;" x="242.87125" xlink:href="#md175be6dbf" y="247.790150218"/>
     <use style="fill:#ff0000;stroke:#000000;stroke-width:0.5;" x="252.17125" xlink:href="#md175be6dbf" y="271.754643846"/>
     <use style="fill:#ff0000;stroke:#000000;stroke-width:0.5;" x="261.47125" xlink:href="#md175be6dbf" y="287.499679878"/>
     <use style="fill:#ff0000;stroke:#000000;stroke-width:0.5;" x="270.77125" xlink:href="#md175be6dbf" y="288.812633575"/>
     <use style="fill:#ff0000;stroke:#000000;stroke-width:0.5;" x="280.07125" xlink:href="#md175be6dbf" y="275.175443969"/>
     <use style="fill:#ff0000;stroke:#000000;stroke-width:0.5;" x="289.37125" xlink:href="#md175be6dbf" y="251.96902866"/>
     <use style="fill:#ff0000;stroke:#000000;stroke-width:0.5;" x="298.67125" xlink:href="#md175be6dbf" y="228.350098981"/>
     <use style="fill:#ff0000;stroke:#000000;stroke-width:0.5;" x="307.97125" xlink:href="#md175be6dbf" y="213.638134831"/>
     <use style="fill:#ff0000;stroke:#000000;stroke-width:0.5;" x="317.27125" xlink:href="#md175be6dbf" y="213.638134831"/>
     <use style="fill:#ff0000;stroke:#000000;stroke-width:0.5;" x="326.57125" xlink:href="#md175be6dbf" y="228.350098981"/>
     <use style="fill:#ff0000;stroke:#000000;stroke-width:0.5;" x="335.87125" xlink:href="#md175be6dbf" y="251.96902866"/>
     <use style="fill:#ff0000;stroke:#000000;stroke-width:0.5;" x="345.17125" xlink:href="#md175be6dbf" y="275.175443969"/>
     <use style="fill:#ff0000;stroke:#000000;stroke-width:0.5;" x="354.47125" xlink:href="#md175be6dbf" y="288.812633575"/>
     <use style="fill:#ff0000;stroke:#000000;stroke-width:0.5;" x="363.77125" xlink:href="#md175be6dbf" y="287.499679878"/>
     <use style="fill:#ff0000;stroke:#000000;stroke-width:0.5;" x="373.07125" xlink:href="#md175be6dbf" y="271.754643846"/>
     <use style="fill:#ff0000;stroke:#000000;stroke-width:0.5;" x="382.37125" xlink:href="#md175be6dbf" y="247.790150218"/>
     <use style="fill:#ff0000;stroke:#000000;stroke-width:0.5;" x="391.67125" xlink:href="#md175be6dbf" y="225.062030386"/>
     <use style="fill:#ff0000;stroke:#000000;stroke-width:0.5;" x="400.97125" xlink:href="#md175be6dbf" y="212.538271418"/>
     <use style="fill:#ff0000;stroke:#000000;stroke-width:0.5;" x="410.27125" xlink:href="#md175be6dbf" y="215.160457102"/>
     <use style="fill:#ff0000;stroke:#000000;stroke-width:0.5;" x="419.57125" xlink:href="#md175be6dbf" y="231.893934001"/>
     <use style="fill:#ff0000;stroke:#000000;stroke-width:0.5;" x="428.87125" xlink:href="#md175be6dbf" y="256.136061617"/>
     <use style="fill:#ff0000;stroke:#000000;stroke-width:0.5;" x="438.17125" xlink:href="#md175be6dbf" y="278.321460648"/>
     <use style="fill:#ff0000;stroke:#000000;stroke-width:0.5;" x="447.47125" xlink:href="#md175be6dbf" y="289.696289022"/>
     <use style="fill:#ff0000;stroke:#000000;stroke-width:0.5;" x="456.77125" xlink:href="#md175be6dbf" y="285.77230422"/>
     <use style="fill:#ff0000;stroke:#000000;stroke-width:0.5;" x="466.07125" xlink:href="#md175be6dbf" y="268.097819313"/>
     <use style="fill:#ff0000;stroke:#000000;stroke-width:0.5;" x="475.37125" xlink:href="#md175be6dbf" y="243.646774654"/>
     <use style="fill:#ff0000;stroke:#000000;stroke-width:0.5;" x="484.67125" xlink:href="#md175be6dbf" y="222.066983348"/>
     <use style="fill:#ff0000;stroke:#000000;stroke-width:0.5;" x="493.97125" xlink:href="#md175be6dbf" y="211.873328755"/>
     <use style="fill:#ff0000;stroke:#000000;stroke-width:0.5;" x="503.27125" xlink:href="#md175be6dbf" y="217.087989713"/>
     <use style="fill:#ff0000;stroke:#000000;stroke-width:0.5;" x="512.57125" xlink:href="#md175be6dbf" y="235.653382381"/>
     <use style="fill:#ff0000;stroke:#000000;stroke-width:0.5;" x="521.87125" xlink:href="#md175be6dbf" y="260.24403494"/>
     <use style="fill:#ff0000;stroke:#000000;stroke-width:0.5;" x="531.17125" xlink:href="#md175be6dbf" y="281.157048258"/>
     <use style="fill:#ff0000;stroke:#000000;stroke-width:0.5;" x="540.47125" xlink:href="#md175be6dbf" y="290.140634048"/>
     <use style="fill:#ff0000;stroke:#000000;stroke-width:0.5;" x="549.77125" xlink:href="#md175be6dbf" y="283.650078459"/>
     <use style="fill:#ff0000;stroke:#000000;stroke-width:0.5;" x="559.07125" xlink:href="#md175be6dbf" y="264.246403651"/>
     <use style="fill:#ff0000;stroke:#000000;stroke-width:0.5;" x="568.37125" xlink:href="#md175be6dbf" y="239.585848068"/>
     <use style="fill:#ff0000;stroke:#000000;stroke-width:0.5;" x="577.67125" xlink:href="#md175be6dbf" y="219.398892947"/>
     <use style="fill:#ff0000;stroke:#000000;stroke-width:0.5;" x="586.97125" xlink:href="#md175be6dbf" y="211.650840909"/>
    </g>
   </g>
   <g id="line2d_66">
    <path clip-path="url(#p701fea8ccb)" d="
M38.2713 290.196
L38.2713 211.651" style="fill:none;stroke:#ff0000;stroke-linecap:square;"/>
   </g>
   <g id="line2d_67">
    <path clip-path="url(#p701fea8ccb)" d="
M47.5713 290.196
L47.5713 219.399" style="fill:none;stroke:#ff0000;stroke-linecap:square;"/>
   </g>
   <g id="line2d_68">
    <path clip-path="url(#p701fea8ccb)" d="
M56.8713 290.196
L56.8713 239.586" style="fill:none;stroke:#ff0000;stroke-linecap:square;"/>
   </g>
   <g id="line2d_69">
    <path clip-path="url(#p701fea8ccb)" d="
M66.1713 290.196
L66.1713 264.246" style="fill:none;stroke:#ff0000;stroke-linecap:square;"/>
   </g>
   <g id="line2d_70">
    <path clip-path="url(#p701fea8ccb)" d="
M75.4712 290.196
L75.4712 283.65" style="fill:none;stroke:#ff0000;stroke-linecap:square;"/>
   </g>
   <g id="line2d_71">
    <path clip-path="url(#p701fea8ccb)" d="
M84.7713 290.196
L84.7713 290.141" style="fill:none;stroke:#ff0000;stroke-linecap:square;"/>
   </g>
   <g id="line2d_72">
    <path clip-path="url(#p701fea8ccb)" d="
M94.0713 290.196
L94.0713 281.157" style="fill:none;stroke:#ff0000;stroke-linecap:square;"/>
   </g>
   <g id="line2d_73">
    <path clip-path="url(#p701fea8ccb)" d="
M103.371 290.196
L103.371 260.244" style="fill:none;stroke:#ff0000;stroke-linecap:square;"/>
   </g>
   <g id="line2d_74">
    <path clip-path="url(#p701fea8ccb)" d="
M112.671 290.196
L112.671 235.653" style="fill:none;stroke:#ff0000;stroke-linecap:square;"/>
   </g>
   <g id="line2d_75">
    <path clip-path="url(#p701fea8ccb)" d="
M121.971 290.196
L121.971 217.088" style="fill:none;stroke:#ff0000;stroke-linecap:square;"/>
   </g>
   <g id="line2d_76">
    <path clip-path="url(#p701fea8ccb)" d="
M131.271 290.196
L131.271 211.873" style="fill:none;stroke:#ff0000;stroke-linecap:square;"/>
   </g>
   <g id="line2d_77">
    <path clip-path="url(#p701fea8ccb)" d="
M140.571 290.196
L140.571 222.067" style="fill:none;stroke:#ff0000;stroke-linecap:square;"/>
   </g>
   <g id="line2d_78">
    <path clip-path="url(#p701fea8ccb)" d="
M149.871 290.196
L149.871 243.647" style="fill:none;stroke:#ff0000;stroke-linecap:square;"/>
   </g>
   <g id="line2d_79">
    <path clip-path="url(#p701fea8ccb)" d="
M159.171 290.196
L159.171 268.098" style="fill:none;stroke:#ff0000;stroke-linecap:square;"/>
   </g>
   <g id="line2d_80">
    <path clip-path="url(#p701fea8ccb)" d="
M168.471 290.196
L168.471 285.772" style="fill:none;stroke:#ff0000;stroke-linecap:square;"/>
   </g>
   <g id="line2d_81">
    <path clip-path="url(#p701fea8ccb)" d="
M177.771 290.196
L177.771 289.696" style="fill:none;stroke:#ff0000;stroke-linecap:square;"/>
   </g>
   <g id="line2d_82">
    <path clip-path="url(#p701fea8ccb)" d="
M187.071 290.196
L187.071 278.321" style="fill:none;stroke:#ff0000;stroke-linecap:square;"/>
   </g>
   <g id="line2d_83">
    <path clip-path="url(#p701fea8ccb)" d="
M196.371 290.196
L196.371 256.136" style="fill:none;stroke:#ff0000;stroke-linecap:square;"/>
   </g>
   <g id="line2d_84">
    <path clip-path="url(#p701fea8ccb)" d="
M205.671 290.196
L205.671 231.894" style="fill:none;stroke:#ff0000;stroke-linecap:square;"/>
   </g>
   <g id="line2d_85">
    <path clip-path="url(#p701fea8ccb)" d="
M214.971 290.196
L214.971 215.16" style="fill:none;stroke:#ff0000;stroke-linecap:square;"/>
   </g>
   <g id="line2d_86">
    <path clip-path="url(#p701fea8ccb)" d="
M224.271 290.196
L224.271 212.538" style="fill:none;stroke:#ff0000;stroke-linecap:square;"/>
   </g>
   <g id="line2d_87">
    <path clip-path="url(#p701fea8ccb)" d="
M233.571 290.196
L233.571 225.062" style="fill:none;stroke:#ff0000;stroke-linecap:square;"/>
   </g>
   <g id="line2d_88">
    <path clip-path="url(#p701fea8ccb)" d="
M242.871 290.196
L242.871 247.79" style="fill:none;stroke:#ff0000;stroke-linecap:square;"/>
   </g>
   <g id="line2d_89">
    <path clip-path="url(#p701fea8ccb)" d="
M252.171 290.196
L252.171 271.755" style="fill:none;stroke:#ff0000;stroke-linecap:square;"/>
   </g>
   <g id="line2d_90">
    <path clip-path="url(#p701fea8ccb)" d="
M261.471 290.196
L261.471 287.5" style="fill:none;stroke:#ff0000;stroke-linecap:square;"/>
   </g>
   <g id="line2d_91">
    <path clip-path="url(#p701fea8ccb)" d="
M270.771 290.196
L270.771 288.813" style="fill:none;stroke:#ff0000;stroke-linecap:square;"/>
   </g>
   <g id="line2d_92">
    <path clip-path="url(#p701fea8ccb)" d="
M280.071 290.196
L280.071 275.175" style="fill:none;stroke:#ff0000;stroke-linecap:square;"/>
   </g>
   <g id="line2d_93">
    <path clip-path="url(#p701fea8ccb)" d="
M289.371 290.196
L289.371 251.969" style="fill:none;stroke:#ff0000;stroke-linecap:square;"/>
   </g>
   <g id="line2d_94">
    <path clip-path="url(#p701fea8ccb)" d="
M298.671 290.196
L298.671 228.35" style="fill:none;stroke:#ff0000;stroke-linecap:square;"/>
   </g>
   <g id="line2d_95">
    <path clip-path="url(#p701fea8ccb)" d="
M307.971 290.196
L307.971 213.638" style="fill:none;stroke:#ff0000;stroke-linecap:square;"/>
   </g>
   <g id="line2d_96">
    <path clip-path="url(#p701fea8ccb)" d="
M317.271 290.196
L317.271 213.638" style="fill:none;stroke:#ff0000;stroke-linecap:square;"/>
   </g>
   <g id="line2d_97">
    <path clip-path="url(#p701fea8ccb)" d="
M326.571 290.196
L326.571 228.35" style="fill:none;stroke:#ff0000;stroke-linecap:square;"/>
   </g>
   <g id="line2d_98">
    <path clip-path="url(#p701fea8ccb)" d="
M335.871 290.196
L335.871 251.969" style="fill:none;stroke:#ff0000;stroke-linecap:square;"/>
   </g>
   <g id="line2d_99">
    <path clip-path="url(#p701fea8ccb)" d="
M345.171 290.196
L345.171 275.175" style="fill:none;stroke:#ff0000;stroke-linecap:square;"/>
   </g>
   <g id="line2d_100">
    <path clip-path="url(#p701fea8ccb)" d="
M354.471 290.196
L354.471 288.813" style="fill:none;stroke:#ff0000;stroke-linecap:square;"/>
   </g>
   <g id="line2d_101">
    <path clip-path="url(#p701fea8ccb)" d="
M363.771 290.196
L363.771 287.5" style="fill:none;stroke:#ff0000;stroke-linecap:square;"/>
   </g>
   <g id="line2d_102">
    <path clip-path="url(#p701fea8ccb)" d="
M373.071 290.196
L373.071 271.755" style="fill:none;stroke:#ff0000;stroke-linecap:square;"/>
   </g>
   <g id="line2d_103">
    <path clip-path="url(#p701fea8ccb)" d="
M382.371 290.196
L382.371 247.79" style="fill:none;stroke:#ff0000;stroke-linecap:square;"/>
   </g>
   <g id="line2d_104">
    <path clip-path="url(#p701fea8ccb)" d="
M391.671 290.196
L391.671 225.062" style="fill:none;stroke:#ff0000;stroke-linecap:square;"/>
   </g>
   <g id="line2d_105">
    <path clip-path="url(#p701fea8ccb)" d="
M400.971 290.196
L400.971 212.538" style="fill:none;stroke:#ff0000;stroke-linecap:square;"/>
   </g>
   <g id="line2d_106">
    <path clip-path="url(#p701fea8ccb)" d="
M410.271 290.196
L410.271 215.16" style="fill:none;stroke:#ff0000;stroke-linecap:square;"/>
   </g>
   <g id="line2d_107">
    <path clip-path="url(#p701fea8ccb)" d="
M419.571 290.196
L419.571 231.894" style="fill:none;stroke:#ff0000;stroke-linecap:square;"/>
   </g>
   <g id="line2d_108">
    <path clip-path="url(#p701fea8ccb)" d="
M428.871 290.196
L428.871 256.136" style="fill:none;stroke:#ff0000;stroke-linecap:square;"/>
   </g>
   <g id="line2d_109">
    <path clip-path="url(#p701fea8ccb)" d="
M438.171 290.196
L438.171 278.321" style="fill:none;stroke:#ff0000;stroke-linecap:square;"/>
   </g>
   <g id="line2d_110">
    <path clip-path="url(#p701fea8ccb)" d="
M447.471 290.196
L447.471 289.696" style="fill:none;stroke:#ff0000;stroke-linecap:square;"/>
   </g>
   <g id="line2d_111">
    <path clip-path="url(#p701fea8ccb)" d="
M456.771 290.196
L456.771 285.772" style="fill:none;stroke:#ff0000;stroke-linecap:square;"/>
   </g>
   <g id="line2d_112">
    <path clip-path="url(#p701fea8ccb)" d="
M466.071 290.196
L466.071 268.098" style="fill:none;stroke:#ff0000;stroke-linecap:square;"/>
   </g>
   <g id="line2d_113">
    <path clip-path="url(#p701fea8ccb)" d="
M475.371 290.196
L475.371 243.647" style="fill:none;stroke:#ff0000;stroke-linecap:square;"/>
   </g>
   <g id="line2d_114">
    <path clip-path="url(#p701fea8ccb)" d="
M484.671 290.196
L484.671 222.067" style="fill:none;stroke:#ff0000;stroke-linecap:square;"/>
   </g>
   <g id="line2d_115">
    <path clip-path="url(#p701fea8ccb)" d="
M493.971 290.196
L493.971 211.873" style="fill:none;stroke:#ff0000;stroke-linecap:square;"/>
   </g>
   <g id="line2d_116">
    <path clip-path="url(#p701fea8ccb)" d="
M503.271 290.196
L503.271 217.088" style="fill:none;stroke:#ff0000;stroke-linecap:square;"/>
   </g>
   <g id="line2d_117">
    <path clip-path="url(#p701fea8ccb)" d="
M512.571 290.196
L512.571 235.653" style="fill:none;stroke:#ff0000;stroke-linecap:square;"/>
   </g>
   <g id="line2d_118">
    <path clip-path="url(#p701fea8ccb)" d="
M521.871 290.196
L521.871 260.244" style="fill:none;stroke:#ff0000;stroke-linecap:square;"/>
   </g>
   <g id="line2d_119">
    <path clip-path="url(#p701fea8ccb)" d="
M531.171 290.196
L531.171 281.157" style="fill:none;stroke:#ff0000;stroke-linecap:square;"/>
   </g>
   <g id="line2d_120">
    <path clip-path="url(#p701fea8ccb)" d="
M540.471 290.196
L540.471 290.141" style="fill:none;stroke:#ff0000;stroke-linecap:square;"/>
   </g>
   <g id="line2d_121">
    <path clip-path="url(#p701fea8ccb)" d="
M549.771 290.196
L549.771 283.65" style="fill:none;stroke:#ff0000;stroke-linecap:square;"/>
   </g>
   <g id="line2d_122">
    <path clip-path="url(#p701fea8ccb)" d="
M559.071 290.196
L559.071 264.246" style="fill:none;stroke:#ff0000;stroke-linecap:square;"/>
   </g>
   <g id="line2d_123">
    <path clip-path="url(#p701fea8ccb)" d="
M568.371 290.196
L568.371 239.586" style="fill:none;stroke:#ff0000;stroke-linecap:square;"/>
   </g>
   <g id="line2d_124">
    <path clip-path="url(#p701fea8ccb)" d="
M577.671 290.196
L577.671 219.399" style="fill:none;stroke:#ff0000;stroke-linecap:square;"/>
   </g>
   <g id="line2d_125">
    <path clip-path="url(#p701fea8ccb)" d="
M586.971 290.196
L586.971 211.651" style="fill:none;stroke:#ff0000;stroke-linecap:square;"/>
   </g>
   <g id="line2d_126">
    <path clip-path="url(#p701fea8ccb)" d="
M38.2713 290.196
L586.971 290.196" style="fill:none;stroke:#ff0000;stroke-linecap:square;"/>
   </g>
   <g id="text_2">
    <!-- cos(2pi/20 t)*cos(2pi/20 t) -->
    <defs>
     <path d="
M47.0156 60.8906
L29.5 51.4219
L47.0156 41.8906
L44.1875 37.1094
L27.7812 47.0156
L27.7812 28.6094
L22.2188 28.6094
L22.2188 47.0156
L5.8125 37.1094
L2.98438 41.8906
L20.5156 51.4219
L2.98438 60.8906
L5.8125 65.7188
L22.2188 55.8125
L22.2188 74.2188
L27.7812 74.2188
L27.7812 55.8125
L44.1875 65.7188
z
" id="DejaVuSans-2a"/>
    </defs>
    <g transform="translate(223.12225 206.650840909)scale(0.144 -0.144)">
     <use xlink:href="#DejaVuSans-63"/>
     <use x="54.98046875" xlink:href="#DejaVuSans-6f"/>
     <use x="116.162109375" xlink:href="#DejaVuSans-73"/>
     <use x="168.26171875" xlink:href="#DejaVuSans-28"/>
     <use x="207.275390625" xlink:href="#DejaVuSans-32"/>
     <use x="270.8984375" xlink:href="#DejaVuSans-70"/>
     <use x="334.375" xlink:href="#DejaVuSans-69"/>
     <use x="362.158203125" xlink:href="#DejaVuSans-2f"/>
     <use x="395.849609375" xlink:href="#DejaVuSans-32"/>
     <use x="459.47265625" xlink:href="#DejaVuSans-30"/>
     <use x="523.095703125" xlink:href="#DejaVuSans-20"/>
     <use x="554.8828125" xlink:href="#DejaVuSans-74"/>
     <use x="594.091796875" xlink:href="#DejaVuSans-29"/>
     <use x="633.10546875" xlink:href="#DejaVuSans-2a"/>
     <use x="683.10546875" xlink:href="#DejaVuSans-63"/>
     <use x="738.0859375" xlink:href="#DejaVuSans-6f"/>
     <use x="799.267578125" xlink:href="#DejaVuSans-73"/>
     <use x="851.3671875" xlink:href="#DejaVuSans-28"/>
     <use x="890.380859375" xlink:href="#DejaVuSans-32"/>
     <use x="954.00390625" xlink:href="#DejaVuSans-70"/>
     <use x="1017.48046875" xlink:href="#DejaVuSans-69"/>
     <use x="1045.26367188" xlink:href="#DejaVuSans-2f"/>
     <use x="1078.95507812" xlink:href="#DejaVuSans-32"/>
     <use x="1142.578125" xlink:href="#DejaVuSans-30"/>
     <use x="1206.20117188" xlink:href="#DejaVuSans-20"/>
     <use x="1237.98828125" xlink:href="#DejaVuSans-74"/>
     <use x="1277.19726562" xlink:href="#DejaVuSans-29"/>
    </g>
   </g>
  </g>
 </g>
 <defs>
  <clipPath id="p694ff789fa">
   <rect height="157.090909091" width="558.0" x="38.27125" y="23.14175"/>
  </clipPath>
  <clipPath id="p701fea8ccb">
   <rect height="157.090909091" width="558.0" x="38.27125" y="211.650840909"/>
  </clipPath>
 </defs>
</svg>
