<?xml version="1.0" encoding="UTF-8" standalone="no"?>
<!-- Created with Inkscape (http://www.inkscape.org/) -->

<svg
   xmlns:dc="http://purl.org/dc/elements/1.1/"
   xmlns:cc="http://creativecommons.org/ns#"
   xmlns:rdf="http://www.w3.org/1999/02/22-rdf-syntax-ns#"
   xmlns:svg="http://www.w3.org/2000/svg"
   xmlns="http://www.w3.org/2000/svg"
   xmlns:sodipodi="http://sodipodi.sourceforge.net/DTD/sodipodi-0.dtd"
   xmlns:inkscape="http://www.inkscape.org/namespaces/inkscape"
   width="173.06944mm"
   height="82.31617mm"
   viewBox="0 0 613.23817 291.67146"
   id="svg2"
   version="1.1"
   inkscape:version="0.91 r13725"
   sodipodi:docname="SphereBoundary.svg">
  <defs
     id="defs4" />
  <sodipodi:namedview
     id="base"
     pagecolor="#ffffff"
     bordercolor="#666666"
     borderopacity="1.0"
     inkscape:pageopacity="0.0"
     inkscape:pageshadow="2"
     inkscape:zoom="1.4"
     inkscape:cx="317.78488"
     inkscape:cy="179.67145"
     inkscape:document-units="px"
     inkscape:current-layer="layer1"
     showgrid="true"
     inkscape:window-width="1761"
     inkscape:window-height="709"
     inkscape:window-x="95"
     inkscape:window-y="210"
     inkscape:window-maximized="0"
     fit-margin-top="0"
     fit-margin-left="0"
     fit-margin-right="0"
     fit-margin-bottom="0">
    <inkscape:grid
       type="xygrid"
       id="grid4155"
       originx="-138.80773"
       originy="-359.87787" />
  </sodipodi:namedview>
  <metadata
     id="metadata7">
    <rdf:RDF>
      <cc:Work
         rdf:about="">
        <dc:format>image/svg+xml</dc:format>
        <dc:type
           rdf:resource="http://purl.org/dc/dcmitype/StillImage" />
        <dc:title />
      </cc:Work>
    </rdf:RDF>
  </metadata>
  <g
     inkscape:label="Layer 1"
     inkscape:groupmode="layer"
     id="layer1"
     transform="translate(-138.80772,-400.81285)">
    <path
       style="fill:#ff0000;fill-opacity:0.39215686;stroke:#000000;stroke-width:3;stroke-miterlimit:4;stroke-dasharray:none;stroke-dashoffset:0;stroke-opacity:1"
       id="path4168-3-9"
       sodipodi:type="arc"
       sodipodi:cx="270.841"
       sodipodi:cy="543.16309"
       sodipodi:rx="130.53334"
       sodipodi:ry="140.85023"
       sodipodi:start="3.1415927"
       sodipodi:end="0"
       d="M 140.30766,543.16308 A 130.53334,140.85023 0 0 1 270.84101,402.31285 130.53334,140.85023 0 0 1 401.37434,543.16309"
       sodipodi:open="true" />
    <path
       style="fill:#000000;fill-opacity:0;stroke:#000000;stroke-width:3;stroke-miterlimit:4;stroke-dasharray:3, 3;stroke-dashoffset:0;stroke-opacity:1"
       id="path4166-0-7"
       sodipodi:type="arc"
       sodipodi:cx="270.64606"
       sodipodi:cy="543.14673"
       sodipodi:rx="130"
       sodipodi:ry="50"
       sodipodi:start="3.1415927"
       sodipodi:end="0"
       d="m 140.64606,543.14673 a 130,50 0 0 1 130,-50 130,50 0 0 1 130,50"
       sodipodi:open="true" />
    <path
       style="fill:#ff0000;fill-opacity:0.39215686;stroke:#000000;stroke-width:3;stroke-miterlimit:4;stroke-dasharray:none;stroke-dashoffset:0;stroke-opacity:1"
       id="path4168-3-9-2"
       transform="scale(-1,-1)"
       d="m -401.62691,-543.06299 a 130.53334,140.85023 0 0 1 130.53335,-140.85023 130.53334,140.85023 0 0 1 130.53333,140.85023"
       sodipodi:type="arc"
       sodipodi:open="true"
       sodipodi:start="3.1415927"
       sodipodi:end="0"
       sodipodi:ry="140.85023"
       sodipodi:rx="130.53334"
       sodipodi:cy="-543.06299"
       sodipodi:cx="-271.09357" />
    <path
       style="fill:#000000;fill-opacity:0;stroke:#000000;stroke-width:3;stroke-miterlimit:4;stroke-dasharray:none;stroke-dashoffset:0;stroke-opacity:1"
       id="path4166-0-7-2"
       sodipodi:type="arc"
       sodipodi:cx="-270.64636"
       sodipodi:cy="-542.47803"
       sodipodi:rx="130"
       sodipodi:ry="50"
       sodipodi:start="3.1415927"
       sodipodi:end="0"
       d="m -400.64636,-542.47803 a 130,50 0 0 1 130,-50 130,50 0 0 1 130,50"
       sodipodi:open="true"
       transform="scale(-1,-1)" />
    <path
       style="fill:none;fill-rule:evenodd;stroke:#000000;stroke-width:1px;stroke-linecap:butt;stroke-linejoin:miter;stroke-opacity:1"
       d="m 289.99999,427.36219 -20,10"
       id="path4142"
       inkscape:connector-curvature="0" />
    <path
       style="fill:none;fill-rule:evenodd;stroke:#000000;stroke-width:1px;stroke-linecap:butt;stroke-linejoin:miter;stroke-opacity:1"
       d="m 269.99999,437.36219 5,15"
       id="path4144"
       inkscape:connector-curvature="0" />
    <path
       style="fill:none;fill-rule:evenodd;stroke:#000000;stroke-width:1px;stroke-linecap:butt;stroke-linejoin:miter;stroke-opacity:1"
       d="m 274.99999,452.36219 35,-5"
       id="path4146"
       inkscape:connector-curvature="0" />
    <path
       style="fill:none;fill-rule:evenodd;stroke:#000000;stroke-width:1px;stroke-linecap:butt;stroke-linejoin:miter;stroke-opacity:1"
       d="m 309.99999,447.36219 -20,-20"
       id="path4148"
       inkscape:connector-curvature="0" />
    <path
       style="fill:#ffffff;fill-opacity:0.39215686;stroke:#000000;stroke-width:0.75761437;stroke-miterlimit:4.30000019;stroke-dasharray:1.5152287, 0.75761434999999999;stroke-dashoffset:0;stroke-opacity:1"
       d="m 134.4006,44.169255 c -1.2302,-3.706068 -2.28733,-6.875012 -2.34918,-7.042098 -0.07,-0.189109 3.50298,-2.111998 9.46478,-5.093699 l 9.57723,-4.789908 9.44746,9.449983 c 5.1961,5.19749 9.38619,9.449982 9.31131,9.449982 -0.20983,0 -31.84753,4.512701 -32.57427,4.64629 -0.63047,0.115894 -0.67596,0.01123 -2.87733,-6.62055 z"
       id="path4150"
       inkscape:connector-curvature="0"
       transform="translate(138.80772,400.81283)" />
    <path
       style="fill:#ffffff;fill-opacity:0.39215686;stroke:#000000;stroke-width:0.53571427;stroke-miterlimit:4.30000019;stroke-dasharray:1.07142849, 0.53571425;stroke-dashoffset:0;stroke-opacity:1"
       d="m 136.98719,50.088747 c -0.16392,-0.34375 -0.42859,-0.625 -0.58814,-0.625 -0.22328,0 -0.26326,-0.106989 -0.17355,-0.464409 0.14342,-0.571425 -0.1989,-1.678448 -0.51901,-1.678448 -0.30457,0 -0.49496,-0.491528 -0.22523,-0.581439 0.29131,-0.0971 -0.16107,-1.561418 -0.48238,-1.561418 -0.31223,0 -0.5038,-0.490806 -0.22752,-0.582902 0.15411,-0.05137 0.12377,-0.346317 -0.11283,-1.096885 -0.23313,-0.739593 -0.39472,-0.999336 -0.57796,-0.929023 -0.16699,0.06408 -0.25434,-0.02312 -0.25434,-0.253937 0,-0.193346 0.0755,-0.351539 0.16773,-0.351539 0.0923,0 0.0428,-0.366647 -0.10989,-0.814771 -0.18956,-0.556336 -0.35604,-0.784676 -0.52487,-0.71989 -0.15903,0.06102 -0.24726,-0.03056 -0.24726,-0.256658 0,-0.193346 0.0755,-0.351538 0.16774,-0.351538 0.0922,0 0.0428,-0.366647 -0.10989,-0.814771 -0.20303,-0.595864 -0.35022,-0.786911 -0.54784,-0.711078 -0.22001,0.08443 -0.24872,-0.0038 -0.15454,-0.474692 0.0636,-0.318112 0.23636,-0.645922 0.38386,-0.728468 0.1475,-0.08255 0.21602,-0.234486 0.15227,-0.337645 -0.0638,-0.103159 -0.007,-0.254693 0.12546,-0.336742 0.13955,-0.08625 0.28964,-0.07108 0.35579,0.03595 0.0734,0.118752 0.38148,0.04889 0.85924,-0.194844 0.42742,-0.218055 0.69433,-0.461663 0.62634,-0.571667 -0.0652,-0.105429 -0.01,-0.25882 0.12291,-0.340869 0.13956,-0.08625 0.28965,-0.07108 0.3558,0.03595 0.0733,0.118626 0.38593,0.04662 0.87023,-0.200455 0.4157,-0.212073 0.70855,-0.432856 0.65077,-0.490629 -0.0578,-0.05777 -0.0147,-0.213872 0.0957,-0.346887 0.14271,-0.171954 0.2658,-0.187828 0.42593,-0.05493 0.33205,0.275575 1.51311,-0.325965 1.51311,-0.77066 0,-0.27747 0.086,-0.321834 0.44797,-0.230995 0.52717,0.132312 1.51632,-0.3196 1.51632,-0.692763 0,-0.349235 0.34845,-0.532495 0.57732,-0.303627 0.26282,0.262816 1.62981,-0.437966 1.50234,-0.770162 -0.11395,-0.296929 0.31086,-0.488065 0.55101,-0.24792 0.27143,0.271427 1.47647,-0.373546 1.47647,-0.790247 0,-0.275347 0.0868,-0.321646 0.43778,-0.233551 0.54069,0.135704 1.75245,-0.404415 1.62901,-0.7261 -0.11688,-0.304597 0.23791,-0.50465 0.47482,-0.267734 0.26282,0.262816 1.62981,-0.437966 1.50234,-0.770162 -0.11536,-0.300612 0.3122,-0.486727 0.55663,-0.242299 0.1207,0.120703 0.36963,0.08165 0.75724,-0.118786 l 0.57742,-0.298599 0.66543,0.649769 c 0.36598,0.357372 0.77832,0.625529 0.91631,0.595902 0.13798,-0.02963 0.25185,0.0825 0.25304,0.249169 0.003,0.411128 0.97947,1.404495 1.32601,1.348879 0.1603,-0.02573 0.27989,0.08414 0.28114,0.258264 0.003,0.411128 0.97946,1.404495 1.32601,1.348879 0.16029,-0.02573 0.27988,0.08414 0.28113,0.258264 0.003,0.411128 0.97946,1.404495 1.32601,1.348879 0.16029,-0.02573 0.27989,0.08414 0.28113,0.258264 0.003,0.411128 0.97946,1.404495 1.32601,1.348879 0.1603,-0.02573 0.27989,0.08414 0.28113,0.258264 0.003,0.411128 0.97947,1.404495 1.32601,1.348879 0.1603,-0.02573 0.27989,0.08414 0.28114,0.258264 0.003,0.411128 0.97946,1.404494 1.32601,1.348879 0.16029,-0.02573 0.27989,0.08414 0.28113,0.258264 0.003,0.411127 0.97946,1.404494 1.32601,1.348878 0.1603,-0.02573 0.27989,0.08414 0.28113,0.258264 0.003,0.411128 0.97947,1.404495 1.32601,1.348879 0.1603,-0.02573 0.27989,0.08414 0.28114,0.258264 0.003,0.411128 0.97946,1.404495 1.32601,1.348879 0.16029,-0.02573 0.27988,0.08414 0.28113,0.258264 0.003,0.411128 0.97946,1.404495 1.32601,1.348879 0.17484,-0.02806 0.27897,0.08853 0.27897,0.312372 0,0.196429 0.065,0.457589 0.14446,0.580357 0.0926,0.142997 0.0498,0.223215 -0.11904,0.223215 -0.14494,0 -0.2936,-0.09026 -0.33038,-0.200572 -0.0998,-0.299525 -1.57004,-0.01341 -1.57004,0.305554 0,0.138687 -0.16072,0.25216 -0.35715,0.25216 -0.19643,0 -0.35714,-0.09094 -0.35714,-0.202084 0,-0.319987 -1.41653,-0.05595 -1.72154,0.320884 -0.19069,0.235591 -0.29129,0.264924 -0.35813,0.104415 -0.0534,-0.12832 -0.41137,-0.223215 -0.84195,-0.223215 -0.55471,0 -0.83918,0.104227 -1.09661,0.401786 -0.32058,0.370563 -0.35269,0.376213 -0.41311,0.07272 -0.0479,-0.240389 -0.1694,-0.3012 -0.45102,-0.225654 -0.21202,0.05688 -0.5663,0.104515 -0.78728,0.105856 -0.23701,0.0014 -0.40179,0.112287 -0.40179,0.270294 0,0.301188 -0.65006,0.371247 -0.74697,0.08051 -0.0943,-0.282811 -1.57446,-0.0012 -1.57446,0.29946 0,0.295533 -0.4778,0.329474 -0.57403,0.04078 -0.0463,-0.13878 -0.33428,-0.164341 -0.89847,-0.07973 -0.62166,0.09322 -0.80547,0.189452 -0.73126,0.382829 0.0671,0.174993 -0.0222,0.258305 -0.27713,0.258305 -0.20694,0 -0.37625,-0.08036 -0.37625,-0.178571 0,-0.324086 -1.1818,-0.190327 -1.61156,0.1824 -0.31482,0.273048 -0.44982,0.306575 -0.55422,0.137648 -0.21467,-0.347345 -1.43925,-0.167936 -1.85072,0.271143 -0.32956,0.351664 -0.36038,0.355811 -0.41807,0.05623 -0.0453,-0.235134 -0.16752,-0.295189 -0.44779,-0.220004 -0.21202,0.05688 -0.5663,0.104515 -0.78728,0.105856 -0.23701,0.0014 -0.40179,0.112287 -0.40179,0.270294 0,0.301188 -0.65006,0.371247 -0.74697,0.08051 -0.0943,-0.282811 -1.57446,-0.0013 -1.57446,0.29946 0,0.295532 -0.4778,0.329474 -0.57404,0.04078 -0.0463,-0.13878 -0.33427,-0.164341 -0.89846,-0.07973 -0.62166,0.09322 -0.80547,0.189452 -0.73127,0.382829 0.0672,0.174993 -0.0222,0.258305 -0.27712,0.258305 -0.20694,0 -0.37625,-0.08036 -0.37625,-0.178571 0,-0.358325 -1.22538,-0.190066 -1.60818,0.220821 -0.31251,0.335441 -0.39799,0.357482 -0.53386,0.137647 -0.2377,-0.384613 -1.43527,-0.235931 -1.87446,0.232723 -0.32713,0.349077 -0.36075,0.353884 -0.4174,0.05969 -0.0385,-0.199779 -0.16185,-0.2815 -0.32847,-0.217566 -0.14676,0.05632 -0.50134,0.102398 -0.78795,0.102398 -0.34416,0 -0.52111,0.09095 -0.52111,0.267857 0,0.492134 -0.46601,0.275314 -0.76761,-0.357143 z"
       id="path4152"
       inkscape:connector-curvature="0"
       transform="translate(138.80772,400.81283)" />
    <path
       style="fill:#ffffff;fill-opacity:0.39215686;stroke:#000000;stroke-width:0.53571427;stroke-miterlimit:4.30000019;stroke-dasharray:1.07142849, 0.53571425;stroke-dashoffset:0;stroke-opacity:1"
       d="m 137.14197,49.725122 c -0.16546,-0.252537 -0.47697,-0.530098 -0.69222,-0.616803 -0.3362,-0.135424 -0.34438,-0.159243 -0.0581,-0.168966 0.25688,-0.0087 0.30863,-0.103466 0.22565,-0.413106 -0.0592,-0.220982 -0.10877,-0.502232 -0.11011,-0.625 -0.001,-0.122768 -0.13157,-0.223214 -0.2894,-0.223214 -0.16117,0 -0.24816,-0.101129 -0.19844,-0.230695 0.0487,-0.126882 -0.0213,-0.380946 -0.15562,-0.564587 -0.13684,-0.187138 -0.19794,-0.517991 -0.13902,-0.752748 0.0644,-0.256765 -0.0189,-0.608131 -0.21534,-0.907947 -0.17625,-0.268999 -0.3286,-0.674897 -0.33854,-0.901996 -0.01,-0.227099 -0.11838,-0.474902 -0.24098,-0.550672 -0.1226,-0.07577 -0.17117,-0.272586 -0.10794,-0.437368 0.0632,-0.164781 -0.0144,-0.497047 -0.17252,-0.738369 -0.15812,-0.241322 -0.2875,-0.645009 -0.2875,-0.897083 0,-0.252073 -0.12293,-0.505488 -0.27317,-0.563144 -0.17189,-0.06596 -0.23381,-0.228872 -0.167,-0.439379 0.0776,-0.244507 -0.0213,-0.392614 -0.3673,-0.550284 -0.42936,-0.195626 -0.44534,-0.236317 -0.1715,-0.436557 0.24205,-0.176993 0.26728,-0.320539 0.12709,-0.723211 -0.0962,-0.276314 -0.2653,-0.482299 -0.37579,-0.457746 -0.2172,0.04827 -0.21693,0.04902 -0.28816,-0.78968 -0.0334,-0.393145 0.02,-0.540308 0.17467,-0.480972 0.12254,0.04702 0.26784,-0.08675 0.3229,-0.297279 0.067,-0.25633 0.20751,-0.358565 0.42525,-0.30949 0.44056,0.09929 1.3073,-0.346118 1.3073,-0.671807 0,-0.173477 0.18272,-0.263272 0.53571,-0.263272 0.36738,0 0.53572,-0.08795 0.53572,-0.279891 0,-0.190083 0.10498,-0.24657 0.32718,-0.176047 0.20264,0.06431 0.45109,-0.03307 0.65268,-0.255823 0.18558,-0.205071 0.55105,-0.359667 0.85025,-0.359667 0.34935,0 0.55227,-0.104454 0.60708,-0.3125 0.083,-0.315122 1.27681,-1.001102 1.59026,-0.913803 0.30015,0.0836 0.93668,-0.20838 1.03973,-0.476924 0.0551,-0.143582 0.2996,-0.261059 0.54334,-0.261059 0.24374,0 0.52152,-0.140016 0.61729,-0.311147 0.0958,-0.171131 0.31811,-0.311756 0.4941,-0.3125 0.17599,-7.5e-4 0.4043,-0.16998 0.50737,-0.37608 0.14774,-0.295453 0.25041,-0.334975 0.48528,-0.186818 0.39311,0.247965 1.21401,-0.177591 1.21401,-0.629344 0,-0.24425 0.13553,-0.326968 0.53571,-0.326968 0.29465,0 0.53572,-0.08577 0.53572,-0.190605 0,-0.107674 0.15141,-0.142547 0.34801,-0.08015 0.22467,0.07131 0.47782,-0.01936 0.71428,-0.255824 0.20146,-0.201453 0.48024,-0.366277 0.61953,-0.366277 0.4488,0 0.81818,-0.210175 0.81818,-0.465534 0,-0.136814 0.16824,-0.248752 0.37386,-0.248752 0.22217,0 0.4113,-0.143172 0.46614,-0.352877 0.0741,-0.283527 0.15828,-0.317555 0.4281,-0.173151 0.24478,0.131002 0.48854,0.100748 0.89917,-0.111599 0.50223,-0.259713 0.55173,-0.261013 0.45617,-0.01199 -0.12698,0.33089 0.67349,1.032361 1.02439,0.897707 0.1479,-0.05676 0.27178,0.10892 0.34128,0.456406 0.0786,0.392782 0.21034,0.545503 0.47071,0.545503 0.19958,0 0.36161,0.117964 0.36161,0.263271 0,0.1448 0.2383,0.386505 0.52957,0.537123 0.31906,0.164992 0.4922,0.371221 0.43557,0.5188 -0.11445,0.298244 0.75164,1.017479 1.07555,0.893183 0.1479,-0.05676 0.27178,0.10892 0.34128,0.456406 0.0786,0.392782 0.21034,0.545503 0.47071,0.545503 0.19958,0 0.3616,0.117964 0.3616,0.263271 0,0.144799 0.23831,0.386504 0.52957,0.537122 0.31906,0.164993 0.49221,0.371221 0.43558,0.518801 -0.11445,0.298244 0.75163,1.017478 1.07554,0.893182 0.1479,-0.05675 0.27179,0.108921 0.34128,0.456407 0.0786,0.392782 0.21034,0.545502 0.47071,0.545502 0.19958,0 0.36161,0.117965 0.36161,0.263272 0,0.144799 0.23831,0.386504 0.52957,0.537122 0.31906,0.164993 0.4922,0.371221 0.43557,0.518801 -0.11444,0.298244 0.75164,1.017478 1.07555,0.893182 0.1479,-0.05675 0.27178,0.108921 0.34128,0.456406 0.0786,0.392783 0.21034,0.545503 0.47071,0.545503 0.19958,0 0.3616,0.117964 0.3616,0.263272 0,0.144799 0.23831,0.386504 0.52957,0.537122 0.31906,0.164993 0.49221,0.371221 0.43558,0.518801 -0.11445,0.298244 0.75163,1.017478 1.07554,0.893182 0.1479,-0.05676 0.27179,0.10892 0.34129,0.456406 0.0786,0.392782 0.21033,0.545503 0.4707,0.545503 0.19959,0 0.36161,0.117964 0.36161,0.263271 0,0.1448 0.23831,0.386505 0.52957,0.537123 0.31906,0.164992 0.49221,0.371221 0.43557,0.5188 -0.10234,0.266712 0.77147,1.053658 1.0078,0.907603 0.0799,-0.04937 0.19571,-0.0081 0.2574,0.09172 0.065,0.105091 -0.0825,0.181484 -0.35041,0.181484 -0.25692,0 -0.51072,0.125479 -0.57087,0.282244 -0.065,0.169286 -0.24132,0.247463 -0.44065,0.195336 -0.18279,-0.0478 -0.37734,-0.01409 -0.43234,0.0749 -0.13924,0.225297 -0.74973,0.202984 -0.82747,-0.03024 -0.0995,-0.29847 -1.07148,0.01682 -1.16599,0.378216 -0.0772,0.29518 -0.11403,0.296362 -0.60509,0.01943 -0.44951,-0.253499 -0.54557,-0.258904 -0.68445,-0.03851 -0.12575,0.199543 -0.2177,0.209782 -0.41482,0.04619 -0.13929,-0.1156 -0.3085,-0.154934 -0.37602,-0.08741 -0.0675,0.06753 -0.48993,0.13517 -0.93868,0.150321 -0.44874,0.01516 -0.88022,0.131633 -0.95884,0.258843 -0.0786,0.127211 -0.26902,0.182915 -0.42311,0.123784 -0.15409,-0.05913 -0.32766,-0.03066 -0.38571,0.06326 -0.13878,0.224552 -0.75235,0.220159 -0.82851,-0.0059 -0.0391,-0.116168 -0.28289,-0.114961 -0.71153,0.0035 -0.54945,0.151882 -0.63753,0.242868 -0.55999,0.578491 l 0.092,0.398262 -0.29835,-0.401785 c -0.29696,-0.399913 -0.99239,-0.559461 -0.99239,-0.227677 0,0.09658 -0.22889,0.128328 -0.51405,0.0713 -0.28274,-0.05655 -0.56546,-0.01965 -0.62828,0.08199 -0.065,0.105184 -0.38977,0.140086 -0.75381,0.08101 -0.44018,-0.07143 -0.68662,-0.0277 -0.79042,0.140243 -0.083,0.13422 -0.37625,0.248859 -0.65177,0.254752 -0.27553,0.0059 -0.61675,0.08284 -0.75827,0.170989 -0.16614,0.103477 -0.28215,0.08579 -0.32738,-0.04992 -0.0947,-0.283973 -0.6108,-0.265418 -1.02413,0.03682 -0.25933,0.189628 -0.41496,0.2 -0.67,0.04464 -0.26998,-0.164458 -0.38419,-0.135465 -0.60968,0.15478 -0.19186,0.246946 -0.30329,0.28827 -0.36115,0.133929 -0.11328,-0.302179 -0.4974,-0.281649 -0.76509,0.04089 -0.16167,0.194801 -0.30702,0.217096 -0.55391,0.08496 -0.37448,-0.200414 -1.23491,-0.0475 -1.23491,0.219463 0,0.09497 -0.22103,0.149487 -0.49118,0.12115 -0.27015,-0.02834 -0.60693,0.02001 -0.74839,0.107444 -0.16513,0.102052 -0.28226,0.08382 -0.32717,-0.05092 -0.0732,-0.219711 -0.88675,-0.109618 -1.18252,0.160031 -0.088,0.08021 -0.38932,0.09997 -0.66964,0.04391 -0.33255,-0.06651 -0.50968,-0.02794 -0.50968,0.110993 0,0.134118 -0.13692,0.169468 -0.36994,0.09551 -0.23935,-0.07597 -0.50069,-0.0014 -0.74037,0.211182 -0.26846,0.238136 -0.39193,0.267147 -0.44851,0.105381 -0.11121,-0.317936 -1.29832,-0.292413 -1.29832,0.02791 0,0.198257 -0.24876,0.234893 -1.18157,0.174014 -0.67759,-0.04422 -1.27729,0.0023 -1.40599,0.109136 -0.16517,0.137084 -0.30384,0.06504 -0.52527,-0.272904 z"
       id="path4154"
       inkscape:connector-curvature="0"
       transform="translate(138.80772,400.81283)" />
    <path
       style="fill:#ffffff;fill-opacity:0.39215686;stroke:#000000;stroke-width:0.53571427;stroke-miterlimit:4.30000019;stroke-dasharray:1.07142849, 0.53571425;stroke-dashoffset:0;stroke-opacity:1"
       d="m 137.34635,49.413004 c -0.16749,-0.315841 -0.35442,-0.832278 -0.41539,-1.147639 -0.061,-0.315359 -0.2019,-0.55643 -0.31316,-0.535714 -0.11125,0.02072 -0.22859,-0.192464 -0.26075,-0.473736 -0.037,-0.32337 -0.1847,-0.544414 -0.40179,-0.601184 -0.40552,-0.106048 -0.46124,-0.405269 -0.0755,-0.405269 0.31299,0 0.33241,-0.164122 0.0937,-0.791947 -0.0958,-0.251929 -0.29668,-0.458053 -0.44643,-0.458053 -0.14975,0 -0.27228,-0.08036 -0.27228,-0.178572 0,-0.09821 0.0858,-0.178571 0.19061,-0.178571 0.24398,0 0.0384,-0.698009 -0.32869,-1.116072 -0.17368,-0.197784 -0.19851,-0.3125 -0.0676,-0.3125 0.14883,0 0.13818,-0.162589 -0.038,-0.580357 -0.13462,-0.319196 -0.33574,-0.560268 -0.44694,-0.535714 -0.2498,0.05516 -0.26778,-0.250872 -0.0236,-0.401786 0.27228,-0.168278 0.21569,-0.397934 -0.19155,-0.777328 -0.20356,-0.189647 -0.38662,-0.453939 -0.4068,-0.587314 -0.0202,-0.133375 -0.10227,-0.347514 -0.18242,-0.475864 -0.0801,-0.12835 -0.0945,-0.437376 -0.0319,-0.686724 0.1328,-0.529108 -0.15468,-0.954913 -0.6447,-0.954913 -0.33031,0 -0.32952,-0.01365 0.0229,-0.391892 0.20081,-0.215541 0.32343,-0.523206 0.27249,-0.6837 -0.0758,-0.238683 0.0106,-0.276654 0.47452,-0.208569 0.4157,0.06101 0.63294,-0.0068 0.81358,-0.253801 0.13555,-0.185371 0.30326,-0.343978 0.37269,-0.35246 0.29023,-0.03546 0.85301,-0.335185 1.0191,-0.542759 0.0982,-0.122743 0.41965,-0.248259 0.71429,-0.278923 0.3996,-0.04159 0.52205,-0.136597 0.48193,-0.373948 -0.0434,-0.256883 0.0315,-0.296787 0.3889,-0.20709 0.70152,0.176068 1.21934,-0.06022 1.08179,-0.493622 -0.073,-0.22999 -0.0477,-0.322946 0.0684,-0.251187 0.25948,0.160367 1.10394,-0.255985 1.10394,-0.544284 0,-0.131556 0.0804,-0.239193 0.17857,-0.239193 0.0982,0 0.17857,0.08036 0.17857,0.178571 0,0.324245 0.54471,0.18581 0.97944,-0.248918 0.23512,-0.235119 0.46648,-0.388496 0.51414,-0.340838 0.18385,0.183849 0.81512,-0.160239 0.92413,-0.503721 0.0638,-0.201065 0.21862,-0.320991 0.3495,-0.270766 0.12922,0.04959 0.37825,-0.06818 0.55338,-0.261707 0.2293,-0.253366 0.45318,-0.32227 0.79978,-0.246144 0.37684,0.08277 0.55925,0.0067 0.84012,-0.350378 0.19732,-0.250855 0.47799,-0.456099 0.6237,-0.456099 0.14572,0 0.36648,-0.12235 0.49059,-0.271889 0.1241,-0.149539 0.36192,-0.228637 0.52848,-0.175773 0.17802,0.0565 0.49975,-0.08638 0.78059,-0.346651 0.26276,-0.243522 0.59046,-0.399518 0.72821,-0.346657 0.14658,0.05625 0.41882,-0.131607 0.65636,-0.452889 0.28579,-0.386561 0.55446,-0.548999 0.90802,-0.548999 0.27617,0 0.50213,-0.08036 0.50213,-0.178571 0,-0.28161 0.4862,-0.208031 0.60093,0.09094 0.0569,0.148232 0.2061,0.248679 0.3316,0.223214 0.12551,-0.02546 0.20841,0.0532 0.18425,0.174812 -0.0242,0.121611 0.23617,0.338151 0.57854,0.481201 0.4238,0.177075 0.59014,0.344362 0.52116,0.524122 -0.0954,0.248555 0.55676,0.773006 0.85665,0.688915 0.0697,-0.01954 0.25964,0.244639 0.42213,0.587062 0.16249,0.342424 0.40682,0.622589 0.54295,0.622589 0.13613,0 0.24751,0.123125 0.24751,0.273612 0,0.285337 0.69399,0.642145 0.95203,0.489473 0.0816,-0.04831 0.12183,0.101749 0.0893,0.333467 -0.0461,0.327861 0.0687,0.480715 0.51731,0.689162 0.31707,0.147322 0.57823,0.365898 0.58036,0.485726 0.002,0.119828 0.24178,0.393767 0.53257,0.608755 0.29078,0.214987 0.48138,0.467449 0.42355,0.561025 -0.13918,0.225192 0.28389,0.481201 0.80085,0.484617 0.32158,0.0021 0.39034,0.07672 0.30847,0.334666 -0.11569,0.364486 0.15374,0.660325 0.70628,0.77553 0.19643,0.04095 0.3377,0.168208 0.31393,0.282784 -0.0238,0.114576 0.19722,0.386076 0.49107,0.603333 0.29386,0.217258 0.53429,0.532019 0.53429,0.69947 0,0.322245 0.3443,0.521237 0.90185,0.521237 0.2274,0 0.30324,0.08782 0.23328,0.270132 -0.13444,0.350335 0.24401,0.801297 0.67245,0.801297 0.1844,0 0.33527,0.115064 0.33527,0.255697 0,0.140634 0.23228,0.421092 0.51617,0.623241 0.28389,0.202148 0.50487,0.506907 0.49107,0.677242 -0.0158,0.195214 0.17294,0.378883 0.51062,0.49685 0.29464,0.102933 0.56241,0.305602 0.59504,0.450376 0.10422,0.462493 0.44127,0.738368 0.79052,0.647038 0.23708,-0.062 0.31043,-0.014 0.24382,0.159576 -0.0542,0.141364 0.1329,0.426813 0.43467,0.66298 0.40257,0.315064 0.54792,0.595586 0.60479,1.167294 0.0412,0.41391 -5e-5,0.752563 -0.0916,0.752563 -0.0916,0 -0.16649,-0.08131 -0.16649,-0.180682 0,-0.110784 -0.27633,-0.136495 -0.71429,-0.06646 -0.44651,0.0714 -0.71429,0.04499 -0.71429,-0.07046 0,-0.242791 -0.64628,-0.06879 -0.90575,0.243861 -0.15212,0.183286 -0.29172,0.19742 -0.55552,0.05624 -0.19379,-0.103713 -0.48669,-0.131459 -0.65089,-0.06166 -0.1642,0.0698 -0.59989,0.110022 -0.96819,0.08938 -0.38915,-0.02181 -0.66965,0.04441 -0.66965,0.158098 0,0.118771 -0.17296,0.152218 -0.44026,0.08513 -0.30067,-0.07546 -0.58771,0.0055 -0.9053,0.255304 -0.3708,0.291668 -0.5574,0.330689 -0.92075,0.192543 -0.32061,-0.121895 -0.5327,-0.109352 -0.71544,0.04231 -0.20391,0.169229 -0.29033,0.166091 -0.402,-0.01459 -0.10531,-0.170388 -0.23342,-0.18138 -0.49324,-0.04233 -0.19304,0.103313 -0.52469,0.142416 -0.73699,0.0869 -0.2405,-0.06289 -0.38602,-0.01848 -0.38602,0.117812 0,0.146091 -0.15333,0.180272 -0.46161,0.102899 -0.61957,-0.155502 -1.15307,0.02828 -1.02802,0.354139 0.0546,0.142286 0.0103,0.258707 -0.0984,0.258707 -0.10873,0 -0.19768,-0.125627 -0.19768,-0.279171 0,-0.207393 -0.14922,-0.264784 -0.58036,-0.223215 -0.41181,0.03971 -0.57387,0.1424 -0.55803,0.353609 0.0182,0.243198 -0.0928,0.278964 -0.60713,0.195504 -0.48484,-0.07868 -0.68485,-0.0264 -0.87054,0.22755 -0.22936,0.313662 -0.24108,0.310668 -0.24108,-0.06157 0,-0.500052 -0.57926,-0.526306 -1.05762,-0.04794 -0.27826,0.278261 -0.36182,0.295184 -0.44083,0.08929 -0.13077,-0.340786 -0.55183,-0.321121 -0.91572,0.04277 -0.24766,0.247664 -0.32219,0.255766 -0.45002,0.04893 -0.12536,-0.202846 -0.25048,-0.175966 -0.68858,0.147932 -0.3149,0.232816 -0.58039,0.322974 -0.6447,0.218927 -0.198,-0.320366 -0.95444,-0.186043 -1.23884,0.219984 -0.15289,0.21828 -0.27798,0.307225 -0.27798,0.19765 0,-0.300307 -2.21372,-0.191634 -2.60039,0.127657 -0.24136,0.199293 -0.33234,0.207939 -0.38986,0.03705 -0.0931,-0.27672 -0.96614,-0.09459 -1.16681,0.243429 -0.10518,0.177158 -0.25706,0.189675 -0.62129,0.0512 -0.33549,-0.127552 -0.50131,-0.125598 -0.54532,0.0064 -0.0852,0.255696 -0.52212,0.241621 -0.6092,-0.01963 -0.0454,-0.136129 -0.27811,-0.05807 -0.66547,0.223214 -0.41894,0.304207 -0.61901,0.366323 -0.67427,0.209341 -0.10777,-0.306128 -0.9386,-0.281344 -1.29208,0.03854 -0.2587,0.234122 -0.32139,0.201127 -0.59376,-0.3125 l 0,-2e-6 z"
       id="path4156"
       inkscape:connector-curvature="0"
       transform="translate(138.80772,400.81283)" />
    <path
       style="fill:#ffffff;fill-opacity:0.39215686;stroke:#000000;stroke-width:0.53571427;stroke-miterlimit:4.30000019;stroke-dasharray:1.07142849, 0.53571425;stroke-dashoffset:0;stroke-opacity:1"
       d="m 139.31282,49.302138 c -0.40099,-0.230471 -0.52349,-0.24025 -0.64194,-0.05125 -0.25247,0.402834 -1.04853,0.06636 -1.25685,-0.53123 -0.11733,-0.336563 -0.26274,-0.485086 -0.39494,-0.403384 -0.14871,0.0919 -0.17617,-0.0024 -0.095,-0.326016 0.0861,-0.342977 0.008,-0.557575 -0.31625,-0.869698 -0.32852,-0.31619 -0.39025,-0.489631 -0.26052,-0.732019 0.11517,-0.215211 0.1065,-0.317651 -0.0269,-0.317651 -0.11716,0 -0.14989,-0.148087 -0.0808,-0.365712 0.064,-0.201749 0.0157,-0.486697 -0.10788,-0.635565 -0.12318,-0.148419 -0.24613,-0.477844 -0.27324,-0.732057 -0.0271,-0.254212 -0.13385,-0.546779 -0.23722,-0.650149 -0.10337,-0.10337 -0.18795,-0.395065 -0.18795,-0.648212 0,-0.253147 -0.1177,-0.628305 -0.26155,-0.833686 -0.14385,-0.20538 -0.21687,-0.418097 -0.16227,-0.472704 0.21422,-0.214221 -0.15209,-0.840486 -0.49161,-0.840486 -0.1956,0 -0.30827,-0.07666 -0.25036,-0.170359 0.17241,-0.278966 -0.10304,-1.079641 -0.37142,-1.079641 -0.32759,0 -0.31515,-0.179752 0.0299,-0.432051 0.22103,-0.161624 0.24034,-0.30365 0.0937,-0.689329 -0.10158,-0.26717 -0.25951,-0.485763 -0.35096,-0.485763 -0.0915,0 -0.12425,-0.160714 -0.0729,-0.357143 0.0574,-0.219576 0.24357,-0.357143 0.48328,-0.357143 0.47329,0 0.823,-0.316102 0.70111,-0.633731 -0.0611,-0.159192 0.0225,-0.203808 0.26356,-0.140758 0.46937,0.122743 1.15715,-0.257455 1.03615,-0.572773 -0.0524,-0.136644 -0.0185,-0.295938 0.0754,-0.353987 0.0939,-0.05805 0.17077,-0.02044 0.17077,0.08357 0,0.2661 0.48503,0.234969 1.04388,-0.067 0.26069,-0.140861 0.70444,-0.305486 0.98612,-0.365834 0.28168,-0.06035 0.46318,-0.158687 0.40333,-0.218531 -0.18085,-0.180854 0.26466,-0.588097 0.64335,-0.588097 0.24955,0 0.32237,-0.08343 0.24617,-0.282007 -0.0884,-0.230508 -0.0145,-0.261435 0.40468,-0.169356 0.37956,0.08337 0.54167,0.03768 0.62357,-0.175739 0.0609,-0.158615 0.18993,-0.239404 0.28681,-0.17953 0.21435,0.13248 0.93244,-0.224333 1.13199,-0.562478 0.0797,-0.135049 0.22911,-0.193501 0.33203,-0.129894 0.10292,0.06361 0.3838,-0.113232 0.62418,-0.392978 0.28809,-0.335265 0.61491,-0.512116 0.95886,-0.518858 0.287,-0.0056 0.61365,-0.102065 0.72589,-0.214311 0.11225,-0.112245 0.30516,-0.165299 0.42869,-0.117896 0.12352,0.0474 0.40143,-0.138628 0.61757,-0.413401 0.21614,-0.274773 0.48697,-0.50849 0.60186,-0.519371 0.11488,-0.01088 0.43846,-0.03202 0.71905,-0.04698 0.3743,-0.01995 0.4828,-0.09854 0.40739,-0.295056 -0.0722,-0.18816 0.0151,-0.268583 0.2934,-0.270295 0.73397,-0.0045 1.20683,-0.211227 1.15798,-0.506204 -0.0261,-0.157803 0.0328,-0.299528 0.13106,-0.314944 0.47399,-0.0744 0.98214,-0.305797 0.98214,-0.447241 0,-0.08676 0.16071,-0.157745 0.35714,-0.157745 0.19643,0 0.35715,0.08036 0.35715,0.178572 0,0.09821 0.0767,0.178571 0.17045,0.178571 0.0937,0 0.37634,0.205884 0.62797,0.457519 0.34028,0.340272 0.55937,0.425194 0.85493,0.331385 0.35476,-0.112596 0.37096,-0.09426 0.15096,0.170831 -0.212,0.255439 -0.20169,0.346436 0.0737,0.650758 0.1761,0.194586 0.47318,0.353793 0.66018,0.353793 0.187,0 0.29192,0.07781 0.23315,0.1729 -0.18537,0.299936 1.3664,1.791084 1.86706,1.79412 0.34537,0.0021 0.38985,0.04133 0.1901,0.16767 -0.41285,0.26114 0.29272,0.954131 0.83331,0.818451 0.41663,-0.104569 0.59024,0.171169 0.19145,0.304097 -0.13955,0.04652 -0.0466,0.244219 0.25794,0.548796 0.30594,0.305938 0.59131,0.439606 0.7985,0.374018 0.29824,-0.09441 0.29723,-0.08147 -0.0135,0.172559 -0.32144,0.262765 -0.30795,0.291143 0.3125,0.657216 0.35664,0.210426 0.64844,0.492364 0.64844,0.626529 0,0.134164 0.18081,0.340485 0.40179,0.458489 0.22098,0.118004 0.61519,0.442646 0.87602,0.721426 0.33521,0.358288 0.57077,0.470647 0.80357,0.383296 0.29768,-0.111697 0.30414,-0.09264 0.0673,0.19818 -0.23589,0.28963 -0.21806,0.355265 0.17857,0.657316 0.24235,0.184557 0.49689,0.396329 0.56564,0.470604 0.0687,0.07428 0.3048,0.330918 0.52455,0.570315 0.24715,0.269231 0.42652,0.354378 0.47024,0.223215 0.0389,-0.11663 0.14182,-0.212054 0.22877,-0.212054 0.087,0 0.11422,0.114323 0.0606,0.25405 -0.12756,0.332415 0.56166,1.016494 0.89519,0.888509 0.19073,-0.07319 0.23326,-0.0014 0.16155,0.272858 -0.14831,0.567126 0.26107,0.938745 0.91077,0.826766 0.30354,-0.05232 0.45146,-0.04919 0.32869,0.0069 -0.12277,0.05614 -0.22322,0.215905 -0.22322,0.355042 0,0.319439 0.67816,1.010667 0.87326,0.890089 0.0803,-0.04961 0.24033,0.11695 0.35569,0.370134 0.15158,0.332673 0.30733,0.434812 0.56165,0.368307 0.19355,-0.05061 0.39691,-0.01921 0.45191,0.06978 0.055,0.08899 0.0149,0.161808 -0.0891,0.161808 -0.10402,0 -0.18912,0.160714 -0.18912,0.357143 0,0.380973 -0.0183,0.387806 -1.25,0.465649 -2.01054,0.12707 -2.35188,0.185526 -2.52312,0.432096 -0.13816,0.198924 -0.2047,0.208606 -0.27321,0.03975 -0.13002,-0.320434 -0.77905,-0.274988 -1.17372,0.08218 -0.22657,0.205038 -0.37789,0.241767 -0.46049,0.111766 -0.18722,-0.29466 -0.9086,0.04442 -1.09805,0.516134 -0.13738,0.34205 -0.16484,0.353115 -0.17437,0.07026 -0.01,-0.291184 -0.11793,-0.323708 -0.81489,-0.24515 -0.44197,0.04982 -0.80357,0.03401 -0.80357,-0.03513 0,-0.06914 -0.24108,-0.09033 -0.53572,-0.04708 -0.29464,0.04324 -0.53571,0.160134 -0.53571,0.259753 0,0.111493 -0.27635,0.136938 -0.71881,0.06619 -0.53343,-0.0853 -0.74365,-0.05019 -0.81515,0.136136 -0.10334,0.269295 -0.98184,0.307603 -1.16655,0.05087 -0.15831,-0.220033 -0.87092,0.200187 -0.87092,0.513571 0,0.143866 -0.0804,0.261575 -0.17857,0.261575 -0.0982,0 -0.17857,-0.08611 -0.17857,-0.191352 0,-0.105243 -0.18081,-0.173652 -0.40179,-0.152019 -0.22098,0.02163 -0.54754,-0.02336 -0.72567,-0.09998 -0.1805,-0.07764 -0.52102,-0.04949 -0.76916,0.06357 -0.24491,0.111584 -0.63001,0.156514 -0.8558,0.09985 -0.24838,-0.06234 -0.51689,0.0033 -0.67982,0.166259 -0.18448,0.184478 -0.32713,0.211457 -0.45293,0.08566 -0.24359,-0.243586 -0.93626,0.121512 -0.93626,0.493489 0,0.244061 -0.031,0.243366 -0.28062,-0.0063 -0.38505,-0.385059 -0.91859,-0.352032 -1.14493,0.07087 -0.15519,0.289973 -0.2677,0.321225 -0.6429,0.178571 -0.5902,-0.224389 -0.61012,-0.221289 -0.61012,0.09495 0,0.335791 -0.28699,0.351118 -0.41325,0.02207 -0.11933,-0.310968 -1.02411,-0.163304 -1.30057,0.212257 -0.14054,0.190923 -0.23189,0.208053 -0.32304,0.06058 -0.15578,-0.252062 -0.99886,-0.274894 -0.99886,-0.02705 0,0.09821 -0.30536,0.178571 -0.67857,0.178571 -0.37321,0 -0.76593,0.08736 -0.8727,0.19413 -0.1398,0.139795 -0.22772,0.139795 -0.31411,0 -0.19138,-0.309662 -1.05019,-0.246818 -0.92938,0.06801 0.1498,0.390367 -0.0905,0.431938 -0.64722,0.111968 z"
       id="path4158"
       inkscape:connector-curvature="0"
       transform="translate(138.80772,400.81283)" />
    <path
       style="fill:#ffffff;fill-opacity:0.39215686;stroke:#000000;stroke-width:0.53571427;stroke-miterlimit:4.30000019;stroke-dasharray:1.07142849, 0.53571425;stroke-dashoffset:0;stroke-opacity:1"
       d="m 138.11194,49.261699 c 0,-0.154834 -0.19538,-0.492334 -0.43418,-0.750004 -0.23879,-0.257667 -0.45978,-0.691276 -0.49107,-0.963575 -0.0339,-0.295166 -0.1648,-0.495087 -0.32411,-0.495087 -0.20001,0 -0.25272,-0.168454 -0.20954,-0.669643 0.0317,-0.368303 -0.0177,-0.669643 -0.10979,-0.669643 -0.0921,0 -0.13059,-0.193028 -0.0855,-0.428952 0.051,-0.266806 -0.0427,-0.554077 -0.24797,-0.759968 -0.18149,-0.182058 -0.33896,-0.600193 -0.34995,-0.929188 -0.011,-0.328994 -0.1176,-0.658512 -0.23692,-0.73226 -0.11933,-0.07375 -0.20127,-0.246068 -0.18209,-0.382932 0.0915,-0.652734 -0.0274,-1.230985 -0.25298,-1.230985 -0.13505,0 -0.29375,-0.241072 -0.35268,-0.535715 -0.0617,-0.308579 -0.22034,-0.535714 -0.37412,-0.535714 -0.20968,0 -0.25571,-0.201177 -0.21446,-0.9375 0.0289,-0.515625 -0.0165,-1.078125 -0.10092,-1.25 -0.1122,-0.22854 -0.0798,-0.3125 0.12072,-0.3125 0.15077,0 0.41586,-0.140625 0.58908,-0.3125 0.17323,-0.171875 0.53483,-0.411224 0.80358,-0.531886 0.26874,-0.120662 0.48862,-0.330501 0.48862,-0.466309 0,-0.167093 0.14433,-0.219332 0.44643,-0.161582 0.33652,0.06433 0.44643,0.0096 0.44643,-0.22244 0,-0.207099 0.0923,-0.272375 0.28204,-0.199548 0.39932,0.153234 1.14653,-0.06546 1.14653,-0.335572 0,-0.124759 0.23529,-0.324298 0.52288,-0.44342 0.28759,-0.119121 0.56844,-0.335304 0.62412,-0.480405 0.0611,-0.159312 0.22912,-0.223233 0.42406,-0.161362 0.17755,0.05635 0.73825,-0.09795 1.24601,-0.342905 0.72908,-0.351721 0.89842,-0.511476 0.80534,-0.759789 -0.0994,-0.265191 -0.0746,-0.27933 0.15819,-0.0903 0.22667,0.184036 0.35897,0.158903 0.7396,-0.140498 0.27186,-0.21385 0.42209,-0.472672 0.36328,-0.625915 -0.0551,-0.143708 -0.018,-0.261287 0.0825,-0.261287 0.10054,0 0.20958,0.07374 0.24232,0.163866 0.10861,0.298998 1.06664,-0.02259 1.2234,-0.410666 0.12336,-0.305389 0.15495,-0.318037 0.16409,-0.0657 0.0149,0.410232 0.21624,0.394352 0.79753,-0.06289 0.36129,-0.284192 0.43011,-0.432169 0.28327,-0.609102 -0.1344,-0.161944 -0.13647,-0.269247 -0.007,-0.349434 0.10298,-0.06365 0.18724,-0.02577 0.18724,0.08417 0,0.121789 0.26164,0.178236 0.66964,0.144468 0.41877,-0.03466 0.65292,-0.139049 0.625,-0.278637 -0.0259,-0.129552 0.13733,-0.223214 0.38903,-0.223214 0.41805,0 0.9949,-0.408607 0.9949,-0.70472 0,-0.07892 0.2464,-0.192774 0.54755,-0.253004 0.30427,-0.06085 0.49794,-0.189782 0.43589,-0.290179 -0.15454,-0.250046 0.19776,-0.226314 0.63158,0.04255 0.29686,0.183982 0.39011,0.176136 0.53055,-0.04464 0.13791,-0.216803 0.17091,-0.193206 0.17313,0.123803 10e-4,0.215413 0.15069,0.496663 0.33153,0.625 0.18085,0.128337 0.42474,0.414143 0.542,0.635125 0.13283,0.250332 0.37911,0.401786 0.65334,0.401786 0.31664,0 0.44015,0.09726 0.44015,0.346604 0,0.341853 0.27657,0.623657 0.625,0.636812 0.0982,0.0037 0.15955,0.125542 0.13631,0.270743 -0.0232,0.145201 0.19278,0.421962 0.48003,0.615026 0.28726,0.193063 0.60948,0.542393 0.71605,0.776289 0.12423,0.272653 0.29083,0.388019 0.46423,0.321477 0.15173,-0.05822 0.31508,0.01248 0.3721,0.16106 0.0559,0.145665 0.21357,0.264846 0.35038,0.264846 0.13681,0 0.24875,0.150875 0.24875,0.335278 0,0.184403 0.12054,0.435313 0.26786,0.557579 0.14732,0.122266 0.26786,0.330171 0.26786,0.462011 0,0.3263 0.61956,0.634559 0.98981,0.492479 0.24042,-0.09226 0.27794,-0.04173 0.18545,0.249681 -0.15519,0.488937 0.34592,0.990038 0.83485,0.834855 0.27812,-0.08827 0.34066,-0.05162 0.26194,0.153501 -0.0598,0.15581 0.0781,0.440011 0.32706,0.673851 0.23676,0.222418 0.47744,0.552401 0.53485,0.733295 0.0646,0.203553 0.27396,0.328899 0.54932,0.328899 0.2716,0 0.39876,0.07472 0.3264,0.191791 -0.15838,0.256268 0.60854,1.056453 0.90391,0.94311 0.12935,-0.04964 0.28488,0.07506 0.35017,0.280756 0.0646,0.203531 0.23257,0.370057 0.37327,0.370057 0.1407,0 0.25582,0.115121 0.25582,0.255824 0,0.140703 0.16072,0.306832 0.35715,0.369176 0.34486,0.109456 0.43171,0.287359 0.37047,0.758929 -0.016,0.122768 0.0896,0.223214 0.23454,0.223214 0.14494,0 0.43518,0.241071 0.64499,0.535714 0.2098,0.294643 0.54144,0.535715 0.73698,0.535715 0.19554,0 0.3109,0.07221 0.25635,0.160459 -0.0545,0.08825 0.10004,0.349413 0.34352,0.580357 0.44376,0.42091 0.60517,1.044898 0.27029,1.044898 -0.0982,0 -0.17857,-0.106619 -0.17857,-0.23693 0,-0.286736 -1.08744,-0.179499 -1.29464,0.127671 -0.0947,0.140376 -0.17971,0.127556 -0.2902,-0.04376 -0.16783,-0.260239 -1.2723,-0.128556 -1.2723,0.151694 0,0.08188 -0.24469,0.05651 -0.54375,-0.05637 -0.44394,-0.167568 -0.57344,-0.157209 -0.70548,0.05644 -0.10333,0.167189 -0.38207,0.242694 -0.77196,0.209103 -0.42177,-0.03634 -0.643,0.03282 -0.71634,0.223922 -0.0615,0.160145 -0.22166,0.232152 -0.38072,0.171117 -0.15103,-0.05796 -0.27461,-0.01643 -0.27461,0.0923 0,0.108723 -0.12054,0.197677 -0.26786,0.197677 -0.14732,0 -0.26786,-0.08036 -0.26786,-0.178571 0,-0.237744 -1.01846,-0.230171 -1.16607,0.0087 -0.0788,0.127474 -0.19809,0.118882 -0.37377,-0.02692 -0.20149,-0.167223 -0.35455,-0.16251 -0.69839,0.0215 -0.24218,0.129614 -0.44034,0.302441 -0.44034,0.384059 0,0.08162 -0.0804,0.148397 -0.17857,0.148397 -0.0982,0 -0.17857,-0.120536 -0.17857,-0.267857 0,-0.381443 -0.47238,-0.331189 -0.89923,0.09566 -0.32689,0.326887 -0.39116,0.335885 -0.63776,0.08929 -0.36034,-0.360344 -0.53404,-0.346061 -0.95896,0.07886 -0.20116,0.201162 -0.47378,0.30678 -0.63358,0.245459 -0.16428,-0.06304 -0.38555,0.03112 -0.53408,0.227264 -0.22572,0.29808 -0.25423,0.301702 -0.25928,0.03294 -0.003,-0.166079 -0.0906,-0.354449 -0.1944,-0.418599 -0.30103,-0.186044 -1.06128,0.07673 -1.06128,0.366818 0,0.343929 -0.28933,0.341595 -0.42172,-0.0034 -0.14158,-0.368941 -0.58211,-0.335457 -0.99305,0.07548 -0.28384,0.283839 -0.36064,0.29823 -0.44322,0.08304 -0.0866,-0.225638 -0.17233,-0.222829 -0.64405,0.0211 -0.29929,0.15477 -0.62673,0.230372 -0.72764,0.168004 -0.10091,-0.06237 -0.37237,-0.06599 -0.60323,-0.008 -0.32438,0.08141 -0.39971,0.196818 -0.33151,0.507882 0.0685,0.312459 0.0473,0.344311 -0.0945,0.142343 -0.21364,-0.304071 -2.15021,-0.327982 -2.3351,-0.02883 -0.0624,0.100991 -0.37214,0.150884 -0.68828,0.110875 -0.31614,-0.04002 -0.57479,-0.01215 -0.57479,0.06194 0,0.07408 -0.29187,0.142969 -0.6486,0.153082 -0.35673,0.01011 -0.7097,0.117264 -0.78439,0.238116 -0.10502,0.169918 -0.26903,0.173287 -0.72348,0.01486 -0.4443,-0.154882 -0.61894,-0.154264 -0.71585,0.0025 -0.0844,0.136584 -0.40615,0.169296 -0.9423,0.09581 -0.70638,-0.09682 -0.85051,-0.05965 -1.08904,0.280903 -0.20337,0.290348 -0.27492,0.319232 -0.27492,0.110984 z"
       id="path4160"
       inkscape:connector-curvature="0"
       transform="translate(138.80772,400.81283)" />
    <path
       style="fill:#ffffff;fill-opacity:0.39215686;stroke:#000000;stroke-width:0.53571427;stroke-miterlimit:4.30000019;stroke-dasharray:1.07142849, 0.53571425;stroke-dashoffset:0;stroke-opacity:1"
       d="m 139.45123,48.749462 c 0.11804,-0.190997 -0.0764,-0.234518 -0.83051,-0.185893 -0.26035,0.01678 -0.52625,-0.05506 -0.59089,-0.15965 -0.0646,-0.104595 -0.28335,-0.190172 -0.486,-0.190172 -0.31046,0 -0.33278,-0.04301 -0.14178,-0.273144 0.29521,-0.355706 -0.0384,-1.149325 -0.49163,-1.169525 -0.18696,-0.0083 -0.22504,-0.05094 -0.0931,-0.104167 0.30878,-0.124596 0.2801,-0.870771 -0.046,-1.196881 -0.17032,-0.170321 -0.20208,-0.310725 -0.0864,-0.382188 0.19298,-0.11927 -0.31949,-1.159809 -0.57122,-1.159809 -0.0746,0 -0.0894,-0.230904 -0.033,-0.513119 0.0792,-0.396144 0.0142,-0.575084 -0.28544,-0.784927 -0.24107,-0.168856 -0.31545,-0.316681 -0.19637,-0.390277 0.10543,-0.06516 0.19169,-0.30478 0.19169,-0.532493 0,-0.459105 -0.42221,-0.90613 -0.696,-0.736916 -0.10161,0.0628 -0.16149,-0.09593 -0.14175,-0.375743 0.0246,-0.348386 -0.0831,-0.544465 -0.38341,-0.698054 -0.25478,-0.130313 -0.3418,-0.260417 -0.22321,-0.333709 0.27441,-0.169596 0.24921,-1.348884 -0.0289,-1.349715 -0.12277,-3.67e-4 0.0363,-0.15888 0.35342,-0.352252 0.38106,-0.232342 0.54113,-0.444088 0.47196,-0.624332 -0.0576,-0.150012 -0.0224,-0.272749 0.0781,-0.272749 0.10053,0 0.2115,0.08612 0.24659,0.191385 0.0374,0.112259 0.25824,0.03843 0.53411,-0.178571 0.25868,-0.203476 0.59372,-0.369957 0.74454,-0.369957 0.15081,0 0.38956,-0.164689 0.53054,-0.365977 0.18633,-0.266022 0.37412,-0.336416 0.68759,-0.257742 0.49953,0.125374 1.16536,-0.458544 0.93952,-0.823946 -0.097,-0.156993 -0.0428,-0.184394 0.18884,-0.09549 0.21474,0.0824 0.4638,-0.0058 0.7345,-0.260103 0.23455,-0.220354 0.52883,-0.339022 0.68864,-0.277697 0.36409,0.139715 1.16768,-0.229841 1.16768,-0.536994 0,-0.131556 0.16324,-0.239194 0.36275,-0.239194 0.19951,0 0.40992,-0.12293 0.46758,-0.273178 0.0646,-0.168412 0.22951,-0.233605 0.42994,-0.16999 0.20789,0.06598 0.38794,-0.01418 0.49934,-0.222327 0.0958,-0.179033 0.36981,-0.341704 0.60888,-0.36149 0.80982,-0.06702 1.82789,-0.489106 1.83195,-0.759508 0.002,-0.15321 0.13553,-0.244707 0.3125,-0.214607 0.21729,0.03696 0.3093,-0.06862 0.31123,-0.357143 0.002,-0.304303 0.043,-0.346012 0.1594,-0.16223 0.22486,0.35505 1.10138,0.09664 1.22077,-0.359897 0.0683,-0.261066 0.13459,-0.300386 0.23437,-0.13894 0.10826,0.175171 0.23162,0.157439 0.55558,-0.07986 0.22904,-0.167763 0.67759,-0.471125 0.99678,-0.674137 0.3192,-0.203013 0.58036,-0.495105 0.58036,-0.649094 0,-0.153989 0.0603,-0.219713 0.13393,-0.146052 0.0737,0.07366 0.1353,0.227679 0.13697,0.342262 0.002,0.114583 0.18248,0.201953 0.40179,0.194155 0.25949,-0.0092 0.39874,0.09024 0.39874,0.284823 0,0.3213 0.53503,0.89007 0.83726,0.89007 0.10128,0 0.33501,0.200892 0.5194,0.446428 0.18439,0.245536 0.43563,0.446429 0.55833,0.446429 0.12269,0 0.34025,0.280432 0.48346,0.623183 0.18438,0.441279 0.34145,0.592075 0.53811,0.516609 0.1928,-0.07399 0.27773,1.5e-5 0.27773,0.241998 0,0.39587 0.5258,0.939638 0.9086,0.939638 0.14052,0 0.35585,0.160715 0.47853,0.357143 0.12267,0.196429 0.35149,0.357143 0.50848,0.357143 0.18465,0 0.24789,0.09789 0.17908,0.277214 -0.13159,0.342906 0.3748,1.151357 0.72117,1.151357 0.36093,0 1.04342,0.678772 1.04342,1.037739 0,0.196215 0.17154,0.321284 0.49107,0.358051 0.33047,0.03802 0.49107,0.160377 0.49107,0.37411 0,0.348687 0.5314,0.908672 0.86228,0.908672 0.11503,0 0.20915,0.143097 0.20915,0.317993 0,0.189383 0.21679,0.399822 0.53602,0.520318 0.35753,0.134954 0.50255,0.289556 0.43549,0.464296 -0.0675,0.175795 0.0743,0.322918 0.43094,0.447244 0.29232,0.1019 0.57849,0.138262 0.63594,0.08081 0.0575,-0.05746 0.10447,0.05719 0.10447,0.254762 0,0.487467 0.58264,0.989604 0.974,0.839425 0.27484,-0.105467 0.28437,-0.07625 0.0812,0.249051 -0.29199,0.46756 0.0598,0.972381 0.62391,0.895198 0.2413,-0.03302 0.35593,0.03609 0.32236,0.194328 -0.0622,0.293339 0.46315,0.91515 0.77323,0.91515 0.3274,0 0.42203,0.601467 0.13658,0.868122 -0.19068,0.17812 -0.37843,0.187448 -0.80186,0.03984 -0.46293,-0.161378 -0.59143,-0.141969 -0.78977,0.119294 -0.16702,0.220008 -0.23855,0.240567 -0.24255,0.06971 -0.004,-0.156215 -0.11609,-0.19995 -0.31641,-0.123081 -0.1709,0.06558 -0.711,0.158464 -1.20022,0.206406 -0.48921,0.04794 -0.93445,0.159929 -0.98941,0.24886 -0.10878,0.17601 -0.28943,0.19449 -1.83,0.187202 -0.81306,-0.0038 -1.02678,0.0531 -1.02678,0.273578 0,0.251277 -0.0274,0.251064 -0.28062,-0.0022 -0.15433,-0.154336 -0.34865,-0.280612 -0.43182,-0.280612 -0.36851,0 -0.71614,0.239411 -0.71614,0.49321 0,0.242559 -0.04,0.240218 -0.32656,-0.01911 -0.39939,-0.361443 -0.74486,-0.382221 -0.74486,-0.0448 0,0.188712 -0.23191,0.240442 -0.9375,0.209122 -0.66904,-0.0297 -1.07324,0.05191 -1.4115,0.284979 -0.52778,0.363655 -0.86529,0.420064 -0.86529,0.144619 0,-0.104937 -0.18899,-0.13454 -0.44643,-0.06993 -0.28126,0.07059 -0.44643,0.03649 -0.44643,-0.09217 0,-0.151437 -0.0959,-0.152886 -0.37109,-0.0056 -0.20411,0.109233 -0.49572,0.150784 -0.64803,0.09234 -0.15231,-0.05845 -0.52773,-0.02725 -0.83426,0.06934 -0.30653,0.09659 -0.77831,0.220106 -1.0484,0.274492 -0.27014,0.05439 -0.49107,0.217859 -0.49107,0.363336 0,0.14545 -0.0851,0.264455 -0.18911,0.264455 -0.10402,0 -0.1391,-0.08093 -0.078,-0.179832 0.2192,-0.354682 -0.50591,-0.405484 -1.11393,-0.07805 -0.40249,0.216754 -0.91955,0.320913 -1.47343,0.296813 -0.57121,-0.02485 -0.92555,0.04989 -1.07177,0.226073 -0.14547,0.175277 -0.31657,0.21185 -0.51219,0.109482 -0.32667,-0.170945 -0.99025,0.02208 -1.19065,0.346346 -0.0967,0.156497 -0.16785,0.148722 -0.27858,-0.03045 -0.12132,-0.196291 -0.2525,-0.17928 -0.71238,0.09237 -0.42914,0.253502 -0.5961,0.280509 -0.69953,0.113161 -0.15424,-0.249577 -1.25189,-0.08325 -1.25189,0.189695 0,0.09041 -0.0851,0.164382 -0.18911,0.164382 -0.10401,0 -0.13945,-0.08036 -0.0787,-0.178571 z"
       id="path4162"
       inkscape:connector-curvature="0"
       transform="translate(138.80772,400.81283)" />
  </g>
</svg>
