<?xml version="1.0" encoding="utf-8" standalone="no"?>
<!DOCTYPE svg PUBLIC "-//W3C//DTD SVG 1.1//EN"
  "http://www.w3.org/Graphics/SVG/1.1/DTD/svg11.dtd">
<!-- Created with matplotlib (http://matplotlib.org/) -->
<svg height="638pt" version="1.1" viewBox="0 0 954 638" width="954pt" xmlns="http://www.w3.org/2000/svg" xmlns:xlink="http://www.w3.org/1999/xlink">
 <defs>
  <style type="text/css">
*{stroke-linecap:butt;stroke-linejoin:round;}
  </style>
 </defs>
 <g id="figure_1">
  <g id="patch_1">
   <path d="
M0 638.569
L954.032 638.569
L954.032 0
L0 0
z
" style="fill:#ffffff;"/>
  </g>
  <g id="axes_1">
   <g id="patch_2">
    <path d="
M43.2713 192.554
L936.071 192.554
L936.071 23.1417
L43.2713 23.1417
z
" style="fill:#ffffff;"/>
   </g>
   <g id="line2d_1">
    <path clip-path="url(#pb0dc753ac2)" d="
M43.2713 107.514
L45.5033 106.096
L47.7353 105.408
L49.9673 105.378
L52.1993 105.932
L54.4313 106.998
L56.6633 108.502
L58.8953 110.371
L61.1273 112.532
L65.5913 117.438
L72.2873 125.16
L74.5192 127.538
L76.7512 129.697
L78.9832 131.562
L81.2152 133.062
L83.4472 134.123
L85.6792 134.672
L87.9112 134.635
L90.1432 133.969
L92.3752 132.745
L94.6072 131.062
L96.8393 129.02
L101.303 124.262
L105.767 119.268
L107.999 116.933
L110.231 114.838
L112.463 113.066
L114.695 111.623
L116.927 110.497
L119.159 109.677
L121.391 109.149
L123.623 108.902
L125.855 108.924
L128.087 109.204
L130.319 109.729
L132.551 110.487
L134.783 111.466
L137.015 112.655
L139.247 114.041
L141.479 115.612
L143.711 117.357
L145.943 119.263
L150.407 123.512
L154.871 128.263
L161.567 135.805
L163.799 138.139
L166.031 140.245
L168.263 142.042
L170.495 143.447
L172.727 144.378
L174.959 144.753
L177.191 144.49
L179.423 143.54
L181.655 141.99
L183.887 139.962
L186.119 137.576
L190.583 132.218
L195.047 126.883
L197.279 124.528
L199.511 122.541
L201.743 121.015
L203.975 119.923
L206.207 119.209
L208.439 118.816
L210.671 118.687
L212.903 118.767
L217.367 119.326
L224.063 120.323
L228.527 120.612
L230.759 120.591
L232.991 120.441
L235.223 120.149
L237.455 119.701
L239.687 119.083
L241.919 118.281
L244.151 117.282
L246.383 116.072
L248.615 114.637
L250.847 112.964
L253.079 111.038
L255.311 108.846
L257.543 106.374
L259.775 103.608
L262.007 100.536
L264.239 97.1421
L266.471 93.4137
L270.935 85.1273
L275.399 76.7165
L277.631 72.8612
L279.863 69.4509
L282.095 66.6443
L284.327 64.6002
L286.559 63.4772
L288.791 63.434
L291.023 64.5677
L293.255 66.7287
L295.487 69.7058
L297.719 73.2878
L302.183 81.4215
L304.415 85.5507
L306.647 89.4399
L308.879 92.8778
L311.111 95.6533
L313.343 97.6014
L315.575 98.7433
L317.807 99.1464
L320.039 98.8782
L322.271 98.0062
L324.503 96.5977
L326.735 94.7203
L328.967 92.4414
L331.199 89.8285
L333.431 86.9491
L342.359 74.5595
L344.591 71.7828
L346.823 69.3527
L349.055 67.3781
L351.287 65.9684
L353.519 65.2325
L355.751 65.2796
L357.983 66.1702
L360.215 67.7695
L362.447 69.8945
L366.911 74.9882
L369.143 77.5904
L371.375 79.9852
L373.607 81.9892
L375.839 83.4193
L378.071 84.0921
L380.303 83.8926
L382.535 82.9787
L384.767 81.5765
L391.463 76.7003
L393.695 75.6054
L395.927 75.1525
L398.159 75.5677
L400.391 77.077
L402.623 79.8293
L404.855 83.6638
L407.087 88.3426
L409.319 93.6278
L418.247 116.072
L420.479 120.82
L422.711 124.745
L424.943 127.66
L427.175 129.568
L429.407 130.521
L431.639 130.571
L433.871 129.771
L436.103 128.174
L438.335 125.831
L440.567 122.795
L442.799 119.119
L445.031 114.854
L447.263 110.073
L451.727 99.5948
L456.191 89.0454
L458.423 84.176
L460.655 79.8071
L462.887 76.1115
L465.119 73.262
L467.351 71.4312
L469.583 70.792
L471.815 71.5172
L474.047 73.7794
L476.279 77.7514
L478.511 83.606
L480.743 91.516
L482.975 101.654
L485.207 114.193
L487.439 129.305
L487.439 129.305" style="fill:none;stroke:#0000ff;stroke-linecap:square;"/>
   </g>
   <g id="patch_3">
    <path d="
M43.2713 23.1417
L936.071 23.1417" style="fill:none;stroke:#000000;stroke-linecap:square;stroke-linejoin:miter;"/>
   </g>
   <g id="patch_4">
    <path d="
M936.071 192.554
L936.071 23.1417" style="fill:none;stroke:#000000;stroke-linecap:square;stroke-linejoin:miter;"/>
   </g>
   <g id="patch_5">
    <path d="
M43.2713 192.554
L936.071 192.554" style="fill:none;stroke:#000000;stroke-linecap:square;stroke-linejoin:miter;"/>
   </g>
   <g id="patch_6">
    <path d="
M43.2713 192.554
L43.2713 23.1417" style="fill:none;stroke:#000000;stroke-linecap:square;stroke-linejoin:miter;"/>
   </g>
   <g id="matplotlib.axis_1">
    <g id="xtick_1">
     <g id="line2d_2">
      <defs>
       <path d="
M0 0
L0 -4" id="m93b0483c22" style="stroke:#000000;stroke-width:0.5;"/>
      </defs>
      <g>
       <use style="stroke:#000000;stroke-width:0.5;" x="43.27125" xlink:href="#m93b0483c22" y="192.553514706"/>
      </g>
     </g>
     <g id="line2d_3">
      <defs>
       <path d="
M0 0
L0 4" id="m741efc42ff" style="stroke:#000000;stroke-width:0.5;"/>
      </defs>
      <g>
       <use style="stroke:#000000;stroke-width:0.5;" x="43.27125" xlink:href="#m741efc42ff" y="23.14175"/>
      </g>
     </g>
     <g id="text_1">
      <!-- 0 -->
      <defs>
       <path d="
M31.7812 66.4062
Q24.1719 66.4062 20.3281 58.9062
Q16.5 51.4219 16.5 36.375
Q16.5 21.3906 20.3281 13.8906
Q24.1719 6.39062 31.7812 6.39062
Q39.4531 6.39062 43.2812 13.8906
Q47.125 21.3906 47.125 36.375
Q47.125 51.4219 43.2812 58.9062
Q39.4531 66.4062 31.7812 66.4062
M31.7812 74.2188
Q44.0469 74.2188 50.5156 64.5156
Q56.9844 54.8281 56.9844 36.375
Q56.9844 17.9688 50.5156 8.26562
Q44.0469 -1.42188 31.7812 -1.42188
Q19.5312 -1.42188 13.0625 8.26562
Q6.59375 17.9688 6.59375 36.375
Q6.59375 54.8281 13.0625 64.5156
Q19.5312 74.2188 31.7812 74.2188" id="DejaVuSans-30"/>
      </defs>
      <g transform="translate(40.2478125 205.671639706)scale(0.12 -0.12)">
       <use xlink:href="#DejaVuSans-30"/>
      </g>
     </g>
    </g>
    <g id="xtick_2">
     <g id="line2d_4">
      <g>
       <use style="stroke:#000000;stroke-width:0.5;" x="154.87125" xlink:href="#m93b0483c22" y="192.553514706"/>
      </g>
     </g>
     <g id="line2d_5">
      <g>
       <use style="stroke:#000000;stroke-width:0.5;" x="154.87125" xlink:href="#m741efc42ff" y="23.14175"/>
      </g>
     </g>
     <g id="text_2">
      <!-- 50 -->
      <defs>
       <path d="
M10.7969 72.9062
L49.5156 72.9062
L49.5156 64.5938
L19.8281 64.5938
L19.8281 46.7344
Q21.9688 47.4688 24.1094 47.8281
Q26.2656 48.1875 28.4219 48.1875
Q40.625 48.1875 47.75 41.5
Q54.8906 34.8125 54.8906 23.3906
Q54.8906 11.625 47.5625 5.09375
Q40.2344 -1.42188 26.9062 -1.42188
Q22.3125 -1.42188 17.5469 -0.640625
Q12.7969 0.140625 7.71875 1.70312
L7.71875 11.625
Q12.1094 9.23438 16.7969 8.0625
Q21.4844 6.89062 26.7031 6.89062
Q35.1562 6.89062 40.0781 11.3281
Q45.0156 15.7656 45.0156 23.3906
Q45.0156 31 40.0781 35.4375
Q35.1562 39.8906 26.7031 39.8906
Q22.75 39.8906 18.8125 39.0156
Q14.8906 38.1406 10.7969 36.2812
z
" id="DejaVuSans-35"/>
      </defs>
      <g transform="translate(148.0978125 205.671639706)scale(0.12 -0.12)">
       <use xlink:href="#DejaVuSans-35"/>
       <use x="63.623046875" xlink:href="#DejaVuSans-30"/>
      </g>
     </g>
    </g>
    <g id="xtick_3">
     <g id="line2d_6">
      <g>
       <use style="stroke:#000000;stroke-width:0.5;" x="266.47125" xlink:href="#m93b0483c22" y="192.553514706"/>
      </g>
     </g>
     <g id="line2d_7">
      <g>
       <use style="stroke:#000000;stroke-width:0.5;" x="266.47125" xlink:href="#m741efc42ff" y="23.14175"/>
      </g>
     </g>
     <g id="text_3">
      <!-- 100 -->
      <defs>
       <path d="
M12.4062 8.29688
L28.5156 8.29688
L28.5156 63.9219
L10.9844 60.4062
L10.9844 69.3906
L28.4219 72.9062
L38.2812 72.9062
L38.2812 8.29688
L54.3906 8.29688
L54.3906 0
L12.4062 0
z
" id="DejaVuSans-31"/>
      </defs>
      <g transform="translate(256.07625 205.671639706)scale(0.12 -0.12)">
       <use xlink:href="#DejaVuSans-31"/>
       <use x="63.623046875" xlink:href="#DejaVuSans-30"/>
       <use x="127.24609375" xlink:href="#DejaVuSans-30"/>
      </g>
     </g>
    </g>
    <g id="xtick_4">
     <g id="line2d_8">
      <g>
       <use style="stroke:#000000;stroke-width:0.5;" x="378.07125" xlink:href="#m93b0483c22" y="192.553514706"/>
      </g>
     </g>
     <g id="line2d_9">
      <g>
       <use style="stroke:#000000;stroke-width:0.5;" x="378.07125" xlink:href="#m741efc42ff" y="23.14175"/>
      </g>
     </g>
     <g id="text_4">
      <!-- 150 -->
      <g transform="translate(367.67625 205.671639706)scale(0.12 -0.12)">
       <use xlink:href="#DejaVuSans-31"/>
       <use x="63.623046875" xlink:href="#DejaVuSans-35"/>
       <use x="127.24609375" xlink:href="#DejaVuSans-30"/>
      </g>
     </g>
    </g>
    <g id="xtick_5">
     <g id="line2d_10">
      <g>
       <use style="stroke:#000000;stroke-width:0.5;" x="489.67125" xlink:href="#m93b0483c22" y="192.553514706"/>
      </g>
     </g>
     <g id="line2d_11">
      <g>
       <use style="stroke:#000000;stroke-width:0.5;" x="489.67125" xlink:href="#m741efc42ff" y="23.14175"/>
      </g>
     </g>
     <g id="text_5">
      <!-- 200 -->
      <defs>
       <path d="
M19.1875 8.29688
L53.6094 8.29688
L53.6094 0
L7.32812 0
L7.32812 8.29688
Q12.9375 14.1094 22.625 23.8906
Q32.3281 33.6875 34.8125 36.5312
Q39.5469 41.8438 41.4219 45.5312
Q43.3125 49.2188 43.3125 52.7812
Q43.3125 58.5938 39.2344 62.25
Q35.1562 65.9219 28.6094 65.9219
Q23.9688 65.9219 18.8125 64.3125
Q13.6719 62.7031 7.8125 59.4219
L7.8125 69.3906
Q13.7656 71.7812 18.9375 73
Q24.125 74.2188 28.4219 74.2188
Q39.75 74.2188 46.4844 68.5469
Q53.2188 62.8906 53.2188 53.4219
Q53.2188 48.9219 51.5312 44.8906
Q49.8594 40.875 45.4062 35.4062
Q44.1875 33.9844 37.6406 27.2188
Q31.1094 20.4531 19.1875 8.29688" id="DejaVuSans-32"/>
      </defs>
      <g transform="translate(479.056875 205.671639706)scale(0.12 -0.12)">
       <use xlink:href="#DejaVuSans-32"/>
       <use x="63.623046875" xlink:href="#DejaVuSans-30"/>
       <use x="127.24609375" xlink:href="#DejaVuSans-30"/>
      </g>
     </g>
    </g>
    <g id="xtick_6">
     <g id="line2d_12">
      <g>
       <use style="stroke:#000000;stroke-width:0.5;" x="601.27125" xlink:href="#m93b0483c22" y="192.553514706"/>
      </g>
     </g>
     <g id="line2d_13">
      <g>
       <use style="stroke:#000000;stroke-width:0.5;" x="601.27125" xlink:href="#m741efc42ff" y="23.14175"/>
      </g>
     </g>
     <g id="text_6">
      <!-- 250 -->
      <g transform="translate(590.656875 205.671639706)scale(0.12 -0.12)">
       <use xlink:href="#DejaVuSans-32"/>
       <use x="63.623046875" xlink:href="#DejaVuSans-35"/>
       <use x="127.24609375" xlink:href="#DejaVuSans-30"/>
      </g>
     </g>
    </g>
    <g id="xtick_7">
     <g id="line2d_14">
      <g>
       <use style="stroke:#000000;stroke-width:0.5;" x="712.87125" xlink:href="#m93b0483c22" y="192.553514706"/>
      </g>
     </g>
     <g id="line2d_15">
      <g>
       <use style="stroke:#000000;stroke-width:0.5;" x="712.87125" xlink:href="#m741efc42ff" y="23.14175"/>
      </g>
     </g>
     <g id="text_7">
      <!-- 300 -->
      <defs>
       <path d="
M40.5781 39.3125
Q47.6562 37.7969 51.625 33
Q55.6094 28.2188 55.6094 21.1875
Q55.6094 10.4062 48.1875 4.48438
Q40.7656 -1.42188 27.0938 -1.42188
Q22.5156 -1.42188 17.6562 -0.515625
Q12.7969 0.390625 7.625 2.20312
L7.625 11.7188
Q11.7188 9.32812 16.5938 8.10938
Q21.4844 6.89062 26.8125 6.89062
Q36.0781 6.89062 40.9375 10.5469
Q45.7969 14.2031 45.7969 21.1875
Q45.7969 27.6406 41.2812 31.2656
Q36.7656 34.9062 28.7188 34.9062
L20.2188 34.9062
L20.2188 43.0156
L29.1094 43.0156
Q36.375 43.0156 40.2344 45.9219
Q44.0938 48.8281 44.0938 54.2969
Q44.0938 59.9062 40.1094 62.9062
Q36.1406 65.9219 28.7188 65.9219
Q24.6562 65.9219 20.0156 65.0312
Q15.375 64.1562 9.8125 62.3125
L9.8125 71.0938
Q15.4375 72.6562 20.3438 73.4375
Q25.25 74.2188 29.5938 74.2188
Q40.8281 74.2188 47.3594 69.1094
Q53.9062 64.0156 53.9062 55.3281
Q53.9062 49.2656 50.4375 45.0938
Q46.9688 40.9219 40.5781 39.3125" id="DejaVuSans-33"/>
      </defs>
      <g transform="translate(702.2746875 205.671639706)scale(0.12 -0.12)">
       <use xlink:href="#DejaVuSans-33"/>
       <use x="63.623046875" xlink:href="#DejaVuSans-30"/>
       <use x="127.24609375" xlink:href="#DejaVuSans-30"/>
      </g>
     </g>
    </g>
    <g id="xtick_8">
     <g id="line2d_16">
      <g>
       <use style="stroke:#000000;stroke-width:0.5;" x="824.47125" xlink:href="#m93b0483c22" y="192.553514706"/>
      </g>
     </g>
     <g id="line2d_17">
      <g>
       <use style="stroke:#000000;stroke-width:0.5;" x="824.47125" xlink:href="#m741efc42ff" y="23.14175"/>
      </g>
     </g>
     <g id="text_8">
      <!-- 350 -->
      <g transform="translate(813.8746875 205.671639706)scale(0.12 -0.12)">
       <use xlink:href="#DejaVuSans-33"/>
       <use x="63.623046875" xlink:href="#DejaVuSans-35"/>
       <use x="127.24609375" xlink:href="#DejaVuSans-30"/>
      </g>
     </g>
    </g>
    <g id="xtick_9">
     <g id="line2d_18">
      <g>
       <use style="stroke:#000000;stroke-width:0.5;" x="936.07125" xlink:href="#m93b0483c22" y="192.553514706"/>
      </g>
     </g>
     <g id="line2d_19">
      <g>
       <use style="stroke:#000000;stroke-width:0.5;" x="936.07125" xlink:href="#m741efc42ff" y="23.14175"/>
      </g>
     </g>
     <g id="text_9">
      <!-- 400 -->
      <defs>
       <path d="
M37.7969 64.3125
L12.8906 25.3906
L37.7969 25.3906
z

M35.2031 72.9062
L47.6094 72.9062
L47.6094 25.3906
L58.0156 25.3906
L58.0156 17.1875
L47.6094 17.1875
L47.6094 0
L37.7969 0
L37.7969 17.1875
L4.89062 17.1875
L4.89062 26.7031
z
" id="DejaVuSans-34"/>
      </defs>
      <g transform="translate(925.310625 205.671639706)scale(0.12 -0.12)">
       <use xlink:href="#DejaVuSans-34"/>
       <use x="63.623046875" xlink:href="#DejaVuSans-30"/>
       <use x="127.24609375" xlink:href="#DejaVuSans-30"/>
      </g>
     </g>
    </g>
    <g id="text_10">
     <!-- Sample Number -->
     <defs>
      <path d="
M9.8125 72.9062
L23.0938 72.9062
L55.4219 11.9219
L55.4219 72.9062
L64.9844 72.9062
L64.9844 0
L51.7031 0
L19.3906 60.9844
L19.3906 0
L9.8125 0
z
" id="DejaVuSans-4e"/>
      <path d="
M52 44.1875
Q55.375 50.25 60.0625 53.125
Q64.75 56 71.0938 56
Q79.6406 56 84.2812 50.0156
Q88.9219 44.0469 88.9219 33.0156
L88.9219 0
L79.8906 0
L79.8906 32.7188
Q79.8906 40.5781 77.0938 44.375
Q74.3125 48.1875 68.6094 48.1875
Q61.625 48.1875 57.5625 43.5469
Q53.5156 38.9219 53.5156 30.9062
L53.5156 0
L44.4844 0
L44.4844 32.7188
Q44.4844 40.625 41.7031 44.4062
Q38.9219 48.1875 33.1094 48.1875
Q26.2188 48.1875 22.1562 43.5312
Q18.1094 38.875 18.1094 30.9062
L18.1094 0
L9.07812 0
L9.07812 54.6875
L18.1094 54.6875
L18.1094 46.1875
Q21.1875 51.2188 25.4844 53.6094
Q29.7812 56 35.6875 56
Q41.6562 56 45.8281 52.9688
Q50 49.9531 52 44.1875" id="DejaVuSans-6d"/>
      <path d="
M41.1094 46.2969
Q39.5938 47.1719 37.8125 47.5781
Q36.0312 48 33.8906 48
Q26.2656 48 22.1875 43.0469
Q18.1094 38.0938 18.1094 28.8125
L18.1094 0
L9.07812 0
L9.07812 54.6875
L18.1094 54.6875
L18.1094 46.1875
Q20.9531 51.1719 25.4844 53.5781
Q30.0312 56 36.5312 56
Q37.4531 56 38.5781 55.875
Q39.7031 55.7656 41.0625 55.5156
z
" id="DejaVuSans-72"/>
      <path d="
M9.42188 75.9844
L18.4062 75.9844
L18.4062 0
L9.42188 0
z
" id="DejaVuSans-6c"/>
      <path d="
M8.5 21.5781
L8.5 54.6875
L17.4844 54.6875
L17.4844 21.9219
Q17.4844 14.1562 20.5 10.2656
Q23.5312 6.39062 29.5938 6.39062
Q36.8594 6.39062 41.0781 11.0312
Q45.3125 15.6719 45.3125 23.6875
L45.3125 54.6875
L54.2969 54.6875
L54.2969 0
L45.3125 0
L45.3125 8.40625
Q42.0469 3.42188 37.7188 1
Q33.4062 -1.42188 27.6875 -1.42188
Q18.2656 -1.42188 13.375 4.4375
Q8.5 10.2969 8.5 21.5781
M31.1094 56
z
" id="DejaVuSans-75"/>
      <path id="DejaVuSans-20"/>
      <path d="
M53.5156 70.5156
L53.5156 60.8906
Q47.9062 63.5781 42.9219 64.8906
Q37.9375 66.2188 33.2969 66.2188
Q25.25 66.2188 20.875 63.0938
Q16.5 59.9688 16.5 54.2031
Q16.5 49.3594 19.4062 46.8906
Q22.3125 44.4375 30.4219 42.9219
L36.375 41.7031
Q47.4062 39.5938 52.6562 34.2969
Q57.9062 29 57.9062 20.125
Q57.9062 9.51562 50.7969 4.04688
Q43.7031 -1.42188 29.9844 -1.42188
Q24.8125 -1.42188 18.9688 -0.25
Q13.1406 0.921875 6.89062 3.21875
L6.89062 13.375
Q12.8906 10.0156 18.6562 8.29688
Q24.4219 6.59375 29.9844 6.59375
Q38.4219 6.59375 43.0156 9.90625
Q47.6094 13.2344 47.6094 19.3906
Q47.6094 24.75 44.3125 27.7812
Q41.0156 30.8125 33.5 32.3281
L27.4844 33.5
Q16.4531 35.6875 11.5156 40.375
Q6.59375 45.0625 6.59375 53.4219
Q6.59375 63.0938 13.4062 68.6562
Q20.2188 74.2188 32.1719 74.2188
Q37.3125 74.2188 42.625 73.2812
Q47.9531 72.3594 53.5156 70.5156" id="DejaVuSans-53"/>
      <path d="
M56.2031 29.5938
L56.2031 25.2031
L14.8906 25.2031
Q15.4844 15.9219 20.4844 11.0625
Q25.4844 6.20312 34.4219 6.20312
Q39.5938 6.20312 44.4531 7.46875
Q49.3125 8.73438 54.1094 11.2812
L54.1094 2.78125
Q49.2656 0.734375 44.1875 -0.34375
Q39.1094 -1.42188 33.8906 -1.42188
Q20.7969 -1.42188 13.1562 6.1875
Q5.51562 13.8125 5.51562 26.8125
Q5.51562 40.2344 12.7656 48.1094
Q20.0156 56 32.3281 56
Q43.3594 56 49.7812 48.8906
Q56.2031 41.7969 56.2031 29.5938
M47.2188 32.2344
Q47.125 39.5938 43.0938 43.9844
Q39.0625 48.3906 32.4219 48.3906
Q24.9062 48.3906 20.3906 44.1406
Q15.875 39.8906 15.1875 32.1719
z
" id="DejaVuSans-65"/>
      <path d="
M48.6875 27.2969
Q48.6875 37.2031 44.6094 42.8438
Q40.5312 48.4844 33.4062 48.4844
Q26.2656 48.4844 22.1875 42.8438
Q18.1094 37.2031 18.1094 27.2969
Q18.1094 17.3906 22.1875 11.75
Q26.2656 6.10938 33.4062 6.10938
Q40.5312 6.10938 44.6094 11.75
Q48.6875 17.3906 48.6875 27.2969
M18.1094 46.3906
Q20.9531 51.2656 25.2656 53.625
Q29.5938 56 35.5938 56
Q45.5625 56 51.7812 48.0938
Q58.0156 40.1875 58.0156 27.2969
Q58.0156 14.4062 51.7812 6.48438
Q45.5625 -1.42188 35.5938 -1.42188
Q29.5938 -1.42188 25.2656 0.953125
Q20.9531 3.32812 18.1094 8.20312
L18.1094 0
L9.07812 0
L9.07812 75.9844
L18.1094 75.9844
z
" id="DejaVuSans-62"/>
      <path d="
M18.1094 8.20312
L18.1094 -20.7969
L9.07812 -20.7969
L9.07812 54.6875
L18.1094 54.6875
L18.1094 46.3906
Q20.9531 51.2656 25.2656 53.625
Q29.5938 56 35.5938 56
Q45.5625 56 51.7812 48.0938
Q58.0156 40.1875 58.0156 27.2969
Q58.0156 14.4062 51.7812 6.48438
Q45.5625 -1.42188 35.5938 -1.42188
Q29.5938 -1.42188 25.2656 0.953125
Q20.9531 3.32812 18.1094 8.20312
M48.6875 27.2969
Q48.6875 37.2031 44.6094 42.8438
Q40.5312 48.4844 33.4062 48.4844
Q26.2656 48.4844 22.1875 42.8438
Q18.1094 37.2031 18.1094 27.2969
Q18.1094 17.3906 22.1875 11.75
Q26.2656 6.10938 33.4062 6.10938
Q40.5312 6.10938 44.6094 11.75
Q48.6875 17.3906 48.6875 27.2969" id="DejaVuSans-70"/>
      <path d="
M34.2812 27.4844
Q23.3906 27.4844 19.1875 25
Q14.9844 22.5156 14.9844 16.5
Q14.9844 11.7188 18.1406 8.90625
Q21.2969 6.10938 26.7031 6.10938
Q34.1875 6.10938 38.7031 11.4062
Q43.2188 16.7031 43.2188 25.4844
L43.2188 27.4844
z

M52.2031 31.2031
L52.2031 0
L43.2188 0
L43.2188 8.29688
Q40.1406 3.32812 35.5469 0.953125
Q30.9531 -1.42188 24.3125 -1.42188
Q15.9219 -1.42188 10.9531 3.29688
Q6 8.01562 6 15.9219
Q6 25.1406 12.1719 29.8281
Q18.3594 34.5156 30.6094 34.5156
L43.2188 34.5156
L43.2188 35.4062
Q43.2188 41.6094 39.1406 45
Q35.0625 48.3906 27.6875 48.3906
Q23 48.3906 18.5469 47.2656
Q14.1094 46.1406 10.0156 43.8906
L10.0156 52.2031
Q14.9375 54.1094 19.5781 55.0469
Q24.2188 56 28.6094 56
Q40.4844 56 46.3438 49.8438
Q52.2031 43.7031 52.2031 31.2031" id="DejaVuSans-61"/>
     </defs>
     <g transform="translate(441.163125 222.285389706)scale(0.12 -0.12)">
      <use xlink:href="#DejaVuSans-53"/>
      <use x="63.4765625" xlink:href="#DejaVuSans-61"/>
      <use x="124.755859375" xlink:href="#DejaVuSans-6d"/>
      <use x="222.16796875" xlink:href="#DejaVuSans-70"/>
      <use x="285.64453125" xlink:href="#DejaVuSans-6c"/>
      <use x="313.427734375" xlink:href="#DejaVuSans-65"/>
      <use x="374.951171875" xlink:href="#DejaVuSans-20"/>
      <use x="406.73828125" xlink:href="#DejaVuSans-4e"/>
      <use x="481.54296875" xlink:href="#DejaVuSans-75"/>
      <use x="544.921875" xlink:href="#DejaVuSans-6d"/>
      <use x="642.333984375" xlink:href="#DejaVuSans-62"/>
      <use x="705.810546875" xlink:href="#DejaVuSans-65"/>
      <use x="767.333984375" xlink:href="#DejaVuSans-72"/>
     </g>
    </g>
   </g>
   <g id="matplotlib.axis_2">
    <g id="ytick_1">
     <g id="line2d_20">
      <defs>
       <path d="
M0 0
L4 0" id="m728421d6d4" style="stroke:#000000;stroke-width:0.5;"/>
      </defs>
      <g>
       <use style="stroke:#000000;stroke-width:0.5;" x="43.27125" xlink:href="#m728421d6d4" y="190.710729252"/>
      </g>
     </g>
     <g id="line2d_21">
      <defs>
       <path d="
M0 0
L-4 0" id="mcb0005524f" style="stroke:#000000;stroke-width:0.5;"/>
      </defs>
      <g>
       <use style="stroke:#000000;stroke-width:0.5;" x="936.07125" xlink:href="#mcb0005524f" y="190.710729252"/>
      </g>
     </g>
     <g id="text_11">
      <!-- −3 -->
      <defs>
       <path d="
M10.5938 35.5
L73.1875 35.5
L73.1875 27.2031
L10.5938 27.2031
z
" id="DejaVuSans-2212"/>
      </defs>
      <g transform="translate(23.81375 194.021979252)scale(0.12 -0.12)">
       <use xlink:href="#DejaVuSans-2212"/>
       <use x="83.7890625" xlink:href="#DejaVuSans-33"/>
      </g>
     </g>
    </g>
    <g id="ytick_2">
     <g id="line2d_22">
      <g>
       <use style="stroke:#000000;stroke-width:0.5;" x="43.27125" xlink:href="#m728421d6d4" y="163.089696952"/>
      </g>
     </g>
     <g id="line2d_23">
      <g>
       <use style="stroke:#000000;stroke-width:0.5;" x="936.07125" xlink:href="#mcb0005524f" y="163.089696952"/>
      </g>
     </g>
     <g id="text_12">
      <!-- −2 -->
      <g transform="translate(24.05375 166.400946952)scale(0.12 -0.12)">
       <use xlink:href="#DejaVuSans-2212"/>
       <use x="83.7890625" xlink:href="#DejaVuSans-32"/>
      </g>
     </g>
    </g>
    <g id="ytick_3">
     <g id="line2d_24">
      <g>
       <use style="stroke:#000000;stroke-width:0.5;" x="43.27125" xlink:href="#m728421d6d4" y="135.468664653"/>
      </g>
     </g>
     <g id="line2d_25">
      <g>
       <use style="stroke:#000000;stroke-width:0.5;" x="936.07125" xlink:href="#mcb0005524f" y="135.468664653"/>
      </g>
     </g>
     <g id="text_13">
      <!-- −1 -->
      <g transform="translate(23.96 138.779914653)scale(0.12 -0.12)">
       <use xlink:href="#DejaVuSans-2212"/>
       <use x="83.7890625" xlink:href="#DejaVuSans-31"/>
      </g>
     </g>
    </g>
    <g id="ytick_4">
     <g id="line2d_26">
      <g>
       <use style="stroke:#000000;stroke-width:0.5;" x="43.27125" xlink:href="#m728421d6d4" y="107.847632353"/>
      </g>
     </g>
     <g id="line2d_27">
      <g>
       <use style="stroke:#000000;stroke-width:0.5;" x="936.07125" xlink:href="#mcb0005524f" y="107.847632353"/>
      </g>
     </g>
     <g id="text_14">
      <!-- 0 -->
      <g transform="translate(33.224375 111.158882353)scale(0.12 -0.12)">
       <use xlink:href="#DejaVuSans-30"/>
      </g>
     </g>
    </g>
    <g id="ytick_5">
     <g id="line2d_28">
      <g>
       <use style="stroke:#000000;stroke-width:0.5;" x="43.27125" xlink:href="#m728421d6d4" y="80.2266000534"/>
      </g>
     </g>
     <g id="line2d_29">
      <g>
       <use style="stroke:#000000;stroke-width:0.5;" x="936.07125" xlink:href="#mcb0005524f" y="80.2266000534"/>
      </g>
     </g>
     <g id="text_15">
      <!-- 1 -->
      <g transform="translate(34.0625 83.5378500534)scale(0.12 -0.12)">
       <use xlink:href="#DejaVuSans-31"/>
      </g>
     </g>
    </g>
    <g id="ytick_6">
     <g id="line2d_30">
      <g>
       <use style="stroke:#000000;stroke-width:0.5;" x="43.27125" xlink:href="#m728421d6d4" y="52.6055677538"/>
      </g>
     </g>
     <g id="line2d_31">
      <g>
       <use style="stroke:#000000;stroke-width:0.5;" x="936.07125" xlink:href="#mcb0005524f" y="52.6055677538"/>
      </g>
     </g>
     <g id="text_16">
      <!-- 2 -->
      <g transform="translate(33.7175 55.9168177538)scale(0.12 -0.12)">
       <use xlink:href="#DejaVuSans-32"/>
      </g>
     </g>
    </g>
    <g id="ytick_7">
     <g id="line2d_32">
      <g>
       <use style="stroke:#000000;stroke-width:0.5;" x="43.27125" xlink:href="#m728421d6d4" y="24.9845354542"/>
      </g>
     </g>
     <g id="line2d_33">
      <g>
       <use style="stroke:#000000;stroke-width:0.5;" x="936.07125" xlink:href="#mcb0005524f" y="24.9845354542"/>
      </g>
     </g>
     <g id="text_17">
      <!-- 3 -->
      <g transform="translate(33.513125 28.2957854542)scale(0.12 -0.12)">
       <use xlink:href="#DejaVuSans-33"/>
      </g>
     </g>
    </g>
    <g id="text_18">
     <!-- Amplitude -->
     <defs>
      <path d="
M18.3125 70.2188
L18.3125 54.6875
L36.8125 54.6875
L36.8125 47.7031
L18.3125 47.7031
L18.3125 18.0156
Q18.3125 11.3281 20.1406 9.42188
Q21.9688 7.51562 27.5938 7.51562
L36.8125 7.51562
L36.8125 0
L27.5938 0
Q17.1875 0 13.2344 3.875
Q9.28125 7.76562 9.28125 18.0156
L9.28125 47.7031
L2.6875 47.7031
L2.6875 54.6875
L9.28125 54.6875
L9.28125 70.2188
z
" id="DejaVuSans-74"/>
      <path d="
M45.4062 46.3906
L45.4062 75.9844
L54.3906 75.9844
L54.3906 0
L45.4062 0
L45.4062 8.20312
Q42.5781 3.32812 38.25 0.953125
Q33.9375 -1.42188 27.875 -1.42188
Q17.9688 -1.42188 11.7344 6.48438
Q5.51562 14.4062 5.51562 27.2969
Q5.51562 40.1875 11.7344 48.0938
Q17.9688 56 27.875 56
Q33.9375 56 38.25 53.625
Q42.5781 51.2656 45.4062 46.3906
M14.7969 27.2969
Q14.7969 17.3906 18.875 11.75
Q22.9531 6.10938 30.0781 6.10938
Q37.2031 6.10938 41.2969 11.75
Q45.4062 17.3906 45.4062 27.2969
Q45.4062 37.2031 41.2969 42.8438
Q37.2031 48.4844 30.0781 48.4844
Q22.9531 48.4844 18.875 42.8438
Q14.7969 37.2031 14.7969 27.2969" id="DejaVuSans-64"/>
      <path d="
M34.1875 63.1875
L20.7969 26.9062
L47.6094 26.9062
z

M28.6094 72.9062
L39.7969 72.9062
L67.5781 0
L57.3281 0
L50.6875 18.7031
L17.8281 18.7031
L11.1875 0
L0.78125 0
z
" id="DejaVuSans-41"/>
      <path d="
M9.42188 54.6875
L18.4062 54.6875
L18.4062 0
L9.42188 0
z

M9.42188 75.9844
L18.4062 75.9844
L18.4062 64.5938
L9.42188 64.5938
z
" id="DejaVuSans-69"/>
     </defs>
     <g transform="translate(16.318125 138.228257353)rotate(-90.0)scale(0.12 -0.12)">
      <use xlink:href="#DejaVuSans-41"/>
      <use x="68.408203125" xlink:href="#DejaVuSans-6d"/>
      <use x="165.8203125" xlink:href="#DejaVuSans-70"/>
      <use x="229.296875" xlink:href="#DejaVuSans-6c"/>
      <use x="257.080078125" xlink:href="#DejaVuSans-69"/>
      <use x="284.86328125" xlink:href="#DejaVuSans-74"/>
      <use x="324.072265625" xlink:href="#DejaVuSans-75"/>
      <use x="387.451171875" xlink:href="#DejaVuSans-64"/>
      <use x="450.927734375" xlink:href="#DejaVuSans-65"/>
     </g>
    </g>
   </g>
   <g id="text_19">
    <!-- Original Function -->
    <defs>
     <path d="
M39.4062 66.2188
Q28.6562 66.2188 22.3281 58.2031
Q16.0156 50.2031 16.0156 36.375
Q16.0156 22.6094 22.3281 14.5938
Q28.6562 6.59375 39.4062 6.59375
Q50.1406 6.59375 56.4219 14.5938
Q62.7031 22.6094 62.7031 36.375
Q62.7031 50.2031 56.4219 58.2031
Q50.1406 66.2188 39.4062 66.2188
M39.4062 74.2188
Q54.7344 74.2188 63.9062 63.9375
Q73.0938 53.6562 73.0938 36.375
Q73.0938 19.1406 63.9062 8.85938
Q54.7344 -1.42188 39.4062 -1.42188
Q24.0312 -1.42188 14.8125 8.82812
Q5.60938 19.0938 5.60938 36.375
Q5.60938 53.6562 14.8125 63.9375
Q24.0312 74.2188 39.4062 74.2188" id="DejaVuSans-4f"/>
     <path d="
M30.6094 48.3906
Q23.3906 48.3906 19.1875 42.75
Q14.9844 37.1094 14.9844 27.2969
Q14.9844 17.4844 19.1562 11.8438
Q23.3438 6.20312 30.6094 6.20312
Q37.7969 6.20312 41.9844 11.8594
Q46.1875 17.5312 46.1875 27.2969
Q46.1875 37.0156 41.9844 42.7031
Q37.7969 48.3906 30.6094 48.3906
M30.6094 56
Q42.3281 56 49.0156 48.375
Q55.7188 40.7656 55.7188 27.2969
Q55.7188 13.875 49.0156 6.21875
Q42.3281 -1.42188 30.6094 -1.42188
Q18.8438 -1.42188 12.1719 6.21875
Q5.51562 13.875 5.51562 27.2969
Q5.51562 40.7656 12.1719 48.375
Q18.8438 56 30.6094 56" id="DejaVuSans-6f"/>
     <path d="
M54.8906 33.0156
L54.8906 0
L45.9062 0
L45.9062 32.7188
Q45.9062 40.4844 42.875 44.3281
Q39.8438 48.1875 33.7969 48.1875
Q26.5156 48.1875 22.3125 43.5469
Q18.1094 38.9219 18.1094 30.9062
L18.1094 0
L9.07812 0
L9.07812 54.6875
L18.1094 54.6875
L18.1094 46.1875
Q21.3438 51.125 25.7031 53.5625
Q30.0781 56 35.7969 56
Q45.2188 56 50.0469 50.1719
Q54.8906 44.3438 54.8906 33.0156" id="DejaVuSans-6e"/>
     <path d="
M9.8125 72.9062
L51.7031 72.9062
L51.7031 64.5938
L19.6719 64.5938
L19.6719 43.1094
L48.5781 43.1094
L48.5781 34.8125
L19.6719 34.8125
L19.6719 0
L9.8125 0
z
" id="DejaVuSans-46"/>
     <path d="
M45.4062 27.9844
Q45.4062 37.75 41.375 43.1094
Q37.3594 48.4844 30.0781 48.4844
Q22.8594 48.4844 18.8281 43.1094
Q14.7969 37.75 14.7969 27.9844
Q14.7969 18.2656 18.8281 12.8906
Q22.8594 7.51562 30.0781 7.51562
Q37.3594 7.51562 41.375 12.8906
Q45.4062 18.2656 45.4062 27.9844
M54.3906 6.78125
Q54.3906 -7.17188 48.1875 -13.9844
Q42 -20.7969 29.2031 -20.7969
Q24.4688 -20.7969 20.2656 -20.0938
Q16.0625 -19.3906 12.1094 -17.9219
L12.1094 -9.1875
Q16.0625 -11.3281 19.9219 -12.3438
Q23.7812 -13.375 27.7812 -13.375
Q36.625 -13.375 41.0156 -8.76562
Q45.4062 -4.15625 45.4062 5.17188
L45.4062 9.625
Q42.625 4.78125 38.2812 2.39062
Q33.9375 0 27.875 0
Q17.8281 0 11.6719 7.65625
Q5.51562 15.3281 5.51562 27.9844
Q5.51562 40.6719 11.6719 48.3281
Q17.8281 56 27.875 56
Q33.9375 56 38.2812 53.6094
Q42.625 51.2188 45.4062 46.3906
L45.4062 54.6875
L54.3906 54.6875
z
" id="DejaVuSans-67"/>
     <path d="
M48.7812 52.5938
L48.7812 44.1875
Q44.9688 46.2969 41.1406 47.3438
Q37.3125 48.3906 33.4062 48.3906
Q24.6562 48.3906 19.8125 42.8438
Q14.9844 37.3125 14.9844 27.2969
Q14.9844 17.2812 19.8125 11.7344
Q24.6562 6.20312 33.4062 6.20312
Q37.3125 6.20312 41.1406 7.25
Q44.9688 8.29688 48.7812 10.4062
L48.7812 2.09375
Q45.0156 0.34375 40.9844 -0.53125
Q36.9688 -1.42188 32.4219 -1.42188
Q20.0625 -1.42188 12.7812 6.34375
Q5.51562 14.1094 5.51562 27.2969
Q5.51562 40.6719 12.8594 48.3281
Q20.2188 56 33.0156 56
Q37.1562 56 41.1094 55.1406
Q45.0625 54.2969 48.7812 52.5938" id="DejaVuSans-63"/>
    </defs>
    <g transform="translate(429.198 18.14175)scale(0.144 -0.144)">
     <use xlink:href="#DejaVuSans-4f"/>
     <use x="78.7109375" xlink:href="#DejaVuSans-72"/>
     <use x="119.82421875" xlink:href="#DejaVuSans-69"/>
     <use x="147.607421875" xlink:href="#DejaVuSans-67"/>
     <use x="211.083984375" xlink:href="#DejaVuSans-69"/>
     <use x="238.8671875" xlink:href="#DejaVuSans-6e"/>
     <use x="302.24609375" xlink:href="#DejaVuSans-61"/>
     <use x="363.525390625" xlink:href="#DejaVuSans-6c"/>
     <use x="391.30859375" xlink:href="#DejaVuSans-20"/>
     <use x="423.095703125" xlink:href="#DejaVuSans-46"/>
     <use x="475.115234375" xlink:href="#DejaVuSans-75"/>
     <use x="538.494140625" xlink:href="#DejaVuSans-6e"/>
     <use x="601.873046875" xlink:href="#DejaVuSans-63"/>
     <use x="656.853515625" xlink:href="#DejaVuSans-74"/>
     <use x="696.0625" xlink:href="#DejaVuSans-69"/>
     <use x="723.845703125" xlink:href="#DejaVuSans-6f"/>
     <use x="785.02734375" xlink:href="#DejaVuSans-6e"/>
    </g>
   </g>
  </g>
  <g id="axes_2">
   <g id="patch_7">
    <path d="
M43.2713 395.848
L936.071 395.848
L936.071 226.436
L43.2713 226.436
z
" style="fill:#ffffff;"/>
   </g>
   <g id="line2d_34">
    <defs>
     <path d="
M0 3
C0.795609 3 1.55874 2.6839 2.12132 2.12132
C2.6839 1.55874 3 0.795609 3 0
C3 -0.795609 2.6839 -1.55874 2.12132 -2.12132
C1.55874 -2.6839 0.795609 -3 0 -3
C-0.795609 -3 -1.55874 -2.6839 -2.12132 -2.12132
C-2.6839 -1.55874 -3 -0.795609 -3 0
C-3 0.795609 -2.6839 1.55874 -2.12132 2.12132
C-1.55874 2.6839 -0.795609 3 0 3
z
" id="mf1e9a9e4ae" style="stroke:#000000;stroke-width:0.5;"/>
    </defs>
    <g clip-path="url(#p98b8412de4)">
     <use style="fill:#0000ff;stroke:#000000;stroke-width:0.5;" x="141.47925" xlink:href="#mf1e9a9e4ae" y="293.708301584"/>
     <use style="fill:#0000ff;stroke:#000000;stroke-width:0.5;" x="174.95925" xlink:href="#mf1e9a9e4ae" y="279.024941932"/>
     <use style="fill:#0000ff;stroke:#000000;stroke-width:0.5;" x="333.43125" xlink:href="#mf1e9a9e4ae" y="336.806754053"/>
     <use style="fill:#0000ff;stroke:#000000;stroke-width:0.5;" x="346.82325" xlink:href="#mf1e9a9e4ae" y="327.31229847"/>
     <use style="fill:#0000ff;stroke:#000000;stroke-width:0.5;" x="404.85525" xlink:href="#mf1e9a9e4ae" y="258.462825519"/>
     <use style="fill:#0000ff;stroke:#000000;stroke-width:0.5;" x="431.63925" xlink:href="#mf1e9a9e4ae" y="327.685562461"/>
    </g>
   </g>
   <g id="line2d_35">
    <path clip-path="url(#p98b8412de4)" d="
M141.479 311.142
L141.479 293.708" style="fill:none;stroke:#000000;stroke-linecap:square;"/>
   </g>
   <g id="line2d_36">
    <path clip-path="url(#p98b8412de4)" d="
M174.959 311.142
L174.959 279.025" style="fill:none;stroke:#000000;stroke-linecap:square;"/>
   </g>
   <g id="line2d_37">
    <path clip-path="url(#p98b8412de4)" d="
M333.431 311.142
L333.431 336.807" style="fill:none;stroke:#000000;stroke-linecap:square;"/>
   </g>
   <g id="line2d_38">
    <path clip-path="url(#p98b8412de4)" d="
M346.823 311.142
L346.823 327.312" style="fill:none;stroke:#000000;stroke-linecap:square;"/>
   </g>
   <g id="line2d_39">
    <path clip-path="url(#p98b8412de4)" d="
M404.855 311.142
L404.855 258.463" style="fill:none;stroke:#000000;stroke-linecap:square;"/>
   </g>
   <g id="line2d_40">
    <path clip-path="url(#p98b8412de4)" d="
M431.639 311.142
L431.639 327.686" style="fill:none;stroke:#000000;stroke-linecap:square;"/>
   </g>
   <g id="line2d_41">
    <path clip-path="url(#p98b8412de4)" d="
M141.479 311.142
L431.639 311.142" style="fill:none;stroke:#ff0000;stroke-linecap:square;"/>
   </g>
   <g id="line2d_42">
    <path clip-path="url(#p98b8412de4)" d="
M404.855 395.848
L404.855 226.436" style="fill:none;stroke:#0000ff;stroke-linecap:square;"/>
   </g>
   <g id="patch_8">
    <path d="
M43.2713 226.436
L936.071 226.436" style="fill:none;stroke:#000000;stroke-linecap:square;stroke-linejoin:miter;"/>
   </g>
   <g id="patch_9">
    <path d="
M936.071 395.848
L936.071 226.436" style="fill:none;stroke:#000000;stroke-linecap:square;stroke-linejoin:miter;"/>
   </g>
   <g id="patch_10">
    <path d="
M43.2713 395.848
L936.071 395.848" style="fill:none;stroke:#000000;stroke-linecap:square;stroke-linejoin:miter;"/>
   </g>
   <g id="patch_11">
    <path d="
M43.2713 395.848
L43.2713 226.436" style="fill:none;stroke:#000000;stroke-linecap:square;stroke-linejoin:miter;"/>
   </g>
   <g id="matplotlib.axis_3">
    <g id="xtick_10">
     <g id="line2d_43">
      <g>
       <use style="stroke:#000000;stroke-width:0.5;" x="43.27125" xlink:href="#m93b0483c22" y="395.847632353"/>
      </g>
     </g>
     <g id="line2d_44">
      <g>
       <use style="stroke:#000000;stroke-width:0.5;" x="43.27125" xlink:href="#m741efc42ff" y="226.435867647"/>
      </g>
     </g>
     <g id="text_20">
      <!-- 0 -->
      <g transform="translate(40.2478125 408.965757353)scale(0.12 -0.12)">
       <use xlink:href="#DejaVuSans-30"/>
      </g>
     </g>
    </g>
    <g id="xtick_11">
     <g id="line2d_45">
      <g>
       <use style="stroke:#000000;stroke-width:0.5;" x="154.87125" xlink:href="#m93b0483c22" y="395.847632353"/>
      </g>
     </g>
     <g id="line2d_46">
      <g>
       <use style="stroke:#000000;stroke-width:0.5;" x="154.87125" xlink:href="#m741efc42ff" y="226.435867647"/>
      </g>
     </g>
     <g id="text_21">
      <!-- 50 -->
      <g transform="translate(148.0978125 408.965757353)scale(0.12 -0.12)">
       <use xlink:href="#DejaVuSans-35"/>
       <use x="63.623046875" xlink:href="#DejaVuSans-30"/>
      </g>
     </g>
    </g>
    <g id="xtick_12">
     <g id="line2d_47">
      <g>
       <use style="stroke:#000000;stroke-width:0.5;" x="266.47125" xlink:href="#m93b0483c22" y="395.847632353"/>
      </g>
     </g>
     <g id="line2d_48">
      <g>
       <use style="stroke:#000000;stroke-width:0.5;" x="266.47125" xlink:href="#m741efc42ff" y="226.435867647"/>
      </g>
     </g>
     <g id="text_22">
      <!-- 100 -->
      <g transform="translate(256.07625 408.965757353)scale(0.12 -0.12)">
       <use xlink:href="#DejaVuSans-31"/>
       <use x="63.623046875" xlink:href="#DejaVuSans-30"/>
       <use x="127.24609375" xlink:href="#DejaVuSans-30"/>
      </g>
     </g>
    </g>
    <g id="xtick_13">
     <g id="line2d_49">
      <g>
       <use style="stroke:#000000;stroke-width:0.5;" x="378.07125" xlink:href="#m93b0483c22" y="395.847632353"/>
      </g>
     </g>
     <g id="line2d_50">
      <g>
       <use style="stroke:#000000;stroke-width:0.5;" x="378.07125" xlink:href="#m741efc42ff" y="226.435867647"/>
      </g>
     </g>
     <g id="text_23">
      <!-- 150 -->
      <g transform="translate(367.67625 408.965757353)scale(0.12 -0.12)">
       <use xlink:href="#DejaVuSans-31"/>
       <use x="63.623046875" xlink:href="#DejaVuSans-35"/>
       <use x="127.24609375" xlink:href="#DejaVuSans-30"/>
      </g>
     </g>
    </g>
    <g id="xtick_14">
     <g id="line2d_51">
      <g>
       <use style="stroke:#000000;stroke-width:0.5;" x="489.67125" xlink:href="#m93b0483c22" y="395.847632353"/>
      </g>
     </g>
     <g id="line2d_52">
      <g>
       <use style="stroke:#000000;stroke-width:0.5;" x="489.67125" xlink:href="#m741efc42ff" y="226.435867647"/>
      </g>
     </g>
     <g id="text_24">
      <!-- 200 -->
      <g transform="translate(479.056875 408.965757353)scale(0.12 -0.12)">
       <use xlink:href="#DejaVuSans-32"/>
       <use x="63.623046875" xlink:href="#DejaVuSans-30"/>
       <use x="127.24609375" xlink:href="#DejaVuSans-30"/>
      </g>
     </g>
    </g>
    <g id="xtick_15">
     <g id="line2d_53">
      <g>
       <use style="stroke:#000000;stroke-width:0.5;" x="601.27125" xlink:href="#m93b0483c22" y="395.847632353"/>
      </g>
     </g>
     <g id="line2d_54">
      <g>
       <use style="stroke:#000000;stroke-width:0.5;" x="601.27125" xlink:href="#m741efc42ff" y="226.435867647"/>
      </g>
     </g>
     <g id="text_25">
      <!-- 250 -->
      <g transform="translate(590.656875 408.965757353)scale(0.12 -0.12)">
       <use xlink:href="#DejaVuSans-32"/>
       <use x="63.623046875" xlink:href="#DejaVuSans-35"/>
       <use x="127.24609375" xlink:href="#DejaVuSans-30"/>
      </g>
     </g>
    </g>
    <g id="xtick_16">
     <g id="line2d_55">
      <g>
       <use style="stroke:#000000;stroke-width:0.5;" x="712.87125" xlink:href="#m93b0483c22" y="395.847632353"/>
      </g>
     </g>
     <g id="line2d_56">
      <g>
       <use style="stroke:#000000;stroke-width:0.5;" x="712.87125" xlink:href="#m741efc42ff" y="226.435867647"/>
      </g>
     </g>
     <g id="text_26">
      <!-- 300 -->
      <g transform="translate(702.2746875 408.965757353)scale(0.12 -0.12)">
       <use xlink:href="#DejaVuSans-33"/>
       <use x="63.623046875" xlink:href="#DejaVuSans-30"/>
       <use x="127.24609375" xlink:href="#DejaVuSans-30"/>
      </g>
     </g>
    </g>
    <g id="xtick_17">
     <g id="line2d_57">
      <g>
       <use style="stroke:#000000;stroke-width:0.5;" x="824.47125" xlink:href="#m93b0483c22" y="395.847632353"/>
      </g>
     </g>
     <g id="line2d_58">
      <g>
       <use style="stroke:#000000;stroke-width:0.5;" x="824.47125" xlink:href="#m741efc42ff" y="226.435867647"/>
      </g>
     </g>
     <g id="text_27">
      <!-- 350 -->
      <g transform="translate(813.8746875 408.965757353)scale(0.12 -0.12)">
       <use xlink:href="#DejaVuSans-33"/>
       <use x="63.623046875" xlink:href="#DejaVuSans-35"/>
       <use x="127.24609375" xlink:href="#DejaVuSans-30"/>
      </g>
     </g>
    </g>
    <g id="xtick_18">
     <g id="line2d_59">
      <g>
       <use style="stroke:#000000;stroke-width:0.5;" x="936.07125" xlink:href="#m93b0483c22" y="395.847632353"/>
      </g>
     </g>
     <g id="line2d_60">
      <g>
       <use style="stroke:#000000;stroke-width:0.5;" x="936.07125" xlink:href="#m741efc42ff" y="226.435867647"/>
      </g>
     </g>
     <g id="text_28">
      <!-- 400 -->
      <g transform="translate(925.310625 408.965757353)scale(0.12 -0.12)">
       <use xlink:href="#DejaVuSans-34"/>
       <use x="63.623046875" xlink:href="#DejaVuSans-30"/>
       <use x="127.24609375" xlink:href="#DejaVuSans-30"/>
      </g>
     </g>
    </g>
    <g id="text_29">
     <!-- Sample Number -->
     <g transform="translate(441.163125 425.579507353)scale(0.12 -0.12)">
      <use xlink:href="#DejaVuSans-53"/>
      <use x="63.4765625" xlink:href="#DejaVuSans-61"/>
      <use x="124.755859375" xlink:href="#DejaVuSans-6d"/>
      <use x="222.16796875" xlink:href="#DejaVuSans-70"/>
      <use x="285.64453125" xlink:href="#DejaVuSans-6c"/>
      <use x="313.427734375" xlink:href="#DejaVuSans-65"/>
      <use x="374.951171875" xlink:href="#DejaVuSans-20"/>
      <use x="406.73828125" xlink:href="#DejaVuSans-4e"/>
      <use x="481.54296875" xlink:href="#DejaVuSans-75"/>
      <use x="544.921875" xlink:href="#DejaVuSans-6d"/>
      <use x="642.333984375" xlink:href="#DejaVuSans-62"/>
      <use x="705.810546875" xlink:href="#DejaVuSans-65"/>
      <use x="767.333984375" xlink:href="#DejaVuSans-72"/>
     </g>
    </g>
   </g>
   <g id="matplotlib.axis_4">
    <g id="ytick_8">
     <g id="line2d_61">
      <g>
       <use style="stroke:#000000;stroke-width:0.5;" x="43.27125" xlink:href="#m728421d6d4" y="394.004846899"/>
      </g>
     </g>
     <g id="line2d_62">
      <g>
       <use style="stroke:#000000;stroke-width:0.5;" x="936.07125" xlink:href="#mcb0005524f" y="394.004846899"/>
      </g>
     </g>
     <g id="text_30">
      <!-- −3 -->
      <g transform="translate(23.81375 397.316096899)scale(0.12 -0.12)">
       <use xlink:href="#DejaVuSans-2212"/>
       <use x="83.7890625" xlink:href="#DejaVuSans-33"/>
      </g>
     </g>
    </g>
    <g id="ytick_9">
     <g id="line2d_63">
      <g>
       <use style="stroke:#000000;stroke-width:0.5;" x="43.27125" xlink:href="#m728421d6d4" y="366.383814599"/>
      </g>
     </g>
     <g id="line2d_64">
      <g>
       <use style="stroke:#000000;stroke-width:0.5;" x="936.07125" xlink:href="#mcb0005524f" y="366.383814599"/>
      </g>
     </g>
     <g id="text_31">
      <!-- −2 -->
      <g transform="translate(24.05375 369.695064599)scale(0.12 -0.12)">
       <use xlink:href="#DejaVuSans-2212"/>
       <use x="83.7890625" xlink:href="#DejaVuSans-32"/>
      </g>
     </g>
    </g>
    <g id="ytick_10">
     <g id="line2d_65">
      <g>
       <use style="stroke:#000000;stroke-width:0.5;" x="43.27125" xlink:href="#m728421d6d4" y="338.7627823"/>
      </g>
     </g>
     <g id="line2d_66">
      <g>
       <use style="stroke:#000000;stroke-width:0.5;" x="936.07125" xlink:href="#mcb0005524f" y="338.7627823"/>
      </g>
     </g>
     <g id="text_32">
      <!-- −1 -->
      <g transform="translate(23.96 342.0740323)scale(0.12 -0.12)">
       <use xlink:href="#DejaVuSans-2212"/>
       <use x="83.7890625" xlink:href="#DejaVuSans-31"/>
      </g>
     </g>
    </g>
    <g id="ytick_11">
     <g id="line2d_67">
      <g>
       <use style="stroke:#000000;stroke-width:0.5;" x="43.27125" xlink:href="#m728421d6d4" y="311.14175"/>
      </g>
     </g>
     <g id="line2d_68">
      <g>
       <use style="stroke:#000000;stroke-width:0.5;" x="936.07125" xlink:href="#mcb0005524f" y="311.14175"/>
      </g>
     </g>
     <g id="text_33">
      <!-- 0 -->
      <g transform="translate(33.224375 314.453)scale(0.12 -0.12)">
       <use xlink:href="#DejaVuSans-30"/>
      </g>
     </g>
    </g>
    <g id="ytick_12">
     <g id="line2d_69">
      <g>
       <use style="stroke:#000000;stroke-width:0.5;" x="43.27125" xlink:href="#m728421d6d4" y="283.5207177"/>
      </g>
     </g>
     <g id="line2d_70">
      <g>
       <use style="stroke:#000000;stroke-width:0.5;" x="936.07125" xlink:href="#mcb0005524f" y="283.5207177"/>
      </g>
     </g>
     <g id="text_34">
      <!-- 1 -->
      <g transform="translate(34.0625 286.8319677)scale(0.12 -0.12)">
       <use xlink:href="#DejaVuSans-31"/>
      </g>
     </g>
    </g>
    <g id="ytick_13">
     <g id="line2d_71">
      <g>
       <use style="stroke:#000000;stroke-width:0.5;" x="43.27125" xlink:href="#m728421d6d4" y="255.899685401"/>
      </g>
     </g>
     <g id="line2d_72">
      <g>
       <use style="stroke:#000000;stroke-width:0.5;" x="936.07125" xlink:href="#mcb0005524f" y="255.899685401"/>
      </g>
     </g>
     <g id="text_35">
      <!-- 2 -->
      <g transform="translate(33.7175 259.210935401)scale(0.12 -0.12)">
       <use xlink:href="#DejaVuSans-32"/>
      </g>
     </g>
    </g>
    <g id="ytick_14">
     <g id="line2d_73">
      <g>
       <use style="stroke:#000000;stroke-width:0.5;" x="43.27125" xlink:href="#m728421d6d4" y="228.278653101"/>
      </g>
     </g>
     <g id="line2d_74">
      <g>
       <use style="stroke:#000000;stroke-width:0.5;" x="936.07125" xlink:href="#mcb0005524f" y="228.278653101"/>
      </g>
     </g>
     <g id="text_36">
      <!-- 3 -->
      <g transform="translate(33.513125 231.589903101)scale(0.12 -0.12)">
       <use xlink:href="#DejaVuSans-33"/>
      </g>
     </g>
    </g>
    <g id="text_37">
     <!-- Amplitude -->
     <g transform="translate(16.318125 341.522375)rotate(-90.0)scale(0.12 -0.12)">
      <use xlink:href="#DejaVuSans-41"/>
      <use x="68.408203125" xlink:href="#DejaVuSans-6d"/>
      <use x="165.8203125" xlink:href="#DejaVuSans-70"/>
      <use x="229.296875" xlink:href="#DejaVuSans-6c"/>
      <use x="257.080078125" xlink:href="#DejaVuSans-69"/>
      <use x="284.86328125" xlink:href="#DejaVuSans-74"/>
      <use x="324.072265625" xlink:href="#DejaVuSans-75"/>
      <use x="387.451171875" xlink:href="#DejaVuSans-64"/>
      <use x="450.927734375" xlink:href="#DejaVuSans-65"/>
     </g>
    </g>
   </g>
  </g>
  <g id="axes_3">
   <g id="patch_12">
    <path d="
M43.2713 599.142
L936.071 599.142
L936.071 429.73
L43.2713 429.73
z
" style="fill:#ffffff;"/>
   </g>
   <g id="line2d_75">
    <path clip-path="url(#p9123de4165)" d="
M141.479 514.226
L143.711 513.33
L145.943 512.896
L148.175 512.877
L150.407 513.227
L152.639 513.9
L154.871 514.849
L157.103 516.029
L159.335 517.393
L163.799 520.489
L170.495 525.363
L172.727 526.864
L174.959 528.226
L177.191 529.404
L179.423 530.35
L181.655 531.02
L183.887 531.366
L186.119 531.343
L188.351 530.923
L190.583 530.15
L192.815 529.088
L195.047 527.799
L199.511 524.796
L203.975 521.644
L206.207 520.17
L208.439 518.848
L210.671 517.73
L212.903 516.819
L215.135 516.108
L217.367 515.59
L219.599 515.257
L221.831 515.101
L224.063 515.116
L226.295 515.292
L228.527 515.623
L230.759 516.102
L232.991 516.72
L235.223 517.47
L239.687 519.337
L244.151 521.641
L248.615 524.323
L253.079 527.321
L262.007 533.555
L264.239 534.884
L266.471 536.018
L268.703 536.905
L270.935 537.493
L273.167 537.729
L275.399 537.563
L277.631 536.963
L279.863 535.985
L282.095 534.705
L284.327 533.2
L288.791 529.818
L293.255 526.451
L295.487 524.964
L297.719 523.71
L299.951 522.747
L302.183 522.058
L304.415 521.607
L306.647 521.359
L308.879 521.277
L313.343 521.474
L324.503 522.433
L328.967 522.479
L333.431 522.2
L337.895 521.527
L340.127 521.021
L342.359 520.391
L344.591 519.627
L346.823 518.721
L349.055 517.665
L351.287 516.449
L353.519 515.066
L355.751 513.506
L357.983 511.76
L360.215 509.821
L362.447 507.679
L364.679 505.326
L369.143 500.096
L373.607 494.787
L375.839 492.354
L378.071 490.201
L380.303 488.43
L382.535 487.14
L384.767 486.431
L386.999 486.403
L389.231 487.119
L391.463 488.483
L393.695 490.362
L395.927 492.623
L400.391 497.757
L404.855 502.818
L407.087 504.987
L409.319 506.739
L411.551 507.969
L413.783 508.69
L416.015 508.944
L418.247 508.775
L420.479 508.224
L422.711 507.335
L424.943 506.15
L427.175 504.712
L429.407 503.063
L433.871 499.307
L440.567 493.426
L442.799 491.673
L445.031 490.139
L447.263 488.893
L449.495 488.003
L451.727 487.539
L453.959 487.568
L456.191 488.13
L458.423 489.14
L460.655 490.481
L465.119 493.696
L469.583 496.85
L471.815 498.115
L474.047 499.018
L476.279 499.442
L478.511 499.316
L480.743 498.739
L482.975 497.854
L489.671 494.777
L491.903 494.086
L494.135 493.8
L496.367 494.062
L498.599 495.015
L500.831 496.752
L503.063 499.172
L505.295 502.125
L507.527 505.461
L516.455 519.627
L518.687 522.623
L520.919 525.101
L523.151 526.941
L525.383 528.145
L527.615 528.746
L529.847 528.778
L532.079 528.273
L534.311 527.265
L536.543 525.786
L538.775 523.87
L541.007 521.55
L543.239 518.858
L545.471 515.841
L549.935 509.227
L554.399 502.569
L556.631 499.495
L558.863 496.738
L561.095 494.405
L563.327 492.607
L565.559 491.451
L567.791 491.048
L570.023 491.505
L572.255 492.933
L574.487 495.44
L576.719 499.135
L578.951 504.128
L581.183 510.527
L583.415 518.441
L585.647 527.979
L585.647 527.979" style="fill:none;stroke:#000000;stroke-linecap:square;"/>
   </g>
   <g id="line2d_76">
    <path clip-path="url(#p9123de4165)" d="
M174.959 514.048
L177.191 512.399
L179.423 511.599
L181.655 511.564
L183.887 512.209
L186.119 513.448
L188.351 515.197
L190.583 517.37
L192.815 519.883
L197.279 525.587
L203.975 534.566
L206.207 537.331
L208.439 539.841
L210.671 542.011
L212.903 543.754
L215.135 544.988
L217.367 545.626
L219.599 545.583
L221.831 544.809
L224.063 543.385
L226.295 541.429
L228.527 539.055
L230.759 536.38
L239.687 524.999
L241.919 522.564
L244.151 520.504
L246.383 518.826
L248.615 517.517
L250.847 516.563
L253.079 515.949
L255.311 515.662
L257.543 515.688
L259.775 516.013
L262.007 516.623
L264.239 517.505
L266.471 518.644
L268.703 520.026
L270.935 521.637
L273.167 523.464
L275.399 525.493
L277.631 527.709
L282.095 532.65
L286.559 538.174
L293.255 546.944
L295.487 549.657
L297.719 552.106
L299.951 554.196
L302.183 555.83
L304.415 556.912
L306.647 557.348
L308.879 557.042
L311.111 555.937
L313.343 554.135
L315.575 551.777
L317.807 549.004
L322.271 542.773
L326.735 536.57
L328.967 533.831
L331.199 531.521
L333.431 529.747
L335.663 528.477
L337.895 527.647
L340.127 527.189
L342.359 527.04
L344.591 527.132
L349.055 527.782
L353.519 528.614
L357.983 529.169
L360.215 529.278
L362.447 529.254
L364.679 529.08
L366.911 528.74
L369.143 528.219
L371.375 527.5
L373.607 526.568
L375.839 525.406
L378.071 523.999
L380.303 522.33
L382.535 520.384
L384.767 518.145
L386.999 515.596
L389.231 512.722
L391.463 509.507
L393.695 505.934
L395.927 501.988
L398.159 497.653
L402.623 488.017
L407.087 478.238
L409.319 473.755
L411.551 469.789
L413.783 466.526
L416.015 464.149
L418.247 462.843
L420.479 462.793
L422.711 464.111
L424.943 466.624
L427.175 470.086
L429.407 474.251
L433.871 483.708
L436.103 488.51
L438.335 493.032
L440.567 497.029
L442.799 500.257
L445.031 502.522
L447.263 503.85
L449.495 504.318
L451.727 504.007
L453.959 502.993
L456.191 501.355
L458.423 499.172
L460.655 496.522
L462.887 493.484
L465.119 490.136
L474.047 475.73
L476.279 472.501
L478.511 469.675
L480.743 467.379
L482.975 465.74
L485.207 464.884
L487.439 464.939
L489.671 465.975
L491.903 467.834
L494.135 470.305
L496.367 473.174
L500.831 479.254
L503.063 482.038
L505.295 484.369
L507.527 486.031
L509.759 486.814
L511.991 486.582
L514.223 485.519
L516.455 483.889
L523.151 478.219
L525.383 476.946
L527.615 476.419
L529.847 476.902
L532.079 478.657
L534.311 481.857
L536.543 486.316
L538.775 491.756
L541.007 497.902
L549.935 523.999
L552.167 529.519
L554.399 534.084
L556.631 537.473
L558.863 539.691
L561.095 540.799
L563.327 540.858
L565.559 539.928
L567.791 538.071
L570.023 535.347
L572.255 531.817
L574.487 527.542
L576.719 522.583
L578.951 517.024
L583.415 504.84
L587.879 492.573
L590.111 486.911
L592.343 481.831
L594.575 477.534
L596.807 474.221
L599.039 472.092
L601.271 471.349
L603.503 472.192
L605.735 474.822
L607.967 479.441
L610.199 486.249
L612.431 495.446
L614.663 507.234
L616.895 521.814
L619.127 539.386
L619.127 539.386" style="fill:none;stroke:#000000;stroke-linecap:square;"/>
   </g>
   <g id="line2d_77">
    <path clip-path="url(#p9123de4165)" d="
M333.431 514.745
L335.663 516.063
L337.895 516.703
L340.127 516.731
L342.359 516.215
L344.591 515.225
L346.823 513.828
L349.055 512.091
L351.287 510.083
L355.751 505.524
L362.447 498.35
L364.679 496.14
L366.911 494.134
L369.143 492.401
L371.375 491.007
L373.607 490.021
L375.839 489.511
L378.071 489.545
L380.303 490.164
L382.535 491.302
L384.767 492.866
L386.999 494.762
L391.463 499.184
L395.927 503.824
L398.159 505.994
L400.391 507.94
L402.623 509.587
L404.855 510.927
L407.087 511.974
L409.319 512.736
L411.551 513.227
L413.783 513.456
L416.015 513.435
L418.247 513.175
L420.479 512.688
L422.711 511.983
L424.943 511.073
L427.175 509.969
L429.407 508.681
L431.639 507.221
L433.871 505.6
L438.335 501.919
L442.799 497.726
L447.263 493.123
L451.727 488.458
L453.959 486.29
L456.191 484.333
L458.423 482.663
L460.655 481.358
L462.887 480.492
L465.119 480.144
L467.351 480.389
L469.583 481.272
L471.815 482.711
L474.047 484.596
L476.279 486.812
L480.743 491.791
L485.207 496.748
L487.439 498.937
L489.671 500.783
L491.903 502.201
L494.135 503.215
L496.367 503.879
L498.599 504.244
L500.831 504.364
L503.063 504.29
L507.527 503.771
L514.223 502.844
L518.687 502.575
L520.919 502.595
L523.151 502.734
L525.383 503.005
L527.615 503.422
L529.847 503.996
L532.079 504.741
L534.311 505.669
L536.543 506.794
L538.775 508.127
L541.007 509.682
L543.239 511.472
L545.471 513.509
L547.703 515.805
L549.935 518.375
L552.167 521.23
L554.399 524.383
L556.631 527.848
L561.095 535.547
L565.559 543.362
L567.791 546.945
L570.023 550.113
L572.255 552.721
L574.487 554.621
L576.719 555.664
L578.951 555.704
L581.183 554.651
L583.415 552.643
L585.647 549.877
L587.879 546.548
L592.343 538.991
L594.575 535.154
L596.807 531.54
L599.039 528.346
L601.271 525.767
L603.503 523.956
L605.735 522.895
L607.967 522.521
L610.199 522.77
L612.431 523.58
L614.663 524.889
L616.895 526.634
L619.127 528.751
L621.359 531.179
L623.591 533.854
L634.751 547.947
L636.983 550.205
L639.215 552.039
L641.447 553.349
L643.679 554.033
L645.911 553.989
L648.143 553.162
L650.375 551.676
L652.607 549.701
L657.071 544.968
L659.303 542.55
L661.535 540.325
L663.767 538.463
L665.999 537.134
L668.231 536.509
L670.463 536.694
L672.695 537.544
L674.927 538.847
L681.623 543.377
L683.855 544.395
L686.087 544.816
L688.319 544.43
L690.551 543.027
L692.783 540.47
L695.015 536.907
L697.247 532.56
L699.479 527.649
L708.407 506.794
L710.639 502.383
L712.871 498.735
L715.103 496.026
L717.335 494.254
L719.567 493.369
L721.799 493.322
L724.031 494.065
L726.263 495.549
L728.495 497.726
L730.727 500.547
L732.959 503.963
L735.191 507.926
L737.423 512.368
L741.887 522.104
L746.351 531.907
L748.583 536.431
L750.815 540.491
L753.047 543.925
L755.279 546.572
L757.511 548.273
L759.743 548.867
L761.975 548.194
L764.207 546.092
L766.439 542.401
L768.671 536.961
L770.903 529.611
L773.135 520.191
L775.367 508.54
L777.599 494.498
L777.599 494.498" style="fill:none;stroke:#000000;stroke-linecap:square;"/>
   </g>
   <g id="line2d_78">
    <path clip-path="url(#p9123de4165)" d="
M346.823 514.631
L349.055 515.461
L351.287 515.864
L353.519 515.882
L355.751 515.557
L357.983 514.933
L360.215 514.053
L362.447 512.959
L364.679 511.693
L369.143 508.821
L375.839 504.301
L380.303 501.645
L382.535 500.552
L384.767 499.674
L386.999 499.053
L389.231 498.732
L391.463 498.753
L393.695 499.143
L395.927 499.86
L398.159 500.845
L400.391 502.04
L404.855 504.826
L411.551 509.117
L413.783 510.343
L416.015 511.381
L418.247 512.225
L420.479 512.885
L422.711 513.365
L424.943 513.674
L427.175 513.819
L429.407 513.805
L431.639 513.642
L433.871 513.334
L436.103 512.891
L438.335 512.317
L442.799 510.81
L447.263 508.869
L451.727 506.549
L456.191 503.908
L462.887 499.519
L467.351 496.702
L469.583 495.469
L471.815 494.417
L474.047 493.594
L476.279 493.049
L478.511 492.83
L480.743 492.984
L482.975 493.54
L485.207 494.447
L487.439 495.635
L489.671 497.031
L500.831 504.671
L503.063 505.834
L505.295 506.727
L507.527 507.366
L509.759 507.784
L511.991 508.015
L514.223 508.09
L518.687 507.908
L529.847 507.018
L534.311 506.975
L538.775 507.234
L543.239 507.858
L545.471 508.328
L547.703 508.912
L549.935 509.621
L552.167 510.461
L554.399 511.441
L556.631 512.568
L558.863 513.852
L561.095 515.299
L563.327 516.918
L565.559 518.717
L567.791 520.703
L570.023 522.886
L574.487 527.737
L578.951 532.661
L581.183 534.918
L583.415 536.915
L585.647 538.558
L587.879 539.755
L590.111 540.412
L592.343 540.438
L594.575 539.774
L596.807 538.509
L599.039 536.766
L601.271 534.669
L605.735 529.907
L610.199 525.213
L612.431 523.2
L614.663 521.575
L616.895 520.434
L619.127 519.766
L621.359 519.53
L623.591 519.687
L625.823 520.197
L628.055 521.022
L630.287 522.121
L632.519 523.455
L634.751 524.985
L639.215 528.469
L645.911 533.924
L648.143 535.55
L650.375 536.972
L652.607 538.128
L654.839 538.954
L657.071 539.385
L659.303 539.357
L661.535 538.836
L663.767 537.899
L665.999 536.655
L670.463 533.673
L674.927 530.748
L677.159 529.575
L679.391 528.737
L681.623 528.343
L683.855 528.46
L686.087 528.995
L688.319 529.816
L695.015 532.671
L697.247 533.312
L699.479 533.577
L701.711 533.334
L703.943 532.45
L706.175 530.839
L708.407 528.594
L710.639 525.855
L712.871 522.761
L721.799 509.621
L724.031 506.842
L726.263 504.543
L728.495 502.837
L730.727 501.72
L732.959 501.162
L735.191 501.133
L737.423 501.601
L739.655 502.536
L741.887 503.908
L744.119 505.685
L746.351 507.837
L748.583 510.334
L750.815 513.133
L755.279 519.267
L759.743 525.444
L761.975 528.294
L764.207 530.852
L766.439 533.016
L768.671 534.684
L770.903 535.756
L773.135 536.13
L775.367 535.705
L777.599 534.381
L779.831 532.055
L782.063 528.628
L784.295 523.997
L786.527 518.062
L788.759 510.721
L790.991 501.874
L790.991 501.874" style="fill:none;stroke:#000000;stroke-linecap:square;"/>
   </g>
   <g id="line2d_79">
    <path clip-path="url(#p9123de4165)" d="
M404.855 513.8
L407.087 511.095
L409.319 509.783
L411.551 509.726
L413.783 510.783
L416.015 512.816
L418.247 515.684
L420.479 519.249
L422.711 523.37
L424.943 527.91
L429.407 537.683
L433.871 547.454
L436.103 551.99
L438.335 556.106
L440.567 559.665
L442.799 562.525
L445.031 564.548
L447.263 565.595
L449.495 565.525
L451.727 564.255
L453.959 561.92
L456.191 558.71
L458.423 554.817
L460.655 550.43
L469.583 531.763
L471.815 527.768
L474.047 524.389
L476.279 521.637
L478.511 519.49
L480.743 517.924
L482.975 516.917
L485.207 516.447
L487.439 516.49
L489.671 517.023
L491.903 518.024
L494.135 519.47
L496.367 521.337
L498.599 523.604
L500.831 526.248
L503.063 529.245
L505.295 532.572
L507.527 536.208
L509.759 540.128
L511.991 544.311
L516.455 553.372
L523.151 567.757
L525.383 572.207
L527.615 576.224
L529.847 579.651
L532.079 582.331
L534.311 584.107
L536.543 584.822
L538.775 584.32
L541.007 582.508
L543.239 579.552
L545.471 575.684
L547.703 571.135
L552.167 560.915
L556.631 550.741
L558.863 546.248
L561.095 542.459
L563.327 539.549
L565.559 537.467
L567.791 536.104
L570.023 535.354
L572.255 535.109
L574.487 535.261
L576.719 535.703
L581.183 537.025
L583.415 537.691
L585.647 538.23
L587.879 538.602
L590.111 538.78
L592.343 538.74
L594.575 538.455
L596.807 537.898
L599.039 537.043
L601.271 535.864
L603.503 534.335
L605.735 532.43
L607.967 530.122
L610.199 527.385
L612.431 524.193
L614.663 520.52
L616.895 516.339
L619.127 511.625
L621.359 506.351
L623.591 500.491
L625.823 494.018
L628.055 486.907
L632.519 471.104
L636.983 455.062
L639.215 447.71
L641.447 441.205
L643.679 435.853
L645.911 431.954
L648.143 429.812
L650.375 429.73
L652.607 431.892
L654.839 436.014
L657.071 441.692
L659.303 448.523
L663.767 464.036
L665.999 471.911
L668.231 479.329
L670.463 485.885
L672.695 491.179
L674.927 494.894
L677.159 497.072
L679.391 497.841
L681.623 497.329
L683.855 495.666
L686.087 492.98
L688.319 489.399
L690.551 485.053
L692.783 480.07
L695.015 474.578
L703.943 450.949
L706.175 445.653
L708.407 441.018
L710.639 437.252
L712.871 434.564
L715.103 433.16
L717.335 433.25
L719.567 434.948
L721.799 437.999
L724.031 442.052
L726.263 446.757
L730.727 456.729
L732.959 461.297
L735.191 465.119
L737.423 467.846
L739.655 469.129
L741.887 468.749
L744.119 467.006
L746.351 464.331
L750.815 457.913
L753.047 455.032
L755.279 452.943
L757.511 452.08
L759.743 452.871
L761.975 455.75
L764.207 460.999
L766.439 468.312
L768.671 477.236
L770.903 487.316
L779.831 530.122
L782.063 539.176
L784.295 546.663
L786.527 552.222
L788.759 555.86
L790.991 557.678
L793.223 557.774
L795.455 556.249
L797.687 553.202
L799.919 548.734
L802.151 542.944
L804.383 535.932
L806.615 527.799
L808.847 518.681
L813.311 498.696
L817.775 478.576
L820.007 469.289
L822.239 460.957
L824.471 453.909
L826.703 448.474
L828.935 444.982
L831.167 443.763
L833.399 445.146
L835.631 449.461
L837.863 457.036
L840.095 468.202
L842.327 483.288
L844.559 502.623
L846.791 526.538
L849.023 555.36
L849.023 555.36" style="fill:none;stroke:#0000ff;stroke-linecap:square;stroke-width:4.0;"/>
   </g>
   <g id="line2d_80">
    <path clip-path="url(#p9123de4165)" d="
M404.855 599.142
L404.855 429.73" style="fill:none;stroke:#0000ff;stroke-linecap:square;"/>
   </g>
   <g id="patch_13">
    <path d="
M43.2713 429.73
L936.071 429.73" style="fill:none;stroke:#000000;stroke-linecap:square;stroke-linejoin:miter;"/>
   </g>
   <g id="patch_14">
    <path d="
M936.071 599.142
L936.071 429.73" style="fill:none;stroke:#000000;stroke-linecap:square;stroke-linejoin:miter;"/>
   </g>
   <g id="patch_15">
    <path d="
M43.2713 599.142
L936.071 599.142" style="fill:none;stroke:#000000;stroke-linecap:square;stroke-linejoin:miter;"/>
   </g>
   <g id="patch_16">
    <path d="
M43.2713 599.142
L43.2713 429.73" style="fill:none;stroke:#000000;stroke-linecap:square;stroke-linejoin:miter;"/>
   </g>
   <g id="matplotlib.axis_5">
    <g id="xtick_19">
     <g id="line2d_81">
      <g>
       <use style="stroke:#000000;stroke-width:0.5;" x="43.27125" xlink:href="#m93b0483c22" y="599.14175"/>
      </g>
     </g>
     <g id="line2d_82">
      <g>
       <use style="stroke:#000000;stroke-width:0.5;" x="43.27125" xlink:href="#m741efc42ff" y="429.729985294"/>
      </g>
     </g>
     <g id="text_38">
      <!-- 0 -->
      <g transform="translate(40.2478125 612.259875)scale(0.12 -0.12)">
       <use xlink:href="#DejaVuSans-30"/>
      </g>
     </g>
    </g>
    <g id="xtick_20">
     <g id="line2d_83">
      <g>
       <use style="stroke:#000000;stroke-width:0.5;" x="154.87125" xlink:href="#m93b0483c22" y="599.14175"/>
      </g>
     </g>
     <g id="line2d_84">
      <g>
       <use style="stroke:#000000;stroke-width:0.5;" x="154.87125" xlink:href="#m741efc42ff" y="429.729985294"/>
      </g>
     </g>
     <g id="text_39">
      <!-- 50 -->
      <g transform="translate(148.0978125 612.259875)scale(0.12 -0.12)">
       <use xlink:href="#DejaVuSans-35"/>
       <use x="63.623046875" xlink:href="#DejaVuSans-30"/>
      </g>
     </g>
    </g>
    <g id="xtick_21">
     <g id="line2d_85">
      <g>
       <use style="stroke:#000000;stroke-width:0.5;" x="266.47125" xlink:href="#m93b0483c22" y="599.14175"/>
      </g>
     </g>
     <g id="line2d_86">
      <g>
       <use style="stroke:#000000;stroke-width:0.5;" x="266.47125" xlink:href="#m741efc42ff" y="429.729985294"/>
      </g>
     </g>
     <g id="text_40">
      <!-- 100 -->
      <g transform="translate(256.07625 612.259875)scale(0.12 -0.12)">
       <use xlink:href="#DejaVuSans-31"/>
       <use x="63.623046875" xlink:href="#DejaVuSans-30"/>
       <use x="127.24609375" xlink:href="#DejaVuSans-30"/>
      </g>
     </g>
    </g>
    <g id="xtick_22">
     <g id="line2d_87">
      <g>
       <use style="stroke:#000000;stroke-width:0.5;" x="378.07125" xlink:href="#m93b0483c22" y="599.14175"/>
      </g>
     </g>
     <g id="line2d_88">
      <g>
       <use style="stroke:#000000;stroke-width:0.5;" x="378.07125" xlink:href="#m741efc42ff" y="429.729985294"/>
      </g>
     </g>
     <g id="text_41">
      <!-- 150 -->
      <g transform="translate(367.67625 612.259875)scale(0.12 -0.12)">
       <use xlink:href="#DejaVuSans-31"/>
       <use x="63.623046875" xlink:href="#DejaVuSans-35"/>
       <use x="127.24609375" xlink:href="#DejaVuSans-30"/>
      </g>
     </g>
    </g>
    <g id="xtick_23">
     <g id="line2d_89">
      <g>
       <use style="stroke:#000000;stroke-width:0.5;" x="489.67125" xlink:href="#m93b0483c22" y="599.14175"/>
      </g>
     </g>
     <g id="line2d_90">
      <g>
       <use style="stroke:#000000;stroke-width:0.5;" x="489.67125" xlink:href="#m741efc42ff" y="429.729985294"/>
      </g>
     </g>
     <g id="text_42">
      <!-- 200 -->
      <g transform="translate(479.056875 612.259875)scale(0.12 -0.12)">
       <use xlink:href="#DejaVuSans-32"/>
       <use x="63.623046875" xlink:href="#DejaVuSans-30"/>
       <use x="127.24609375" xlink:href="#DejaVuSans-30"/>
      </g>
     </g>
    </g>
    <g id="xtick_24">
     <g id="line2d_91">
      <g>
       <use style="stroke:#000000;stroke-width:0.5;" x="601.27125" xlink:href="#m93b0483c22" y="599.14175"/>
      </g>
     </g>
     <g id="line2d_92">
      <g>
       <use style="stroke:#000000;stroke-width:0.5;" x="601.27125" xlink:href="#m741efc42ff" y="429.729985294"/>
      </g>
     </g>
     <g id="text_43">
      <!-- 250 -->
      <g transform="translate(590.656875 612.259875)scale(0.12 -0.12)">
       <use xlink:href="#DejaVuSans-32"/>
       <use x="63.623046875" xlink:href="#DejaVuSans-35"/>
       <use x="127.24609375" xlink:href="#DejaVuSans-30"/>
      </g>
     </g>
    </g>
    <g id="xtick_25">
     <g id="line2d_93">
      <g>
       <use style="stroke:#000000;stroke-width:0.5;" x="712.87125" xlink:href="#m93b0483c22" y="599.14175"/>
      </g>
     </g>
     <g id="line2d_94">
      <g>
       <use style="stroke:#000000;stroke-width:0.5;" x="712.87125" xlink:href="#m741efc42ff" y="429.729985294"/>
      </g>
     </g>
     <g id="text_44">
      <!-- 300 -->
      <g transform="translate(702.2746875 612.259875)scale(0.12 -0.12)">
       <use xlink:href="#DejaVuSans-33"/>
       <use x="63.623046875" xlink:href="#DejaVuSans-30"/>
       <use x="127.24609375" xlink:href="#DejaVuSans-30"/>
      </g>
     </g>
    </g>
    <g id="xtick_26">
     <g id="line2d_95">
      <g>
       <use style="stroke:#000000;stroke-width:0.5;" x="824.47125" xlink:href="#m93b0483c22" y="599.14175"/>
      </g>
     </g>
     <g id="line2d_96">
      <g>
       <use style="stroke:#000000;stroke-width:0.5;" x="824.47125" xlink:href="#m741efc42ff" y="429.729985294"/>
      </g>
     </g>
     <g id="text_45">
      <!-- 350 -->
      <g transform="translate(813.8746875 612.259875)scale(0.12 -0.12)">
       <use xlink:href="#DejaVuSans-33"/>
       <use x="63.623046875" xlink:href="#DejaVuSans-35"/>
       <use x="127.24609375" xlink:href="#DejaVuSans-30"/>
      </g>
     </g>
    </g>
    <g id="xtick_27">
     <g id="line2d_97">
      <g>
       <use style="stroke:#000000;stroke-width:0.5;" x="936.07125" xlink:href="#m93b0483c22" y="599.14175"/>
      </g>
     </g>
     <g id="line2d_98">
      <g>
       <use style="stroke:#000000;stroke-width:0.5;" x="936.07125" xlink:href="#m741efc42ff" y="429.729985294"/>
      </g>
     </g>
     <g id="text_46">
      <!-- 400 -->
      <g transform="translate(925.310625 612.259875)scale(0.12 -0.12)">
       <use xlink:href="#DejaVuSans-34"/>
       <use x="63.623046875" xlink:href="#DejaVuSans-30"/>
       <use x="127.24609375" xlink:href="#DejaVuSans-30"/>
      </g>
     </g>
    </g>
    <g id="text_47">
     <!-- Sample Number -->
     <g transform="translate(441.163125 628.873625)scale(0.12 -0.12)">
      <use xlink:href="#DejaVuSans-53"/>
      <use x="63.4765625" xlink:href="#DejaVuSans-61"/>
      <use x="124.755859375" xlink:href="#DejaVuSans-6d"/>
      <use x="222.16796875" xlink:href="#DejaVuSans-70"/>
      <use x="285.64453125" xlink:href="#DejaVuSans-6c"/>
      <use x="313.427734375" xlink:href="#DejaVuSans-65"/>
      <use x="374.951171875" xlink:href="#DejaVuSans-20"/>
      <use x="406.73828125" xlink:href="#DejaVuSans-4e"/>
      <use x="481.54296875" xlink:href="#DejaVuSans-75"/>
      <use x="544.921875" xlink:href="#DejaVuSans-6d"/>
      <use x="642.333984375" xlink:href="#DejaVuSans-62"/>
      <use x="705.810546875" xlink:href="#DejaVuSans-65"/>
      <use x="767.333984375" xlink:href="#DejaVuSans-72"/>
     </g>
    </g>
   </g>
   <g id="matplotlib.axis_6">
    <g id="ytick_15">
     <g id="line2d_99">
      <g>
       <use style="stroke:#000000;stroke-width:0.5;" x="43.27125" xlink:href="#m728421d6d4" y="597.298964546"/>
      </g>
     </g>
     <g id="line2d_100">
      <g>
       <use style="stroke:#000000;stroke-width:0.5;" x="936.07125" xlink:href="#mcb0005524f" y="597.298964546"/>
      </g>
     </g>
     <g id="text_48">
      <!-- −3 -->
      <g transform="translate(23.81375 600.610214546)scale(0.12 -0.12)">
       <use xlink:href="#DejaVuSans-2212"/>
       <use x="83.7890625" xlink:href="#DejaVuSans-33"/>
      </g>
     </g>
    </g>
    <g id="ytick_16">
     <g id="line2d_101">
      <g>
       <use style="stroke:#000000;stroke-width:0.5;" x="43.27125" xlink:href="#m728421d6d4" y="569.677932246"/>
      </g>
     </g>
     <g id="line2d_102">
      <g>
       <use style="stroke:#000000;stroke-width:0.5;" x="936.07125" xlink:href="#mcb0005524f" y="569.677932246"/>
      </g>
     </g>
     <g id="text_49">
      <!-- −2 -->
      <g transform="translate(24.05375 572.989182246)scale(0.12 -0.12)">
       <use xlink:href="#DejaVuSans-2212"/>
       <use x="83.7890625" xlink:href="#DejaVuSans-32"/>
      </g>
     </g>
    </g>
    <g id="ytick_17">
     <g id="line2d_103">
      <g>
       <use style="stroke:#000000;stroke-width:0.5;" x="43.27125" xlink:href="#m728421d6d4" y="542.056899947"/>
      </g>
     </g>
     <g id="line2d_104">
      <g>
       <use style="stroke:#000000;stroke-width:0.5;" x="936.07125" xlink:href="#mcb0005524f" y="542.056899947"/>
      </g>
     </g>
     <g id="text_50">
      <!-- −1 -->
      <g transform="translate(23.96 545.368149947)scale(0.12 -0.12)">
       <use xlink:href="#DejaVuSans-2212"/>
       <use x="83.7890625" xlink:href="#DejaVuSans-31"/>
      </g>
     </g>
    </g>
    <g id="ytick_18">
     <g id="line2d_105">
      <g>
       <use style="stroke:#000000;stroke-width:0.5;" x="43.27125" xlink:href="#m728421d6d4" y="514.435867647"/>
      </g>
     </g>
     <g id="line2d_106">
      <g>
       <use style="stroke:#000000;stroke-width:0.5;" x="936.07125" xlink:href="#mcb0005524f" y="514.435867647"/>
      </g>
     </g>
     <g id="text_51">
      <!-- 0 -->
      <g transform="translate(33.224375 517.747117647)scale(0.12 -0.12)">
       <use xlink:href="#DejaVuSans-30"/>
      </g>
     </g>
    </g>
    <g id="ytick_19">
     <g id="line2d_107">
      <g>
       <use style="stroke:#000000;stroke-width:0.5;" x="43.27125" xlink:href="#m728421d6d4" y="486.814835347"/>
      </g>
     </g>
     <g id="line2d_108">
      <g>
       <use style="stroke:#000000;stroke-width:0.5;" x="936.07125" xlink:href="#mcb0005524f" y="486.814835347"/>
      </g>
     </g>
     <g id="text_52">
      <!-- 1 -->
      <g transform="translate(34.0625 490.126085347)scale(0.12 -0.12)">
       <use xlink:href="#DejaVuSans-31"/>
      </g>
     </g>
    </g>
    <g id="ytick_20">
     <g id="line2d_109">
      <g>
       <use style="stroke:#000000;stroke-width:0.5;" x="43.27125" xlink:href="#m728421d6d4" y="459.193803048"/>
      </g>
     </g>
     <g id="line2d_110">
      <g>
       <use style="stroke:#000000;stroke-width:0.5;" x="936.07125" xlink:href="#mcb0005524f" y="459.193803048"/>
      </g>
     </g>
     <g id="text_53">
      <!-- 2 -->
      <g transform="translate(33.7175 462.505053048)scale(0.12 -0.12)">
       <use xlink:href="#DejaVuSans-32"/>
      </g>
     </g>
    </g>
    <g id="ytick_21">
     <g id="line2d_111">
      <g>
       <use style="stroke:#000000;stroke-width:0.5;" x="43.27125" xlink:href="#m728421d6d4" y="431.572770748"/>
      </g>
     </g>
     <g id="line2d_112">
      <g>
       <use style="stroke:#000000;stroke-width:0.5;" x="936.07125" xlink:href="#mcb0005524f" y="431.572770748"/>
      </g>
     </g>
     <g id="text_54">
      <!-- 3 -->
      <g transform="translate(33.513125 434.884020748)scale(0.12 -0.12)">
       <use xlink:href="#DejaVuSans-33"/>
      </g>
     </g>
    </g>
    <g id="text_55">
     <!-- Amplitude -->
     <g transform="translate(16.318125 544.816492647)rotate(-90.0)scale(0.12 -0.12)">
      <use xlink:href="#DejaVuSans-41"/>
      <use x="68.408203125" xlink:href="#DejaVuSans-6d"/>
      <use x="165.8203125" xlink:href="#DejaVuSans-70"/>
      <use x="229.296875" xlink:href="#DejaVuSans-6c"/>
      <use x="257.080078125" xlink:href="#DejaVuSans-69"/>
      <use x="284.86328125" xlink:href="#DejaVuSans-74"/>
      <use x="324.072265625" xlink:href="#DejaVuSans-75"/>
      <use x="387.451171875" xlink:href="#DejaVuSans-64"/>
      <use x="450.927734375" xlink:href="#DejaVuSans-65"/>
     </g>
    </g>
   </g>
  </g>
 </g>
 <defs>
  <clipPath id="p98b8412de4">
   <rect height="169.411764706" width="892.8" x="43.27125" y="226.435867647"/>
  </clipPath>
  <clipPath id="pb0dc753ac2">
   <rect height="169.411764706" width="892.8" x="43.27125" y="23.14175"/>
  </clipPath>
  <clipPath id="p9123de4165">
   <rect height="169.411764706" width="892.8" x="43.27125" y="429.729985294"/>
  </clipPath>
 </defs>
</svg>
