<?xml version="1.0" encoding="UTF-8" standalone="no"?>
<!-- Created with Inkscape (http://www.inkscape.org/) -->

<svg
   xmlns:dc="http://purl.org/dc/elements/1.1/"
   xmlns:cc="http://creativecommons.org/ns#"
   xmlns:rdf="http://www.w3.org/1999/02/22-rdf-syntax-ns#"
   xmlns:svg="http://www.w3.org/2000/svg"
   xmlns="http://www.w3.org/2000/svg"
   xmlns:sodipodi="http://sodipodi.sourceforge.net/DTD/sodipodi-0.dtd"
   xmlns:inkscape="http://www.inkscape.org/namespaces/inkscape"
   width="250"
   height="300"
   viewBox="0 0 250 300"
   id="svg2"
   version="1.1"
   inkscape:version="0.91 r13725"
   sodipodi:docname="ImageSourcesDrawn.svg">
  <defs
     id="defs4">
    <marker
       inkscape:stockid="Arrow1Lend"
       orient="auto"
       refY="0"
       refX="0"
       id="marker4341"
       style="overflow:visible"
       inkscape:isstock="true">
      <path
         inkscape:connector-curvature="0"
         id="path4343"
         d="M 0,0 5,-5 -12.5,0 5,5 0,0 Z"
         style="fill:#000000;fill-opacity:1;fill-rule:evenodd;stroke:#000000;stroke-width:1pt;stroke-opacity:1"
         transform="matrix(-0.8,0,0,-0.8,-10,0)" />
    </marker>
    <marker
       inkscape:stockid="Arrow1Lend"
       orient="auto"
       refY="0"
       refX="0"
       id="Arrow1Lend"
       style="overflow:visible"
       inkscape:isstock="true">
      <path
         id="path4593"
         d="M 0,0 5,-5 -12.5,0 5,5 0,0 Z"
         style="fill:#000000;fill-opacity:1;fill-rule:evenodd;stroke:#000000;stroke-width:1pt;stroke-opacity:1"
         transform="matrix(-0.8,0,0,-0.8,-10,0)"
         inkscape:connector-curvature="0" />
    </marker>
    <marker
       inkscape:stockid="Arrow1Lend"
       orient="auto"
       refY="0"
       refX="0"
       id="marker5518"
       style="overflow:visible"
       inkscape:isstock="true">
      <path
         id="path5520"
         d="M 0,0 5,-5 -12.5,0 5,5 0,0 Z"
         style="fill:#ff0000;fill-opacity:1;fill-rule:evenodd;stroke:#ff0000;stroke-width:1pt;stroke-opacity:1"
         transform="matrix(-0.8,0,0,-0.8,-10,0)"
         inkscape:connector-curvature="0" />
    </marker>
    <marker
       inkscape:isstock="true"
       style="overflow:visible"
       id="marker5961"
       refX="0"
       refY="0"
       orient="auto"
       inkscape:stockid="Arrow1Lend">
      <path
         inkscape:connector-curvature="0"
         transform="matrix(-0.8,0,0,-0.8,-10,0)"
         style="fill:#ff0000;fill-opacity:1;fill-rule:evenodd;stroke:#ff0000;stroke-width:1pt;stroke-opacity:1"
         d="M 0,0 5,-5 -12.5,0 5,5 0,0 Z"
         id="path5963" />
    </marker>
    <marker
       inkscape:stockid="Arrow1Lend"
       orient="auto"
       refY="0"
       refX="0"
       id="marker5089"
       style="overflow:visible"
       inkscape:isstock="true">
      <path
         id="path5091"
         d="M 0,0 5,-5 -12.5,0 5,5 0,0 Z"
         style="fill:#0000ff;fill-opacity:1;fill-rule:evenodd;stroke:#0000ff;stroke-width:1pt;stroke-opacity:1"
         transform="matrix(-0.8,0,0,-0.8,-10,0)"
         inkscape:connector-curvature="0" />
    </marker>
    <marker
       inkscape:stockid="Arrow1Lend"
       orient="auto"
       refY="0"
       refX="0"
       id="marker8576"
       style="overflow:visible"
       inkscape:isstock="true">
      <path
         id="path8578"
         d="M 0,0 5,-5 -12.5,0 5,5 0,0 Z"
         style="fill:#0000ff;fill-opacity:1;fill-rule:evenodd;stroke:#0000ff;stroke-width:1pt;stroke-opacity:1"
         transform="matrix(-0.8,0,0,-0.8,-10,0)"
         inkscape:connector-curvature="0" />
    </marker>
    <marker
       inkscape:stockid="Arrow1Lend"
       orient="auto"
       refY="0"
       refX="0"
       id="marker8500"
       style="overflow:visible"
       inkscape:isstock="true">
      <path
         id="path8502"
         d="M 0,0 5,-5 -12.5,0 5,5 0,0 Z"
         style="fill:#ff0000;fill-opacity:1;fill-rule:evenodd;stroke:#ff0000;stroke-width:1pt;stroke-opacity:1"
         transform="matrix(-0.8,0,0,-0.8,-10,0)"
         inkscape:connector-curvature="0" />
    </marker>
    <marker
       inkscape:isstock="true"
       style="overflow:visible"
       id="marker7110"
       refX="0"
       refY="0"
       orient="auto"
       inkscape:stockid="Arrow1Lend">
      <path
         transform="matrix(-0.8,0,0,-0.8,-10,0)"
         style="fill:#ff0000;fill-opacity:1;fill-rule:evenodd;stroke:#ff0000;stroke-width:1pt;stroke-opacity:1"
         d="M 0,0 5,-5 -12.5,0 5,5 0,0 Z"
         id="path7112"
         inkscape:connector-curvature="0" />
    </marker>
    <marker
       inkscape:stockid="Arrow1Lend"
       orient="auto"
       refY="0"
       refX="0"
       id="marker5291"
       style="overflow:visible"
       inkscape:isstock="true">
      <path
         id="path5038"
         d="M 0,0 5,-5 -12.5,0 5,5 0,0 Z"
         style="fill:#0000ff;fill-opacity:1;fill-rule:evenodd;stroke:#0000ff;stroke-width:1pt;stroke-opacity:1"
         transform="matrix(-0.8,0,0,-0.8,-10,0)"
         inkscape:connector-curvature="0" />
    </marker>
    <marker
       inkscape:isstock="true"
       style="overflow:visible"
       id="marker4979"
       refX="0"
       refY="0"
       orient="auto"
       inkscape:stockid="Arrow1Lend">
      <path
         inkscape:connector-curvature="0"
         transform="matrix(-0.8,0,0,-0.8,-10,0)"
         style="fill:#0000ff;fill-opacity:1;fill-rule:evenodd;stroke:#ff0000;stroke-width:1pt;stroke-opacity:1"
         d="M 0,0 5,-5 -12.5,0 5,5 0,0 Z"
         id="path4981" />
    </marker>
    <marker
       inkscape:isstock="true"
       style="overflow:visible"
       id="marker4601"
       refX="0"
       refY="0"
       orient="auto"
       inkscape:stockid="Arrow1Lend">
      <path
         inkscape:connector-curvature="0"
         transform="matrix(-0.8,0,0,-0.8,-10,0)"
         style="fill:#ff0000;fill-opacity:1;fill-rule:evenodd;stroke:#ff0000;stroke-width:1pt;stroke-opacity:1"
         d="M 0,0 5,-5 -12.5,0 5,5 0,0 Z"
         id="path4603" />
    </marker>
    <marker
       inkscape:stockid="Arrow1Lstart"
       orient="auto"
       refY="0"
       refX="0"
       id="Arrow1Lstart"
       style="overflow:visible"
       inkscape:isstock="true">
      <path
         id="path4163"
         d="M 0,0 5,-5 -12.5,0 5,5 0,0 Z"
         style="fill:#000000;fill-opacity:1;fill-rule:evenodd;stroke:#000000;stroke-width:1pt;stroke-opacity:1"
         transform="matrix(0.8,0,0,0.8,10,0)"
         inkscape:connector-curvature="0" />
    </marker>
    <marker
       inkscape:stockid="Arrow1Lend"
       orient="auto"
       refY="0"
       refX="0"
       id="marker4197-8"
       style="overflow:visible"
       inkscape:isstock="true">
      <path
         id="path4199-7"
         d="M 0,0 5,-5 -12.5,0 5,5 0,0 Z"
         style="fill:#0000ff;fill-opacity:1;fill-rule:evenodd;stroke:#0000ff;stroke-width:1pt;stroke-opacity:1"
         transform="matrix(-0.8,0,0,-0.8,-10,0)"
         inkscape:connector-curvature="0" />
    </marker>
    <marker
       inkscape:stockid="Arrow1Lend"
       orient="auto"
       refY="0"
       refX="0"
       id="marker5291-3"
       style="overflow:visible"
       inkscape:isstock="true">
      <path
         inkscape:connector-curvature="0"
         id="path5038-9"
         d="M 0,0 5,-5 -12.5,0 5,5 0,0 Z"
         style="fill:#ff00ff;fill-opacity:1;fill-rule:evenodd;stroke:#ff00ff;stroke-width:1pt;stroke-opacity:1"
         transform="matrix(-0.8,0,0,-0.8,-10,0)" />
    </marker>
    <marker
       inkscape:stockid="Arrow1Lend"
       orient="auto"
       refY="0"
       refX="0"
       id="marker5089-4"
       style="overflow:visible"
       inkscape:isstock="true">
      <path
         id="path5091-2"
         d="M 0,0 5,-5 -12.5,0 5,5 0,0 Z"
         style="fill:#0000ff;fill-opacity:1;fill-rule:evenodd;stroke:#0000ff;stroke-width:1pt;stroke-opacity:1"
         transform="matrix(-0.8,0,0,-0.8,-10,0)"
         inkscape:connector-curvature="0" />
    </marker>
    <marker
       inkscape:stockid="Arrow1Lend"
       orient="auto"
       refY="0"
       refX="0"
       id="marker5089-1"
       style="overflow:visible"
       inkscape:isstock="true">
      <path
         id="path5091-8"
         d="M 0,0 5,-5 -12.5,0 5,5 0,0 Z"
         style="fill:#0000ff;fill-opacity:1;fill-rule:evenodd;stroke:#0000ff;stroke-width:1pt;stroke-opacity:1"
         transform="matrix(-0.8,0,0,-0.8,-10,0)"
         inkscape:connector-curvature="0" />
    </marker>
    <marker
       inkscape:isstock="true"
       style="overflow:visible"
       id="marker5961-8"
       refX="0"
       refY="0"
       orient="auto"
       inkscape:stockid="Arrow1Lend">
      <path
         inkscape:connector-curvature="0"
         transform="matrix(-0.8,0,0,-0.8,-10,0)"
         style="fill:#ff0000;fill-opacity:1;fill-rule:evenodd;stroke:#ff0000;stroke-width:1pt;stroke-opacity:1"
         d="M 0,0 5,-5 -12.5,0 5,5 0,0 Z"
         id="path5963-9" />
    </marker>
    <marker
       inkscape:stockid="Arrow1Lend"
       orient="auto"
       refY="0"
       refX="0"
       id="marker5089-46"
       style="overflow:visible"
       inkscape:isstock="true">
      <path
         id="path5091-7"
         d="M 0,0 5,-5 -12.5,0 5,5 0,0 Z"
         style="fill:#0000ff;fill-opacity:1;fill-rule:evenodd;stroke:#0000ff;stroke-width:1pt;stroke-opacity:1"
         transform="matrix(-0.8,0,0,-0.8,-10,0)"
         inkscape:connector-curvature="0" />
    </marker>
    <marker
       inkscape:stockid="Arrow1Lend"
       orient="auto"
       refY="0"
       refX="0"
       id="marker5518-8"
       style="overflow:visible"
       inkscape:isstock="true">
      <path
         id="path5520-4"
         d="M 0,0 5,-5 -12.5,0 5,5 0,0 Z"
         style="fill:#0000ff;fill-opacity:1;fill-rule:evenodd;stroke:#0000ff;stroke-width:1pt;stroke-opacity:1"
         transform="matrix(-0.8,0,0,-0.8,-10,0)"
         inkscape:connector-curvature="0" />
    </marker>
    <marker
       inkscape:stockid="Arrow1Lend"
       orient="auto"
       refY="0"
       refX="0"
       id="marker6097-9"
       style="overflow:visible"
       inkscape:isstock="true">
      <path
         inkscape:connector-curvature="0"
         id="path6099-6"
         d="M 0,0 5,-5 -12.5,0 5,5 0,0 Z"
         style="fill:#000000;fill-opacity:1;fill-rule:evenodd;stroke:#000000;stroke-width:1pt;stroke-opacity:1"
         transform="matrix(-0.8,0,0,-0.8,-10,0)" />
    </marker>
    <marker
       inkscape:stockid="Arrow1Lend"
       orient="auto"
       refY="0"
       refX="0"
       id="marker7278-9"
       style="overflow:visible"
       inkscape:isstock="true">
      <path
         inkscape:connector-curvature="0"
         id="path7280-9"
         d="M 0,0 5,-5 -12.5,0 5,5 0,0 Z"
         style="fill:#000000;fill-opacity:1;fill-rule:evenodd;stroke:#000000;stroke-width:1pt;stroke-opacity:1"
         transform="matrix(-0.8,0,0,-0.8,-10,0)" />
    </marker>
  </defs>
  <sodipodi:namedview
     id="base"
     pagecolor="#ffffff"
     bordercolor="#666666"
     borderopacity="1.0"
     inkscape:pageopacity="0.0"
     inkscape:pageshadow="2"
     inkscape:zoom="2.8"
     inkscape:cx="119.12126"
     inkscape:cy="185.3192"
     inkscape:document-units="px"
     inkscape:current-layer="layer1"
     showgrid="true"
     inkscape:window-width="1784"
     inkscape:window-height="841"
     inkscape:window-x="109"
     inkscape:window-y="88"
     inkscape:window-maximized="0"
     units="px"
     fit-margin-top="0"
     fit-margin-left="0"
     fit-margin-right="0"
     fit-margin-bottom="0"
     showguides="false">
    <inkscape:grid
       type="xygrid"
       id="grid4136"
       originx="-127.83805"
       originy="-254.9982" />
  </sodipodi:namedview>
  <metadata
     id="metadata7">
    <rdf:RDF>
      <cc:Work
         rdf:about="">
        <dc:format>image/svg+xml</dc:format>
        <dc:type
           rdf:resource="http://purl.org/dc/dcmitype/StillImage" />
        <dc:title />
      </cc:Work>
    </rdf:RDF>
  </metadata>
  <g
     inkscape:label="Layer 1"
     inkscape:groupmode="layer"
     id="layer1"
     transform="translate(-127.83805,-497.36389)">
    <path
       style="fill:none;fill-rule:evenodd;stroke:#000000;stroke-width:1;stroke-linecap:butt;stroke-linejoin:miter;stroke-miterlimit:4;stroke-dasharray:none;stroke-opacity:1"
       d="m 128.23787,669.42982 59.83493,-87.76343 139.61466,-3e-5 26.59328,155.27381 -152.91134,60.75929"
       id="path4546"
       inkscape:connector-curvature="0" />
    <path
       style="fill:none;fill-rule:evenodd;stroke:#000000;stroke-width:1;stroke-linecap:butt;stroke-linejoin:miter;stroke-miterlimit:4;stroke-dasharray:none;stroke-opacity:1"
       d="M 201.3694,797.69946 128.23787,669.42982"
       id="path4548"
       inkscape:connector-curvature="0" />
    <circle
       style="fill:#0000ff;fill-opacity:1;stroke:none;stroke-width:1;stroke-miterlimit:4;stroke-dasharray:none;stroke-dashoffset:0;stroke-opacity:1"
       id="path4550"
       cx="285.23489"
       cy="627.63245"
       r="5" />
    <circle
       style="fill:#ff0000;fill-opacity:1;stroke:none;stroke-width:1;stroke-miterlimit:4;stroke-dasharray:none;stroke-dashoffset:0;stroke-opacity:1"
       id="path4550-1"
       cx="191.10895"
       cy="681.32544"
       r="5" />
    <circle
       style="fill:#0000ff;fill-opacity:1;stroke:none;stroke-width:1;stroke-miterlimit:4;stroke-dasharray:none;stroke-dashoffset:0;stroke-opacity:1"
       id="path4550-3"
       cx="285.44781"
       cy="537.521"
       r="5" />
    <path
       style="fill:none;fill-rule:evenodd;stroke:#000000;stroke-width:1px;stroke-linecap:butt;stroke-linejoin:miter;stroke-opacity:1"
       d="m 285,627.36209 0,-90"
       id="path4935"
       inkscape:connector-curvature="0" />
    <path
       style="fill:none;fill-rule:evenodd;stroke:#000000;stroke-width:1px;stroke-linecap:butt;stroke-linejoin:miter;stroke-opacity:1"
       d="m 288,565.36209 -6,0"
       id="path4311"
       inkscape:connector-curvature="0" />
    <path
       style="fill:none;fill-rule:evenodd;stroke:#000000;stroke-width:1px;stroke-linecap:butt;stroke-linejoin:miter;stroke-opacity:1"
       d="m 287.91071,596.93352 -6,0"
       id="path4311-5"
       inkscape:connector-curvature="0" />
    <path
       style="fill:none;fill-rule:evenodd;stroke:#000000;stroke-width:1px;stroke-linecap:butt;stroke-linejoin:miter;stroke-opacity:1"
       d="m 285,537.36209 -95,145"
       id="path4328"
       inkscape:connector-curvature="0" />
    <path
       style="fill:none;fill-rule:evenodd;stroke:#000000;stroke-width:1px;stroke-linecap:butt;stroke-linejoin:miter;stroke-opacity:1"
       d="m 285,627.36209 -29,-46"
       id="path4330"
       inkscape:connector-curvature="0" />
    <circle
       style="fill:#ff00ff;fill-opacity:1;stroke:none;stroke-width:1;stroke-miterlimit:4;stroke-dasharray:none;stroke-dashoffset:0;stroke-opacity:1"
       id="path4550-3-9"
       cx="255.86145"
       cy="581.62091"
       r="2.5" />
    <path
       style="fill:none;fill-rule:evenodd;stroke:#000000;stroke-width:1px;stroke-linecap:butt;stroke-linejoin:miter;stroke-opacity:1"
       d="m 280.93687,581.92015 0,4 4,0"
       id="path4332"
       inkscape:connector-curvature="0" />
    <path
       style="fill:none;fill-rule:evenodd;stroke:#000000;stroke-width:1px;stroke-linecap:butt;stroke-linejoin:miter;stroke-opacity:1"
       d="m 269.73214,578.73709 4,6"
       id="path4334"
       inkscape:connector-curvature="0" />
    <path
       style="fill:none;fill-rule:evenodd;stroke:#000000;stroke-width:1px;stroke-linecap:butt;stroke-linejoin:miter;stroke-opacity:1"
       d="m 273.69643,578.87995 -4,6"
       id="path4334-0"
       inkscape:connector-curvature="0" />
    <path
       id="path4351"
       style="fill:none;fill-rule:evenodd;stroke:#000000;stroke-width:0.7;stroke-linecap:butt;stroke-linejoin:miter;stroke-opacity:1;stroke-miterlimit:4;stroke-dasharray:1.4,0.7;stroke-dashoffset:0"
       d="m 262,590.36209 c 0.18942,0.24007 0.17179,0.21609 0.39162,0.21609 0.0298,0 0.0627,0.0133 0.0893,0 0.0753,-0.0376 0.10328,-0.14093 0.17857,-0.17857 0.0532,-0.0266 0.12533,0.0266 0.17857,0 0.0377,-0.0188 0.0516,-0.0705 0.0893,-0.0893 0.0266,-0.0133 0.0595,0 0.0893,0 0.0595,0 0.1221,0.0188 0.17857,0 0.0399,-0.0133 0.0516,-0.0705 0.0893,-0.0893 0.0397,-0.0199 0.3163,0.0136 0.35714,0 0.0399,-0.0133 0.0516,-0.0705 0.0893,-0.0893 0.0532,-0.0266 0.12904,0.033 0.17857,0 0.0595,-0.0595 0.11905,-0.11905 0.17857,-0.17858 0.0298,0 0.0627,0.0133 0.0893,0 0.0753,-0.0376 0.0987,-0.15195 0.17858,-0.17857 0.40645,0 0.005,0.0421 0.26785,-0.0893 0.0532,-0.0266 0.12534,0.0266 0.17857,0 0.0753,-0.0377 0.10328,-0.14092 0.17858,-0.17857 0.0532,-0.0266 0.12533,0.0266 0.17857,0 0.0376,-0.0188 0.0516,-0.0705 0.0893,-0.0893 0.0842,-0.0421 0.17656,-0.0665 0.26786,-0.0893 0.0289,-0.007 0.0627,0.0133 0.0893,0 0.0879,-0.0439 0.26928,-0.31321 0.35714,-0.35714 0.0266,-0.0133 0.0627,0.0133 0.0893,0 0.0376,-0.0188 0.0543,-0.0659 0.0893,-0.0893 0.0554,-0.0369 0.12533,-0.0494 0.17857,-0.0893 0.0674,-0.0505 0.11905,-0.11905 0.17857,-0.17858 0.14881,-0.1488 0.29762,-0.29761 0.44643,-0.44642 0.0595,-0.0595 0.10853,-0.13188 0.17857,-0.17858 0.0554,-0.0369 0.13152,-0.0422 0.17857,-0.0893 0.006,-0.006 0.16749,-0.34051 0.17858,-0.35714 0.0233,-0.035 0.0705,-0.0516 0.0893,-0.0893 0.0133,-0.0266 -0.009,-0.0611 0,-0.0893 0.0541,-0.16216 0.0764,-0.1657 0.17857,-0.26785 0.0298,-0.0298 0.0705,-0.0516 0.0893,-0.0893 0.0133,-0.0266 -0.009,-0.0611 0,-0.0893 0.021,-0.0631 0.0682,-0.11544 0.0893,-0.17858 0.009,-0.0282 -0.007,-0.0604 0,-0.0893 0.0228,-0.0913 0.0665,-0.17655 0.0893,-0.26785 0.0257,-0.10265 -0.0458,-0.26547 0,-0.35715 0.0376,-0.0753 0.13188,-0.10853 0.17857,-0.17857 0.0165,-0.0248 0,-0.0595 0,-0.0893 0,-0.0595 0,-0.11904 0,-0.17857 0,-0.23809 0,-0.47619 0,-0.71428 0,-0.0304 -0.0161,-0.30883 0,-0.35715 0.0211,-0.0631 0.0682,-0.11543 0.0893,-0.17857 0.0187,-0.056 0,-0.28526 0,-0.35714 0,-0.26786 0,-0.53572 0,-0.80357 0,-0.17857 0,-0.35715 0,-0.53572 0,-0.0212 0.01,-0.33713 0,-0.35714 -0.0188,-0.0376 -0.076,-0.0494 -0.0893,-0.0893 -0.0188,-0.0565 0.0441,-0.21853 0,-0.17857 -0.10017,0.0907 -0.13013,0.23689 -0.19519,0.35534" />
    <path
       inkscape:connector-curvature="0"
       id="path4351-5"
       style="fill:none;fill-rule:evenodd;stroke:#000000;stroke-width:0.69999999;stroke-linecap:butt;stroke-linejoin:miter;stroke-miterlimit:4;stroke-dasharray:1.4, 0.7;stroke-dashoffset:0;stroke-opacity:1"
       d="m 249.38612,590.04066 c -0.18942,0.24007 -0.17179,0.21609 -0.39162,0.21609 -0.0298,0 -0.0627,0.0133 -0.0893,0 -0.0753,-0.0376 -0.10328,-0.14093 -0.17857,-0.17857 -0.0532,-0.0266 -0.12533,0.0266 -0.17857,0 -0.0377,-0.0188 -0.0516,-0.0705 -0.0893,-0.0893 -0.0266,-0.0133 -0.0595,0 -0.0893,0 -0.0595,0 -0.1221,0.0188 -0.17857,0 -0.0399,-0.0133 -0.0516,-0.0705 -0.0893,-0.0893 -0.0397,-0.0199 -0.3163,0.0136 -0.35714,0 -0.0399,-0.0133 -0.0516,-0.0705 -0.0893,-0.0893 -0.0532,-0.0266 -0.12904,0.033 -0.17857,0 -0.0595,-0.0595 -0.11905,-0.11905 -0.17857,-0.17858 -0.0298,0 -0.0627,0.0133 -0.0893,0 -0.0753,-0.0376 -0.0987,-0.15195 -0.17858,-0.17857 -0.40645,0 -0.005,0.0421 -0.26785,-0.0893 -0.0532,-0.0266 -0.12534,0.0266 -0.17857,0 -0.0753,-0.0377 -0.10328,-0.14092 -0.17858,-0.17857 -0.0532,-0.0266 -0.12533,0.0266 -0.17857,0 -0.0376,-0.0188 -0.0516,-0.0705 -0.0893,-0.0893 -0.0842,-0.0421 -0.17656,-0.0665 -0.26786,-0.0893 -0.0289,-0.007 -0.0627,0.0133 -0.0893,0 -0.0879,-0.0439 -0.26928,-0.31321 -0.35714,-0.35714 -0.0266,-0.0133 -0.0627,0.0133 -0.0893,0 -0.0376,-0.0188 -0.0543,-0.0659 -0.0893,-0.0893 -0.0554,-0.0369 -0.12533,-0.0494 -0.17857,-0.0893 -0.0674,-0.0505 -0.11905,-0.11905 -0.17857,-0.17858 -0.14881,-0.1488 -0.29762,-0.29761 -0.44643,-0.44642 -0.0595,-0.0595 -0.10853,-0.13188 -0.17857,-0.17858 -0.0554,-0.0369 -0.13152,-0.0422 -0.17857,-0.0893 -0.006,-0.006 -0.16749,-0.34051 -0.17858,-0.35714 -0.0233,-0.035 -0.0705,-0.0516 -0.0893,-0.0893 -0.0133,-0.0266 0.009,-0.0611 0,-0.0893 -0.0541,-0.16216 -0.0764,-0.1657 -0.17857,-0.26785 -0.0298,-0.0298 -0.0705,-0.0516 -0.0893,-0.0893 -0.0133,-0.0266 0.009,-0.0611 0,-0.0893 -0.021,-0.0631 -0.0682,-0.11544 -0.0893,-0.17858 -0.009,-0.0282 0.007,-0.0604 0,-0.0893 -0.0228,-0.0913 -0.0665,-0.17655 -0.0893,-0.26785 -0.0257,-0.10265 0.0458,-0.26547 0,-0.35715 -0.0376,-0.0753 -0.13188,-0.10853 -0.17857,-0.17857 -0.0165,-0.0248 0,-0.0595 0,-0.0893 0,-0.0595 0,-0.11904 0,-0.17857 0,-0.23809 0,-0.47619 0,-0.71428 0,-0.0304 0.0161,-0.30883 0,-0.35715 -0.0211,-0.0631 -0.0682,-0.11543 -0.0893,-0.17857 -0.0187,-0.056 0,-0.28526 0,-0.35714 0,-0.26786 0,-0.53572 0,-0.80357 0,-0.17857 0,-0.35715 0,-0.53572 0,-0.0212 -0.01,-0.33713 0,-0.35714 0.0188,-0.0376 0.076,-0.0494 0.0893,-0.0893 0.0188,-0.0565 -0.0441,-0.21853 0,-0.17857 0.10017,0.0907 0.13013,0.23689 0.19519,0.35534" />
    <path
       inkscape:connector-curvature="0"
       id="path4351-55"
       style="fill:none;fill-rule:evenodd;stroke:#000000;stroke-width:0.69999999;stroke-linecap:butt;stroke-linejoin:miter;stroke-miterlimit:4;stroke-dasharray:1.4, 0.7;stroke-dashoffset:0;stroke-opacity:1"
       d="m 261.75,572.9073 c 0.18942,-0.24007 0.17179,-0.21609 0.39162,-0.21609 0.0298,0 0.0627,-0.0133 0.0893,0 0.0753,0.0376 0.10328,0.14093 0.17857,0.17857 0.0532,0.0266 0.12533,-0.0266 0.17857,0 0.0377,0.0188 0.0516,0.0705 0.0893,0.0893 0.0266,0.0133 0.0595,0 0.0893,0 0.0595,0 0.1221,-0.0188 0.17857,0 0.0399,0.0133 0.0516,0.0705 0.0893,0.0893 0.0397,0.0199 0.3163,-0.0136 0.35714,0 0.0399,0.0133 0.0516,0.0705 0.0893,0.0893 0.0532,0.0266 0.12904,-0.033 0.17857,0 0.0595,0.0595 0.11905,0.11905 0.17857,0.17858 0.0298,0 0.0627,-0.0133 0.0893,0 0.0753,0.0376 0.0987,0.15195 0.17858,0.17857 0.40645,0 0.005,-0.0421 0.26785,0.0893 0.0532,0.0266 0.12534,-0.0266 0.17857,0 0.0753,0.0377 0.10328,0.14092 0.17858,0.17857 0.0532,0.0266 0.12533,-0.0266 0.17857,0 0.0376,0.0188 0.0516,0.0705 0.0893,0.0893 0.0842,0.0421 0.17656,0.0665 0.26786,0.0893 0.0289,0.007 0.0627,-0.0133 0.0893,0 0.0879,0.0439 0.26928,0.31321 0.35714,0.35714 0.0266,0.0133 0.0627,-0.0133 0.0893,0 0.0376,0.0188 0.0543,0.0659 0.0893,0.0893 0.0554,0.0369 0.12533,0.0494 0.17857,0.0893 0.0674,0.0505 0.11905,0.11905 0.17857,0.17858 0.14881,0.1488 0.29762,0.29761 0.44643,0.44642 0.0595,0.0595 0.10853,0.13188 0.17857,0.17858 0.0554,0.0369 0.13152,0.0422 0.17857,0.0893 0.006,0.006 0.16749,0.34051 0.17858,0.35714 0.0233,0.035 0.0705,0.0516 0.0893,0.0893 0.0133,0.0266 -0.009,0.0611 0,0.0893 0.0541,0.16216 0.0764,0.1657 0.17857,0.26785 0.0298,0.0298 0.0705,0.0516 0.0893,0.0893 0.0133,0.0266 -0.009,0.0611 0,0.0893 0.021,0.0631 0.0682,0.11544 0.0893,0.17858 0.009,0.0282 -0.007,0.0604 0,0.0893 0.0228,0.0913 0.0665,0.17655 0.0893,0.26785 0.0257,0.10265 -0.0458,0.26547 0,0.35715 0.0376,0.0753 0.13188,0.10853 0.17857,0.17857 0.0165,0.0248 0,0.0595 0,0.0893 0,0.0595 0,0.11904 0,0.17857 0,0.23809 0,0.47619 0,0.71428 0,0.0304 -0.0161,0.30883 0,0.35715 0.0211,0.0631 0.0682,0.11543 0.0893,0.17857 0.0187,0.056 0,0.28526 0,0.35714 0,0.26786 0,0.53572 0,0.80357 0,0.17857 0,0.35715 0,0.53572 0,0.0212 0.01,0.33713 0,0.35714 -0.0188,0.0376 -0.076,0.0494 -0.0893,0.0893 -0.0188,0.0565 0.0441,0.21853 0,0.17857 -0.10017,-0.0907 -0.13013,-0.23689 -0.19519,-0.35534" />
    <path
       style="fill:none;fill-rule:evenodd;stroke:#000000;stroke-width:1px;stroke-linecap:butt;stroke-linejoin:miter;stroke-opacity:1"
       d="m 266,587.36209 3,3"
       id="path4385"
       inkscape:connector-curvature="0" />
    <path
       style="fill:none;fill-rule:evenodd;stroke:#000000;stroke-width:1px;stroke-linecap:butt;stroke-linejoin:miter;stroke-opacity:1"
       d="m 266,576.36209 3,-2"
       id="path4387"
       inkscape:connector-curvature="0" />
    <path
       style="fill:none;fill-rule:evenodd;stroke:#000000;stroke-width:1px;stroke-linecap:butt;stroke-linejoin:miter;stroke-opacity:1"
       d="m 241,588.36209 5,-3"
       id="path4389"
       inkscape:connector-curvature="0" />
  </g>
</svg>
