<?xml version="1.0" encoding="utf-8" standalone="no"?>
<!DOCTYPE svg PUBLIC "-//W3C//DTD SVG 1.1//EN"
  "http://www.w3.org/Graphics/SVG/1.1/DTD/svg11.dtd">
<!-- Created with matplotlib (http://matplotlib.org/) -->
<svg height="381pt" version="1.1" viewBox="0 0 480 381" width="480pt" xmlns="http://www.w3.org/2000/svg" xmlns:xlink="http://www.w3.org/1999/xlink">
 <defs>
  <style type="text/css">
*{stroke-linecap:butt;stroke-linejoin:round;}
  </style>
 </defs>
 <g id="figure_1">
  <g id="patch_1">
   <path d="
M0 381.421
L480.111 381.421
L480.111 0
L0 0
z
" style="fill:#ffffff;"/>
  </g>
  <g id="axes_1">
   <g id="patch_2">
    <path d="
M26.5112 358.607
L472.911 358.607
L472.911 13.0069
L26.5112 13.0069
z
" style="fill:#ffffff;"/>
   </g>
   <g id="line2d_1">
    <path clip-path="url(#p5bf3394346)" d="
M249.711 259.864
L252.811 259.767
L255.899 259.475
L258.963 258.99
L261.989 258.313
L264.968 257.448
L267.886 256.397
L270.733 255.165
L273.496 253.757
L276.166 252.178
L278.731 250.435
L281.182 248.534
L283.508 246.483
L285.701 244.29
L287.753 241.963
L289.654 239.512
L291.397 236.947
L292.976 234.277
L294.384 231.514
L295.616 228.667
L296.666 225.749
L297.532 222.771
L298.208 219.744
L298.693 216.68
L298.985 213.593
L299.083 210.493
L298.985 207.393
L298.693 204.305
L298.208 201.241
L297.532 198.214
L296.666 195.236
L295.616 192.318
L294.384 189.471
L292.976 186.708
L291.397 184.038
L289.654 181.473
L287.753 179.022
L285.701 176.696
L283.508 174.502
L281.182 172.451
L278.731 170.55
L276.166 168.807
L273.496 167.228
L270.733 165.82
L267.886 164.588
L264.968 163.538
L261.989 162.672
L258.963 161.996
L255.899 161.51
L252.811 161.219
L249.711 161.121
L246.611 161.219
L243.523 161.51
L240.46 161.996
L237.433 162.672
L234.455 163.538
L231.536 164.588
L228.69 165.82
L225.926 167.228
L223.257 168.807
L220.691 170.55
L218.241 172.451
L215.914 174.502
L213.721 176.696
L211.67 179.022
L209.769 181.473
L208.026 184.038
L206.447 186.708
L205.039 189.471
L203.807 192.318
L202.756 195.236
L201.891 198.214
L201.214 201.241
L200.729 204.305
L200.437 207.393
L200.34 210.493
L200.437 213.593
L200.729 216.68
L201.214 219.744
L201.891 222.771
L202.756 225.749
L203.807 228.667
L205.039 231.514
L206.447 234.277
L208.026 236.947
L209.769 239.512
L211.67 241.963
L213.721 244.29
L215.914 246.483
L218.241 248.534
L220.691 250.435
L223.257 252.178
L225.926 253.757
L228.69 255.165
L231.536 256.397
L234.455 257.448
L237.433 258.313
L240.46 258.99
L243.523 259.475
L246.611 259.767
L249.711 259.864
L249.711 259.864" style="fill:none;stroke:#ff0000;stroke-linecap:square;"/>
   </g>
   <g id="line2d_2">
    <path clip-path="url(#p5bf3394346)" d="
M249.711 259.864
L252.811 259.767
L255.899 259.475
L258.963 258.99
L261.989 258.313
L264.968 257.448
L267.886 256.397
L270.733 255.165
L273.496 253.757
L276.166 252.178
L278.731 250.435
L281.182 248.534
L283.508 246.483
L285.701 244.29
L287.753 241.964
L291.259 237.785
L291.958 237.303
L292.874 236.943
L294.153 236.775
L296.004 236.897
L298.701 237.425
L302.576 238.483
L307.99 240.187
L336.092 249.495
L349.356 253.613
L363.787 257.744
L378.407 261.447
L391.983 264.252
L403.192 265.749
L410.836 265.658
L414.054 263.891
L412.489 260.57
L406.359 256.003
L396.41 250.625
L383.778 244.915
L369.774 239.317
L355.671 234.177
L342.521 229.713
L321.629 223.044
L308.938 218.922
L305.185 217.501
L302.7 216.343
L301.143 215.354
L300.225 214.468
L299.726 213.639
L299.491 212.84
L299.455 211.274
L299.76 209.706
L300.401 208.102
L301.525 206.415
L303.312 204.575
L305.878 202.499
L314.702 195.966
L316.413 194.479
L317.906 192.983
L319.094 191.512
L319.898 190.101
L320.26 188.789
L320.144 187.608
L319.543 186.584
L318.479 185.735
L317 185.066
L315.174 184.574
L313.086 184.242
L308.492 183.952
L296.553 183.774
L294.026 183.336
L292.125 182.632
L290.663 181.711
L289.495 180.622
L288.604 179.334
L288.324 178.549
L288.241 177.585
L288.463 176.329
L289.141 174.614
L290.471 172.217
L292.672 168.861
L295.964 164.24
L313.499 140.391
L321.513 129.05
L329.902 116.602
L337.941 103.842
L344.804 91.7972
L349.691 81.5989
L351.967 74.301
L351.281 70.6945
L347.638 71.1563
L341.401 75.5755
L333.212 83.375
L323.878 93.6245
L314.227 105.213
L304.98 117.038
L296.67 128.165
L283.872 145.975
L276.028 156.774
L273.514 159.909
L271.642 161.92
L270.217 163.107
L269.084 163.724
L268.131 163.97
L267.283 163.991
L265.729 163.709
L259.723 162.147
L256.668 161.614
L253.585 161.273
L250.487 161.127
L247.386 161.176
L244.294 161.419
L241.223 161.856
L238.186 162.485
L235.194 163.304
L232.26 164.308
L229.394 165.495
L226.609 166.86
L223.915 168.397
L221.322 170.099
L218.842 171.962
L216.483 173.975
L213.705 176.68
L210.937 179.429
L209.605 180.38
L208.798 180.767
L207.838 181.064
L206.668 181.24
L205.214 181.263
L203.392 181.098
L201.107 180.708
L198.257 180.063
L190.48 177.93
L172.753 172.791
L165.293 170.768
L157.261 168.749
L148.883 166.86
L140.451 165.236
L132.306 164.009
L124.816 163.299
L118.35 163.199
L113.246 163.77
L109.781 165.026
L108.145 166.941
L108.422 169.444
L110.581 172.431
L114.482 175.772
L119.886 179.324
L126.48 182.947
L133.906 186.511
L141.793 189.906
L149.784 193.052
L157.562 195.898
L171.516 200.614
L186.626 205.528
L192.77 207.807
L194.879 208.769
L196.479 209.656
L197.669 210.493
L198.538 211.296
L199.165 212.081
L199.94 213.624
L200.369 215.157
L201.186 219.749
L201.789 223.603
L201.776 225.239
L201.615 226.12
L201.291 227.071
L200.745 228.121
L199.91 229.311
L198.704 230.688
L197.046 232.307
L194.849 234.234
L188.553 239.272
L173.975 250.593
L167.954 255.439
L161.599 260.751
L155.147 266.418
L148.876 272.284
L143.096 278.153
L138.119 283.795
L134.238 288.968
L131.699 293.433
L130.679 296.974
L131.267 299.423
L133.454 300.671
L137.14 300.679
L142.136 299.487
L148.186 297.203
L154.993 293.998
L162.241 290.084
L169.624 285.7
L176.866 281.084
L183.74 276.464
L195.758 267.947
L208.614 258.611
L214.069 254.981
L216.088 253.84
L217.746 253.067
L219.121 252.596
L220.283 252.365
L221.286 252.319
L222.99 252.599
L224.482 253.153
L232.987 256.945
L235.937 257.904
L238.941 258.675
L241.988 259.256
L245.065 259.645
L248.16 259.84
L249.711 259.864
L249.711 259.864" style="fill:none;stroke:#0000ff;stroke-linecap:square;"/>
   </g>
   <g id="patch_3">
    <path d="
M26.5112 13.0069
L472.911 13.0069" style="fill:none;stroke:#000000;stroke-linecap:square;stroke-linejoin:miter;"/>
   </g>
   <g id="patch_4">
    <path d="
M472.911 358.607
L472.911 13.0069" style="fill:none;stroke:#000000;stroke-linecap:square;stroke-linejoin:miter;"/>
   </g>
   <g id="patch_5">
    <path d="
M26.5112 358.607
L472.911 358.607" style="fill:none;stroke:#000000;stroke-linecap:square;stroke-linejoin:miter;"/>
   </g>
   <g id="patch_6">
    <path d="
M26.5112 358.607
L26.5112 13.0069" style="fill:none;stroke:#000000;stroke-linecap:square;stroke-linejoin:miter;"/>
   </g>
   <g id="matplotlib.axis_1">
    <g id="xtick_1">
     <g id="line2d_3">
      <defs>
       <path d="
M0 0
L0 -4" id="m93b0483c22" style="stroke:#000000;stroke-width:0.5;"/>
      </defs>
      <g>
       <use style="stroke:#000000;stroke-width:0.5;" x="52.2255357143" xlink:href="#m93b0483c22" y="358.606875"/>
      </g>
     </g>
     <g id="line2d_4">
      <defs>
       <path d="
M0 0
L0 4" id="m741efc42ff" style="stroke:#000000;stroke-width:0.5;"/>
      </defs>
      <g>
       <use style="stroke:#000000;stroke-width:0.5;" x="52.2255357143" xlink:href="#m741efc42ff" y="13.006875"/>
      </g>
     </g>
     <g id="text_1">
      <!-- −4 -->
      <defs>
       <path d="
M37.7969 64.3125
L12.8906 25.3906
L37.7969 25.3906
z

M35.2031 72.9062
L47.6094 72.9062
L47.6094 25.3906
L58.0156 25.3906
L58.0156 17.1875
L47.6094 17.1875
L47.6094 0
L37.7969 0
L37.7969 17.1875
L4.89062 17.1875
L4.89062 26.7031
z
" id="DejaVuSans-34"/>
       <path d="
M10.5938 35.5
L73.1875 35.5
L73.1875 27.2031
L10.5938 27.2031
z
" id="DejaVuSans-2212"/>
      </defs>
      <g transform="translate(44.3524107143 371.725)scale(0.12 -0.12)">
       <use xlink:href="#DejaVuSans-2212"/>
       <use x="83.7890625" xlink:href="#DejaVuSans-34"/>
      </g>
     </g>
    </g>
    <g id="xtick_2">
     <g id="line2d_5">
      <g>
       <use style="stroke:#000000;stroke-width:0.5;" x="150.968392857" xlink:href="#m93b0483c22" y="358.606875"/>
      </g>
     </g>
     <g id="line2d_6">
      <g>
       <use style="stroke:#000000;stroke-width:0.5;" x="150.968392857" xlink:href="#m741efc42ff" y="13.006875"/>
      </g>
     </g>
     <g id="text_2">
      <!-- −2 -->
      <defs>
       <path d="
M19.1875 8.29688
L53.6094 8.29688
L53.6094 0
L7.32812 0
L7.32812 8.29688
Q12.9375 14.1094 22.625 23.8906
Q32.3281 33.6875 34.8125 36.5312
Q39.5469 41.8438 41.4219 45.5312
Q43.3125 49.2188 43.3125 52.7812
Q43.3125 58.5938 39.2344 62.25
Q35.1562 65.9219 28.6094 65.9219
Q23.9688 65.9219 18.8125 64.3125
Q13.6719 62.7031 7.8125 59.4219
L7.8125 69.3906
Q13.7656 71.7812 18.9375 73
Q24.125 74.2188 28.4219 74.2188
Q39.75 74.2188 46.4844 68.5469
Q53.2188 62.8906 53.2188 53.4219
Q53.2188 48.9219 51.5312 44.8906
Q49.8594 40.875 45.4062 35.4062
Q44.1875 33.9844 37.6406 27.2188
Q31.1094 20.4531 19.1875 8.29688" id="DejaVuSans-32"/>
      </defs>
      <g transform="translate(143.359642857 371.725)scale(0.12 -0.12)">
       <use xlink:href="#DejaVuSans-2212"/>
       <use x="83.7890625" xlink:href="#DejaVuSans-32"/>
      </g>
     </g>
    </g>
    <g id="xtick_3">
     <g id="line2d_7">
      <g>
       <use style="stroke:#000000;stroke-width:0.5;" x="249.71125" xlink:href="#m93b0483c22" y="358.606875"/>
      </g>
     </g>
     <g id="line2d_8">
      <g>
       <use style="stroke:#000000;stroke-width:0.5;" x="249.71125" xlink:href="#m741efc42ff" y="13.006875"/>
      </g>
     </g>
     <g id="text_3">
      <!-- 0 -->
      <defs>
       <path d="
M31.7812 66.4062
Q24.1719 66.4062 20.3281 58.9062
Q16.5 51.4219 16.5 36.375
Q16.5 21.3906 20.3281 13.8906
Q24.1719 6.39062 31.7812 6.39062
Q39.4531 6.39062 43.2812 13.8906
Q47.125 21.3906 47.125 36.375
Q47.125 51.4219 43.2812 58.9062
Q39.4531 66.4062 31.7812 66.4062
M31.7812 74.2188
Q44.0469 74.2188 50.5156 64.5156
Q56.9844 54.8281 56.9844 36.375
Q56.9844 17.9688 50.5156 8.26562
Q44.0469 -1.42188 31.7812 -1.42188
Q19.5312 -1.42188 13.0625 8.26562
Q6.59375 17.9688 6.59375 36.375
Q6.59375 54.8281 13.0625 64.5156
Q19.5312 74.2188 31.7812 74.2188" id="DejaVuSans-30"/>
      </defs>
      <g transform="translate(246.6878125 371.725)scale(0.12 -0.12)">
       <use xlink:href="#DejaVuSans-30"/>
      </g>
     </g>
    </g>
    <g id="xtick_4">
     <g id="line2d_9">
      <g>
       <use style="stroke:#000000;stroke-width:0.5;" x="348.454107143" xlink:href="#m93b0483c22" y="358.606875"/>
      </g>
     </g>
     <g id="line2d_10">
      <g>
       <use style="stroke:#000000;stroke-width:0.5;" x="348.454107143" xlink:href="#m741efc42ff" y="13.006875"/>
      </g>
     </g>
     <g id="text_4">
      <!-- 2 -->
      <g transform="translate(345.677232143 371.725)scale(0.12 -0.12)">
       <use xlink:href="#DejaVuSans-32"/>
      </g>
     </g>
    </g>
    <g id="xtick_5">
     <g id="line2d_11">
      <g>
       <use style="stroke:#000000;stroke-width:0.5;" x="447.196964286" xlink:href="#m93b0483c22" y="358.606875"/>
      </g>
     </g>
     <g id="line2d_12">
      <g>
       <use style="stroke:#000000;stroke-width:0.5;" x="447.196964286" xlink:href="#m741efc42ff" y="13.006875"/>
      </g>
     </g>
     <g id="text_5">
      <!-- 4 -->
      <g transform="translate(444.009464286 371.725)scale(0.12 -0.12)">
       <use xlink:href="#DejaVuSans-34"/>
      </g>
     </g>
    </g>
   </g>
   <g id="matplotlib.axis_2">
    <g id="ytick_1">
     <g id="line2d_13">
      <defs>
       <path d="
M0 0
L4 0" id="m728421d6d4" style="stroke:#000000;stroke-width:0.5;"/>
      </defs>
      <g>
       <use style="stroke:#000000;stroke-width:0.5;" x="26.51125" xlink:href="#m728421d6d4" y="358.606875"/>
      </g>
     </g>
     <g id="line2d_14">
      <defs>
       <path d="
M0 0
L-4 0" id="mcb0005524f" style="stroke:#000000;stroke-width:0.5;"/>
      </defs>
      <g>
       <use style="stroke:#000000;stroke-width:0.5;" x="472.91125" xlink:href="#mcb0005524f" y="358.606875"/>
      </g>
     </g>
     <g id="text_6">
      <!-- −2 -->
      <g transform="translate(7.29375 361.918125)scale(0.12 -0.12)">
       <use xlink:href="#DejaVuSans-2212"/>
       <use x="83.7890625" xlink:href="#DejaVuSans-32"/>
      </g>
     </g>
    </g>
    <g id="ytick_2">
     <g id="line2d_15">
      <g>
       <use style="stroke:#000000;stroke-width:0.5;" x="26.51125" xlink:href="#m728421d6d4" y="309.235446429"/>
      </g>
     </g>
     <g id="line2d_16">
      <g>
       <use style="stroke:#000000;stroke-width:0.5;" x="472.91125" xlink:href="#mcb0005524f" y="309.235446429"/>
      </g>
     </g>
     <g id="text_7">
      <!-- −1 -->
      <defs>
       <path d="
M12.4062 8.29688
L28.5156 8.29688
L28.5156 63.9219
L10.9844 60.4062
L10.9844 69.3906
L28.4219 72.9062
L38.2812 72.9062
L38.2812 8.29688
L54.3906 8.29688
L54.3906 0
L12.4062 0
z
" id="DejaVuSans-31"/>
      </defs>
      <g transform="translate(7.2 312.546696429)scale(0.12 -0.12)">
       <use xlink:href="#DejaVuSans-2212"/>
       <use x="83.7890625" xlink:href="#DejaVuSans-31"/>
      </g>
     </g>
    </g>
    <g id="ytick_3">
     <g id="line2d_17">
      <g>
       <use style="stroke:#000000;stroke-width:0.5;" x="26.51125" xlink:href="#m728421d6d4" y="259.864017857"/>
      </g>
     </g>
     <g id="line2d_18">
      <g>
       <use style="stroke:#000000;stroke-width:0.5;" x="472.91125" xlink:href="#mcb0005524f" y="259.864017857"/>
      </g>
     </g>
     <g id="text_8">
      <!-- 0 -->
      <g transform="translate(16.464375 263.175267857)scale(0.12 -0.12)">
       <use xlink:href="#DejaVuSans-30"/>
      </g>
     </g>
    </g>
    <g id="ytick_4">
     <g id="line2d_19">
      <g>
       <use style="stroke:#000000;stroke-width:0.5;" x="26.51125" xlink:href="#m728421d6d4" y="210.492589286"/>
      </g>
     </g>
     <g id="line2d_20">
      <g>
       <use style="stroke:#000000;stroke-width:0.5;" x="472.91125" xlink:href="#mcb0005524f" y="210.492589286"/>
      </g>
     </g>
     <g id="text_9">
      <!-- 1 -->
      <g transform="translate(17.3025 213.803839286)scale(0.12 -0.12)">
       <use xlink:href="#DejaVuSans-31"/>
      </g>
     </g>
    </g>
    <g id="ytick_5">
     <g id="line2d_21">
      <g>
       <use style="stroke:#000000;stroke-width:0.5;" x="26.51125" xlink:href="#m728421d6d4" y="161.121160714"/>
      </g>
     </g>
     <g id="line2d_22">
      <g>
       <use style="stroke:#000000;stroke-width:0.5;" x="472.91125" xlink:href="#mcb0005524f" y="161.121160714"/>
      </g>
     </g>
     <g id="text_10">
      <!-- 2 -->
      <g transform="translate(16.9575 164.432410714)scale(0.12 -0.12)">
       <use xlink:href="#DejaVuSans-32"/>
      </g>
     </g>
    </g>
    <g id="ytick_6">
     <g id="line2d_23">
      <g>
       <use style="stroke:#000000;stroke-width:0.5;" x="26.51125" xlink:href="#m728421d6d4" y="111.749732143"/>
      </g>
     </g>
     <g id="line2d_24">
      <g>
       <use style="stroke:#000000;stroke-width:0.5;" x="472.91125" xlink:href="#mcb0005524f" y="111.749732143"/>
      </g>
     </g>
     <g id="text_11">
      <!-- 3 -->
      <defs>
       <path d="
M40.5781 39.3125
Q47.6562 37.7969 51.625 33
Q55.6094 28.2188 55.6094 21.1875
Q55.6094 10.4062 48.1875 4.48438
Q40.7656 -1.42188 27.0938 -1.42188
Q22.5156 -1.42188 17.6562 -0.515625
Q12.7969 0.390625 7.625 2.20312
L7.625 11.7188
Q11.7188 9.32812 16.5938 8.10938
Q21.4844 6.89062 26.8125 6.89062
Q36.0781 6.89062 40.9375 10.5469
Q45.7969 14.2031 45.7969 21.1875
Q45.7969 27.6406 41.2812 31.2656
Q36.7656 34.9062 28.7188 34.9062
L20.2188 34.9062
L20.2188 43.0156
L29.1094 43.0156
Q36.375 43.0156 40.2344 45.9219
Q44.0938 48.8281 44.0938 54.2969
Q44.0938 59.9062 40.1094 62.9062
Q36.1406 65.9219 28.7188 65.9219
Q24.6562 65.9219 20.0156 65.0312
Q15.375 64.1562 9.8125 62.3125
L9.8125 71.0938
Q15.4375 72.6562 20.3438 73.4375
Q25.25 74.2188 29.5938 74.2188
Q40.8281 74.2188 47.3594 69.1094
Q53.9062 64.0156 53.9062 55.3281
Q53.9062 49.2656 50.4375 45.0938
Q46.9688 40.9219 40.5781 39.3125" id="DejaVuSans-33"/>
      </defs>
      <g transform="translate(16.753125 115.060982143)scale(0.12 -0.12)">
       <use xlink:href="#DejaVuSans-33"/>
      </g>
     </g>
    </g>
    <g id="ytick_7">
     <g id="line2d_25">
      <g>
       <use style="stroke:#000000;stroke-width:0.5;" x="26.51125" xlink:href="#m728421d6d4" y="62.3783035714"/>
      </g>
     </g>
     <g id="line2d_26">
      <g>
       <use style="stroke:#000000;stroke-width:0.5;" x="472.91125" xlink:href="#mcb0005524f" y="62.3783035714"/>
      </g>
     </g>
     <g id="text_12">
      <!-- 4 -->
      <g transform="translate(16.13625 65.6895535714)scale(0.12 -0.12)">
       <use xlink:href="#DejaVuSans-34"/>
      </g>
     </g>
    </g>
    <g id="ytick_8">
     <g id="line2d_27">
      <g>
       <use style="stroke:#000000;stroke-width:0.5;" x="26.51125" xlink:href="#m728421d6d4" y="13.006875"/>
      </g>
     </g>
     <g id="line2d_28">
      <g>
       <use style="stroke:#000000;stroke-width:0.5;" x="472.91125" xlink:href="#mcb0005524f" y="13.006875"/>
      </g>
     </g>
     <g id="text_13">
      <!-- 5 -->
      <defs>
       <path d="
M10.7969 72.9062
L49.5156 72.9062
L49.5156 64.5938
L19.8281 64.5938
L19.8281 46.7344
Q21.9688 47.4688 24.1094 47.8281
Q26.2656 48.1875 28.4219 48.1875
Q40.625 48.1875 47.75 41.5
Q54.8906 34.8125 54.8906 23.3906
Q54.8906 11.625 47.5625 5.09375
Q40.2344 -1.42188 26.9062 -1.42188
Q22.3125 -1.42188 17.5469 -0.640625
Q12.7969 0.140625 7.71875 1.70312
L7.71875 11.625
Q12.1094 9.23438 16.7969 8.0625
Q21.4844 6.89062 26.7031 6.89062
Q35.1562 6.89062 40.0781 11.3281
Q45.0156 15.7656 45.0156 23.3906
Q45.0156 31 40.0781 35.4375
Q35.1562 39.8906 26.7031 39.8906
Q22.75 39.8906 18.8125 39.0156
Q14.8906 38.1406 10.7969 36.2812
z
" id="DejaVuSans-35"/>
      </defs>
      <g transform="translate(16.850625 16.318125)scale(0.12 -0.12)">
       <use xlink:href="#DejaVuSans-35"/>
      </g>
     </g>
    </g>
   </g>
  </g>
 </g>
 <defs>
  <clipPath id="p5bf3394346">
   <rect height="345.6" width="446.4" x="26.51125" y="13.006875"/>
  </clipPath>
 </defs>
</svg>
