<?xml version="1.0" encoding="utf-8" standalone="no"?>
<!DOCTYPE svg PUBLIC "-//W3C//DTD SVG 1.1//EN"
  "http://www.w3.org/Graphics/SVG/1.1/DTD/svg11.dtd">
<!-- Created with matplotlib (http://matplotlib.org/) -->
<svg height="381pt" version="1.1" viewBox="0 0 714 381" width="714pt" xmlns="http://www.w3.org/2000/svg" xmlns:xlink="http://www.w3.org/1999/xlink">
 <defs>
  <style type="text/css">
*{stroke-linecap:butt;stroke-linejoin:round;}
  </style>
 </defs>
 <g id="figure_1">
  <g id="patch_1">
   <path d="
M0 381.421
L714.07 381.421
L714.07 0
L0 0
z
" style="fill:#ffffff;"/>
  </g>
  <g id="axes_1">
   <g id="patch_2">
    <path d="
M34.4575 358.607
L704.058 358.607
L704.058 13.0069
L34.4575 13.0069
z
" style="fill:#ffffff;"/>
   </g>
   <g id="line2d_1">
    <path clip-path="url(#p6c844520ae)" d="
M34.4575 92.4426
L41.0755 102.718
L48.2951 114.379
L56.1163 127.468
L64.5392 141.998
L74.7669 160.086
L91.011 189.334
L107.857 219.547
L118.085 237.44
L126.507 251.742
L133.727 263.598
L140.345 274.078
L146.963 284.137
L152.979 292.873
L158.394 300.375
L163.809 307.51
L169.223 314.256
L174.036 319.907
L178.849 325.218
L183.663 330.177
L187.874 334.216
L192.085 337.968
L196.297 341.425
L200.508 344.58
L204.72 347.428
L208.329 349.62
L211.939 351.578
L215.549 353.301
L219.159 354.784
L222.769 356.028
L226.378 357.029
L229.988 357.786
L233.598 358.298
L237.208 358.565
L240.818 358.586
L244.427 358.36
L248.037 357.889
L251.647 357.173
L255.257 356.213
L258.867 355.01
L262.476 353.567
L266.086 351.884
L269.696 349.965
L273.306 347.812
L276.916 345.429
L281.127 342.361
L285.339 338.99
L289.55 335.322
L293.761 331.365
L297.973 327.125
L302.786 321.944
L307.599 316.42
L312.412 310.564
L317.827 303.6
L323.241 296.258
L328.656 288.563
L334.672 279.628
L341.29 269.372
L348.51 257.73
L356.331 244.657
L364.754 230.141
L374.982 212.065
L391.226 182.823
L408.673 151.534
L418.901 133.655
L427.324 119.37
L434.544 107.531
L441.162 97.0685
L447.779 87.0308
L453.796 78.3144
L459.211 70.8321
L464.625 63.7182
L470.04 56.9953
L474.853 51.3652
L479.666 46.0753
L484.479 41.1392
L488.691 37.12
L492.902 33.389
L497.113 29.9534
L501.325 26.8198
L505.536 23.9944
L509.146 21.822
L512.756 19.8831
L516.366 18.1804
L519.975 16.7164
L523.585 15.4932
L527.195 14.5125
L530.805 13.7757
L534.415 13.2839
L538.024 13.0377
L541.634 13.0375
L545.244 13.2834
L548.854 13.7749
L552.464 14.5113
L556.073 15.4917
L559.683 16.7145
L563.293 18.1782
L566.903 19.8805
L570.513 21.8191
L574.122 23.9912
L577.732 26.3937
L581.944 29.4832
L586.155 32.8757
L590.367 36.5646
L594.578 40.5427
L598.789 44.8023
L603.602 50.0046
L608.416 55.5506
L613.229 61.4263
L618.643 68.412
L624.058 75.7738
L630.074 84.3658
L635.489 92.4426
L635.489 92.4426" style="fill:none;stroke:#000000;stroke-linecap:square;"/>
   </g>
   <g id="line2d_2">
    <path clip-path="url(#p6c844520ae)" d="
M34.4575 92.4426
L39.2706 92.5608
L44.0836 92.915
L48.8967 93.5043
L53.7098 94.3272
L58.5228 95.3817
L63.3359 96.6651
L68.149 98.174
L72.962 99.9048
L77.7751 101.853
L83.1898 104.299
L88.6045 107.005
L94.0192 109.964
L99.4339 113.166
L105.45 116.996
L111.467 121.099
L117.483 125.457
L124.101 130.526
L131.32 136.356
L138.54 142.468
L146.963 149.908
L155.987 158.187
L166.817 168.439
L181.858 183.018
L205.321 205.764
L216.151 215.939
L225.175 224.13
L233.598 231.468
L240.818 237.479
L248.037 243.195
L254.655 248.149
L260.672 252.394
L266.688 256.376
L272.704 260.078
L278.119 263.16
L283.534 265.994
L288.948 268.571
L294.363 270.883
L299.176 272.71
L303.989 274.316
L308.802 275.699
L313.615 276.854
L318.428 277.778
L323.241 278.47
L328.054 278.927
L332.868 279.148
L337.681 279.134
L342.494 278.883
L347.307 278.396
L352.12 277.675
L356.933 276.722
L361.746 275.538
L366.559 274.127
L371.372 272.493
L376.185 270.639
L381.6 268.298
L387.015 265.692
L392.429 262.83
L397.844 259.721
L403.86 255.99
L409.877 251.981
L415.893 247.71
L422.511 242.731
L429.129 237.479
L436.348 231.468
L444.17 224.665
L452.593 217.049
L462.82 207.481
L475.455 195.332
L510.951 161.005
L521.179 151.541
L529.602 144.036
L537.423 137.356
L544.642 131.477
L551.26 126.358
L557.878 121.523
L563.895 117.395
L569.911 113.536
L575.326 110.308
L580.74 107.322
L586.155 104.587
L591.57 102.112
L596.985 99.9048
L601.798 98.174
L606.611 96.6651
L611.424 95.3817
L616.237 94.3272
L621.05 93.5043
L625.863 92.915
L630.676 92.5608
L635.489 92.4426
L635.489 92.4426" style="fill:none;stroke:#ff0000;stroke-linecap:square;"/>
   </g>
   <g id="line2d_3">
    <path clip-path="url(#p6c844520ae)" d="
M34.4575 185.807
L53.7098 214.875
L63.9375 229.913
L72.3604 241.926
L80.1816 252.694
L87.4012 262.239
L94.0192 270.607
L100.036 277.864
L106.052 284.756
L111.467 290.625
L116.881 296.159
L121.694 300.782
L126.507 305.113
L131.32 309.143
L136.134 312.86
L140.345 315.849
L144.556 318.586
L148.768 321.066
L152.979 323.284
L157.191 325.235
L161.402 326.916
L165.614 328.324
L169.223 329.31
L172.833 330.093
L176.443 330.67
L180.053 331.04
L183.663 331.204
L187.272 331.161
L190.882 330.911
L194.492 330.454
L198.102 329.792
L201.712 328.924
L205.321 327.852
L208.931 326.579
L213.143 324.839
L217.354 322.831
L221.565 320.557
L225.777 318.021
L229.988 315.23
L234.2 312.187
L239.013 308.41
L243.826 304.324
L248.639 299.937
L253.452 295.261
L258.867 289.67
L264.281 283.747
L269.696 277.509
L275.712 270.235
L281.729 262.628
L288.347 253.909
L295.566 244.028
L303.388 232.952
L312.412 219.785
L323.843 202.688
L361.746 145.64
L370.77 132.654
L378.592 121.777
L385.811 112.116
L392.429 103.627
L398.446 96.2499
L404.462 89.2269
L409.877 83.232
L415.291 77.5656
L420.706 72.246
L425.519 67.8224
L430.332 63.6974
L435.145 59.8814
L439.357 56.8036
L443.568 53.9758
L447.779 51.4035
L451.991 49.0917
L456.202 47.0449
L460.414 45.2669
L464.625 43.7613
L468.235 42.6898
L471.845 41.8221
L475.455 41.1595
L479.064 40.7027
L482.674 40.4526
L486.284 40.4095
L489.894 40.5734
L493.504 40.9441
L497.113 41.521
L500.723 42.3035
L504.333 43.2902
L507.943 44.4799
L512.154 46.122
L516.366 48.0349
L520.577 50.2148
L524.789 52.6574
L529 55.3581
L533.211 58.3116
L537.423 61.5122
L542.236 65.4646
L547.049 69.7216
L551.862 74.2724
L556.675 79.1056
L562.09 84.8651
L567.505 90.9479
L573.521 98.0621
L579.537 105.523
L586.155 114.096
L593.375 123.838
L601.196 134.788
L610.22 147.842
L621.05 163.941
L635.489 185.807
L635.489 185.807" style="fill:none;stroke:#0000ff;stroke-linecap:square;"/>
   </g>
   <g id="patch_3">
    <path d="
M34.4575 13.0069
L704.058 13.0069" style="fill:none;stroke:#000000;stroke-linecap:square;stroke-linejoin:miter;"/>
   </g>
   <g id="patch_4">
    <path d="
M704.058 358.607
L704.058 13.0069" style="fill:none;stroke:#000000;stroke-linecap:square;stroke-linejoin:miter;"/>
   </g>
   <g id="patch_5">
    <path d="
M34.4575 358.607
L704.058 358.607" style="fill:none;stroke:#000000;stroke-linecap:square;stroke-linejoin:miter;"/>
   </g>
   <g id="patch_6">
    <path d="
M34.4575 358.607
L34.4575 13.0069" style="fill:none;stroke:#000000;stroke-linecap:square;stroke-linejoin:miter;"/>
   </g>
   <g id="matplotlib.axis_1">
    <g id="xtick_1">
     <g id="line2d_4">
      <defs>
       <path d="
M0 0
L0 -4" id="m93b0483c22" style="stroke:#000000;stroke-width:0.5;"/>
      </defs>
      <g>
       <use style="stroke:#000000;stroke-width:0.5;" x="34.4575" xlink:href="#m93b0483c22" y="358.606875"/>
      </g>
     </g>
     <g id="line2d_5">
      <defs>
       <path d="
M0 0
L0 4" id="m741efc42ff" style="stroke:#000000;stroke-width:0.5;"/>
      </defs>
      <g>
       <use style="stroke:#000000;stroke-width:0.5;" x="34.4575" xlink:href="#m741efc42ff" y="13.006875"/>
      </g>
     </g>
     <g id="text_1">
      <!-- 0 -->
      <defs>
       <path d="
M31.7812 66.4062
Q24.1719 66.4062 20.3281 58.9062
Q16.5 51.4219 16.5 36.375
Q16.5 21.3906 20.3281 13.8906
Q24.1719 6.39062 31.7812 6.39062
Q39.4531 6.39062 43.2812 13.8906
Q47.125 21.3906 47.125 36.375
Q47.125 51.4219 43.2812 58.9062
Q39.4531 66.4062 31.7812 66.4062
M31.7812 74.2188
Q44.0469 74.2188 50.5156 64.5156
Q56.9844 54.8281 56.9844 36.375
Q56.9844 17.9688 50.5156 8.26562
Q44.0469 -1.42188 31.7812 -1.42188
Q19.5312 -1.42188 13.0625 8.26562
Q6.59375 17.9688 6.59375 36.375
Q6.59375 54.8281 13.0625 64.5156
Q19.5312 74.2188 31.7812 74.2188" id="DejaVuSans-30"/>
      </defs>
      <g transform="translate(31.4340625 371.725)scale(0.12 -0.12)">
       <use xlink:href="#DejaVuSans-30"/>
      </g>
     </g>
    </g>
    <g id="xtick_2">
     <g id="line2d_6">
      <g>
       <use style="stroke:#000000;stroke-width:0.5;" x="130.114642857" xlink:href="#m93b0483c22" y="358.606875"/>
      </g>
     </g>
     <g id="line2d_7">
      <g>
       <use style="stroke:#000000;stroke-width:0.5;" x="130.114642857" xlink:href="#m741efc42ff" y="13.006875"/>
      </g>
     </g>
     <g id="text_2">
      <!-- 1 -->
      <defs>
       <path d="
M12.4062 8.29688
L28.5156 8.29688
L28.5156 63.9219
L10.9844 60.4062
L10.9844 69.3906
L28.4219 72.9062
L38.2812 72.9062
L38.2812 8.29688
L54.3906 8.29688
L54.3906 0
L12.4062 0
z
" id="DejaVuSans-31"/>
      </defs>
      <g transform="translate(127.510267857 371.725)scale(0.12 -0.12)">
       <use xlink:href="#DejaVuSans-31"/>
      </g>
     </g>
    </g>
    <g id="xtick_3">
     <g id="line2d_8">
      <g>
       <use style="stroke:#000000;stroke-width:0.5;" x="225.771785714" xlink:href="#m93b0483c22" y="358.606875"/>
      </g>
     </g>
     <g id="line2d_9">
      <g>
       <use style="stroke:#000000;stroke-width:0.5;" x="225.771785714" xlink:href="#m741efc42ff" y="13.006875"/>
      </g>
     </g>
     <g id="text_3">
      <!-- 2 -->
      <defs>
       <path d="
M19.1875 8.29688
L53.6094 8.29688
L53.6094 0
L7.32812 0
L7.32812 8.29688
Q12.9375 14.1094 22.625 23.8906
Q32.3281 33.6875 34.8125 36.5312
Q39.5469 41.8438 41.4219 45.5312
Q43.3125 49.2188 43.3125 52.7812
Q43.3125 58.5938 39.2344 62.25
Q35.1562 65.9219 28.6094 65.9219
Q23.9688 65.9219 18.8125 64.3125
Q13.6719 62.7031 7.8125 59.4219
L7.8125 69.3906
Q13.7656 71.7812 18.9375 73
Q24.125 74.2188 28.4219 74.2188
Q39.75 74.2188 46.4844 68.5469
Q53.2188 62.8906 53.2188 53.4219
Q53.2188 48.9219 51.5312 44.8906
Q49.8594 40.875 45.4062 35.4062
Q44.1875 33.9844 37.6406 27.2188
Q31.1094 20.4531 19.1875 8.29688" id="DejaVuSans-32"/>
      </defs>
      <g transform="translate(222.994910714 371.725)scale(0.12 -0.12)">
       <use xlink:href="#DejaVuSans-32"/>
      </g>
     </g>
    </g>
    <g id="xtick_4">
     <g id="line2d_10">
      <g>
       <use style="stroke:#000000;stroke-width:0.5;" x="321.428928571" xlink:href="#m93b0483c22" y="358.606875"/>
      </g>
     </g>
     <g id="line2d_11">
      <g>
       <use style="stroke:#000000;stroke-width:0.5;" x="321.428928571" xlink:href="#m741efc42ff" y="13.006875"/>
      </g>
     </g>
     <g id="text_4">
      <!-- 3 -->
      <defs>
       <path d="
M40.5781 39.3125
Q47.6562 37.7969 51.625 33
Q55.6094 28.2188 55.6094 21.1875
Q55.6094 10.4062 48.1875 4.48438
Q40.7656 -1.42188 27.0938 -1.42188
Q22.5156 -1.42188 17.6562 -0.515625
Q12.7969 0.390625 7.625 2.20312
L7.625 11.7188
Q11.7188 9.32812 16.5938 8.10938
Q21.4844 6.89062 26.8125 6.89062
Q36.0781 6.89062 40.9375 10.5469
Q45.7969 14.2031 45.7969 21.1875
Q45.7969 27.6406 41.2812 31.2656
Q36.7656 34.9062 28.7188 34.9062
L20.2188 34.9062
L20.2188 43.0156
L29.1094 43.0156
Q36.375 43.0156 40.2344 45.9219
Q44.0938 48.8281 44.0938 54.2969
Q44.0938 59.9062 40.1094 62.9062
Q36.1406 65.9219 28.7188 65.9219
Q24.6562 65.9219 20.0156 65.0312
Q15.375 64.1562 9.8125 62.3125
L9.8125 71.0938
Q15.4375 72.6562 20.3438 73.4375
Q25.25 74.2188 29.5938 74.2188
Q40.8281 74.2188 47.3594 69.1094
Q53.9062 64.0156 53.9062 55.3281
Q53.9062 49.2656 50.4375 45.0938
Q46.9688 40.9219 40.5781 39.3125" id="DejaVuSans-33"/>
      </defs>
      <g transform="translate(318.549866071 371.725)scale(0.12 -0.12)">
       <use xlink:href="#DejaVuSans-33"/>
      </g>
     </g>
    </g>
    <g id="xtick_5">
     <g id="line2d_12">
      <g>
       <use style="stroke:#000000;stroke-width:0.5;" x="417.086071429" xlink:href="#m93b0483c22" y="358.606875"/>
      </g>
     </g>
     <g id="line2d_13">
      <g>
       <use style="stroke:#000000;stroke-width:0.5;" x="417.086071429" xlink:href="#m741efc42ff" y="13.006875"/>
      </g>
     </g>
     <g id="text_5">
      <!-- 4 -->
      <defs>
       <path d="
M37.7969 64.3125
L12.8906 25.3906
L37.7969 25.3906
z

M35.2031 72.9062
L47.6094 72.9062
L47.6094 25.3906
L58.0156 25.3906
L58.0156 17.1875
L47.6094 17.1875
L47.6094 0
L37.7969 0
L37.7969 17.1875
L4.89062 17.1875
L4.89062 26.7031
z
" id="DejaVuSans-34"/>
      </defs>
      <g transform="translate(413.898571429 371.725)scale(0.12 -0.12)">
       <use xlink:href="#DejaVuSans-34"/>
      </g>
     </g>
    </g>
    <g id="xtick_6">
     <g id="line2d_14">
      <g>
       <use style="stroke:#000000;stroke-width:0.5;" x="512.743214286" xlink:href="#m93b0483c22" y="358.606875"/>
      </g>
     </g>
     <g id="line2d_15">
      <g>
       <use style="stroke:#000000;stroke-width:0.5;" x="512.743214286" xlink:href="#m741efc42ff" y="13.006875"/>
      </g>
     </g>
     <g id="text_6">
      <!-- 5 -->
      <defs>
       <path d="
M10.7969 72.9062
L49.5156 72.9062
L49.5156 64.5938
L19.8281 64.5938
L19.8281 46.7344
Q21.9688 47.4688 24.1094 47.8281
Q26.2656 48.1875 28.4219 48.1875
Q40.625 48.1875 47.75 41.5
Q54.8906 34.8125 54.8906 23.3906
Q54.8906 11.625 47.5625 5.09375
Q40.2344 -1.42188 26.9062 -1.42188
Q22.3125 -1.42188 17.5469 -0.640625
Q12.7969 0.140625 7.71875 1.70312
L7.71875 11.625
Q12.1094 9.23438 16.7969 8.0625
Q21.4844 6.89062 26.7031 6.89062
Q35.1562 6.89062 40.0781 11.3281
Q45.0156 15.7656 45.0156 23.3906
Q45.0156 31 40.0781 35.4375
Q35.1562 39.8906 26.7031 39.8906
Q22.75 39.8906 18.8125 39.0156
Q14.8906 38.1406 10.7969 36.2812
z
" id="DejaVuSans-35"/>
      </defs>
      <g transform="translate(509.912901786 371.725)scale(0.12 -0.12)">
       <use xlink:href="#DejaVuSans-35"/>
      </g>
     </g>
    </g>
    <g id="xtick_7">
     <g id="line2d_16">
      <g>
       <use style="stroke:#000000;stroke-width:0.5;" x="608.400357143" xlink:href="#m93b0483c22" y="358.606875"/>
      </g>
     </g>
     <g id="line2d_17">
      <g>
       <use style="stroke:#000000;stroke-width:0.5;" x="608.400357143" xlink:href="#m741efc42ff" y="13.006875"/>
      </g>
     </g>
     <g id="text_7">
      <!-- 6 -->
      <defs>
       <path d="
M33.0156 40.375
Q26.375 40.375 22.4844 35.8281
Q18.6094 31.2969 18.6094 23.3906
Q18.6094 15.5312 22.4844 10.9531
Q26.375 6.39062 33.0156 6.39062
Q39.6562 6.39062 43.5312 10.9531
Q47.4062 15.5312 47.4062 23.3906
Q47.4062 31.2969 43.5312 35.8281
Q39.6562 40.375 33.0156 40.375
M52.5938 71.2969
L52.5938 62.3125
Q48.875 64.0625 45.0938 64.9844
Q41.3125 65.9219 37.5938 65.9219
Q27.8281 65.9219 22.6719 59.3281
Q17.5312 52.7344 16.7969 39.4062
Q19.6719 43.6562 24.0156 45.9219
Q28.375 48.1875 33.5938 48.1875
Q44.5781 48.1875 50.9531 41.5156
Q57.3281 34.8594 57.3281 23.3906
Q57.3281 12.1562 50.6875 5.35938
Q44.0469 -1.42188 33.0156 -1.42188
Q20.3594 -1.42188 13.6719 8.26562
Q6.98438 17.9688 6.98438 36.375
Q6.98438 53.6562 15.1875 63.9375
Q23.3906 74.2188 37.2031 74.2188
Q40.9219 74.2188 44.7031 73.4844
Q48.4844 72.75 52.5938 71.2969" id="DejaVuSans-36"/>
      </defs>
      <g transform="translate(605.379732143 371.725)scale(0.12 -0.12)">
       <use xlink:href="#DejaVuSans-36"/>
      </g>
     </g>
    </g>
    <g id="xtick_8">
     <g id="line2d_18">
      <g>
       <use style="stroke:#000000;stroke-width:0.5;" x="704.0575" xlink:href="#m93b0483c22" y="358.606875"/>
      </g>
     </g>
     <g id="line2d_19">
      <g>
       <use style="stroke:#000000;stroke-width:0.5;" x="704.0575" xlink:href="#m741efc42ff" y="13.006875"/>
      </g>
     </g>
     <g id="text_8">
      <!-- 7 -->
      <defs>
       <path d="
M8.20312 72.9062
L55.0781 72.9062
L55.0781 68.7031
L28.6094 0
L18.3125 0
L43.2188 64.5938
L8.20312 64.5938
z
" id="DejaVuSans-37"/>
      </defs>
      <g transform="translate(701.245 371.725)scale(0.12 -0.12)">
       <use xlink:href="#DejaVuSans-37"/>
      </g>
     </g>
    </g>
   </g>
   <g id="matplotlib.axis_2">
    <g id="ytick_1">
     <g id="line2d_20">
      <defs>
       <path d="
M0 0
L4 0" id="m728421d6d4" style="stroke:#000000;stroke-width:0.5;"/>
      </defs>
      <g>
       <use style="stroke:#000000;stroke-width:0.5;" x="34.4575" xlink:href="#m728421d6d4" y="358.606875"/>
      </g>
     </g>
     <g id="line2d_21">
      <defs>
       <path d="
M0 0
L-4 0" id="mcb0005524f" style="stroke:#000000;stroke-width:0.5;"/>
      </defs>
      <g>
       <use style="stroke:#000000;stroke-width:0.5;" x="704.0575" xlink:href="#mcb0005524f" y="358.606875"/>
      </g>
     </g>
     <g id="text_9">
      <!-- −10 -->
      <defs>
       <path d="
M10.5938 35.5
L73.1875 35.5
L73.1875 27.2031
L10.5938 27.2031
z
" id="DejaVuSans-2212"/>
      </defs>
      <g transform="translate(7.2 361.918125)scale(0.12 -0.12)">
       <use xlink:href="#DejaVuSans-2212"/>
       <use x="83.7890625" xlink:href="#DejaVuSans-31"/>
       <use x="147.412109375" xlink:href="#DejaVuSans-30"/>
      </g>
     </g>
    </g>
    <g id="ytick_2">
     <g id="line2d_22">
      <g>
       <use style="stroke:#000000;stroke-width:0.5;" x="34.4575" xlink:href="#m728421d6d4" y="272.206875"/>
      </g>
     </g>
     <g id="line2d_23">
      <g>
       <use style="stroke:#000000;stroke-width:0.5;" x="704.0575" xlink:href="#mcb0005524f" y="272.206875"/>
      </g>
     </g>
     <g id="text_10">
      <!-- −5 -->
      <g transform="translate(15.08625 275.518125)scale(0.12 -0.12)">
       <use xlink:href="#DejaVuSans-2212"/>
       <use x="83.7890625" xlink:href="#DejaVuSans-35"/>
      </g>
     </g>
    </g>
    <g id="ytick_3">
     <g id="line2d_24">
      <g>
       <use style="stroke:#000000;stroke-width:0.5;" x="34.4575" xlink:href="#m728421d6d4" y="185.806875"/>
      </g>
     </g>
     <g id="line2d_25">
      <g>
       <use style="stroke:#000000;stroke-width:0.5;" x="704.0575" xlink:href="#mcb0005524f" y="185.806875"/>
      </g>
     </g>
     <g id="text_11">
      <!-- 0 -->
      <g transform="translate(24.410625 189.118125)scale(0.12 -0.12)">
       <use xlink:href="#DejaVuSans-30"/>
      </g>
     </g>
    </g>
    <g id="ytick_4">
     <g id="line2d_26">
      <g>
       <use style="stroke:#000000;stroke-width:0.5;" x="34.4575" xlink:href="#m728421d6d4" y="99.406875"/>
      </g>
     </g>
     <g id="line2d_27">
      <g>
       <use style="stroke:#000000;stroke-width:0.5;" x="704.0575" xlink:href="#mcb0005524f" y="99.406875"/>
      </g>
     </g>
     <g id="text_12">
      <!-- 5 -->
      <g transform="translate(24.796875 102.718125)scale(0.12 -0.12)">
       <use xlink:href="#DejaVuSans-35"/>
      </g>
     </g>
    </g>
    <g id="ytick_5">
     <g id="line2d_28">
      <g>
       <use style="stroke:#000000;stroke-width:0.5;" x="34.4575" xlink:href="#m728421d6d4" y="13.006875"/>
      </g>
     </g>
     <g id="line2d_29">
      <g>
       <use style="stroke:#000000;stroke-width:0.5;" x="704.0575" xlink:href="#mcb0005524f" y="13.006875"/>
      </g>
     </g>
     <g id="text_13">
      <!-- 10 -->
      <g transform="translate(17.3025 16.318125)scale(0.12 -0.12)">
       <use xlink:href="#DejaVuSans-31"/>
       <use x="63.623046875" xlink:href="#DejaVuSans-30"/>
      </g>
     </g>
    </g>
   </g>
  </g>
 </g>
 <defs>
  <clipPath id="p6c844520ae">
   <rect height="345.6" width="669.6" x="34.4575" y="13.006875"/>
  </clipPath>
 </defs>
</svg>
