<?xml version="1.0" encoding="utf-8" standalone="no"?>
<!DOCTYPE svg PUBLIC "-//W3C//DTD SVG 1.1//EN"
  "http://www.w3.org/Graphics/SVG/1.1/DTD/svg11.dtd">
<!-- Created with matplotlib (http://matplotlib.org/) -->
<svg height="391pt" version="1.1" viewBox="0 0 703 391" width="703pt" xmlns="http://www.w3.org/2000/svg" xmlns:xlink="http://www.w3.org/1999/xlink">
 <defs>
  <style type="text/css">
*{stroke-linecap:butt;stroke-linejoin:round;}
  </style>
 </defs>
 <g id="figure_1">
  <g id="patch_1">
   <path d="
M0 391.555
L703.311 391.555
L703.311 0
L0 0
z
" style="fill:#ffffff;"/>
  </g>
  <g id="axes_1">
   <g id="PathCollection_1">
    <defs>
     <path d="
M0 2.73861
C0.726289 2.73861 1.42293 2.45006 1.93649 1.93649
C2.45006 1.42293 2.73861 0.726289 2.73861 0
C2.73861 -0.726289 2.45006 -1.42293 1.93649 -1.93649
C1.42293 -2.45006 0.726289 -2.73861 0 -2.73861
C-0.726289 -2.73861 -1.42293 -2.45006 -1.93649 -1.93649
C-2.45006 -1.42293 -2.73861 -0.726289 -2.73861 0
C-2.73861 0.726289 -2.45006 1.42293 -1.93649 1.93649
C-1.42293 2.45006 -0.726289 2.73861 0 2.73861
z
" id="mb4c8c9359e" style="stroke:#000000;"/>
    </defs>
    <g clip-path="url(#p594965a0ca)">
     <use style="fill:#0000ff;stroke:#000000;" x="170.172630637" xlink:href="#mb4c8c9359e" y="195.94175"/>
     <use style="fill:#0000ff;stroke:#000000;" x="169.751556053" xlink:href="#mb4c8c9359e" y="180.500274882"/>
     <use style="fill:#0000ff;stroke:#000000;" x="168.493269015" xlink:href="#mb4c8c9359e" y="165.780825978"/>
     <use style="fill:#0000ff;stroke:#000000;" x="166.412521787" xlink:href="#mb4c8c9359e" y="152.47166836"/>
     <use style="fill:#0000ff;stroke:#000000;" x="163.53370923" xlink:href="#mb4c8c9359e" y="141.195123445"/>
     <use style="fill:#0000ff;stroke:#000000;" x="159.890582787" xlink:href="#mb4c8c9359e" y="132.478469943"/>
     <use style="fill:#0000ff;stroke:#000000;" x="155.525854786" xlink:href="#mb4c8c9359e" y="126.729288881"/>
     <use style="fill:#0000ff;stroke:#000000;" x="150.490697672" xlink:href="#mb4c8c9359e" y="124.216405577"/>
     <use style="fill:#0000ff;stroke:#000000;" x="144.844144057" xlink:href="#mb4c8c9359e" y="125.057319661"/>
     <use style="fill:#0000ff;stroke:#000000;" x="138.652394622" xlink:href="#mb4c8c9359e" y="129.212710926"/>
     <use style="fill:#0000ff;stroke:#000000;" x="131.988041965" xlink:href="#mb4c8c9359e" y="136.488277893"/>
     <use style="fill:#0000ff;stroke:#000000;" x="124.92921953" xlink:href="#mb4c8c9359e" y="146.543823139"/>
     <use style="fill:#0000ff;stroke:#000000;" x="117.558685555" xlink:href="#mb4c8c9359e" y="158.909160543"/>
     <use style="fill:#0000ff;stroke:#000000;" x="109.962852812" xlink:href="#mb4c8c9359e" y="173.006100671"/>
     <use style="fill:#0000ff;stroke:#000000;" x="102.230775495" xlink:href="#mb4c8c9359e" y="188.17548627"/>
     <use style="fill:#0000ff;stroke:#000000;" x="94.4531051419" xlink:href="#mb4c8c9359e" y="203.70801373"/>
     <use style="fill:#0000ff;stroke:#000000;" x="86.7210278251" xlink:href="#mb4c8c9359e" y="218.877399329"/>
     <use style="fill:#0000ff;stroke:#000000;" x="79.1251950823" xlink:href="#mb4c8c9359e" y="232.974339457"/>
     <use style="fill:#0000ff;stroke:#000000;" x="71.7546611073" xlink:href="#mb4c8c9359e" y="245.339676861"/>
     <use style="fill:#0000ff;stroke:#000000;" x="64.6958386721" xlink:href="#mb4c8c9359e" y="255.395222107"/>
     <use style="fill:#0000ff;stroke:#000000;" x="58.0314860158" xlink:href="#mb4c8c9359e" y="262.670789074"/>
     <use style="fill:#0000ff;stroke:#000000;" x="51.8397365799" xlink:href="#mb4c8c9359e" y="266.826180339"/>
     <use style="fill:#0000ff;stroke:#000000;" x="46.1931829656" xlink:href="#mb4c8c9359e" y="267.667094423"/>
     <use style="fill:#0000ff;stroke:#000000;" x="41.1580258511" xlink:href="#mb4c8c9359e" y="265.154211119"/>
     <use style="fill:#0000ff;stroke:#000000;" x="36.79329785" xlink:href="#mb4c8c9359e" y="259.405030057"/>
     <use style="fill:#0000ff;stroke:#000000;" x="33.1501714074" xlink:href="#mb4c8c9359e" y="250.688376555"/>
     <use style="fill:#0000ff;stroke:#000000;" x="30.2713588499" xlink:href="#mb4c8c9359e" y="239.41183164"/>
     <use style="fill:#0000ff;stroke:#000000;" x="28.1906116226" xlink:href="#mb4c8c9359e" y="226.102674022"/>
     <use style="fill:#0000ff;stroke:#000000;" x="26.9323245843" xlink:href="#mb4c8c9359e" y="211.383225118"/>
     <use style="fill:#0000ff;stroke:#000000;" x="26.51125" xlink:href="#mb4c8c9359e" y="195.94175"/>
    </g>
   </g>
   <g id="PathCollection_2">
    <defs>
     <path d="
M0 2.73861
C0.726289 2.73861 1.42293 2.45006 1.93649 1.93649
C2.45006 1.42293 2.73861 0.726289 2.73861 0
C2.73861 -0.726289 2.45006 -1.42293 1.93649 -1.93649
C1.42293 -2.45006 0.726289 -2.73861 0 -2.73861
C-0.726289 -2.73861 -1.42293 -2.45006 -1.93649 -1.93649
C-2.45006 -1.42293 -2.73861 -0.726289 -2.73861 0
C-2.73861 0.726289 -2.45006 1.42293 -1.93649 1.93649
C-1.42293 2.45006 -0.726289 2.73861 0 2.73861
z
" id="m129eb1497c" style="stroke:#000000;"/>
    </defs>
    <g clip-path="url(#p594965a0ca)">
     <use style="fill:#ff0000;stroke:#000000;" x="153.42425603" xlink:href="#m129eb1497c" y="234.380824341"/>
     <use style="fill:#ff0000;stroke:#000000;" x="167.890624662" xlink:href="#m129eb1497c" y="227.900388325"/>
     <use style="fill:#ff0000;stroke:#000000;" x="176.393439" xlink:href="#m129eb1497c" y="213.164985389"/>
     <use style="fill:#ff0000;stroke:#000000;" x="178.073111697" xlink:href="#m129eb1497c" y="203.570402251"/>
     <use style="fill:#ff0000;stroke:#000000;" x="183.629018393" xlink:href="#m129eb1497c" y="188.971649577"/>
     <use style="fill:#ff0000;stroke:#000000;" x="185.467008142" xlink:href="#m129eb1497c" y="178.902713716"/>
     <use style="fill:#ff0000;stroke:#000000;" x="185.652801281" xlink:href="#m129eb1497c" y="170.586371249"/>
     <use style="fill:#ff0000;stroke:#000000;" x="184.419424529" xlink:href="#m129eb1497c" y="169.859222075"/>
     <use style="fill:#ff0000;stroke:#000000;" x="178.460453294" xlink:href="#m129eb1497c" y="162.561691001"/>
     <use style="fill:#ff0000;stroke:#000000;" x="167.606392582" xlink:href="#m129eb1497c" y="167.45416417"/>
     <use style="fill:#ff0000;stroke:#000000;" x="167.210942273" xlink:href="#m129eb1497c" y="166.714907133"/>
     <use style="fill:#ff0000;stroke:#000000;" x="147.226245783" xlink:href="#m129eb1497c" y="173.119267359"/>
     <use style="fill:#ff0000;stroke:#000000;" x="138.019053528" xlink:href="#m129eb1497c" y="175.407970528"/>
     <use style="fill:#ff0000;stroke:#000000;" x="125.587565452" xlink:href="#m129eb1497c" y="182.306694168"/>
     <use style="fill:#ff0000;stroke:#000000;" x="105.769182525" xlink:href="#m129eb1497c" y="191.320116451"/>
     <use style="fill:#ff0000;stroke:#000000;" x="89.113546769" xlink:href="#m129eb1497c" y="203.755526648"/>
     <use style="fill:#ff0000;stroke:#000000;" x="75.4844614364" xlink:href="#m129eb1497c" y="204.602181088"/>
     <use style="fill:#ff0000;stroke:#000000;" x="62.4295548755" xlink:href="#m129eb1497c" y="217.068232252"/>
     <use style="fill:#ff0000;stroke:#000000;" x="48.1510562241" xlink:href="#m129eb1497c" y="226.377282282"/>
     <use style="fill:#ff0000;stroke:#000000;" x="31.3829721702" xlink:href="#m129eb1497c" y="225.028841801"/>
     <use style="fill:#ff0000;stroke:#000000;" x="24.5589570419" xlink:href="#m129eb1497c" y="227.069710313"/>
     <use style="fill:#ff0000;stroke:#000000;" x="18.4840375314" xlink:href="#m129eb1497c" y="227.606520508"/>
     <use style="fill:#ff0000;stroke:#000000;" x="14.5379842434" xlink:href="#m129eb1497c" y="229.761536847"/>
     <use style="fill:#ff0000;stroke:#000000;" x="10.1404051208" xlink:href="#m129eb1497c" y="216.061619954"/>
     <use style="fill:#ff0000;stroke:#000000;" x="10.383825603" xlink:href="#m129eb1497c" y="205.192393532"/>
     <use style="fill:#ff0000;stroke:#000000;" x="10.1301242716" xlink:href="#m129eb1497c" y="201.414794103"/>
     <use style="fill:#ff0000;stroke:#000000;" x="14.5182197778" xlink:href="#m129eb1497c" y="191.657210063"/>
     <use style="fill:#ff0000;stroke:#000000;" x="25.3276552758" xlink:href="#m129eb1497c" y="178.313751938"/>
     <use style="fill:#ff0000;stroke:#000000;" x="31.927778055" xlink:href="#m129eb1497c" y="162.289876938"/>
     <use style="fill:#ff0000;stroke:#000000;" x="38.8581119917" xlink:href="#m129eb1497c" y="155.831653999"/>
    </g>
   </g>
   <g id="line2d_1">
    <path clip-path="url(#p594965a0ca)" d="
M170.173 195.942
L153.424 234.381" style="fill:none;stroke:#0000ff;stroke-linecap:square;"/>
   </g>
   <g id="line2d_2">
    <path clip-path="url(#p594965a0ca)" d="
M170.173 195.942
L167.891 227.9" style="fill:none;stroke:#0000ff;stroke-linecap:square;"/>
   </g>
   <g id="line2d_3">
    <path clip-path="url(#p594965a0ca)" d="
M170.173 195.942
L176.393 213.165" style="fill:none;stroke:#0000ff;stroke-linecap:square;"/>
   </g>
   <g id="line2d_4">
    <path clip-path="url(#p594965a0ca)" d="
M170.173 195.942
L178.073 203.57" style="fill:none;stroke:#0000ff;stroke-linecap:square;"/>
   </g>
   <g id="line2d_5">
    <path clip-path="url(#p594965a0ca)" d="
M170.173 195.942
L183.629 188.972" style="fill:none;stroke:#0000ff;stroke-linecap:square;"/>
   </g>
   <g id="line2d_6">
    <path clip-path="url(#p594965a0ca)" d="
M170.173 195.942
L185.467 178.903" style="fill:none;stroke:#0000ff;stroke-linecap:square;"/>
   </g>
   <g id="line2d_7">
    <path clip-path="url(#p594965a0ca)" d="
M169.752 180.5
L185.653 170.586" style="fill:none;stroke:#0000ff;stroke-linecap:square;"/>
   </g>
   <g id="line2d_8">
    <path clip-path="url(#p594965a0ca)" d="
M169.752 180.5
L184.419 169.859" style="fill:none;stroke:#0000ff;stroke-linecap:square;"/>
   </g>
   <g id="line2d_9">
    <path clip-path="url(#p594965a0ca)" d="
M169.752 180.5
L178.46 162.562" style="fill:none;stroke:#0000ff;stroke-linecap:square;"/>
   </g>
   <g id="line2d_10">
    <path clip-path="url(#p594965a0ca)" d="
M169.752 180.5
L167.606 167.454" style="fill:none;stroke:#0000ff;stroke-linecap:square;"/>
   </g>
   <g id="line2d_11">
    <path clip-path="url(#p594965a0ca)" d="
M169.752 180.5
L167.211 166.715" style="fill:none;stroke:#0000ff;stroke-linecap:square;"/>
   </g>
   <g id="line2d_12">
    <path clip-path="url(#p594965a0ca)" d="
M169.752 180.5
L147.226 173.119" style="fill:none;stroke:#0000ff;stroke-linecap:square;"/>
   </g>
   <g id="line2d_13">
    <path clip-path="url(#p594965a0ca)" d="
M169.752 180.5
L138.019 175.408" style="fill:none;stroke:#0000ff;stroke-linecap:square;"/>
   </g>
   <g id="line2d_14">
    <path clip-path="url(#p594965a0ca)" d="
M109.963 173.006
L125.588 182.307" style="fill:none;stroke:#0000ff;stroke-linecap:square;"/>
   </g>
   <g id="line2d_15">
    <path clip-path="url(#p594965a0ca)" d="
M102.231 188.175
L105.769 191.32" style="fill:none;stroke:#0000ff;stroke-linecap:square;"/>
   </g>
   <g id="line2d_16">
    <path clip-path="url(#p594965a0ca)" d="
M94.4531 203.708
L89.1135 203.756" style="fill:none;stroke:#0000ff;stroke-linecap:square;"/>
   </g>
   <g id="line2d_17">
    <path clip-path="url(#p594965a0ca)" d="
M94.4531 203.708
L75.4845 204.602" style="fill:none;stroke:#0000ff;stroke-linecap:square;"/>
   </g>
   <g id="line2d_18">
    <path clip-path="url(#p594965a0ca)" d="
M86.721 218.877
L62.4296 217.068" style="fill:none;stroke:#0000ff;stroke-linecap:square;"/>
   </g>
   <g id="line2d_19">
    <path clip-path="url(#p594965a0ca)" d="
M28.1906 226.103
L48.1511 226.377" style="fill:none;stroke:#0000ff;stroke-linecap:square;"/>
   </g>
   <g id="line2d_20">
    <path clip-path="url(#p594965a0ca)" d="
M26.9323 211.383
L31.383 225.029" style="fill:none;stroke:#0000ff;stroke-linecap:square;"/>
   </g>
   <g id="line2d_21">
    <path clip-path="url(#p594965a0ca)" d="
M26.9323 211.383
L24.559 227.07" style="fill:none;stroke:#0000ff;stroke-linecap:square;"/>
   </g>
   <g id="line2d_22">
    <path clip-path="url(#p594965a0ca)" d="
M26.9323 211.383
L18.484 227.607" style="fill:none;stroke:#0000ff;stroke-linecap:square;"/>
   </g>
   <g id="line2d_23">
    <path clip-path="url(#p594965a0ca)" d="
M26.9323 211.383
L14.538 229.762" style="fill:none;stroke:#0000ff;stroke-linecap:square;"/>
   </g>
   <g id="line2d_24">
    <path clip-path="url(#p594965a0ca)" d="
M26.5113 195.942
L10.1404 216.062" style="fill:none;stroke:#0000ff;stroke-linecap:square;"/>
   </g>
   <g id="line2d_25">
    <path clip-path="url(#p594965a0ca)" d="
M26.5113 195.942
L10.3838 205.192" style="fill:none;stroke:#0000ff;stroke-linecap:square;"/>
   </g>
   <g id="line2d_26">
    <path clip-path="url(#p594965a0ca)" d="
M26.5113 195.942
L10.1301 201.415" style="fill:none;stroke:#0000ff;stroke-linecap:square;"/>
   </g>
   <g id="line2d_27">
    <path clip-path="url(#p594965a0ca)" d="
M26.5113 195.942
L14.5182 191.657" style="fill:none;stroke:#0000ff;stroke-linecap:square;"/>
   </g>
   <g id="line2d_28">
    <path clip-path="url(#p594965a0ca)" d="
M26.5113 195.942
L25.3277 178.314" style="fill:none;stroke:#0000ff;stroke-linecap:square;"/>
   </g>
   <g id="line2d_29">
    <path clip-path="url(#p594965a0ca)" d="
M26.5113 195.942
L31.9278 162.29" style="fill:none;stroke:#0000ff;stroke-linecap:square;"/>
   </g>
   <g id="line2d_30">
    <path clip-path="url(#p594965a0ca)" d="
M26.5113 195.942
L38.8581 155.832" style="fill:none;stroke:#0000ff;stroke-linecap:square;"/>
   </g>
   <g id="text_1">
    <!-- Procrustes Iteration 0 -->
    <defs>
     <path d="
M56.2031 29.5938
L56.2031 25.2031
L14.8906 25.2031
Q15.4844 15.9219 20.4844 11.0625
Q25.4844 6.20312 34.4219 6.20312
Q39.5938 6.20312 44.4531 7.46875
Q49.3125 8.73438 54.1094 11.2812
L54.1094 2.78125
Q49.2656 0.734375 44.1875 -0.34375
Q39.1094 -1.42188 33.8906 -1.42188
Q20.7969 -1.42188 13.1562 6.1875
Q5.51562 13.8125 5.51562 26.8125
Q5.51562 40.2344 12.7656 48.1094
Q20.0156 56 32.3281 56
Q43.3594 56 49.7812 48.8906
Q56.2031 41.7969 56.2031 29.5938
M47.2188 32.2344
Q47.125 39.5938 43.0938 43.9844
Q39.0625 48.3906 32.4219 48.3906
Q24.9062 48.3906 20.3906 44.1406
Q15.875 39.8906 15.1875 32.1719
z
" id="DejaVuSans-65"/>
     <path d="
M30.6094 48.3906
Q23.3906 48.3906 19.1875 42.75
Q14.9844 37.1094 14.9844 27.2969
Q14.9844 17.4844 19.1562 11.8438
Q23.3438 6.20312 30.6094 6.20312
Q37.7969 6.20312 41.9844 11.8594
Q46.1875 17.5312 46.1875 27.2969
Q46.1875 37.0156 41.9844 42.7031
Q37.7969 48.3906 30.6094 48.3906
M30.6094 56
Q42.3281 56 49.0156 48.375
Q55.7188 40.7656 55.7188 27.2969
Q55.7188 13.875 49.0156 6.21875
Q42.3281 -1.42188 30.6094 -1.42188
Q18.8438 -1.42188 12.1719 6.21875
Q5.51562 13.875 5.51562 27.2969
Q5.51562 40.7656 12.1719 48.375
Q18.8438 56 30.6094 56" id="DejaVuSans-6f"/>
     <path d="
M54.8906 33.0156
L54.8906 0
L45.9062 0
L45.9062 32.7188
Q45.9062 40.4844 42.875 44.3281
Q39.8438 48.1875 33.7969 48.1875
Q26.5156 48.1875 22.3125 43.5469
Q18.1094 38.9219 18.1094 30.9062
L18.1094 0
L9.07812 0
L9.07812 54.6875
L18.1094 54.6875
L18.1094 46.1875
Q21.3438 51.125 25.7031 53.5625
Q30.0781 56 35.7969 56
Q45.2188 56 50.0469 50.1719
Q54.8906 44.3438 54.8906 33.0156" id="DejaVuSans-6e"/>
     <path d="
M34.2812 27.4844
Q23.3906 27.4844 19.1875 25
Q14.9844 22.5156 14.9844 16.5
Q14.9844 11.7188 18.1406 8.90625
Q21.2969 6.10938 26.7031 6.10938
Q34.1875 6.10938 38.7031 11.4062
Q43.2188 16.7031 43.2188 25.4844
L43.2188 27.4844
z

M52.2031 31.2031
L52.2031 0
L43.2188 0
L43.2188 8.29688
Q40.1406 3.32812 35.5469 0.953125
Q30.9531 -1.42188 24.3125 -1.42188
Q15.9219 -1.42188 10.9531 3.29688
Q6 8.01562 6 15.9219
Q6 25.1406 12.1719 29.8281
Q18.3594 34.5156 30.6094 34.5156
L43.2188 34.5156
L43.2188 35.4062
Q43.2188 41.6094 39.1406 45
Q35.0625 48.3906 27.6875 48.3906
Q23 48.3906 18.5469 47.2656
Q14.1094 46.1406 10.0156 43.8906
L10.0156 52.2031
Q14.9375 54.1094 19.5781 55.0469
Q24.2188 56 28.6094 56
Q40.4844 56 46.3438 49.8438
Q52.2031 43.7031 52.2031 31.2031" id="DejaVuSans-61"/>
     <path d="
M9.8125 72.9062
L19.6719 72.9062
L19.6719 0
L9.8125 0
z
" id="DejaVuSans-49"/>
     <path d="
M31.7812 66.4062
Q24.1719 66.4062 20.3281 58.9062
Q16.5 51.4219 16.5 36.375
Q16.5 21.3906 20.3281 13.8906
Q24.1719 6.39062 31.7812 6.39062
Q39.4531 6.39062 43.2812 13.8906
Q47.125 21.3906 47.125 36.375
Q47.125 51.4219 43.2812 58.9062
Q39.4531 66.4062 31.7812 66.4062
M31.7812 74.2188
Q44.0469 74.2188 50.5156 64.5156
Q56.9844 54.8281 56.9844 36.375
Q56.9844 17.9688 50.5156 8.26562
Q44.0469 -1.42188 31.7812 -1.42188
Q19.5312 -1.42188 13.0625 8.26562
Q6.59375 17.9688 6.59375 36.375
Q6.59375 54.8281 13.0625 64.5156
Q19.5312 74.2188 31.7812 74.2188" id="DejaVuSans-30"/>
     <path id="DejaVuSans-20"/>
     <path d="
M9.42188 54.6875
L18.4062 54.6875
L18.4062 0
L9.42188 0
z

M9.42188 75.9844
L18.4062 75.9844
L18.4062 64.5938
L9.42188 64.5938
z
" id="DejaVuSans-69"/>
     <path d="
M8.5 21.5781
L8.5 54.6875
L17.4844 54.6875
L17.4844 21.9219
Q17.4844 14.1562 20.5 10.2656
Q23.5312 6.39062 29.5938 6.39062
Q36.8594 6.39062 41.0781 11.0312
Q45.3125 15.6719 45.3125 23.6875
L45.3125 54.6875
L54.2969 54.6875
L54.2969 0
L45.3125 0
L45.3125 8.40625
Q42.0469 3.42188 37.7188 1
Q33.4062 -1.42188 27.6875 -1.42188
Q18.2656 -1.42188 13.375 4.4375
Q8.5 10.2969 8.5 21.5781
M31.1094 56
z
" id="DejaVuSans-75"/>
     <path d="
M18.3125 70.2188
L18.3125 54.6875
L36.8125 54.6875
L36.8125 47.7031
L18.3125 47.7031
L18.3125 18.0156
Q18.3125 11.3281 20.1406 9.42188
Q21.9688 7.51562 27.5938 7.51562
L36.8125 7.51562
L36.8125 0
L27.5938 0
Q17.1875 0 13.2344 3.875
Q9.28125 7.76562 9.28125 18.0156
L9.28125 47.7031
L2.6875 47.7031
L2.6875 54.6875
L9.28125 54.6875
L9.28125 70.2188
z
" id="DejaVuSans-74"/>
     <path d="
M19.6719 64.7969
L19.6719 37.4062
L32.0781 37.4062
Q38.9688 37.4062 42.7188 40.9688
Q46.4844 44.5312 46.4844 51.125
Q46.4844 57.6719 42.7188 61.2344
Q38.9688 64.7969 32.0781 64.7969
z

M9.8125 72.9062
L32.0781 72.9062
Q44.3438 72.9062 50.6094 67.3594
Q56.8906 61.8125 56.8906 51.125
Q56.8906 40.3281 50.6094 34.8125
Q44.3438 29.2969 32.0781 29.2969
L19.6719 29.2969
L19.6719 0
L9.8125 0
z
" id="DejaVuSans-50"/>
     <path d="
M48.7812 52.5938
L48.7812 44.1875
Q44.9688 46.2969 41.1406 47.3438
Q37.3125 48.3906 33.4062 48.3906
Q24.6562 48.3906 19.8125 42.8438
Q14.9844 37.3125 14.9844 27.2969
Q14.9844 17.2812 19.8125 11.7344
Q24.6562 6.20312 33.4062 6.20312
Q37.3125 6.20312 41.1406 7.25
Q44.9688 8.29688 48.7812 10.4062
L48.7812 2.09375
Q45.0156 0.34375 40.9844 -0.53125
Q36.9688 -1.42188 32.4219 -1.42188
Q20.0625 -1.42188 12.7812 6.34375
Q5.51562 14.1094 5.51562 27.2969
Q5.51562 40.6719 12.8594 48.3281
Q20.2188 56 33.0156 56
Q37.1562 56 41.1094 55.1406
Q45.0625 54.2969 48.7812 52.5938" id="DejaVuSans-63"/>
     <path d="
M44.2812 53.0781
L44.2812 44.5781
Q40.4844 46.5312 36.375 47.5
Q32.2812 48.4844 27.875 48.4844
Q21.1875 48.4844 17.8438 46.4375
Q14.5 44.3906 14.5 40.2812
Q14.5 37.1562 16.8906 35.375
Q19.2812 33.5938 26.5156 31.9844
L29.5938 31.2969
Q39.1562 29.25 43.1875 25.5156
Q47.2188 21.7812 47.2188 15.0938
Q47.2188 7.46875 41.1875 3.01562
Q35.1562 -1.42188 24.6094 -1.42188
Q20.2188 -1.42188 15.4531 -0.5625
Q10.6875 0.296875 5.42188 2
L5.42188 11.2812
Q10.4062 8.6875 15.2344 7.39062
Q20.0625 6.10938 24.8125 6.10938
Q31.1562 6.10938 34.5625 8.28125
Q37.9844 10.4531 37.9844 14.4062
Q37.9844 18.0625 35.5156 20.0156
Q33.0625 21.9688 24.7031 23.7812
L21.5781 24.5156
Q13.2344 26.2656 9.51562 29.9062
Q5.8125 33.5469 5.8125 39.8906
Q5.8125 47.6094 11.2812 51.7969
Q16.75 56 26.8125 56
Q31.7812 56 36.1719 55.2656
Q40.5781 54.5469 44.2812 53.0781" id="DejaVuSans-73"/>
     <path d="
M41.1094 46.2969
Q39.5938 47.1719 37.8125 47.5781
Q36.0312 48 33.8906 48
Q26.2656 48 22.1875 43.0469
Q18.1094 38.0938 18.1094 28.8125
L18.1094 0
L9.07812 0
L9.07812 54.6875
L18.1094 54.6875
L18.1094 46.1875
Q20.9531 51.1719 25.4844 53.5781
Q30.0312 56 36.5312 56
Q37.4531 56 38.5781 55.875
Q39.7031 55.7656 41.0625 55.5156
z
" id="DejaVuSans-72"/>
    </defs>
    <g transform="translate(284.436625 18.14175)scale(0.144 -0.144)">
     <use xlink:href="#DejaVuSans-50"/>
     <use x="58.552734375" xlink:href="#DejaVuSans-72"/>
     <use x="97.416015625" xlink:href="#DejaVuSans-6f"/>
     <use x="158.59765625" xlink:href="#DejaVuSans-63"/>
     <use x="213.578125" xlink:href="#DejaVuSans-72"/>
     <use x="254.69140625" xlink:href="#DejaVuSans-75"/>
     <use x="318.0703125" xlink:href="#DejaVuSans-73"/>
     <use x="370.169921875" xlink:href="#DejaVuSans-74"/>
     <use x="409.37890625" xlink:href="#DejaVuSans-65"/>
     <use x="470.90234375" xlink:href="#DejaVuSans-73"/>
     <use x="523.001953125" xlink:href="#DejaVuSans-20"/>
     <use x="554.7890625" xlink:href="#DejaVuSans-49"/>
     <use x="584.28125" xlink:href="#DejaVuSans-74"/>
     <use x="623.490234375" xlink:href="#DejaVuSans-65"/>
     <use x="685.013671875" xlink:href="#DejaVuSans-72"/>
     <use x="726.126953125" xlink:href="#DejaVuSans-61"/>
     <use x="787.40625" xlink:href="#DejaVuSans-74"/>
     <use x="826.615234375" xlink:href="#DejaVuSans-69"/>
     <use x="854.3984375" xlink:href="#DejaVuSans-6f"/>
     <use x="915.580078125" xlink:href="#DejaVuSans-6e"/>
     <use x="978.958984375" xlink:href="#DejaVuSans-20"/>
     <use x="1010.74609375" xlink:href="#DejaVuSans-30"/>
    </g>
   </g>
  </g>
 </g>
 <defs>
  <clipPath id="p594965a0ca">
   <rect height="345.6" width="669.6" x="26.51125" y="23.14175"/>
  </clipPath>
 </defs>
</svg>
