<?xml version="1.0" encoding="utf-8" standalone="no"?>
<!DOCTYPE svg PUBLIC "-//W3C//DTD SVG 1.1//EN"
  "http://www.w3.org/Graphics/SVG/1.1/DTD/svg11.dtd">
<!-- Created with matplotlib (http://matplotlib.org/) -->
<svg height="391pt" version="1.1" viewBox="0 0 703 391" width="703pt" xmlns="http://www.w3.org/2000/svg" xmlns:xlink="http://www.w3.org/1999/xlink">
 <defs>
  <style type="text/css">
*{stroke-linecap:butt;stroke-linejoin:round;}
  </style>
 </defs>
 <g id="figure_1">
  <g id="patch_1">
   <path d="
M0 391.555
L703.311 391.555
L703.311 0
L0 0
z
" style="fill:#ffffff;"/>
  </g>
  <g id="axes_1">
   <g id="PathCollection_1">
    <defs>
     <path d="
M0 2.73861
C0.726289 2.73861 1.42293 2.45006 1.93649 1.93649
C2.45006 1.42293 2.73861 0.726289 2.73861 0
C2.73861 -0.726289 2.45006 -1.42293 1.93649 -1.93649
C1.42293 -2.45006 0.726289 -2.73861 0 -2.73861
C-0.726289 -2.73861 -1.42293 -2.45006 -1.93649 -1.93649
C-2.45006 -1.42293 -2.73861 -0.726289 -2.73861 0
C-2.73861 0.726289 -2.45006 1.42293 -1.93649 1.93649
C-1.42293 2.45006 -0.726289 2.73861 0 2.73861
z
" id="mb4c8c9359e" style="stroke:#000000;"/>
    </defs>
    <g clip-path="url(#p594965a0ca)">
     <use style="fill:#0000ff;stroke:#000000;" x="170.172630637" xlink:href="#mb4c8c9359e" y="195.94175"/>
     <use style="fill:#0000ff;stroke:#000000;" x="169.751556053" xlink:href="#mb4c8c9359e" y="180.500274882"/>
     <use style="fill:#0000ff;stroke:#000000;" x="168.493269015" xlink:href="#mb4c8c9359e" y="165.780825978"/>
     <use style="fill:#0000ff;stroke:#000000;" x="166.412521787" xlink:href="#mb4c8c9359e" y="152.47166836"/>
     <use style="fill:#0000ff;stroke:#000000;" x="163.53370923" xlink:href="#mb4c8c9359e" y="141.195123445"/>
     <use style="fill:#0000ff;stroke:#000000;" x="159.890582787" xlink:href="#mb4c8c9359e" y="132.478469943"/>
     <use style="fill:#0000ff;stroke:#000000;" x="155.525854786" xlink:href="#mb4c8c9359e" y="126.729288881"/>
     <use style="fill:#0000ff;stroke:#000000;" x="150.490697672" xlink:href="#mb4c8c9359e" y="124.216405577"/>
     <use style="fill:#0000ff;stroke:#000000;" x="144.844144057" xlink:href="#mb4c8c9359e" y="125.057319661"/>
     <use style="fill:#0000ff;stroke:#000000;" x="138.652394622" xlink:href="#mb4c8c9359e" y="129.212710926"/>
     <use style="fill:#0000ff;stroke:#000000;" x="131.988041965" xlink:href="#mb4c8c9359e" y="136.488277893"/>
     <use style="fill:#0000ff;stroke:#000000;" x="124.92921953" xlink:href="#mb4c8c9359e" y="146.543823139"/>
     <use style="fill:#0000ff;stroke:#000000;" x="117.558685555" xlink:href="#mb4c8c9359e" y="158.909160543"/>
     <use style="fill:#0000ff;stroke:#000000;" x="109.962852812" xlink:href="#mb4c8c9359e" y="173.006100671"/>
     <use style="fill:#0000ff;stroke:#000000;" x="102.230775495" xlink:href="#mb4c8c9359e" y="188.17548627"/>
     <use style="fill:#0000ff;stroke:#000000;" x="94.4531051419" xlink:href="#mb4c8c9359e" y="203.70801373"/>
     <use style="fill:#0000ff;stroke:#000000;" x="86.7210278251" xlink:href="#mb4c8c9359e" y="218.877399329"/>
     <use style="fill:#0000ff;stroke:#000000;" x="79.1251950823" xlink:href="#mb4c8c9359e" y="232.974339457"/>
     <use style="fill:#0000ff;stroke:#000000;" x="71.7546611073" xlink:href="#mb4c8c9359e" y="245.339676861"/>
     <use style="fill:#0000ff;stroke:#000000;" x="64.6958386721" xlink:href="#mb4c8c9359e" y="255.395222107"/>
     <use style="fill:#0000ff;stroke:#000000;" x="58.0314860158" xlink:href="#mb4c8c9359e" y="262.670789074"/>
     <use style="fill:#0000ff;stroke:#000000;" x="51.8397365799" xlink:href="#mb4c8c9359e" y="266.826180339"/>
     <use style="fill:#0000ff;stroke:#000000;" x="46.1931829656" xlink:href="#mb4c8c9359e" y="267.667094423"/>
     <use style="fill:#0000ff;stroke:#000000;" x="41.1580258511" xlink:href="#mb4c8c9359e" y="265.154211119"/>
     <use style="fill:#0000ff;stroke:#000000;" x="36.79329785" xlink:href="#mb4c8c9359e" y="259.405030057"/>
     <use style="fill:#0000ff;stroke:#000000;" x="33.1501714074" xlink:href="#mb4c8c9359e" y="250.688376555"/>
     <use style="fill:#0000ff;stroke:#000000;" x="30.2713588499" xlink:href="#mb4c8c9359e" y="239.41183164"/>
     <use style="fill:#0000ff;stroke:#000000;" x="28.1906116226" xlink:href="#mb4c8c9359e" y="226.102674022"/>
     <use style="fill:#0000ff;stroke:#000000;" x="26.9323245843" xlink:href="#mb4c8c9359e" y="211.383225118"/>
     <use style="fill:#0000ff;stroke:#000000;" x="26.51125" xlink:href="#mb4c8c9359e" y="195.94175"/>
    </g>
   </g>
   <g id="PathCollection_2">
    <defs>
     <path d="
M0 2.73861
C0.726289 2.73861 1.42293 2.45006 1.93649 1.93649
C2.45006 1.42293 2.73861 0.726289 2.73861 0
C2.73861 -0.726289 2.45006 -1.42293 1.93649 -1.93649
C1.42293 -2.45006 0.726289 -2.73861 0 -2.73861
C-0.726289 -2.73861 -1.42293 -2.45006 -1.93649 -1.93649
C-2.45006 -1.42293 -2.73861 -0.726289 -2.73861 0
C-2.73861 0.726289 -2.45006 1.42293 -1.93649 1.93649
C-1.42293 2.45006 -0.726289 2.73861 0 2.73861
z
" id="m129eb1497c" style="stroke:#000000;"/>
    </defs>
    <g clip-path="url(#p594965a0ca)">
     <use style="fill:#ff0000;stroke:#000000;" x="164.603734401" xlink:href="#m129eb1497c" y="206.941685702"/>
     <use style="fill:#ff0000;stroke:#000000;" x="174.874417973" xlink:href="#m129eb1497c" y="194.867542614"/>
     <use style="fill:#ff0000;stroke:#000000;" x="176.210026603" xlink:href="#m129eb1497c" y="177.907409922"/>
     <use style="fill:#ff0000;stroke:#000000;" x="173.59818215" xlink:href="#m129eb1497c" y="168.523615673"/>
     <use style="fill:#ff0000;stroke:#000000;" x="172.332386968" xlink:href="#m129eb1497c" y="152.954754397"/>
     <use style="fill:#ff0000;stroke:#000000;" x="169.659364913" xlink:href="#m129eb1497c" y="143.074641605"/>
     <use style="fill:#ff0000;stroke:#000000;" x="166.248949959" xlink:href="#m129eb1497c" y="135.487472109"/>
     <use style="fill:#ff0000;stroke:#000000;" x="164.822712349" xlink:href="#m129eb1497c" y="135.361732657"/>
     <use style="fill:#ff0000;stroke:#000000;" x="156.303714292" xlink:href="#m129eb1497c" y="131.338056468"/>
     <use style="fill:#ff0000;stroke:#000000;" x="148.610665178" xlink:href="#m129eb1497c" y="140.424525693"/>
     <use style="fill:#ff0000;stroke:#000000;" x="147.935621282" xlink:href="#m129eb1497c" y="139.927335938"/>
     <use style="fill:#ff0000;stroke:#000000;" x="132.650765469" xlink:href="#m129eb1497c" y="154.307082336"/>
     <use style="fill:#ff0000;stroke:#000000;" x="125.324078128" xlink:href="#m129eb1497c" y="160.334536527"/>
     <use style="fill:#ff0000;stroke:#000000;" x="117.070267674" xlink:href="#m129eb1497c" y="171.910757701"/>
     <use style="fill:#ff0000;stroke:#000000;" x="103.058101483" xlink:href="#m129eb1497c" y="188.574169167"/>
     <use style="fill:#ff0000;stroke:#000000;" x="93.373294276" xlink:href="#m129eb1497c" y="206.965855837"/>
     <use style="fill:#ff0000;stroke:#000000;" x="81.4344814152" xlink:href="#m129eb1497c" y="213.594093779"/>
     <use style="fill:#ff0000;stroke:#000000;" x="75.0132657329" xlink:href="#m129eb1497c" y="230.464215477"/>
     <use style="fill:#ff0000;stroke:#000000;" x="66.1291938443" xlink:href="#m129eb1497c" y="245.010940294"/>
     <use style="fill:#ff0000;stroke:#000000;" x="50.4123344115" xlink:href="#m129eb1497c" y="251.008211685"/>
     <use style="fill:#ff0000;stroke:#000000;" x="45.1303292346" xlink:href="#m129eb1497c" y="255.786574173"/>
     <use style="fill:#ff0000;stroke:#000000;" x="39.8774131699" xlink:href="#m129eb1497c" y="258.884910027"/>
     <use style="fill:#ff0000;stroke:#000000;" x="37.2424805065" xlink:href="#m129eb1497c" y="262.528062759"/>
     <use style="fill:#ff0000;stroke:#000000;" x="27.3783178601" xlink:href="#m129eb1497c" y="252.053105943"/>
     <use style="fill:#ff0000;stroke:#000000;" x="22.921537403" xlink:href="#m129eb1497c" y="242.136632554"/>
     <use style="fill:#ff0000;stroke:#000000;" x="21.0671953132" xlink:href="#m129eb1497c" y="238.835717949"/>
     <use style="fill:#ff0000;stroke:#000000;" x="20.830134987" xlink:href="#m129eb1497c" y="228.139474175"/>
     <use style="fill:#ff0000;stroke:#000000;" x="24.8468382412" xlink:href="#m129eb1497c" y="211.443430767"/>
     <use style="fill:#ff0000;stroke:#000000;" x="23.9105023215" xlink:href="#m129eb1497c" y="194.138822544"/>
     <use style="fill:#ff0000;stroke:#000000;" x="27.387902021" xlink:href="#m129eb1497c" y="185.327133526"/>
    </g>
   </g>
   <g id="line2d_1">
    <path clip-path="url(#p594965a0ca)" d="
M170.173 195.942
L164.604 206.942" style="fill:none;stroke:#0000ff;stroke-linecap:square;"/>
   </g>
   <g id="line2d_2">
    <path clip-path="url(#p594965a0ca)" d="
M170.173 195.942
L174.874 194.868" style="fill:none;stroke:#0000ff;stroke-linecap:square;"/>
   </g>
   <g id="line2d_3">
    <path clip-path="url(#p594965a0ca)" d="
M169.752 180.5
L176.21 177.907" style="fill:none;stroke:#0000ff;stroke-linecap:square;"/>
   </g>
   <g id="line2d_4">
    <path clip-path="url(#p594965a0ca)" d="
M168.493 165.781
L173.598 168.524" style="fill:none;stroke:#0000ff;stroke-linecap:square;"/>
   </g>
   <g id="line2d_5">
    <path clip-path="url(#p594965a0ca)" d="
M166.413 152.472
L172.332 152.955" style="fill:none;stroke:#0000ff;stroke-linecap:square;"/>
   </g>
   <g id="line2d_6">
    <path clip-path="url(#p594965a0ca)" d="
M166.413 152.472
L169.659 143.075" style="fill:none;stroke:#0000ff;stroke-linecap:square;"/>
   </g>
   <g id="line2d_7">
    <path clip-path="url(#p594965a0ca)" d="
M163.534 141.195
L166.249 135.487" style="fill:none;stroke:#0000ff;stroke-linecap:square;"/>
   </g>
   <g id="line2d_8">
    <path clip-path="url(#p594965a0ca)" d="
M163.534 141.195
L164.823 135.362" style="fill:none;stroke:#0000ff;stroke-linecap:square;"/>
   </g>
   <g id="line2d_9">
    <path clip-path="url(#p594965a0ca)" d="
M159.891 132.478
L156.304 131.338" style="fill:none;stroke:#0000ff;stroke-linecap:square;"/>
   </g>
   <g id="line2d_10">
    <path clip-path="url(#p594965a0ca)" d="
M163.534 141.195
L148.611 140.425" style="fill:none;stroke:#0000ff;stroke-linecap:square;"/>
   </g>
   <g id="line2d_11">
    <path clip-path="url(#p594965a0ca)" d="
M163.534 141.195
L147.936 139.927" style="fill:none;stroke:#0000ff;stroke-linecap:square;"/>
   </g>
   <g id="line2d_12">
    <path clip-path="url(#p594965a0ca)" d="
M124.929 146.544
L132.651 154.307" style="fill:none;stroke:#0000ff;stroke-linecap:square;"/>
   </g>
   <g id="line2d_13">
    <path clip-path="url(#p594965a0ca)" d="
M117.559 158.909
L125.324 160.335" style="fill:none;stroke:#0000ff;stroke-linecap:square;"/>
   </g>
   <g id="line2d_14">
    <path clip-path="url(#p594965a0ca)" d="
M109.963 173.006
L117.07 171.911" style="fill:none;stroke:#0000ff;stroke-linecap:square;"/>
   </g>
   <g id="line2d_15">
    <path clip-path="url(#p594965a0ca)" d="
M102.231 188.175
L103.058 188.574" style="fill:none;stroke:#0000ff;stroke-linecap:square;"/>
   </g>
   <g id="line2d_16">
    <path clip-path="url(#p594965a0ca)" d="
M94.4531 203.708
L93.3733 206.966" style="fill:none;stroke:#0000ff;stroke-linecap:square;"/>
   </g>
   <g id="line2d_17">
    <path clip-path="url(#p594965a0ca)" d="
M86.721 218.877
L81.4345 213.594" style="fill:none;stroke:#0000ff;stroke-linecap:square;"/>
   </g>
   <g id="line2d_18">
    <path clip-path="url(#p594965a0ca)" d="
M79.1252 232.974
L75.0133 230.464" style="fill:none;stroke:#0000ff;stroke-linecap:square;"/>
   </g>
   <g id="line2d_19">
    <path clip-path="url(#p594965a0ca)" d="
M71.7547 245.34
L66.1292 245.011" style="fill:none;stroke:#0000ff;stroke-linecap:square;"/>
   </g>
   <g id="line2d_20">
    <path clip-path="url(#p594965a0ca)" d="
M33.1502 250.688
L50.4123 251.008" style="fill:none;stroke:#0000ff;stroke-linecap:square;"/>
   </g>
   <g id="line2d_21">
    <path clip-path="url(#p594965a0ca)" d="
M36.7933 259.405
L45.1303 255.787" style="fill:none;stroke:#0000ff;stroke-linecap:square;"/>
   </g>
   <g id="line2d_22">
    <path clip-path="url(#p594965a0ca)" d="
M36.7933 259.405
L39.8774 258.885" style="fill:none;stroke:#0000ff;stroke-linecap:square;"/>
   </g>
   <g id="line2d_23">
    <path clip-path="url(#p594965a0ca)" d="
M36.7933 259.405
L37.2425 262.528" style="fill:none;stroke:#0000ff;stroke-linecap:square;"/>
   </g>
   <g id="line2d_24">
    <path clip-path="url(#p594965a0ca)" d="
M33.1502 250.688
L27.3783 252.053" style="fill:none;stroke:#0000ff;stroke-linecap:square;"/>
   </g>
   <g id="line2d_25">
    <path clip-path="url(#p594965a0ca)" d="
M30.2714 239.412
L22.9215 242.137" style="fill:none;stroke:#0000ff;stroke-linecap:square;"/>
   </g>
   <g id="line2d_26">
    <path clip-path="url(#p594965a0ca)" d="
M30.2714 239.412
L21.0672 238.836" style="fill:none;stroke:#0000ff;stroke-linecap:square;"/>
   </g>
   <g id="line2d_27">
    <path clip-path="url(#p594965a0ca)" d="
M28.1906 226.103
L20.8301 228.139" style="fill:none;stroke:#0000ff;stroke-linecap:square;"/>
   </g>
   <g id="line2d_28">
    <path clip-path="url(#p594965a0ca)" d="
M26.9323 211.383
L24.8468 211.443" style="fill:none;stroke:#0000ff;stroke-linecap:square;"/>
   </g>
   <g id="line2d_29">
    <path clip-path="url(#p594965a0ca)" d="
M26.5113 195.942
L23.9105 194.139" style="fill:none;stroke:#0000ff;stroke-linecap:square;"/>
   </g>
   <g id="line2d_30">
    <path clip-path="url(#p594965a0ca)" d="
M26.5113 195.942
L27.3879 185.327" style="fill:none;stroke:#0000ff;stroke-linecap:square;"/>
   </g>
   <g id="text_1">
    <!-- Procrustes Iteration 6 -->
    <defs>
     <path d="
M56.2031 29.5938
L56.2031 25.2031
L14.8906 25.2031
Q15.4844 15.9219 20.4844 11.0625
Q25.4844 6.20312 34.4219 6.20312
Q39.5938 6.20312 44.4531 7.46875
Q49.3125 8.73438 54.1094 11.2812
L54.1094 2.78125
Q49.2656 0.734375 44.1875 -0.34375
Q39.1094 -1.42188 33.8906 -1.42188
Q20.7969 -1.42188 13.1562 6.1875
Q5.51562 13.8125 5.51562 26.8125
Q5.51562 40.2344 12.7656 48.1094
Q20.0156 56 32.3281 56
Q43.3594 56 49.7812 48.8906
Q56.2031 41.7969 56.2031 29.5938
M47.2188 32.2344
Q47.125 39.5938 43.0938 43.9844
Q39.0625 48.3906 32.4219 48.3906
Q24.9062 48.3906 20.3906 44.1406
Q15.875 39.8906 15.1875 32.1719
z
" id="DejaVuSans-65"/>
     <path d="
M30.6094 48.3906
Q23.3906 48.3906 19.1875 42.75
Q14.9844 37.1094 14.9844 27.2969
Q14.9844 17.4844 19.1562 11.8438
Q23.3438 6.20312 30.6094 6.20312
Q37.7969 6.20312 41.9844 11.8594
Q46.1875 17.5312 46.1875 27.2969
Q46.1875 37.0156 41.9844 42.7031
Q37.7969 48.3906 30.6094 48.3906
M30.6094 56
Q42.3281 56 49.0156 48.375
Q55.7188 40.7656 55.7188 27.2969
Q55.7188 13.875 49.0156 6.21875
Q42.3281 -1.42188 30.6094 -1.42188
Q18.8438 -1.42188 12.1719 6.21875
Q5.51562 13.875 5.51562 27.2969
Q5.51562 40.7656 12.1719 48.375
Q18.8438 56 30.6094 56" id="DejaVuSans-6f"/>
     <path d="
M54.8906 33.0156
L54.8906 0
L45.9062 0
L45.9062 32.7188
Q45.9062 40.4844 42.875 44.3281
Q39.8438 48.1875 33.7969 48.1875
Q26.5156 48.1875 22.3125 43.5469
Q18.1094 38.9219 18.1094 30.9062
L18.1094 0
L9.07812 0
L9.07812 54.6875
L18.1094 54.6875
L18.1094 46.1875
Q21.3438 51.125 25.7031 53.5625
Q30.0781 56 35.7969 56
Q45.2188 56 50.0469 50.1719
Q54.8906 44.3438 54.8906 33.0156" id="DejaVuSans-6e"/>
     <path d="
M34.2812 27.4844
Q23.3906 27.4844 19.1875 25
Q14.9844 22.5156 14.9844 16.5
Q14.9844 11.7188 18.1406 8.90625
Q21.2969 6.10938 26.7031 6.10938
Q34.1875 6.10938 38.7031 11.4062
Q43.2188 16.7031 43.2188 25.4844
L43.2188 27.4844
z

M52.2031 31.2031
L52.2031 0
L43.2188 0
L43.2188 8.29688
Q40.1406 3.32812 35.5469 0.953125
Q30.9531 -1.42188 24.3125 -1.42188
Q15.9219 -1.42188 10.9531 3.29688
Q6 8.01562 6 15.9219
Q6 25.1406 12.1719 29.8281
Q18.3594 34.5156 30.6094 34.5156
L43.2188 34.5156
L43.2188 35.4062
Q43.2188 41.6094 39.1406 45
Q35.0625 48.3906 27.6875 48.3906
Q23 48.3906 18.5469 47.2656
Q14.1094 46.1406 10.0156 43.8906
L10.0156 52.2031
Q14.9375 54.1094 19.5781 55.0469
Q24.2188 56 28.6094 56
Q40.4844 56 46.3438 49.8438
Q52.2031 43.7031 52.2031 31.2031" id="DejaVuSans-61"/>
     <path d="
M9.8125 72.9062
L19.6719 72.9062
L19.6719 0
L9.8125 0
z
" id="DejaVuSans-49"/>
     <path id="DejaVuSans-20"/>
     <path d="
M33.0156 40.375
Q26.375 40.375 22.4844 35.8281
Q18.6094 31.2969 18.6094 23.3906
Q18.6094 15.5312 22.4844 10.9531
Q26.375 6.39062 33.0156 6.39062
Q39.6562 6.39062 43.5312 10.9531
Q47.4062 15.5312 47.4062 23.3906
Q47.4062 31.2969 43.5312 35.8281
Q39.6562 40.375 33.0156 40.375
M52.5938 71.2969
L52.5938 62.3125
Q48.875 64.0625 45.0938 64.9844
Q41.3125 65.9219 37.5938 65.9219
Q27.8281 65.9219 22.6719 59.3281
Q17.5312 52.7344 16.7969 39.4062
Q19.6719 43.6562 24.0156 45.9219
Q28.375 48.1875 33.5938 48.1875
Q44.5781 48.1875 50.9531 41.5156
Q57.3281 34.8594 57.3281 23.3906
Q57.3281 12.1562 50.6875 5.35938
Q44.0469 -1.42188 33.0156 -1.42188
Q20.3594 -1.42188 13.6719 8.26562
Q6.98438 17.9688 6.98438 36.375
Q6.98438 53.6562 15.1875 63.9375
Q23.3906 74.2188 37.2031 74.2188
Q40.9219 74.2188 44.7031 73.4844
Q48.4844 72.75 52.5938 71.2969" id="DejaVuSans-36"/>
     <path d="
M9.42188 54.6875
L18.4062 54.6875
L18.4062 0
L9.42188 0
z

M9.42188 75.9844
L18.4062 75.9844
L18.4062 64.5938
L9.42188 64.5938
z
" id="DejaVuSans-69"/>
     <path d="
M8.5 21.5781
L8.5 54.6875
L17.4844 54.6875
L17.4844 21.9219
Q17.4844 14.1562 20.5 10.2656
Q23.5312 6.39062 29.5938 6.39062
Q36.8594 6.39062 41.0781 11.0312
Q45.3125 15.6719 45.3125 23.6875
L45.3125 54.6875
L54.2969 54.6875
L54.2969 0
L45.3125 0
L45.3125 8.40625
Q42.0469 3.42188 37.7188 1
Q33.4062 -1.42188 27.6875 -1.42188
Q18.2656 -1.42188 13.375 4.4375
Q8.5 10.2969 8.5 21.5781
M31.1094 56
z
" id="DejaVuSans-75"/>
     <path d="
M18.3125 70.2188
L18.3125 54.6875
L36.8125 54.6875
L36.8125 47.7031
L18.3125 47.7031
L18.3125 18.0156
Q18.3125 11.3281 20.1406 9.42188
Q21.9688 7.51562 27.5938 7.51562
L36.8125 7.51562
L36.8125 0
L27.5938 0
Q17.1875 0 13.2344 3.875
Q9.28125 7.76562 9.28125 18.0156
L9.28125 47.7031
L2.6875 47.7031
L2.6875 54.6875
L9.28125 54.6875
L9.28125 70.2188
z
" id="DejaVuSans-74"/>
     <path d="
M19.6719 64.7969
L19.6719 37.4062
L32.0781 37.4062
Q38.9688 37.4062 42.7188 40.9688
Q46.4844 44.5312 46.4844 51.125
Q46.4844 57.6719 42.7188 61.2344
Q38.9688 64.7969 32.0781 64.7969
z

M9.8125 72.9062
L32.0781 72.9062
Q44.3438 72.9062 50.6094 67.3594
Q56.8906 61.8125 56.8906 51.125
Q56.8906 40.3281 50.6094 34.8125
Q44.3438 29.2969 32.0781 29.2969
L19.6719 29.2969
L19.6719 0
L9.8125 0
z
" id="DejaVuSans-50"/>
     <path d="
M48.7812 52.5938
L48.7812 44.1875
Q44.9688 46.2969 41.1406 47.3438
Q37.3125 48.3906 33.4062 48.3906
Q24.6562 48.3906 19.8125 42.8438
Q14.9844 37.3125 14.9844 27.2969
Q14.9844 17.2812 19.8125 11.7344
Q24.6562 6.20312 33.4062 6.20312
Q37.3125 6.20312 41.1406 7.25
Q44.9688 8.29688 48.7812 10.4062
L48.7812 2.09375
Q45.0156 0.34375 40.9844 -0.53125
Q36.9688 -1.42188 32.4219 -1.42188
Q20.0625 -1.42188 12.7812 6.34375
Q5.51562 14.1094 5.51562 27.2969
Q5.51562 40.6719 12.8594 48.3281
Q20.2188 56 33.0156 56
Q37.1562 56 41.1094 55.1406
Q45.0625 54.2969 48.7812 52.5938" id="DejaVuSans-63"/>
     <path d="
M44.2812 53.0781
L44.2812 44.5781
Q40.4844 46.5312 36.375 47.5
Q32.2812 48.4844 27.875 48.4844
Q21.1875 48.4844 17.8438 46.4375
Q14.5 44.3906 14.5 40.2812
Q14.5 37.1562 16.8906 35.375
Q19.2812 33.5938 26.5156 31.9844
L29.5938 31.2969
Q39.1562 29.25 43.1875 25.5156
Q47.2188 21.7812 47.2188 15.0938
Q47.2188 7.46875 41.1875 3.01562
Q35.1562 -1.42188 24.6094 -1.42188
Q20.2188 -1.42188 15.4531 -0.5625
Q10.6875 0.296875 5.42188 2
L5.42188 11.2812
Q10.4062 8.6875 15.2344 7.39062
Q20.0625 6.10938 24.8125 6.10938
Q31.1562 6.10938 34.5625 8.28125
Q37.9844 10.4531 37.9844 14.4062
Q37.9844 18.0625 35.5156 20.0156
Q33.0625 21.9688 24.7031 23.7812
L21.5781 24.5156
Q13.2344 26.2656 9.51562 29.9062
Q5.8125 33.5469 5.8125 39.8906
Q5.8125 47.6094 11.2812 51.7969
Q16.75 56 26.8125 56
Q31.7812 56 36.1719 55.2656
Q40.5781 54.5469 44.2812 53.0781" id="DejaVuSans-73"/>
     <path d="
M41.1094 46.2969
Q39.5938 47.1719 37.8125 47.5781
Q36.0312 48 33.8906 48
Q26.2656 48 22.1875 43.0469
Q18.1094 38.0938 18.1094 28.8125
L18.1094 0
L9.07812 0
L9.07812 54.6875
L18.1094 54.6875
L18.1094 46.1875
Q20.9531 51.1719 25.4844 53.5781
Q30.0312 56 36.5312 56
Q37.4531 56 38.5781 55.875
Q39.7031 55.7656 41.0625 55.5156
z
" id="DejaVuSans-72"/>
    </defs>
    <g transform="translate(284.411875 18.14175)scale(0.144 -0.144)">
     <use xlink:href="#DejaVuSans-50"/>
     <use x="58.552734375" xlink:href="#DejaVuSans-72"/>
     <use x="97.416015625" xlink:href="#DejaVuSans-6f"/>
     <use x="158.59765625" xlink:href="#DejaVuSans-63"/>
     <use x="213.578125" xlink:href="#DejaVuSans-72"/>
     <use x="254.69140625" xlink:href="#DejaVuSans-75"/>
     <use x="318.0703125" xlink:href="#DejaVuSans-73"/>
     <use x="370.169921875" xlink:href="#DejaVuSans-74"/>
     <use x="409.37890625" xlink:href="#DejaVuSans-65"/>
     <use x="470.90234375" xlink:href="#DejaVuSans-73"/>
     <use x="523.001953125" xlink:href="#DejaVuSans-20"/>
     <use x="554.7890625" xlink:href="#DejaVuSans-49"/>
     <use x="584.28125" xlink:href="#DejaVuSans-74"/>
     <use x="623.490234375" xlink:href="#DejaVuSans-65"/>
     <use x="685.013671875" xlink:href="#DejaVuSans-72"/>
     <use x="726.126953125" xlink:href="#DejaVuSans-61"/>
     <use x="787.40625" xlink:href="#DejaVuSans-74"/>
     <use x="826.615234375" xlink:href="#DejaVuSans-69"/>
     <use x="854.3984375" xlink:href="#DejaVuSans-6f"/>
     <use x="915.580078125" xlink:href="#DejaVuSans-6e"/>
     <use x="978.958984375" xlink:href="#DejaVuSans-20"/>
     <use x="1010.74609375" xlink:href="#DejaVuSans-36"/>
    </g>
   </g>
  </g>
 </g>
 <defs>
  <clipPath id="p594965a0ca">
   <rect height="345.6" width="669.6" x="26.51125" y="23.14175"/>
  </clipPath>
 </defs>
</svg>
