<?xml version="1.0" encoding="utf-8" standalone="no"?>
<!DOCTYPE svg PUBLIC "-//W3C//DTD SVG 1.1//EN"
  "http://www.w3.org/Graphics/SVG/1.1/DTD/svg11.dtd">
<!-- Created with matplotlib (http://matplotlib.org/) -->
<svg height="391pt" version="1.1" viewBox="0 0 703 391" width="703pt" xmlns="http://www.w3.org/2000/svg" xmlns:xlink="http://www.w3.org/1999/xlink">
 <defs>
  <style type="text/css">
*{stroke-linecap:butt;stroke-linejoin:round;}
  </style>
 </defs>
 <g id="figure_1">
  <g id="patch_1">
   <path d="
M0 391.555
L703.311 391.555
L703.311 0
L0 0
z
" style="fill:#ffffff;"/>
  </g>
  <g id="axes_1">
   <g id="PathCollection_1">
    <defs>
     <path d="
M0 2.73861
C0.726289 2.73861 1.42293 2.45006 1.93649 1.93649
C2.45006 1.42293 2.73861 0.726289 2.73861 0
C2.73861 -0.726289 2.45006 -1.42293 1.93649 -1.93649
C1.42293 -2.45006 0.726289 -2.73861 0 -2.73861
C-0.726289 -2.73861 -1.42293 -2.45006 -1.93649 -1.93649
C-2.45006 -1.42293 -2.73861 -0.726289 -2.73861 0
C-2.73861 0.726289 -2.45006 1.42293 -1.93649 1.93649
C-1.42293 2.45006 -0.726289 2.73861 0 2.73861
z
" id="mb4c8c9359e" style="stroke:#000000;"/>
    </defs>
    <g clip-path="url(#p594965a0ca)">
     <use style="fill:#0000ff;stroke:#000000;" x="170.172630637" xlink:href="#mb4c8c9359e" y="195.94175"/>
     <use style="fill:#0000ff;stroke:#000000;" x="169.751556053" xlink:href="#mb4c8c9359e" y="180.500274882"/>
     <use style="fill:#0000ff;stroke:#000000;" x="168.493269015" xlink:href="#mb4c8c9359e" y="165.780825978"/>
     <use style="fill:#0000ff;stroke:#000000;" x="166.412521787" xlink:href="#mb4c8c9359e" y="152.47166836"/>
     <use style="fill:#0000ff;stroke:#000000;" x="163.53370923" xlink:href="#mb4c8c9359e" y="141.195123445"/>
     <use style="fill:#0000ff;stroke:#000000;" x="159.890582787" xlink:href="#mb4c8c9359e" y="132.478469943"/>
     <use style="fill:#0000ff;stroke:#000000;" x="155.525854786" xlink:href="#mb4c8c9359e" y="126.729288881"/>
     <use style="fill:#0000ff;stroke:#000000;" x="150.490697672" xlink:href="#mb4c8c9359e" y="124.216405577"/>
     <use style="fill:#0000ff;stroke:#000000;" x="144.844144057" xlink:href="#mb4c8c9359e" y="125.057319661"/>
     <use style="fill:#0000ff;stroke:#000000;" x="138.652394622" xlink:href="#mb4c8c9359e" y="129.212710926"/>
     <use style="fill:#0000ff;stroke:#000000;" x="131.988041965" xlink:href="#mb4c8c9359e" y="136.488277893"/>
     <use style="fill:#0000ff;stroke:#000000;" x="124.92921953" xlink:href="#mb4c8c9359e" y="146.543823139"/>
     <use style="fill:#0000ff;stroke:#000000;" x="117.558685555" xlink:href="#mb4c8c9359e" y="158.909160543"/>
     <use style="fill:#0000ff;stroke:#000000;" x="109.962852812" xlink:href="#mb4c8c9359e" y="173.006100671"/>
     <use style="fill:#0000ff;stroke:#000000;" x="102.230775495" xlink:href="#mb4c8c9359e" y="188.17548627"/>
     <use style="fill:#0000ff;stroke:#000000;" x="94.4531051419" xlink:href="#mb4c8c9359e" y="203.70801373"/>
     <use style="fill:#0000ff;stroke:#000000;" x="86.7210278251" xlink:href="#mb4c8c9359e" y="218.877399329"/>
     <use style="fill:#0000ff;stroke:#000000;" x="79.1251950823" xlink:href="#mb4c8c9359e" y="232.974339457"/>
     <use style="fill:#0000ff;stroke:#000000;" x="71.7546611073" xlink:href="#mb4c8c9359e" y="245.339676861"/>
     <use style="fill:#0000ff;stroke:#000000;" x="64.6958386721" xlink:href="#mb4c8c9359e" y="255.395222107"/>
     <use style="fill:#0000ff;stroke:#000000;" x="58.0314860158" xlink:href="#mb4c8c9359e" y="262.670789074"/>
     <use style="fill:#0000ff;stroke:#000000;" x="51.8397365799" xlink:href="#mb4c8c9359e" y="266.826180339"/>
     <use style="fill:#0000ff;stroke:#000000;" x="46.1931829656" xlink:href="#mb4c8c9359e" y="267.667094423"/>
     <use style="fill:#0000ff;stroke:#000000;" x="41.1580258511" xlink:href="#mb4c8c9359e" y="265.154211119"/>
     <use style="fill:#0000ff;stroke:#000000;" x="36.79329785" xlink:href="#mb4c8c9359e" y="259.405030057"/>
     <use style="fill:#0000ff;stroke:#000000;" x="33.1501714074" xlink:href="#mb4c8c9359e" y="250.688376555"/>
     <use style="fill:#0000ff;stroke:#000000;" x="30.2713588499" xlink:href="#mb4c8c9359e" y="239.41183164"/>
     <use style="fill:#0000ff;stroke:#000000;" x="28.1906116226" xlink:href="#mb4c8c9359e" y="226.102674022"/>
     <use style="fill:#0000ff;stroke:#000000;" x="26.9323245843" xlink:href="#mb4c8c9359e" y="211.383225118"/>
     <use style="fill:#0000ff;stroke:#000000;" x="26.51125" xlink:href="#mb4c8c9359e" y="195.94175"/>
    </g>
   </g>
   <g id="PathCollection_2">
    <defs>
     <path d="
M0 2.73861
C0.726289 2.73861 1.42293 2.45006 1.93649 1.93649
C2.45006 1.42293 2.73861 0.726289 2.73861 0
C2.73861 -0.726289 2.45006 -1.42293 1.93649 -1.93649
C1.42293 -2.45006 0.726289 -2.73861 0 -2.73861
C-0.726289 -2.73861 -1.42293 -2.45006 -1.93649 -1.93649
C-2.45006 -1.42293 -2.73861 -0.726289 -2.73861 0
C-2.73861 0.726289 -2.45006 1.42293 -1.93649 1.93649
C-1.42293 2.45006 -0.726289 2.73861 0 2.73861
z
" id="m129eb1497c" style="stroke:#000000;"/>
    </defs>
    <g clip-path="url(#p594965a0ca)">
     <use style="fill:#ff0000;stroke:#000000;" x="165.209763114" xlink:href="#m129eb1497c" y="202.291412585"/>
     <use style="fill:#ff0000;stroke:#000000;" x="174.612932228" xlink:href="#m129eb1497c" y="189.530053606"/>
     <use style="fill:#ff0000;stroke:#000000;" x="174.761880463" xlink:href="#m129eb1497c" y="172.518064723"/>
     <use style="fill:#ff0000;stroke:#000000;" x="171.501641035" xlink:href="#m129eb1497c" y="163.339384816"/>
     <use style="fill:#ff0000;stroke:#000000;" x="169.152602782" xlink:href="#m129eb1497c" y="147.896791182"/>
     <use style="fill:#ff0000;stroke:#000000;" x="165.796703887" xlink:href="#m129eb1497c" y="138.227271117"/>
     <use style="fill:#ff0000;stroke:#000000;" x="161.865201059" xlink:href="#m129eb1497c" y="130.896557875"/>
     <use style="fill:#ff0000;stroke:#000000;" x="160.433666051" xlink:href="#m129eb1497c" y="130.870641614"/>
     <use style="fill:#ff0000;stroke:#000000;" x="151.654676478" xlink:href="#m129eb1497c" y="127.451191357"/>
     <use style="fill:#ff0000;stroke:#000000;" x="144.614392336" xlink:href="#m129eb1497c" y="137.052302065"/>
     <use style="fill:#ff0000;stroke:#000000;" x="143.906301958" xlink:href="#m129eb1497c" y="136.603425769"/>
     <use style="fill:#ff0000;stroke:#000000;" x="129.662056702" xlink:href="#m129eb1497c" y="152.014636"/>
     <use style="fill:#ff0000;stroke:#000000;" x="122.773796487" xlink:href="#m129eb1497c" y="158.538624245"/>
     <use style="fill:#ff0000;stroke:#000000;" x="115.347841929" xlink:href="#m129eb1497c" y="170.662546159"/>
     <use style="fill:#ff0000;stroke:#000000;" x="102.532528704" xlink:href="#m129eb1497c" y="188.263052686"/>
     <use style="fill:#ff0000;stroke:#000000;" x="94.1546190256" xlink:href="#m129eb1497c" y="207.2856776"/>
     <use style="fill:#ff0000;stroke:#000000;" x="82.7073945049" xlink:href="#m129eb1497c" y="214.730799595"/>
     <use style="fill:#ff0000;stroke:#000000;" x="77.4789537584" xlink:href="#m129eb1497c" y="232.007848657"/>
     <use style="fill:#ff0000;stroke:#000000;" x="69.6315428683" xlink:href="#m129eb1497c" y="247.139011155"/>
     <use style="fill:#ff0000;stroke:#000000;" x="54.3714538546" xlink:href="#m129eb1497c" y="254.218320293"/>
     <use style="fill:#ff0000;stroke:#000000;" x="49.4357360644" xlink:href="#m129eb1497c" y="259.353592111"/>
     <use style="fill:#ff0000;stroke:#000000;" x="44.4118114537" xlink:href="#m129eb1497c" y="262.810902301"/>
     <use style="fill:#ff0000;stroke:#000000;" x="42.0375044274" xlink:href="#m129eb1497c" y="266.629029868"/>
     <use style="fill:#ff0000;stroke:#000000;" x="31.4664862089" xlink:href="#m129eb1497c" y="256.867882454"/>
     <use style="fill:#ff0000;stroke:#000000;" x="26.3286393695" xlink:href="#m129eb1497c" y="247.286553403"/>
     <use style="fill:#ff0000;stroke:#000000;" x="24.2484932314" xlink:href="#m129eb1497c" y="244.123072116"/>
     <use style="fill:#ff0000;stroke:#000000;" x="23.265672799" xlink:href="#m129eb1497c" y="233.469439286"/>
     <use style="fill:#ff0000;stroke:#000000;" x="26.1076080564" xlink:href="#m129eb1497c" y="216.53382077"/>
     <use style="fill:#ff0000;stroke:#000000;" x="23.9661131186" xlink:href="#m129eb1497c" y="199.336722464"/>
     <use style="fill:#ff0000;stroke:#000000;" x="26.8201956059" xlink:href="#m129eb1497c" y="190.30387213"/>
    </g>
   </g>
   <g id="line2d_1">
    <path clip-path="url(#p594965a0ca)" d="
M170.173 195.942
L165.21 202.291" style="fill:none;stroke:#0000ff;stroke-linecap:square;"/>
   </g>
   <g id="line2d_2">
    <path clip-path="url(#p594965a0ca)" d="
M170.173 195.942
L174.613 189.53" style="fill:none;stroke:#0000ff;stroke-linecap:square;"/>
   </g>
   <g id="line2d_3">
    <path clip-path="url(#p594965a0ca)" d="
M168.493 165.781
L174.762 172.518" style="fill:none;stroke:#0000ff;stroke-linecap:square;"/>
   </g>
   <g id="line2d_4">
    <path clip-path="url(#p594965a0ca)" d="
M168.493 165.781
L171.502 163.339" style="fill:none;stroke:#0000ff;stroke-linecap:square;"/>
   </g>
   <g id="line2d_5">
    <path clip-path="url(#p594965a0ca)" d="
M166.413 152.472
L169.153 147.897" style="fill:none;stroke:#0000ff;stroke-linecap:square;"/>
   </g>
   <g id="line2d_6">
    <path clip-path="url(#p594965a0ca)" d="
M163.534 141.195
L165.797 138.227" style="fill:none;stroke:#0000ff;stroke-linecap:square;"/>
   </g>
   <g id="line2d_7">
    <path clip-path="url(#p594965a0ca)" d="
M159.891 132.478
L161.865 130.897" style="fill:none;stroke:#0000ff;stroke-linecap:square;"/>
   </g>
   <g id="line2d_8">
    <path clip-path="url(#p594965a0ca)" d="
M159.891 132.478
L160.434 130.871" style="fill:none;stroke:#0000ff;stroke-linecap:square;"/>
   </g>
   <g id="line2d_9">
    <path clip-path="url(#p594965a0ca)" d="
M150.491 124.216
L151.655 127.451" style="fill:none;stroke:#0000ff;stroke-linecap:square;"/>
   </g>
   <g id="line2d_10">
    <path clip-path="url(#p594965a0ca)" d="
M138.652 129.213
L144.614 137.052" style="fill:none;stroke:#0000ff;stroke-linecap:square;"/>
   </g>
   <g id="line2d_11">
    <path clip-path="url(#p594965a0ca)" d="
M138.652 129.213
L143.906 136.603" style="fill:none;stroke:#0000ff;stroke-linecap:square;"/>
   </g>
   <g id="line2d_12">
    <path clip-path="url(#p594965a0ca)" d="
M124.929 146.544
L129.662 152.015" style="fill:none;stroke:#0000ff;stroke-linecap:square;"/>
   </g>
   <g id="line2d_13">
    <path clip-path="url(#p594965a0ca)" d="
M117.559 158.909
L122.774 158.539" style="fill:none;stroke:#0000ff;stroke-linecap:square;"/>
   </g>
   <g id="line2d_14">
    <path clip-path="url(#p594965a0ca)" d="
M109.963 173.006
L115.348 170.663" style="fill:none;stroke:#0000ff;stroke-linecap:square;"/>
   </g>
   <g id="line2d_15">
    <path clip-path="url(#p594965a0ca)" d="
M102.231 188.175
L102.533 188.263" style="fill:none;stroke:#0000ff;stroke-linecap:square;"/>
   </g>
   <g id="line2d_16">
    <path clip-path="url(#p594965a0ca)" d="
M94.4531 203.708
L94.1546 207.286" style="fill:none;stroke:#0000ff;stroke-linecap:square;"/>
   </g>
   <g id="line2d_17">
    <path clip-path="url(#p594965a0ca)" d="
M86.721 218.877
L82.7074 214.731" style="fill:none;stroke:#0000ff;stroke-linecap:square;"/>
   </g>
   <g id="line2d_18">
    <path clip-path="url(#p594965a0ca)" d="
M79.1252 232.974
L77.479 232.008" style="fill:none;stroke:#0000ff;stroke-linecap:square;"/>
   </g>
   <g id="line2d_19">
    <path clip-path="url(#p594965a0ca)" d="
M71.7547 245.34
L69.6315 247.139" style="fill:none;stroke:#0000ff;stroke-linecap:square;"/>
   </g>
   <g id="line2d_20">
    <path clip-path="url(#p594965a0ca)" d="
M58.0315 262.671
L54.3715 254.218" style="fill:none;stroke:#0000ff;stroke-linecap:square;"/>
   </g>
   <g id="line2d_21">
    <path clip-path="url(#p594965a0ca)" d="
M51.8397 266.826
L49.4357 259.354" style="fill:none;stroke:#0000ff;stroke-linecap:square;"/>
   </g>
   <g id="line2d_22">
    <path clip-path="url(#p594965a0ca)" d="
M41.158 265.154
L44.4118 262.811" style="fill:none;stroke:#0000ff;stroke-linecap:square;"/>
   </g>
   <g id="line2d_23">
    <path clip-path="url(#p594965a0ca)" d="
M41.158 265.154
L42.0375 266.629" style="fill:none;stroke:#0000ff;stroke-linecap:square;"/>
   </g>
   <g id="line2d_24">
    <path clip-path="url(#p594965a0ca)" d="
M36.7933 259.405
L31.4665 256.868" style="fill:none;stroke:#0000ff;stroke-linecap:square;"/>
   </g>
   <g id="line2d_25">
    <path clip-path="url(#p594965a0ca)" d="
M33.1502 250.688
L26.3286 247.287" style="fill:none;stroke:#0000ff;stroke-linecap:square;"/>
   </g>
   <g id="line2d_26">
    <path clip-path="url(#p594965a0ca)" d="
M30.2714 239.412
L24.2485 244.123" style="fill:none;stroke:#0000ff;stroke-linecap:square;"/>
   </g>
   <g id="line2d_27">
    <path clip-path="url(#p594965a0ca)" d="
M28.1906 226.103
L23.2657 233.469" style="fill:none;stroke:#0000ff;stroke-linecap:square;"/>
   </g>
   <g id="line2d_28">
    <path clip-path="url(#p594965a0ca)" d="
M26.9323 211.383
L26.1076 216.534" style="fill:none;stroke:#0000ff;stroke-linecap:square;"/>
   </g>
   <g id="line2d_29">
    <path clip-path="url(#p594965a0ca)" d="
M26.5113 195.942
L23.9661 199.337" style="fill:none;stroke:#0000ff;stroke-linecap:square;"/>
   </g>
   <g id="line2d_30">
    <path clip-path="url(#p594965a0ca)" d="
M26.5113 195.942
L26.8202 190.304" style="fill:none;stroke:#0000ff;stroke-linecap:square;"/>
   </g>
   <g id="text_1">
    <!-- Correspondences Iteration 9 -->
    <defs>
     <path d="
M9.42188 54.6875
L18.4062 54.6875
L18.4062 0
L9.42188 0
z

M9.42188 75.9844
L18.4062 75.9844
L18.4062 64.5938
L9.42188 64.5938
z
" id="DejaVuSans-69"/>
     <path d="
M30.6094 48.3906
Q23.3906 48.3906 19.1875 42.75
Q14.9844 37.1094 14.9844 27.2969
Q14.9844 17.4844 19.1562 11.8438
Q23.3438 6.20312 30.6094 6.20312
Q37.7969 6.20312 41.9844 11.8594
Q46.1875 17.5312 46.1875 27.2969
Q46.1875 37.0156 41.9844 42.7031
Q37.7969 48.3906 30.6094 48.3906
M30.6094 56
Q42.3281 56 49.0156 48.375
Q55.7188 40.7656 55.7188 27.2969
Q55.7188 13.875 49.0156 6.21875
Q42.3281 -1.42188 30.6094 -1.42188
Q18.8438 -1.42188 12.1719 6.21875
Q5.51562 13.875 5.51562 27.2969
Q5.51562 40.7656 12.1719 48.375
Q18.8438 56 30.6094 56" id="DejaVuSans-6f"/>
     <path d="
M54.8906 33.0156
L54.8906 0
L45.9062 0
L45.9062 32.7188
Q45.9062 40.4844 42.875 44.3281
Q39.8438 48.1875 33.7969 48.1875
Q26.5156 48.1875 22.3125 43.5469
Q18.1094 38.9219 18.1094 30.9062
L18.1094 0
L9.07812 0
L9.07812 54.6875
L18.1094 54.6875
L18.1094 46.1875
Q21.3438 51.125 25.7031 53.5625
Q30.0781 56 35.7969 56
Q45.2188 56 50.0469 50.1719
Q54.8906 44.3438 54.8906 33.0156" id="DejaVuSans-6e"/>
     <path d="
M34.2812 27.4844
Q23.3906 27.4844 19.1875 25
Q14.9844 22.5156 14.9844 16.5
Q14.9844 11.7188 18.1406 8.90625
Q21.2969 6.10938 26.7031 6.10938
Q34.1875 6.10938 38.7031 11.4062
Q43.2188 16.7031 43.2188 25.4844
L43.2188 27.4844
z

M52.2031 31.2031
L52.2031 0
L43.2188 0
L43.2188 8.29688
Q40.1406 3.32812 35.5469 0.953125
Q30.9531 -1.42188 24.3125 -1.42188
Q15.9219 -1.42188 10.9531 3.29688
Q6 8.01562 6 15.9219
Q6 25.1406 12.1719 29.8281
Q18.3594 34.5156 30.6094 34.5156
L43.2188 34.5156
L43.2188 35.4062
Q43.2188 41.6094 39.1406 45
Q35.0625 48.3906 27.6875 48.3906
Q23 48.3906 18.5469 47.2656
Q14.1094 46.1406 10.0156 43.8906
L10.0156 52.2031
Q14.9375 54.1094 19.5781 55.0469
Q24.2188 56 28.6094 56
Q40.4844 56 46.3438 49.8438
Q52.2031 43.7031 52.2031 31.2031" id="DejaVuSans-61"/>
     <path d="
M48.7812 52.5938
L48.7812 44.1875
Q44.9688 46.2969 41.1406 47.3438
Q37.3125 48.3906 33.4062 48.3906
Q24.6562 48.3906 19.8125 42.8438
Q14.9844 37.3125 14.9844 27.2969
Q14.9844 17.2812 19.8125 11.7344
Q24.6562 6.20312 33.4062 6.20312
Q37.3125 6.20312 41.1406 7.25
Q44.9688 8.29688 48.7812 10.4062
L48.7812 2.09375
Q45.0156 0.34375 40.9844 -0.53125
Q36.9688 -1.42188 32.4219 -1.42188
Q20.0625 -1.42188 12.7812 6.34375
Q5.51562 14.1094 5.51562 27.2969
Q5.51562 40.6719 12.8594 48.3281
Q20.2188 56 33.0156 56
Q37.1562 56 41.1094 55.1406
Q45.0625 54.2969 48.7812 52.5938" id="DejaVuSans-63"/>
     <path id="DejaVuSans-20"/>
     <path d="
M9.8125 72.9062
L19.6719 72.9062
L19.6719 0
L9.8125 0
z
" id="DejaVuSans-49"/>
     <path d="
M64.4062 67.2812
L64.4062 56.8906
Q59.4219 61.5312 53.7812 63.8125
Q48.1406 66.1094 41.7969 66.1094
Q29.2969 66.1094 22.6562 58.4688
Q16.0156 50.8281 16.0156 36.375
Q16.0156 21.9688 22.6562 14.3281
Q29.2969 6.6875 41.7969 6.6875
Q48.1406 6.6875 53.7812 8.98438
Q59.4219 11.2812 64.4062 15.9219
L64.4062 5.60938
Q59.2344 2.09375 53.4375 0.328125
Q47.6562 -1.42188 41.2188 -1.42188
Q24.6562 -1.42188 15.125 8.70312
Q5.60938 18.8438 5.60938 36.375
Q5.60938 53.9531 15.125 64.0781
Q24.6562 74.2188 41.2188 74.2188
Q47.75 74.2188 53.5312 72.4844
Q59.3281 70.75 64.4062 67.2812" id="DejaVuSans-43"/>
     <path d="
M10.9844 1.51562
L10.9844 10.5
Q14.7031 8.73438 18.5 7.8125
Q22.3125 6.89062 25.9844 6.89062
Q35.75 6.89062 40.8906 13.4531
Q46.0469 20.0156 46.7812 33.4062
Q43.9531 29.2031 39.5938 26.9531
Q35.25 24.7031 29.9844 24.7031
Q19.0469 24.7031 12.6719 31.3125
Q6.29688 37.9375 6.29688 49.4219
Q6.29688 60.6406 12.9375 67.4219
Q19.5781 74.2188 30.6094 74.2188
Q43.2656 74.2188 49.9219 64.5156
Q56.5938 54.8281 56.5938 36.375
Q56.5938 19.1406 48.4062 8.85938
Q40.2344 -1.42188 26.4219 -1.42188
Q22.7031 -1.42188 18.8906 -0.6875
Q15.0938 0.046875 10.9844 1.51562
M30.6094 32.4219
Q37.25 32.4219 41.125 36.9531
Q45.0156 41.5 45.0156 49.4219
Q45.0156 57.2812 41.125 61.8438
Q37.25 66.4062 30.6094 66.4062
Q23.9688 66.4062 20.0938 61.8438
Q16.2188 57.2812 16.2188 49.4219
Q16.2188 41.5 20.0938 36.9531
Q23.9688 32.4219 30.6094 32.4219" id="DejaVuSans-39"/>
     <path d="
M18.3125 70.2188
L18.3125 54.6875
L36.8125 54.6875
L36.8125 47.7031
L18.3125 47.7031
L18.3125 18.0156
Q18.3125 11.3281 20.1406 9.42188
Q21.9688 7.51562 27.5938 7.51562
L36.8125 7.51562
L36.8125 0
L27.5938 0
Q17.1875 0 13.2344 3.875
Q9.28125 7.76562 9.28125 18.0156
L9.28125 47.7031
L2.6875 47.7031
L2.6875 54.6875
L9.28125 54.6875
L9.28125 70.2188
z
" id="DejaVuSans-74"/>
     <path d="
M45.4062 46.3906
L45.4062 75.9844
L54.3906 75.9844
L54.3906 0
L45.4062 0
L45.4062 8.20312
Q42.5781 3.32812 38.25 0.953125
Q33.9375 -1.42188 27.875 -1.42188
Q17.9688 -1.42188 11.7344 6.48438
Q5.51562 14.4062 5.51562 27.2969
Q5.51562 40.1875 11.7344 48.0938
Q17.9688 56 27.875 56
Q33.9375 56 38.25 53.625
Q42.5781 51.2656 45.4062 46.3906
M14.7969 27.2969
Q14.7969 17.3906 18.875 11.75
Q22.9531 6.10938 30.0781 6.10938
Q37.2031 6.10938 41.2969 11.75
Q45.4062 17.3906 45.4062 27.2969
Q45.4062 37.2031 41.2969 42.8438
Q37.2031 48.4844 30.0781 48.4844
Q22.9531 48.4844 18.875 42.8438
Q14.7969 37.2031 14.7969 27.2969" id="DejaVuSans-64"/>
     <path d="
M56.2031 29.5938
L56.2031 25.2031
L14.8906 25.2031
Q15.4844 15.9219 20.4844 11.0625
Q25.4844 6.20312 34.4219 6.20312
Q39.5938 6.20312 44.4531 7.46875
Q49.3125 8.73438 54.1094 11.2812
L54.1094 2.78125
Q49.2656 0.734375 44.1875 -0.34375
Q39.1094 -1.42188 33.8906 -1.42188
Q20.7969 -1.42188 13.1562 6.1875
Q5.51562 13.8125 5.51562 26.8125
Q5.51562 40.2344 12.7656 48.1094
Q20.0156 56 32.3281 56
Q43.3594 56 49.7812 48.8906
Q56.2031 41.7969 56.2031 29.5938
M47.2188 32.2344
Q47.125 39.5938 43.0938 43.9844
Q39.0625 48.3906 32.4219 48.3906
Q24.9062 48.3906 20.3906 44.1406
Q15.875 39.8906 15.1875 32.1719
z
" id="DejaVuSans-65"/>
     <path d="
M18.1094 8.20312
L18.1094 -20.7969
L9.07812 -20.7969
L9.07812 54.6875
L18.1094 54.6875
L18.1094 46.3906
Q20.9531 51.2656 25.2656 53.625
Q29.5938 56 35.5938 56
Q45.5625 56 51.7812 48.0938
Q58.0156 40.1875 58.0156 27.2969
Q58.0156 14.4062 51.7812 6.48438
Q45.5625 -1.42188 35.5938 -1.42188
Q29.5938 -1.42188 25.2656 0.953125
Q20.9531 3.32812 18.1094 8.20312
M48.6875 27.2969
Q48.6875 37.2031 44.6094 42.8438
Q40.5312 48.4844 33.4062 48.4844
Q26.2656 48.4844 22.1875 42.8438
Q18.1094 37.2031 18.1094 27.2969
Q18.1094 17.3906 22.1875 11.75
Q26.2656 6.10938 33.4062 6.10938
Q40.5312 6.10938 44.6094 11.75
Q48.6875 17.3906 48.6875 27.2969" id="DejaVuSans-70"/>
     <path d="
M44.2812 53.0781
L44.2812 44.5781
Q40.4844 46.5312 36.375 47.5
Q32.2812 48.4844 27.875 48.4844
Q21.1875 48.4844 17.8438 46.4375
Q14.5 44.3906 14.5 40.2812
Q14.5 37.1562 16.8906 35.375
Q19.2812 33.5938 26.5156 31.9844
L29.5938 31.2969
Q39.1562 29.25 43.1875 25.5156
Q47.2188 21.7812 47.2188 15.0938
Q47.2188 7.46875 41.1875 3.01562
Q35.1562 -1.42188 24.6094 -1.42188
Q20.2188 -1.42188 15.4531 -0.5625
Q10.6875 0.296875 5.42188 2
L5.42188 11.2812
Q10.4062 8.6875 15.2344 7.39062
Q20.0625 6.10938 24.8125 6.10938
Q31.1562 6.10938 34.5625 8.28125
Q37.9844 10.4531 37.9844 14.4062
Q37.9844 18.0625 35.5156 20.0156
Q33.0625 21.9688 24.7031 23.7812
L21.5781 24.5156
Q13.2344 26.2656 9.51562 29.9062
Q5.8125 33.5469 5.8125 39.8906
Q5.8125 47.6094 11.2812 51.7969
Q16.75 56 26.8125 56
Q31.7812 56 36.1719 55.2656
Q40.5781 54.5469 44.2812 53.0781" id="DejaVuSans-73"/>
     <path d="
M41.1094 46.2969
Q39.5938 47.1719 37.8125 47.5781
Q36.0312 48 33.8906 48
Q26.2656 48 22.1875 43.0469
Q18.1094 38.0938 18.1094 28.8125
L18.1094 0
L9.07812 0
L9.07812 54.6875
L18.1094 54.6875
L18.1094 46.1875
Q20.9531 51.1719 25.4844 53.5781
Q30.0312 56 36.5312 56
Q37.4531 56 38.5781 55.875
Q39.7031 55.7656 41.0625 55.5156
z
" id="DejaVuSans-72"/>
    </defs>
    <g transform="translate(259.630375 18.14175)scale(0.144 -0.144)">
     <use xlink:href="#DejaVuSans-43"/>
     <use x="69.82421875" xlink:href="#DejaVuSans-6f"/>
     <use x="131.005859375" xlink:href="#DejaVuSans-72"/>
     <use x="170.369140625" xlink:href="#DejaVuSans-72"/>
     <use x="209.232421875" xlink:href="#DejaVuSans-65"/>
     <use x="270.755859375" xlink:href="#DejaVuSans-73"/>
     <use x="322.85546875" xlink:href="#DejaVuSans-70"/>
     <use x="386.33203125" xlink:href="#DejaVuSans-6f"/>
     <use x="447.513671875" xlink:href="#DejaVuSans-6e"/>
     <use x="510.892578125" xlink:href="#DejaVuSans-64"/>
     <use x="574.369140625" xlink:href="#DejaVuSans-65"/>
     <use x="635.892578125" xlink:href="#DejaVuSans-6e"/>
     <use x="699.271484375" xlink:href="#DejaVuSans-63"/>
     <use x="754.251953125" xlink:href="#DejaVuSans-65"/>
     <use x="815.775390625" xlink:href="#DejaVuSans-73"/>
     <use x="867.875" xlink:href="#DejaVuSans-20"/>
     <use x="899.662109375" xlink:href="#DejaVuSans-49"/>
     <use x="929.154296875" xlink:href="#DejaVuSans-74"/>
     <use x="968.36328125" xlink:href="#DejaVuSans-65"/>
     <use x="1029.88671875" xlink:href="#DejaVuSans-72"/>
     <use x="1071.0" xlink:href="#DejaVuSans-61"/>
     <use x="1132.27929688" xlink:href="#DejaVuSans-74"/>
     <use x="1171.48828125" xlink:href="#DejaVuSans-69"/>
     <use x="1199.27148438" xlink:href="#DejaVuSans-6f"/>
     <use x="1260.453125" xlink:href="#DejaVuSans-6e"/>
     <use x="1323.83203125" xlink:href="#DejaVuSans-20"/>
     <use x="1355.61914062" xlink:href="#DejaVuSans-39"/>
    </g>
   </g>
  </g>
 </g>
 <defs>
  <clipPath id="p594965a0ca">
   <rect height="345.6" width="669.6" x="26.51125" y="23.14175"/>
  </clipPath>
 </defs>
</svg>
