<?xml version="1.0" encoding="utf-8" standalone="no"?>
<!DOCTYPE svg PUBLIC "-//W3C//DTD SVG 1.1//EN"
  "http://www.w3.org/Graphics/SVG/1.1/DTD/svg11.dtd">
<!-- Created with matplotlib (http://matplotlib.org/) -->
<svg height="284pt" version="1.1" viewBox="0 0 286 284" width="286pt" xmlns="http://www.w3.org/2000/svg" xmlns:xlink="http://www.w3.org/1999/xlink">
 <defs>
  <style type="text/css">
*{stroke-linecap:butt;stroke-linejoin:round;}
  </style>
 </defs>
 <g id="figure_1">
  <g id="patch_1">
   <path d="
M0 284.773
L286.839 284.773
L286.839 0
L0 0
z
" style="fill:#ffffff;"/>
  </g>
  <g id="axes_1">
   <g id="patch_2">
    <path d="
M26.5113 261.959
L277.611 261.959
L277.611 10.8594
L26.5113 10.8594
z
" style="fill:#ffffff;"/>
   </g>
   <g id="PathCollection_1">
    <defs>
     <path d="
M0 3.87298
C1.02713 3.87298 2.01232 3.4649 2.73861 2.73861
C3.4649 2.01232 3.87298 1.02713 3.87298 0
C3.87298 -1.02713 3.4649 -2.01232 2.73861 -2.73861
C2.01232 -3.4649 1.02713 -3.87298 0 -3.87298
C-1.02713 -3.87298 -2.01232 -3.4649 -2.73861 -2.73861
C-3.4649 -2.01232 -3.87298 -1.02713 -3.87298 0
C-3.87298 1.02713 -3.4649 2.01232 -2.73861 2.73861
C-2.01232 3.4649 -1.02713 3.87298 0 3.87298
z
" id="m922edc5205" style="stroke:#000000;"/>
    </defs>
    <g clip-path="url(#pc2a8f9fd4b)">
     <use style="fill:#ff0000;stroke:#000000;" x="152.06125" xlink:href="#m922edc5205" y="136.409429348"/>
    </g>
   </g>
   <g id="PathCollection_2">
    <defs>
     <path d="
M0 3.87298
C1.02713 3.87298 2.01232 3.4649 2.73861 2.73861
C3.4649 2.01232 3.87298 1.02713 3.87298 0
C3.87298 -1.02713 3.4649 -2.01232 2.73861 -2.73861
C2.01232 -3.4649 1.02713 -3.87298 0 -3.87298
C-1.02713 -3.87298 -2.01232 -3.4649 -2.73861 -2.73861
C-3.4649 -2.01232 -3.87298 -1.02713 -3.87298 0
C-3.87298 1.02713 -3.4649 2.01232 -2.73861 2.73861
C-2.01232 3.4649 -1.02713 3.87298 0 3.87298
z
" id="m4d225da0f7" style="stroke:#000000;"/>
    </defs>
    <g clip-path="url(#pc2a8f9fd4b)">
     <use style="fill:#008000;stroke:#000000;" x="42.8873369565" xlink:href="#m4d225da0f7" y="136.409429348"/>
    </g>
   </g>
   <g id="PathCollection_3">
    <defs>
     <path d="
M0 3.87298
C1.02713 3.87298 2.01232 3.4649 2.73861 2.73861
C3.4649 2.01232 3.87298 1.02713 3.87298 0
C3.87298 -1.02713 3.4649 -2.01232 2.73861 -2.73861
C2.01232 -3.4649 1.02713 -3.87298 0 -3.87298
C-1.02713 -3.87298 -2.01232 -3.4649 -2.73861 -2.73861
C-3.4649 -2.01232 -3.87298 -1.02713 -3.87298 0
C-3.87298 1.02713 -3.4649 2.01232 -2.73861 2.73861
C-2.01232 3.4649 -1.02713 3.87298 0 3.87298
z
" id="m028c7392d4" style="stroke:#000000;"/>
    </defs>
    <g clip-path="url(#pc2a8f9fd4b)">
     <use style="fill:#0000ff;stroke:#000000;" x="42.8873369565" xlink:href="#m028c7392d4" y="81.8224728261"/>
    </g>
   </g>
   <g id="PathCollection_4">
    <defs>
     <path d="
M0 3.87298
C1.02713 3.87298 2.01232 3.4649 2.73861 2.73861
C3.4649 2.01232 3.87298 1.02713 3.87298 0
C3.87298 -1.02713 3.4649 -2.01232 2.73861 -2.73861
C2.01232 -3.4649 1.02713 -3.87298 0 -3.87298
C-1.02713 -3.87298 -2.01232 -3.4649 -2.73861 -2.73861
C-3.4649 -2.01232 -3.87298 -1.02713 -3.87298 0
C-3.87298 1.02713 -3.4649 2.01232 -2.73861 2.73861
C-2.01232 3.4649 -1.02713 3.87298 0 3.87298
z
" id="m86cfef254f" style="stroke:#000000;"/>
    </defs>
    <g clip-path="url(#pc2a8f9fd4b)">
     <use style="stroke:#000000;" x="152.06125" xlink:href="#m86cfef254f" y="81.8224728261"/>
    </g>
   </g>
   <g id="patch_3">
    <path clip-path="url(#pc2a8f9fd4b)" d="
M152.061 136.409
L42.8873 136.409
L42.8873 81.8225
L152.061 81.8225
z
" style="fill:#ffbbbb;stroke:#ffbbbb;stroke-linejoin:miter;"/>
   </g>
   <g id="patch_4">
    <path clip-path="url(#pc2a8f9fd4b)" d="
M277.611 136.409
L272.153 139.139
L272.153 136.437
L31.9699 136.437
L31.9699 136.382
L272.153 136.382
L272.153 133.68
z
" style="stroke:#000000;stroke-linejoin:miter;"/>
   </g>
   <g id="patch_5">
    <path clip-path="url(#pc2a8f9fd4b)" d="
M26.5113 136.409
L31.9699 133.68
L31.9699 136.382
L272.153 136.382
L272.153 136.437
L31.9699 136.437
L31.9699 139.139
z
" style="stroke:#000000;stroke-linejoin:miter;"/>
   </g>
   <g id="patch_6">
    <path clip-path="url(#pc2a8f9fd4b)" d="
M152.061 10.8594
L154.791 16.3181
L152.089 16.3181
L152.089 256.501
L152.034 256.501
L152.034 16.3181
L149.332 16.3181
z
" style="stroke:#000000;stroke-linejoin:miter;"/>
   </g>
   <g id="patch_7">
    <path clip-path="url(#pc2a8f9fd4b)" d="
M152.061 261.959
L149.332 256.501
L152.034 256.501
L152.034 16.3181
L152.089 16.3181
L152.089 256.501
L154.791 256.501
z
" style="stroke:#000000;stroke-linejoin:miter;"/>
   </g>
   <g id="patch_8">
    <path d="
M26.5113 10.8594
L277.611 10.8594" style="fill:none;stroke:#000000;stroke-linecap:square;stroke-linejoin:miter;"/>
   </g>
   <g id="patch_9">
    <path d="
M277.611 261.959
L277.611 10.8594" style="fill:none;stroke:#000000;stroke-linecap:square;stroke-linejoin:miter;"/>
   </g>
   <g id="patch_10">
    <path d="
M26.5113 261.959
L277.611 261.959" style="fill:none;stroke:#000000;stroke-linecap:square;stroke-linejoin:miter;"/>
   </g>
   <g id="patch_11">
    <path d="
M26.5113 261.959
L26.5113 10.8594" style="fill:none;stroke:#000000;stroke-linecap:square;stroke-linejoin:miter;"/>
   </g>
   <g id="matplotlib.axis_1">
    <g id="xtick_1">
     <g id="line2d_1">
      <path clip-path="url(#pc2a8f9fd4b)" d="
M42.8873 261.959
L42.8873 10.8594" style="fill:none;stroke:#000000;stroke-dasharray:1.000000,3.000000;stroke-dashoffset:0.0;stroke-width:0.5;"/>
     </g>
     <g id="line2d_2">
      <defs>
       <path d="
M0 0
L0 -4" id="m93b0483c22" style="stroke:#000000;stroke-width:0.5;"/>
      </defs>
      <g>
       <use style="stroke:#000000;stroke-width:0.5;" x="42.8873369565" xlink:href="#m93b0483c22" y="261.959429348"/>
      </g>
     </g>
     <g id="line2d_3">
      <defs>
       <path d="
M0 0
L0 4" id="m741efc42ff" style="stroke:#000000;stroke-width:0.5;"/>
      </defs>
      <g>
       <use style="stroke:#000000;stroke-width:0.5;" x="42.8873369565" xlink:href="#m741efc42ff" y="10.8594293478"/>
      </g>
     </g>
     <g id="text_1">
      <!-- −2 -->
      <defs>
       <path d="
M19.1875 8.29688
L53.6094 8.29688
L53.6094 0
L7.32812 0
L7.32812 8.29688
Q12.9375 14.1094 22.625 23.8906
Q32.3281 33.6875 34.8125 36.5312
Q39.5469 41.8438 41.4219 45.5312
Q43.3125 49.2188 43.3125 52.7812
Q43.3125 58.5938 39.2344 62.25
Q35.1562 65.9219 28.6094 65.9219
Q23.9688 65.9219 18.8125 64.3125
Q13.6719 62.7031 7.8125 59.4219
L7.8125 69.3906
Q13.7656 71.7812 18.9375 73
Q24.125 74.2188 28.4219 74.2188
Q39.75 74.2188 46.4844 68.5469
Q53.2188 62.8906 53.2188 53.4219
Q53.2188 48.9219 51.5312 44.8906
Q49.8594 40.875 45.4062 35.4062
Q44.1875 33.9844 37.6406 27.2188
Q31.1094 20.4531 19.1875 8.29688" id="DejaVuSans-32"/>
       <path d="
M10.5938 35.5
L73.1875 35.5
L73.1875 27.2031
L10.5938 27.2031
z
" id="DejaVuSans-2212"/>
      </defs>
      <g transform="translate(35.2785869565 275.077554348)scale(0.12 -0.12)">
       <use xlink:href="#DejaVuSans-2212"/>
       <use x="83.7890625" xlink:href="#DejaVuSans-32"/>
      </g>
     </g>
    </g>
    <g id="xtick_2">
     <g id="line2d_4">
      <path clip-path="url(#pc2a8f9fd4b)" d="
M97.4743 261.959
L97.4743 10.8594" style="fill:none;stroke:#000000;stroke-dasharray:1.000000,3.000000;stroke-dashoffset:0.0;stroke-width:0.5;"/>
     </g>
     <g id="line2d_5">
      <g>
       <use style="stroke:#000000;stroke-width:0.5;" x="97.4742934783" xlink:href="#m93b0483c22" y="261.959429348"/>
      </g>
     </g>
     <g id="line2d_6">
      <g>
       <use style="stroke:#000000;stroke-width:0.5;" x="97.4742934783" xlink:href="#m741efc42ff" y="10.8594293478"/>
      </g>
     </g>
     <g id="text_2">
      <!-- −1 -->
      <defs>
       <path d="
M12.4062 8.29688
L28.5156 8.29688
L28.5156 63.9219
L10.9844 60.4062
L10.9844 69.3906
L28.4219 72.9062
L38.2812 72.9062
L38.2812 8.29688
L54.3906 8.29688
L54.3906 0
L12.4062 0
z
" id="DejaVuSans-31"/>
      </defs>
      <g transform="translate(89.8186684783 275.077554348)scale(0.12 -0.12)">
       <use xlink:href="#DejaVuSans-2212"/>
       <use x="83.7890625" xlink:href="#DejaVuSans-31"/>
      </g>
     </g>
    </g>
    <g id="xtick_3">
     <g id="line2d_7">
      <path clip-path="url(#pc2a8f9fd4b)" d="
M152.061 261.959
L152.061 10.8594" style="fill:none;stroke:#000000;stroke-dasharray:1.000000,3.000000;stroke-dashoffset:0.0;stroke-width:0.5;"/>
     </g>
     <g id="line2d_8">
      <g>
       <use style="stroke:#000000;stroke-width:0.5;" x="152.06125" xlink:href="#m93b0483c22" y="261.959429348"/>
      </g>
     </g>
     <g id="line2d_9">
      <g>
       <use style="stroke:#000000;stroke-width:0.5;" x="152.06125" xlink:href="#m741efc42ff" y="10.8594293478"/>
      </g>
     </g>
     <g id="text_3">
      <!-- 0 -->
      <defs>
       <path d="
M31.7812 66.4062
Q24.1719 66.4062 20.3281 58.9062
Q16.5 51.4219 16.5 36.375
Q16.5 21.3906 20.3281 13.8906
Q24.1719 6.39062 31.7812 6.39062
Q39.4531 6.39062 43.2812 13.8906
Q47.125 21.3906 47.125 36.375
Q47.125 51.4219 43.2812 58.9062
Q39.4531 66.4062 31.7812 66.4062
M31.7812 74.2188
Q44.0469 74.2188 50.5156 64.5156
Q56.9844 54.8281 56.9844 36.375
Q56.9844 17.9688 50.5156 8.26562
Q44.0469 -1.42188 31.7812 -1.42188
Q19.5312 -1.42188 13.0625 8.26562
Q6.59375 17.9688 6.59375 36.375
Q6.59375 54.8281 13.0625 64.5156
Q19.5312 74.2188 31.7812 74.2188" id="DejaVuSans-30"/>
      </defs>
      <g transform="translate(149.0378125 275.077554348)scale(0.12 -0.12)">
       <use xlink:href="#DejaVuSans-30"/>
      </g>
     </g>
    </g>
    <g id="xtick_4">
     <g id="line2d_10">
      <path clip-path="url(#pc2a8f9fd4b)" d="
M206.648 261.959
L206.648 10.8594" style="fill:none;stroke:#000000;stroke-dasharray:1.000000,3.000000;stroke-dashoffset:0.0;stroke-width:0.5;"/>
     </g>
     <g id="line2d_11">
      <g>
       <use style="stroke:#000000;stroke-width:0.5;" x="206.648206522" xlink:href="#m93b0483c22" y="261.959429348"/>
      </g>
     </g>
     <g id="line2d_12">
      <g>
       <use style="stroke:#000000;stroke-width:0.5;" x="206.648206522" xlink:href="#m741efc42ff" y="10.8594293478"/>
      </g>
     </g>
     <g id="text_4">
      <!-- 1 -->
      <g transform="translate(204.043831522 275.077554348)scale(0.12 -0.12)">
       <use xlink:href="#DejaVuSans-31"/>
      </g>
     </g>
    </g>
    <g id="xtick_5">
     <g id="line2d_13">
      <path clip-path="url(#pc2a8f9fd4b)" d="
M261.235 261.959
L261.235 10.8594" style="fill:none;stroke:#000000;stroke-dasharray:1.000000,3.000000;stroke-dashoffset:0.0;stroke-width:0.5;"/>
     </g>
     <g id="line2d_14">
      <g>
       <use style="stroke:#000000;stroke-width:0.5;" x="261.235163043" xlink:href="#m93b0483c22" y="261.959429348"/>
      </g>
     </g>
     <g id="line2d_15">
      <g>
       <use style="stroke:#000000;stroke-width:0.5;" x="261.235163043" xlink:href="#m741efc42ff" y="10.8594293478"/>
      </g>
     </g>
     <g id="text_5">
      <!-- 2 -->
      <g transform="translate(258.458288043 275.077554348)scale(0.12 -0.12)">
       <use xlink:href="#DejaVuSans-32"/>
      </g>
     </g>
    </g>
   </g>
   <g id="matplotlib.axis_2">
    <g id="ytick_1">
     <g id="line2d_16">
      <path clip-path="url(#pc2a8f9fd4b)" d="
M26.5113 245.583
L277.611 245.583" style="fill:none;stroke:#000000;stroke-dasharray:1.000000,3.000000;stroke-dashoffset:0.0;stroke-width:0.5;"/>
     </g>
     <g id="line2d_17">
      <defs>
       <path d="
M0 0
L4 0" id="m728421d6d4" style="stroke:#000000;stroke-width:0.5;"/>
      </defs>
      <g>
       <use style="stroke:#000000;stroke-width:0.5;" x="26.51125" xlink:href="#m728421d6d4" y="245.583342391"/>
      </g>
     </g>
     <g id="line2d_18">
      <defs>
       <path d="
M0 0
L-4 0" id="mcb0005524f" style="stroke:#000000;stroke-width:0.5;"/>
      </defs>
      <g>
       <use style="stroke:#000000;stroke-width:0.5;" x="277.61125" xlink:href="#mcb0005524f" y="245.583342391"/>
      </g>
     </g>
     <g id="text_6">
      <!-- −2 -->
      <g transform="translate(7.29375 248.894592391)scale(0.12 -0.12)">
       <use xlink:href="#DejaVuSans-2212"/>
       <use x="83.7890625" xlink:href="#DejaVuSans-32"/>
      </g>
     </g>
    </g>
    <g id="ytick_2">
     <g id="line2d_19">
      <path clip-path="url(#pc2a8f9fd4b)" d="
M26.5113 190.996
L277.611 190.996" style="fill:none;stroke:#000000;stroke-dasharray:1.000000,3.000000;stroke-dashoffset:0.0;stroke-width:0.5;"/>
     </g>
     <g id="line2d_20">
      <g>
       <use style="stroke:#000000;stroke-width:0.5;" x="26.51125" xlink:href="#m728421d6d4" y="190.99638587"/>
      </g>
     </g>
     <g id="line2d_21">
      <g>
       <use style="stroke:#000000;stroke-width:0.5;" x="277.61125" xlink:href="#mcb0005524f" y="190.99638587"/>
      </g>
     </g>
     <g id="text_7">
      <!-- −1 -->
      <g transform="translate(7.2 194.30763587)scale(0.12 -0.12)">
       <use xlink:href="#DejaVuSans-2212"/>
       <use x="83.7890625" xlink:href="#DejaVuSans-31"/>
      </g>
     </g>
    </g>
    <g id="ytick_3">
     <g id="line2d_22">
      <path clip-path="url(#pc2a8f9fd4b)" d="
M26.5113 136.409
L277.611 136.409" style="fill:none;stroke:#000000;stroke-dasharray:1.000000,3.000000;stroke-dashoffset:0.0;stroke-width:0.5;"/>
     </g>
     <g id="line2d_23">
      <g>
       <use style="stroke:#000000;stroke-width:0.5;" x="26.51125" xlink:href="#m728421d6d4" y="136.409429348"/>
      </g>
     </g>
     <g id="line2d_24">
      <g>
       <use style="stroke:#000000;stroke-width:0.5;" x="277.61125" xlink:href="#mcb0005524f" y="136.409429348"/>
      </g>
     </g>
     <g id="text_8">
      <!-- 0 -->
      <g transform="translate(16.464375 139.720679348)scale(0.12 -0.12)">
       <use xlink:href="#DejaVuSans-30"/>
      </g>
     </g>
    </g>
    <g id="ytick_4">
     <g id="line2d_25">
      <path clip-path="url(#pc2a8f9fd4b)" d="
M26.5113 81.8225
L277.611 81.8225" style="fill:none;stroke:#000000;stroke-dasharray:1.000000,3.000000;stroke-dashoffset:0.0;stroke-width:0.5;"/>
     </g>
     <g id="line2d_26">
      <g>
       <use style="stroke:#000000;stroke-width:0.5;" x="26.51125" xlink:href="#m728421d6d4" y="81.8224728261"/>
      </g>
     </g>
     <g id="line2d_27">
      <g>
       <use style="stroke:#000000;stroke-width:0.5;" x="277.61125" xlink:href="#mcb0005524f" y="81.8224728261"/>
      </g>
     </g>
     <g id="text_9">
      <!-- 1 -->
      <g transform="translate(17.3025 85.1337228261)scale(0.12 -0.12)">
       <use xlink:href="#DejaVuSans-31"/>
      </g>
     </g>
    </g>
    <g id="ytick_5">
     <g id="line2d_28">
      <path clip-path="url(#pc2a8f9fd4b)" d="
M26.5113 27.2355
L277.611 27.2355" style="fill:none;stroke:#000000;stroke-dasharray:1.000000,3.000000;stroke-dashoffset:0.0;stroke-width:0.5;"/>
     </g>
     <g id="line2d_29">
      <g>
       <use style="stroke:#000000;stroke-width:0.5;" x="26.51125" xlink:href="#m728421d6d4" y="27.2355163043"/>
      </g>
     </g>
     <g id="line2d_30">
      <g>
       <use style="stroke:#000000;stroke-width:0.5;" x="277.61125" xlink:href="#mcb0005524f" y="27.2355163043"/>
      </g>
     </g>
     <g id="text_10">
      <!-- 2 -->
      <g transform="translate(16.9575 30.5467663043)scale(0.12 -0.12)">
       <use xlink:href="#DejaVuSans-32"/>
      </g>
     </g>
    </g>
   </g>
   <g id="text_11">
    <!-- X -->
    <defs>
     <path d="
M6.29688 72.9062
L16.8906 72.9062
L35.0156 45.7969
L53.2188 72.9062
L63.8125 72.9062
L40.375 37.8906
L65.375 0
L54.7812 0
L34.2812 31
L13.625 0
L2.98438 0
L29 38.9219
z
" id="DejaVuSans-58"/>
    </defs>
    <g transform="translate(272.152554348 130.950733696)scale(0.12 -0.12)">
     <use xlink:href="#DejaVuSans-58"/>
    </g>
   </g>
   <g id="text_12">
    <!-- Y -->
    <defs>
     <path d="
M-0.203125 72.9062
L10.4062 72.9062
L30.6094 42.9219
L50.6875 72.9062
L61.2812 72.9062
L35.5 34.7188
L35.5 0
L25.5938 0
L25.5938 34.7188
z
" id="DejaVuSans-59"/>
    </defs>
    <g transform="translate(157.519945652 16.318125)scale(0.12 -0.12)">
     <use xlink:href="#DejaVuSans-59"/>
    </g>
   </g>
  </g>
 </g>
 <defs>
  <clipPath id="pc2a8f9fd4b">
   <rect height="251.1" width="251.1" x="26.51125" y="10.8594293478"/>
  </clipPath>
 </defs>
</svg>
