<?xml version="1.0" encoding="utf-8" standalone="no"?>
<!DOCTYPE svg PUBLIC "-//W3C//DTD SVG 1.1//EN"
  "http://www.w3.org/Graphics/SVG/1.1/DTD/svg11.dtd">
<!-- Created with matplotlib (http://matplotlib.org/) -->
<svg height="282pt" version="1.1" viewBox="0 0 296 282" width="296pt" xmlns="http://www.w3.org/2000/svg" xmlns:xlink="http://www.w3.org/1999/xlink">
 <defs>
  <style type="text/css">
*{stroke-linecap:butt;stroke-linejoin:round;}
  </style>
 </defs>
 <g id="figure_1">
  <g id="patch_1">
   <path d="
M0 282.847
L296.673 282.847
L296.673 0
L0 0
z
" style="fill:#ffffff;"/>
  </g>
  <g id="axes_1">
   <g id="patch_2">
    <path d="
M38.2713 260.033
L289.371 260.033
L289.371 8.93283
L38.2713 8.93283
z
" style="fill:#ffffff;"/>
   </g>
   <g id="PathCollection_1">
    <defs>
     <path d="
M0 3.87298
C1.02713 3.87298 2.01232 3.4649 2.73861 2.73861
C3.4649 2.01232 3.87298 1.02713 3.87298 0
C3.87298 -1.02713 3.4649 -2.01232 2.73861 -2.73861
C2.01232 -3.4649 1.02713 -3.87298 0 -3.87298
C-1.02713 -3.87298 -2.01232 -3.4649 -2.73861 -2.73861
C-3.4649 -2.01232 -3.87298 -1.02713 -3.87298 0
C-3.87298 1.02713 -3.4649 2.01232 -2.73861 2.73861
C-2.01232 3.4649 -1.02713 3.87298 0 3.87298
z
" id="m922edc5205" style="stroke:#000000;"/>
    </defs>
    <g clip-path="url(#p31d439a22a)">
     <use style="fill:#ff0000;stroke:#000000;" x="119.509485294" xlink:href="#m922edc5205" y="178.794595588"/>
    </g>
   </g>
   <g id="PathCollection_2">
    <defs>
     <path d="
M0 3.87298
C1.02713 3.87298 2.01232 3.4649 2.73861 2.73861
C3.4649 2.01232 3.87298 1.02713 3.87298 0
C3.87298 -1.02713 3.4649 -2.01232 2.73861 -2.73861
C2.01232 -3.4649 1.02713 -3.87298 0 -3.87298
C-1.02713 -3.87298 -2.01232 -3.4649 -2.73861 -2.73861
C-3.4649 -2.01232 -3.87298 -1.02713 -3.87298 0
C-3.87298 1.02713 -3.4649 2.01232 -2.73861 2.73861
C-2.01232 3.4649 -1.02713 3.87298 0 3.87298
z
" id="m4d225da0f7" style="stroke:#000000;"/>
    </defs>
    <g clip-path="url(#p31d439a22a)">
     <use style="fill:#008000;stroke:#000000;" x="158.336274192" xlink:href="#m4d225da0f7" y="241.617659699"/>
    </g>
   </g>
   <g id="PathCollection_3">
    <defs>
     <path d="
M0 3.87298
C1.02713 3.87298 2.01232 3.4649 2.73861 2.73861
C3.4649 2.01232 3.87298 1.02713 3.87298 0
C3.87298 -1.02713 3.4649 -2.01232 2.73861 -2.73861
C2.01232 -3.4649 1.02713 -3.87298 0 -3.87298
C-1.02713 -3.87298 -2.01232 -3.4649 -2.73861 -2.73861
C-3.4649 -2.01232 -3.87298 -1.02713 -3.87298 0
C-3.87298 1.02713 -3.4649 2.01232 -2.73861 2.73861
C-2.01232 3.4649 -1.02713 3.87298 0 3.87298
z
" id="m028c7392d4" style="stroke:#000000;"/>
    </defs>
    <g clip-path="url(#p31d439a22a)">
     <use style="fill:#0000ff;stroke:#000000;" x="221.159338303" xlink:href="#m028c7392d4" y="202.790870801"/>
    </g>
   </g>
   <g id="PathCollection_4">
    <defs>
     <path d="
M0 3.87298
C1.02713 3.87298 2.01232 3.4649 2.73861 2.73861
C3.4649 2.01232 3.87298 1.02713 3.87298 0
C3.87298 -1.02713 3.4649 -2.01232 2.73861 -2.73861
C2.01232 -3.4649 1.02713 -3.87298 0 -3.87298
C-1.02713 -3.87298 -2.01232 -3.4649 -2.73861 -2.73861
C-3.4649 -2.01232 -3.87298 -1.02713 -3.87298 0
C-3.87298 1.02713 -3.4649 2.01232 -2.73861 2.73861
C-2.01232 3.4649 -1.02713 3.87298 0 3.87298
z
" id="m86cfef254f" style="stroke:#000000;"/>
    </defs>
    <g clip-path="url(#p31d439a22a)">
     <use style="stroke:#000000;" x="182.332549405" xlink:href="#m86cfef254f" y="139.96780669"/>
    </g>
   </g>
   <g id="patch_3">
    <path clip-path="url(#p31d439a22a)" d="
M119.509 178.795
L158.336 241.618
L221.159 202.791
L182.333 139.968
z
" style="fill:#ffbbbb;stroke:#ffbbbb;stroke-linejoin:miter;"/>
   </g>
   <g id="patch_4">
    <path clip-path="url(#p31d439a22a)" d="
M289.371 178.795
L281.986 182.487
L281.986 178.832
L45.6565 178.832
L45.6565 178.758
L281.986 178.758
L281.986 175.102
z
" style="stroke:#000000;stroke-linejoin:miter;"/>
   </g>
   <g id="patch_5">
    <path clip-path="url(#p31d439a22a)" d="
M38.2712 178.795
L45.6565 175.102
L45.6565 178.758
L281.986 178.758
L281.986 178.832
L45.6565 178.832
L45.6565 182.487
z
" style="stroke:#000000;stroke-linejoin:miter;"/>
   </g>
   <g id="patch_6">
    <path clip-path="url(#p31d439a22a)" d="
M119.509 8.93283
L123.202 16.3181
L119.546 16.3181
L119.546 252.648
L119.473 252.648
L119.473 16.3181
L115.817 16.3181
z
" style="stroke:#000000;stroke-linejoin:miter;"/>
   </g>
   <g id="patch_7">
    <path clip-path="url(#p31d439a22a)" d="
M119.509 260.033
L115.817 252.648
L119.473 252.648
L119.473 16.3181
L119.546 16.3181
L119.546 252.648
L123.202 252.648
z
" style="stroke:#000000;stroke-linejoin:miter;"/>
   </g>
   <g id="patch_8">
    <path d="
M38.2712 8.93283
L289.371 8.93283" style="fill:none;stroke:#000000;stroke-linecap:square;stroke-linejoin:miter;"/>
   </g>
   <g id="patch_9">
    <path d="
M289.371 260.033
L289.371 8.93283" style="fill:none;stroke:#000000;stroke-linecap:square;stroke-linejoin:miter;"/>
   </g>
   <g id="patch_10">
    <path d="
M38.2712 260.033
L289.371 260.033" style="fill:none;stroke:#000000;stroke-linecap:square;stroke-linejoin:miter;"/>
   </g>
   <g id="patch_11">
    <path d="
M38.2713 260.033
L38.2713 8.93283" style="fill:none;stroke:#000000;stroke-linecap:square;stroke-linejoin:miter;"/>
   </g>
   <g id="matplotlib.axis_1">
    <g id="xtick_1">
     <g id="line2d_1">
      <path clip-path="url(#p31d439a22a)" d="
M45.6565 260.033
L45.6565 8.93283" style="fill:none;stroke:#000000;stroke-dasharray:1.000000,3.000000;stroke-dashoffset:0.0;stroke-width:0.5;"/>
     </g>
     <g id="line2d_2">
      <defs>
       <path d="
M0 0
L0 -4" id="m93b0483c22" style="stroke:#000000;stroke-width:0.5;"/>
      </defs>
      <g>
       <use style="stroke:#000000;stroke-width:0.5;" x="45.6565441176" xlink:href="#m93b0483c22" y="260.032830882"/>
      </g>
     </g>
     <g id="line2d_3">
      <defs>
       <path d="
M0 0
L0 4" id="m741efc42ff" style="stroke:#000000;stroke-width:0.5;"/>
      </defs>
      <g>
       <use style="stroke:#000000;stroke-width:0.5;" x="45.6565441176" xlink:href="#m741efc42ff" y="8.93283088235"/>
      </g>
     </g>
     <g id="text_1">
      <!-- −1.0 -->
      <defs>
       <path d="
M12.4062 8.29688
L28.5156 8.29688
L28.5156 63.9219
L10.9844 60.4062
L10.9844 69.3906
L28.4219 72.9062
L38.2812 72.9062
L38.2812 8.29688
L54.3906 8.29688
L54.3906 0
L12.4062 0
z
" id="DejaVuSans-31"/>
       <path d="
M31.7812 66.4062
Q24.1719 66.4062 20.3281 58.9062
Q16.5 51.4219 16.5 36.375
Q16.5 21.3906 20.3281 13.8906
Q24.1719 6.39062 31.7812 6.39062
Q39.4531 6.39062 43.2812 13.8906
Q47.125 21.3906 47.125 36.375
Q47.125 51.4219 43.2812 58.9062
Q39.4531 66.4062 31.7812 66.4062
M31.7812 74.2188
Q44.0469 74.2188 50.5156 64.5156
Q56.9844 54.8281 56.9844 36.375
Q56.9844 17.9688 50.5156 8.26562
Q44.0469 -1.42188 31.7812 -1.42188
Q19.5312 -1.42188 13.0625 8.26562
Q6.59375 17.9688 6.59375 36.375
Q6.59375 54.8281 13.0625 64.5156
Q19.5312 74.2188 31.7812 74.2188" id="DejaVuSans-30"/>
       <path d="
M10.6875 12.4062
L21 12.4062
L21 0
L10.6875 0
z
" id="DejaVuSans-2e"/>
       <path d="
M10.5938 35.5
L73.1875 35.5
L73.1875 27.2031
L10.5938 27.2031
z
" id="DejaVuSans-2212"/>
      </defs>
      <g transform="translate(32.1209191176 273.150955882)scale(0.12 -0.12)">
       <use xlink:href="#DejaVuSans-2212"/>
       <use x="83.7890625" xlink:href="#DejaVuSans-31"/>
       <use x="147.412109375" xlink:href="#DejaVuSans-2e"/>
       <use x="179.19921875" xlink:href="#DejaVuSans-30"/>
      </g>
     </g>
    </g>
    <g id="xtick_2">
     <g id="line2d_4">
      <path clip-path="url(#p31d439a22a)" d="
M82.583 260.033
L82.583 8.93283" style="fill:none;stroke:#000000;stroke-dasharray:1.000000,3.000000;stroke-dashoffset:0.0;stroke-width:0.5;"/>
     </g>
     <g id="line2d_5">
      <g>
       <use style="stroke:#000000;stroke-width:0.5;" x="82.5830147059" xlink:href="#m93b0483c22" y="260.032830882"/>
      </g>
     </g>
     <g id="line2d_6">
      <g>
       <use style="stroke:#000000;stroke-width:0.5;" x="82.5830147059" xlink:href="#m741efc42ff" y="8.93283088235"/>
      </g>
     </g>
     <g id="text_2">
      <!-- −0.5 -->
      <defs>
       <path d="
M10.7969 72.9062
L49.5156 72.9062
L49.5156 64.5938
L19.8281 64.5938
L19.8281 46.7344
Q21.9688 47.4688 24.1094 47.8281
Q26.2656 48.1875 28.4219 48.1875
Q40.625 48.1875 47.75 41.5
Q54.8906 34.8125 54.8906 23.3906
Q54.8906 11.625 47.5625 5.09375
Q40.2344 -1.42188 26.9062 -1.42188
Q22.3125 -1.42188 17.5469 -0.640625
Q12.7969 0.140625 7.71875 1.70312
L7.71875 11.625
Q12.1094 9.23438 16.7969 8.0625
Q21.4844 6.89062 26.7031 6.89062
Q35.1562 6.89062 40.0781 11.3281
Q45.0156 15.7656 45.0156 23.3906
Q45.0156 31 40.0781 35.4375
Q35.1562 39.8906 26.7031 39.8906
Q22.75 39.8906 18.8125 39.0156
Q14.8906 38.1406 10.7969 36.2812
z
" id="DejaVuSans-35"/>
      </defs>
      <g transform="translate(69.1730147059 273.150955882)scale(0.12 -0.12)">
       <use xlink:href="#DejaVuSans-2212"/>
       <use x="83.7890625" xlink:href="#DejaVuSans-30"/>
       <use x="147.412109375" xlink:href="#DejaVuSans-2e"/>
       <use x="179.19921875" xlink:href="#DejaVuSans-35"/>
      </g>
     </g>
    </g>
    <g id="xtick_3">
     <g id="line2d_7">
      <path clip-path="url(#p31d439a22a)" d="
M119.509 260.033
L119.509 8.93283" style="fill:none;stroke:#000000;stroke-dasharray:1.000000,3.000000;stroke-dashoffset:0.0;stroke-width:0.5;"/>
     </g>
     <g id="line2d_8">
      <g>
       <use style="stroke:#000000;stroke-width:0.5;" x="119.509485294" xlink:href="#m93b0483c22" y="260.032830882"/>
      </g>
     </g>
     <g id="line2d_9">
      <g>
       <use style="stroke:#000000;stroke-width:0.5;" x="119.509485294" xlink:href="#m741efc42ff" y="8.93283088235"/>
      </g>
     </g>
     <g id="text_3">
      <!-- 0.0 -->
      <g transform="translate(110.761672794 273.150955882)scale(0.12 -0.12)">
       <use xlink:href="#DejaVuSans-30"/>
       <use x="63.623046875" xlink:href="#DejaVuSans-2e"/>
       <use x="95.41015625" xlink:href="#DejaVuSans-30"/>
      </g>
     </g>
    </g>
    <g id="xtick_4">
     <g id="line2d_10">
      <path clip-path="url(#p31d439a22a)" d="
M156.436 260.033
L156.436 8.93283" style="fill:none;stroke:#000000;stroke-dasharray:1.000000,3.000000;stroke-dashoffset:0.0;stroke-width:0.5;"/>
     </g>
     <g id="line2d_11">
      <g>
       <use style="stroke:#000000;stroke-width:0.5;" x="156.435955882" xlink:href="#m93b0483c22" y="260.032830882"/>
      </g>
     </g>
     <g id="line2d_12">
      <g>
       <use style="stroke:#000000;stroke-width:0.5;" x="156.435955882" xlink:href="#m741efc42ff" y="8.93283088235"/>
      </g>
     </g>
     <g id="text_4">
      <!-- 0.5 -->
      <g transform="translate(147.813768382 273.150955882)scale(0.12 -0.12)">
       <use xlink:href="#DejaVuSans-30"/>
       <use x="63.623046875" xlink:href="#DejaVuSans-2e"/>
       <use x="95.41015625" xlink:href="#DejaVuSans-35"/>
      </g>
     </g>
    </g>
    <g id="xtick_5">
     <g id="line2d_13">
      <path clip-path="url(#p31d439a22a)" d="
M193.362 260.033
L193.362 8.93283" style="fill:none;stroke:#000000;stroke-dasharray:1.000000,3.000000;stroke-dashoffset:0.0;stroke-width:0.5;"/>
     </g>
     <g id="line2d_14">
      <g>
       <use style="stroke:#000000;stroke-width:0.5;" x="193.362426471" xlink:href="#m93b0483c22" y="260.032830882"/>
      </g>
     </g>
     <g id="line2d_15">
      <g>
       <use style="stroke:#000000;stroke-width:0.5;" x="193.362426471" xlink:href="#m741efc42ff" y="8.93283088235"/>
      </g>
     </g>
     <g id="text_5">
      <!-- 1.0 -->
      <g transform="translate(184.878051471 273.150955882)scale(0.12 -0.12)">
       <use xlink:href="#DejaVuSans-31"/>
       <use x="63.623046875" xlink:href="#DejaVuSans-2e"/>
       <use x="95.41015625" xlink:href="#DejaVuSans-30"/>
      </g>
     </g>
    </g>
    <g id="xtick_6">
     <g id="line2d_16">
      <path clip-path="url(#p31d439a22a)" d="
M230.289 260.033
L230.289 8.93283" style="fill:none;stroke:#000000;stroke-dasharray:1.000000,3.000000;stroke-dashoffset:0.0;stroke-width:0.5;"/>
     </g>
     <g id="line2d_17">
      <g>
       <use style="stroke:#000000;stroke-width:0.5;" x="230.288897059" xlink:href="#m93b0483c22" y="260.032830882"/>
      </g>
     </g>
     <g id="line2d_18">
      <g>
       <use style="stroke:#000000;stroke-width:0.5;" x="230.288897059" xlink:href="#m741efc42ff" y="8.93283088235"/>
      </g>
     </g>
     <g id="text_6">
      <!-- 1.5 -->
      <g transform="translate(221.930147059 273.150955882)scale(0.12 -0.12)">
       <use xlink:href="#DejaVuSans-31"/>
       <use x="63.623046875" xlink:href="#DejaVuSans-2e"/>
       <use x="95.41015625" xlink:href="#DejaVuSans-35"/>
      </g>
     </g>
    </g>
    <g id="xtick_7">
     <g id="line2d_19">
      <path clip-path="url(#p31d439a22a)" d="
M267.215 260.033
L267.215 8.93283" style="fill:none;stroke:#000000;stroke-dasharray:1.000000,3.000000;stroke-dashoffset:0.0;stroke-width:0.5;"/>
     </g>
     <g id="line2d_20">
      <g>
       <use style="stroke:#000000;stroke-width:0.5;" x="267.215367647" xlink:href="#m93b0483c22" y="260.032830882"/>
      </g>
     </g>
     <g id="line2d_21">
      <g>
       <use style="stroke:#000000;stroke-width:0.5;" x="267.215367647" xlink:href="#m741efc42ff" y="8.93283088235"/>
      </g>
     </g>
     <g id="text_7">
      <!-- 2.0 -->
      <defs>
       <path d="
M19.1875 8.29688
L53.6094 8.29688
L53.6094 0
L7.32812 0
L7.32812 8.29688
Q12.9375 14.1094 22.625 23.8906
Q32.3281 33.6875 34.8125 36.5312
Q39.5469 41.8438 41.4219 45.5312
Q43.3125 49.2188 43.3125 52.7812
Q43.3125 58.5938 39.2344 62.25
Q35.1562 65.9219 28.6094 65.9219
Q23.9688 65.9219 18.8125 64.3125
Q13.6719 62.7031 7.8125 59.4219
L7.8125 69.3906
Q13.7656 71.7812 18.9375 73
Q24.125 74.2188 28.4219 74.2188
Q39.75 74.2188 46.4844 68.5469
Q53.2188 62.8906 53.2188 53.4219
Q53.2188 48.9219 51.5312 44.8906
Q49.8594 40.875 45.4062 35.4062
Q44.1875 33.9844 37.6406 27.2188
Q31.1094 20.4531 19.1875 8.29688" id="DejaVuSans-32"/>
      </defs>
      <g transform="translate(258.511617647 273.150955882)scale(0.12 -0.12)">
       <use xlink:href="#DejaVuSans-32"/>
       <use x="63.623046875" xlink:href="#DejaVuSans-2e"/>
       <use x="95.41015625" xlink:href="#DejaVuSans-30"/>
      </g>
     </g>
    </g>
   </g>
   <g id="matplotlib.axis_2">
    <g id="ytick_1">
     <g id="line2d_22">
      <path clip-path="url(#p31d439a22a)" d="
M38.2713 252.648
L289.371 252.648" style="fill:none;stroke:#000000;stroke-dasharray:1.000000,3.000000;stroke-dashoffset:0.0;stroke-width:0.5;"/>
     </g>
     <g id="line2d_23">
      <defs>
       <path d="
M0 0
L4 0" id="m728421d6d4" style="stroke:#000000;stroke-width:0.5;"/>
      </defs>
      <g>
       <use style="stroke:#000000;stroke-width:0.5;" x="38.27125" xlink:href="#m728421d6d4" y="252.647536765"/>
      </g>
     </g>
     <g id="line2d_24">
      <defs>
       <path d="
M0 0
L-4 0" id="mcb0005524f" style="stroke:#000000;stroke-width:0.5;"/>
      </defs>
      <g>
       <use style="stroke:#000000;stroke-width:0.5;" x="289.37125" xlink:href="#mcb0005524f" y="252.647536765"/>
      </g>
     </g>
     <g id="text_8">
      <!-- −1.0 -->
      <g transform="translate(7.2 255.958786765)scale(0.12 -0.12)">
       <use xlink:href="#DejaVuSans-2212"/>
       <use x="83.7890625" xlink:href="#DejaVuSans-31"/>
       <use x="147.412109375" xlink:href="#DejaVuSans-2e"/>
       <use x="179.19921875" xlink:href="#DejaVuSans-30"/>
      </g>
     </g>
    </g>
    <g id="ytick_2">
     <g id="line2d_25">
      <path clip-path="url(#p31d439a22a)" d="
M38.2713 215.721
L289.371 215.721" style="fill:none;stroke:#000000;stroke-dasharray:1.000000,3.000000;stroke-dashoffset:0.0;stroke-width:0.5;"/>
     </g>
     <g id="line2d_26">
      <g>
       <use style="stroke:#000000;stroke-width:0.5;" x="38.27125" xlink:href="#m728421d6d4" y="215.721066176"/>
      </g>
     </g>
     <g id="line2d_27">
      <g>
       <use style="stroke:#000000;stroke-width:0.5;" x="289.37125" xlink:href="#mcb0005524f" y="215.721066176"/>
      </g>
     </g>
     <g id="text_9">
      <!-- −0.5 -->
      <g transform="translate(7.45125 219.032316176)scale(0.12 -0.12)">
       <use xlink:href="#DejaVuSans-2212"/>
       <use x="83.7890625" xlink:href="#DejaVuSans-30"/>
       <use x="147.412109375" xlink:href="#DejaVuSans-2e"/>
       <use x="179.19921875" xlink:href="#DejaVuSans-35"/>
      </g>
     </g>
    </g>
    <g id="ytick_3">
     <g id="line2d_28">
      <path clip-path="url(#p31d439a22a)" d="
M38.2713 178.795
L289.371 178.795" style="fill:none;stroke:#000000;stroke-dasharray:1.000000,3.000000;stroke-dashoffset:0.0;stroke-width:0.5;"/>
     </g>
     <g id="line2d_29">
      <g>
       <use style="stroke:#000000;stroke-width:0.5;" x="38.27125" xlink:href="#m728421d6d4" y="178.794595588"/>
      </g>
     </g>
     <g id="line2d_30">
      <g>
       <use style="stroke:#000000;stroke-width:0.5;" x="289.37125" xlink:href="#mcb0005524f" y="178.794595588"/>
      </g>
     </g>
     <g id="text_10">
      <!-- 0.0 -->
      <g transform="translate(16.775625 182.105845588)scale(0.12 -0.12)">
       <use xlink:href="#DejaVuSans-30"/>
       <use x="63.623046875" xlink:href="#DejaVuSans-2e"/>
       <use x="95.41015625" xlink:href="#DejaVuSans-30"/>
      </g>
     </g>
    </g>
    <g id="ytick_4">
     <g id="line2d_31">
      <path clip-path="url(#p31d439a22a)" d="
M38.2713 141.868
L289.371 141.868" style="fill:none;stroke:#000000;stroke-dasharray:1.000000,3.000000;stroke-dashoffset:0.0;stroke-width:0.5;"/>
     </g>
     <g id="line2d_32">
      <g>
       <use style="stroke:#000000;stroke-width:0.5;" x="38.27125" xlink:href="#m728421d6d4" y="141.868125"/>
      </g>
     </g>
     <g id="line2d_33">
      <g>
       <use style="stroke:#000000;stroke-width:0.5;" x="289.37125" xlink:href="#mcb0005524f" y="141.868125"/>
      </g>
     </g>
     <g id="text_11">
      <!-- 0.5 -->
      <g transform="translate(17.026875 145.179375)scale(0.12 -0.12)">
       <use xlink:href="#DejaVuSans-30"/>
       <use x="63.623046875" xlink:href="#DejaVuSans-2e"/>
       <use x="95.41015625" xlink:href="#DejaVuSans-35"/>
      </g>
     </g>
    </g>
    <g id="ytick_5">
     <g id="line2d_34">
      <path clip-path="url(#p31d439a22a)" d="
M38.2713 104.942
L289.371 104.942" style="fill:none;stroke:#000000;stroke-dasharray:1.000000,3.000000;stroke-dashoffset:0.0;stroke-width:0.5;"/>
     </g>
     <g id="line2d_35">
      <g>
       <use style="stroke:#000000;stroke-width:0.5;" x="38.27125" xlink:href="#m728421d6d4" y="104.941654412"/>
      </g>
     </g>
     <g id="line2d_36">
      <g>
       <use style="stroke:#000000;stroke-width:0.5;" x="289.37125" xlink:href="#mcb0005524f" y="104.941654412"/>
      </g>
     </g>
     <g id="text_12">
      <!-- 1.0 -->
      <g transform="translate(17.3025 108.252904412)scale(0.12 -0.12)">
       <use xlink:href="#DejaVuSans-31"/>
       <use x="63.623046875" xlink:href="#DejaVuSans-2e"/>
       <use x="95.41015625" xlink:href="#DejaVuSans-30"/>
      </g>
     </g>
    </g>
    <g id="ytick_6">
     <g id="line2d_37">
      <path clip-path="url(#p31d439a22a)" d="
M38.2713 68.0152
L289.371 68.0152" style="fill:none;stroke:#000000;stroke-dasharray:1.000000,3.000000;stroke-dashoffset:0.0;stroke-width:0.5;"/>
     </g>
     <g id="line2d_38">
      <g>
       <use style="stroke:#000000;stroke-width:0.5;" x="38.27125" xlink:href="#m728421d6d4" y="68.0151838235"/>
      </g>
     </g>
     <g id="line2d_39">
      <g>
       <use style="stroke:#000000;stroke-width:0.5;" x="289.37125" xlink:href="#mcb0005524f" y="68.0151838235"/>
      </g>
     </g>
     <g id="text_13">
      <!-- 1.5 -->
      <g transform="translate(17.55375 71.3264338235)scale(0.12 -0.12)">
       <use xlink:href="#DejaVuSans-31"/>
       <use x="63.623046875" xlink:href="#DejaVuSans-2e"/>
       <use x="95.41015625" xlink:href="#DejaVuSans-35"/>
      </g>
     </g>
    </g>
    <g id="ytick_7">
     <g id="line2d_40">
      <path clip-path="url(#p31d439a22a)" d="
M38.2713 31.0887
L289.371 31.0887" style="fill:none;stroke:#000000;stroke-dasharray:1.000000,3.000000;stroke-dashoffset:0.0;stroke-width:0.5;"/>
     </g>
     <g id="line2d_41">
      <g>
       <use style="stroke:#000000;stroke-width:0.5;" x="38.27125" xlink:href="#m728421d6d4" y="31.0887132353"/>
      </g>
     </g>
     <g id="line2d_42">
      <g>
       <use style="stroke:#000000;stroke-width:0.5;" x="289.37125" xlink:href="#mcb0005524f" y="31.0887132353"/>
      </g>
     </g>
     <g id="text_14">
      <!-- 2.0 -->
      <g transform="translate(16.86375 34.3999632353)scale(0.12 -0.12)">
       <use xlink:href="#DejaVuSans-32"/>
       <use x="63.623046875" xlink:href="#DejaVuSans-2e"/>
       <use x="95.41015625" xlink:href="#DejaVuSans-30"/>
      </g>
     </g>
    </g>
   </g>
   <g id="text_15">
    <!-- X -->
    <defs>
     <path d="
M6.29688 72.9062
L16.8906 72.9062
L35.0156 45.7969
L53.2188 72.9062
L63.8125 72.9062
L40.375 37.8906
L65.375 0
L54.7812 0
L34.2812 31
L13.625 0
L2.98438 0
L29 38.9219
z
" id="DejaVuSans-58"/>
    </defs>
    <g transform="translate(281.985955882 171.409301471)scale(0.12 -0.12)">
     <use xlink:href="#DejaVuSans-58"/>
    </g>
   </g>
   <g id="text_16">
    <!-- Y -->
    <defs>
     <path d="
M-0.203125 72.9062
L10.4062 72.9062
L30.6094 42.9219
L50.6875 72.9062
L61.2812 72.9062
L35.5 34.7188
L35.5 0
L25.5938 0
L25.5938 34.7188
z
" id="DejaVuSans-59"/>
    </defs>
    <g transform="translate(126.894779412 16.318125)scale(0.12 -0.12)">
     <use xlink:href="#DejaVuSans-59"/>
    </g>
   </g>
  </g>
 </g>
 <defs>
  <clipPath id="p31d439a22a">
   <rect height="251.1" width="251.1" x="38.27125" y="8.93283088235"/>
  </clipPath>
 </defs>
</svg>
