<?xml version="1.0" encoding="UTF-8" standalone="no"?>
<!-- Created with Inkscape (http://www.inkscape.org/) -->

<svg
   xmlns:dc="http://purl.org/dc/elements/1.1/"
   xmlns:cc="http://creativecommons.org/ns#"
   xmlns:rdf="http://www.w3.org/1999/02/22-rdf-syntax-ns#"
   xmlns:svg="http://www.w3.org/2000/svg"
   xmlns="http://www.w3.org/2000/svg"
   xmlns:sodipodi="http://sodipodi.sourceforge.net/DTD/sodipodi-0.dtd"
   xmlns:inkscape="http://www.inkscape.org/namespaces/inkscape"
   width="685.65283mm"
   height="227.36113mm"
   viewBox="0 0 2429.4785 805.61028"
   id="svg2"
   version="1.1"
   inkscape:version="0.91 r13725"
   sodipodi:docname="tri2rect.svg"
   inkscape:export-filename="/media/ExtraDrive/Dropbox/LogbookOrganizer/COMPSCI290/Lectures/Intro/tri2rect.png"
   inkscape:export-xdpi="30.051752"
   inkscape:export-ydpi="30.051752">
  <defs
     id="defs4">
    <marker
       inkscape:isstock="true"
       style="overflow:visible"
       id="marker4641"
       refX="0"
       refY="0"
       orient="auto"
       inkscape:stockid="Arrow1Lend">
      <path
         transform="matrix(-0.8,0,0,-0.8,-10,0)"
         style="fill:#000000;fill-opacity:1;fill-rule:evenodd;stroke:#000000;stroke-width:1pt;stroke-opacity:1"
         d="M 0,0 5,-5 -12.5,0 5,5 0,0 Z"
         id="path4643"
         inkscape:connector-curvature="0" />
    </marker>
    <marker
       inkscape:stockid="Arrow1Lend"
       orient="auto"
       refY="0"
       refX="0"
       id="Arrow1Lend"
       style="overflow:visible"
       inkscape:isstock="true"
       inkscape:collect="always">
      <path
         id="path4236"
         d="M 0,0 5,-5 -12.5,0 5,5 0,0 Z"
         style="fill:#000000;fill-opacity:1;fill-rule:evenodd;stroke:#000000;stroke-width:1pt;stroke-opacity:1"
         transform="matrix(-0.8,0,0,-0.8,-10,0)"
         inkscape:connector-curvature="0" />
    </marker>
    <marker
       inkscape:isstock="true"
       style="overflow:visible"
       id="marker4641-2"
       refX="0"
       refY="0"
       orient="auto"
       inkscape:stockid="Arrow1Lend">
      <path
         inkscape:connector-curvature="0"
         transform="matrix(-0.8,0,0,-0.8,-10,0)"
         style="fill:#000000;fill-opacity:1;fill-rule:evenodd;stroke:#000000;stroke-width:1pt;stroke-opacity:1"
         d="M 0,0 5,-5 -12.5,0 5,5 0,0 Z"
         id="path4643-9" />
    </marker>
  </defs>
  <sodipodi:namedview
     id="base"
     pagecolor="#ffffff"
     bordercolor="#666666"
     borderopacity="1.0"
     inkscape:pageopacity="0.0"
     inkscape:pageshadow="2"
     inkscape:zoom="0.7"
     inkscape:cx="629.37943"
     inkscape:cy="292.59635"
     inkscape:document-units="px"
     inkscape:current-layer="layer1"
     showgrid="true"
     inkscape:window-width="1855"
     inkscape:window-height="1056"
     inkscape:window-x="1985"
     inkscape:window-y="24"
     inkscape:window-maximized="1"
     fit-margin-top="0"
     fit-margin-left="0"
     fit-margin-right="0"
     fit-margin-bottom="0">
    <inkscape:grid
       type="xygrid"
       id="grid4136"
       originx="-73.625199"
       originy="-328.57141" />
  </sodipodi:namedview>
  <metadata
     id="metadata7">
    <rdf:RDF>
      <cc:Work
         rdf:about="">
        <dc:format>image/svg+xml</dc:format>
        <dc:type
           rdf:resource="http://purl.org/dc/dcmitype/StillImage" />
        <dc:title />
      </cc:Work>
    </rdf:RDF>
  </metadata>
  <g
     inkscape:label="Layer 1"
     inkscape:groupmode="layer"
     id="layer1"
     transform="translate(-73.62519,81.819525)">
    <path
       style="fill:none;fill-rule:evenodd;stroke:#000000;stroke-width:9.99999905;stroke-linecap:butt;stroke-linejoin:miter;stroke-miterlimit:4;stroke-dasharray:none;stroke-opacity:1"
       d="M 160,692.36227 520,52.36225 1239.9999,692.36212 Z"
       id="path4140"
       inkscape:connector-curvature="0" />
    <text
       xml:space="preserve"
       style="font-style:normal;font-weight:normal;font-size:89.99999237px;line-height:125%;font-family:sans-serif;letter-spacing:0px;word-spacing:0px;fill:#000000;fill-opacity:1;stroke:none;stroke-width:1px;stroke-linecap:butt;stroke-linejoin:miter;stroke-opacity:1"
       x="498.57141"
       y="22.362251"
       id="text4169"
       sodipodi:linespacing="125%"><tspan
         sodipodi:role="line"
         id="tspan4171"
         x="498.57141"
         y="22.362251"
         style="font-size:65px">A</tspan></text>
    <path
       style="fill:none;fill-rule:evenodd;stroke:#000000;stroke-width:4.99999952;stroke-linecap:butt;stroke-linejoin:miter;stroke-miterlimit:4;stroke-dasharray:9.99999881, 4.9999994;stroke-dashoffset:0;stroke-opacity:1"
       d="m 520,52.36225 0,640.00002"
       id="path4199"
       inkscape:connector-curvature="0" />
    <path
       style="fill:none;fill-rule:evenodd;stroke:#000000;stroke-width:4.99999952;stroke-linecap:butt;stroke-linejoin:miter;stroke-miterlimit:4;stroke-dasharray:14.99999821, 4.9999994;stroke-dashoffset:0;stroke-opacity:1"
       d="m 872.85719,372.36225 -531.42864,0"
       id="path4201"
       inkscape:connector-curvature="0" />
    <text
       xml:space="preserve"
       style="font-style:normal;font-weight:normal;font-size:40px;line-height:125%;font-family:sans-serif;letter-spacing:0px;word-spacing:0px;fill:#000000;fill-opacity:1;stroke:none;stroke-width:1px;stroke-linecap:butt;stroke-linejoin:miter;stroke-opacity:1"
       x="535.95941"
       y="532.36224"
       id="text4203"
       sodipodi:linespacing="125%"><tspan
         sodipodi:role="line"
         id="tspan4205"
         x="535.95941"
         y="532.36224">h</tspan></text>
    <text
       xml:space="preserve"
       style="font-style:normal;font-weight:normal;font-size:40px;line-height:125%;font-family:sans-serif;letter-spacing:0px;word-spacing:0px;fill:#000000;fill-opacity:1;stroke:none;stroke-width:1px;stroke-linecap:butt;stroke-linejoin:miter;stroke-opacity:1"
       x="531.91876"
       y="252.36224"
       id="text4207"
       sodipodi:linespacing="125%"><tspan
         sodipodi:role="line"
         id="tspan4209"
         x="531.91876"
         y="252.36224">h</tspan></text>
    <path
       style="fill:none;fill-rule:evenodd;stroke:#000000;stroke-width:4.99999952;stroke-linecap:butt;stroke-linejoin:miter;stroke-miterlimit:4;stroke-dasharray:4.9999994, 4.9999994;stroke-dashoffset:0;stroke-opacity:1"
       d="m 880,372.36225 360,0"
       id="path4211"
       inkscape:connector-curvature="0" />
    <path
       style="fill:none;fill-rule:evenodd;stroke:#000000;stroke-width:4.99999952;stroke-linecap:butt;stroke-linejoin:miter;stroke-miterlimit:4;stroke-dasharray:4.9999994, 4.9999994;stroke-dashoffset:0;stroke-opacity:1"
       d="m 1240,372.36225 c -2.0706,4.26372 -2.0706,4.26372 0,0 l -10e-5,319.99987"
       id="path4213"
       inkscape:connector-curvature="0" />
    <path
       style="fill:#ff0000;fill-opacity:0.19607843;stroke:none;stroke-width:2;stroke-miterlimit:4;stroke-dasharray:2, 2;stroke-dashoffset:0;stroke-opacity:1"
       d="m 171.08527,1050.1683 c 0.37039,-0.9247 39.64491,-70.92832 87.27671,-155.56345 76.85861,-136.56711 87.14512,-153.88203 91.41881,-153.88203 5.18803,0 6.81779,-5.30471 1.97174,-6.41786 -1.94573,-0.44693 23.41477,-47.3386 80.30713,-148.48819 45.733,-81.30924 83.45484,-146.48794 83.82634,-144.84156 0.37147,1.64638 2.18975,2.70495 4.04061,2.35238 4.14991,-0.79053 5.70374,-9.64182 2.08522,-11.8782 -1.454,-0.89862 -2.03952,-2.23795 -1.30118,-2.9763 0.73834,-0.73834 79.17721,67.85209 174.30859,152.42319 136.32517,121.19204 171.8717,153.76563 167.79961,153.76563 -3.15859,0 -5.16657,1.13476 -5.16657,2.91976 0,2.02625 2.80297,3.1082 9.15944,3.53553 9.02401,0.60666 11.73001,2.9006 183.04298,155.16911 l 173.8835,154.55339 -349.12954,0.5108 c -308.88511,0.4519 -349.32537,0.1608 -350.82866,-2.5254 -2.19943,-3.9302 -7.55928,-3.9342 -7.55928,-0.01 0,2.6702 -20.55848,3.0305 -172.90444,3.0305 -95.09745,0 -172.6014,-0.7567 -172.23101,-1.6815 z m 352.84578,-12.983 c 0.51448,-4.4573 -0.17576,-5.5385 -3.53553,-5.5385 -3.31393,0 -4.1748,1.2803 -4.1748,6.209 0,4.8219 0.78984,6.0593 3.53554,5.5386 2.13239,-0.4044 3.78924,-2.8686 4.17479,-6.2091 z m 0,-15.135 c -0.38056,-3.3075 -1.86561,-5.5558 -3.66972,-5.5558 -1.80411,0 -3.28916,2.2483 -3.66972,5.5558 -0.52057,4.5241 0.16082,5.5558 3.66972,5.5558 3.50883,0 4.1903,-1.0317 3.66972,-5.5558 z m 0.37089,-14.6472 c 0,-4.714 -0.8979,-6.0609 -4.04061,-6.0609 -3.1427,0 -4.04061,1.3469 -4.04061,6.0609 0,4.714 0.89791,6.0609 4.04061,6.0609 3.14271,0 4.04061,-1.3469 4.04061,-6.0609 z m 0,-15.1523 c 0,-3.70388 -1.07749,-5.05076 -4.04061,-5.05076 -2.96312,0 -4.04061,1.34688 -4.04061,5.05076 0,3.70389 1.07749,5.05077 4.04061,5.05077 2.96312,0 4.04061,-1.34688 4.04061,-5.05077 z m 0,-15.15228 c 0,-4.71404 -0.8979,-6.06092 -4.04061,-6.06092 -3.1427,0 -4.04061,1.34688 -4.04061,6.06092 0,4.71403 0.89791,6.06091 4.04061,6.06091 3.14271,0 4.04061,-1.34688 4.04061,-6.06091 z m -0.37089,-14.66449 c 0.51448,-4.45728 -0.17576,-5.53856 -3.53553,-5.53856 -3.31393,0 -4.1748,1.28034 -4.1748,6.20904 0,4.82194 0.78984,6.05928 3.53554,5.53856 2.13239,-0.40438 3.78924,-2.86857 4.17479,-6.20904 z m 0,-15.11774 c -0.38555,-3.34047 -2.0424,-5.80466 -4.17479,-6.20904 -2.7457,-0.52072 -3.53554,0.71662 -3.53554,5.53856 0,4.9287 0.86087,6.20905 4.1748,6.20905 3.35977,0 4.05001,-1.08129 3.53553,-5.53857 z m 0,-15.18684 c 0.51448,-4.45727 -0.17576,-5.53856 -3.53553,-5.53856 -3.31393,0 -4.1748,1.28035 -4.1748,6.20904 0,4.82195 0.78984,6.05928 3.53554,5.53857 2.13239,-0.40439 3.78924,-2.86857 4.17479,-6.20905 z m 0,-15.13501 c -0.38056,-3.30754 -1.86561,-5.55584 -3.66972,-5.55584 -1.80411,0 -3.28916,2.2483 -3.66972,5.55584 -0.52057,4.52413 0.16082,5.55584 3.66972,5.55584 3.50883,0 4.1903,-1.03171 3.66972,-5.55584 z m 0.37089,-14.64721 c 0,-4.71404 -0.8979,-6.06092 -4.04061,-6.06092 -3.1427,0 -4.04061,1.34688 -4.04061,6.06092 0,4.71404 0.89791,6.06091 4.04061,6.06091 3.14271,0 4.04061,-1.34687 4.04061,-6.06091 z m 20.20305,-12.91583 c 0,-5.75036 0.99745,-9.25799 2.83294,-9.96233 4.20589,-1.61394 5.24828,0.38869 5.24828,10.0829 0,6.43503 0.80295,8.75465 3.03046,8.75465 2.27953,0 3.03046,-2.44178 3.03046,-9.85416 0,-10.85601 -3.42973,-15.54884 -10.09076,-13.80693 -3.22608,0.84364 -4.05138,0.0691 -4.05138,-3.80217 0,-2.97458 -1.17628,-4.86162 -3.03045,-4.86162 -2.4412,0 -3.03046,3.1427 -3.03046,16.16244 0,13.01973 0.58926,16.16244 3.03046,16.16244 2.23385,0 3.03045,-2.33301 3.03045,-8.87522 z m -20.57394,-1.88719 c 0.5111,-4.31727 -0.19782,-5.40003 -3.53553,-5.40003 -3.02672,0 -4.1748,1.29637 -4.1748,4.71404 0,9.17297 6.63573,9.76334 7.71033,0.68599 z m 0,-14.97921 c -0.38555,-3.34047 -2.0424,-5.80466 -4.17479,-6.20904 -2.7457,-0.52072 -3.53554,0.71662 -3.53554,5.53856 0,4.9287 0.86087,6.20905 4.1748,6.20905 3.35977,0 4.05001,-1.08129 3.53553,-5.53857 z m 0,-15.18683 c 0.51448,-4.45728 -0.17576,-5.53857 -3.53553,-5.53857 -3.31393,0 -4.1748,1.28035 -4.1748,6.20904 0,4.82195 0.78984,6.05928 3.53554,5.53857 2.13239,-0.40438 3.78924,-2.86857 4.17479,-6.20904 z m 0,-15.11774 c -0.38555,-3.34048 -2.0424,-5.80466 -4.17479,-6.20905 -2.7457,-0.52071 -3.53554,0.71662 -3.53554,5.53857 0,4.92869 0.86087,6.20904 4.1748,6.20904 3.35977,0 4.05001,-1.08129 3.53553,-5.53856 z m 0,-15.18684 c 0.51448,-4.45728 -0.17576,-5.53857 -3.53553,-5.53857 -3.31393,0 -4.1748,1.28035 -4.1748,6.20905 0,4.82194 0.78984,6.05928 3.53554,5.53856 2.13239,-0.40438 3.78924,-2.86857 4.17479,-6.20904 z m 0.37089,-14.62994 c 0,-3.70388 -1.07749,-5.05076 -4.04061,-5.05076 -2.96312,0 -4.04061,1.34688 -4.04061,5.05076 0,3.70389 1.07749,5.05076 4.04061,5.05076 2.96312,0 4.04061,-1.34687 4.04061,-5.05076 z m 0,-15.15229 c 0,-4.71404 -0.8979,-6.06091 -4.04061,-6.06091 -3.1427,0 -4.04061,1.34687 -4.04061,6.06091 0,4.71404 0.89791,6.06092 4.04061,6.06092 3.14271,0 4.04061,-1.34688 4.04061,-6.06092 z m -0.37089,-14.80301 c 0.5111,-4.31728 -0.19782,-5.40004 -3.53553,-5.40004 -3.02672,0 -4.1748,1.29637 -4.1748,4.71404 0,9.17297 6.63573,9.76335 7.71033,0.686 z m 0,-14.97921 c -0.38555,-3.34048 -2.0424,-5.80466 -4.17479,-6.20905 -2.7457,-0.52071 -3.53554,0.71663 -3.53554,5.53857 0,4.92869 0.86087,6.20904 4.1748,6.20904 3.35977,0 4.05001,-1.08129 3.53553,-5.53856 z m 0,-15.18684 c 0.51448,-4.45728 -0.17576,-5.53856 -3.53553,-5.53856 -3.31393,0 -4.1748,1.28034 -4.1748,6.20904 0,4.82194 0.78984,6.05928 3.53554,5.53857 2.13239,-0.40439 3.78924,-2.86858 4.17479,-6.20905 z m 7.6945,-11.59948 c 1.52785,0 2.77792,-1.36371 2.77792,-3.03046 0,-1.86607 -1.89483,-3.03045 -4.93153,-3.03045 -2.71234,0 -5.49341,-0.90914 -6.18015,-2.02031 -2.79832,-4.52779 -7.07107,-1.93361 -7.07107,4.29315 0,5.99358 0.31988,6.24947 6.31346,5.05076 3.47239,-0.69448 7.56351,-1.26269 9.09137,-1.26269 z m -157.83634,-3.03046 c 0,-1.11116 -3.86383,-2.29985 -8.58629,-2.64155 -6.81357,-0.49297 -8.5863,0.0523 -8.5863,2.64155 0,2.58915 1.77273,3.13453 8.5863,2.64155 4.72246,-0.34169 8.58629,-1.53038 8.58629,-2.64155 z m 19.1929,0 c 0,-2.18865 -2.24478,-3.03045 -8.08122,-3.03045 -5.83644,0 -8.08122,0.8418 -8.08122,3.03045 0,2.18866 2.24478,3.03046 8.08122,3.03046 5.83644,0 8.08122,-0.8418 8.08122,-3.03046 z m 20.20305,0 c 0,-2.18865 -2.24478,-3.03045 -8.08122,-3.03045 -5.83644,0 -8.08122,0.8418 -8.08122,3.03045 0,2.18866 2.24478,3.03046 8.08122,3.03046 5.83644,0 8.08122,-0.8418 8.08122,-3.03046 z m 20.20305,0 c 0,-2.18865 -2.24478,-3.03045 -8.08122,-3.03045 -5.83644,0 -8.08122,0.8418 -8.08122,3.03045 0,2.18866 2.24478,3.03046 8.08122,3.03046 5.83644,0 8.08122,-0.8418 8.08122,-3.03046 z m 20.20305,0 c 0,-2.18865 -2.24478,-3.03045 -8.08122,-3.03045 -5.83644,0 -8.08122,0.8418 -8.08122,3.03045 0,2.18866 2.24478,3.03046 8.08122,3.03046 5.83644,0 8.08122,-0.8418 8.08122,-3.03046 z m 20.20305,0 c 0,-2.18865 -2.24478,-3.03045 -8.08122,-3.03045 -5.83643,0 -8.08122,0.8418 -8.08122,3.03045 0,2.18866 2.24479,3.03046 8.08122,3.03046 5.83644,0 8.08122,-0.8418 8.08122,-3.03046 z m 20.20306,0 c 0,-2.18865 -2.24479,-3.03045 -8.08122,-3.03045 -5.83644,0 -8.08122,0.8418 -8.08122,3.03045 0,2.18866 2.24478,3.03046 8.08122,3.03046 5.83643,0 8.08122,-0.8418 8.08122,-3.03046 z m 20.20305,0 c 0,-2.24478 -2.35703,-3.03045 -9.09138,-3.03045 -6.73434,0 -9.09137,0.78567 -9.09137,3.03045 0,2.24478 2.35703,3.03046 9.09137,3.03046 6.73435,0 9.09138,-0.78568 9.09138,-3.03046 z m 40.4061,0 c 0,-2.24478 -2.35703,-3.03045 -9.09137,-3.03045 -6.73435,0 -9.09138,0.78567 -9.09138,3.03045 0,2.24478 2.35703,3.03046 9.09138,3.03046 6.73434,0 9.09137,-0.78568 9.09137,-3.03046 z m 18.18274,0 c 0,-2.18865 -2.24478,-3.03045 -8.08122,-3.03045 -5.83644,0 -8.08122,0.8418 -8.08122,3.03045 0,2.18866 2.24478,3.03046 8.08122,3.03046 5.83644,0 8.08122,-0.8418 8.08122,-3.03046 z m 20.20306,0 c 0,-2.18865 -2.24479,-3.03045 -8.08123,-3.03045 -5.83643,0 -8.08122,0.8418 -8.08122,3.03045 0,2.18866 2.24479,3.03046 8.08122,3.03046 5.83644,0 8.08123,-0.8418 8.08123,-3.03046 z m 20.20305,0 c 0,-2.18865 -2.24479,-3.03045 -8.08122,-3.03045 -5.83644,0 -8.08122,0.8418 -8.08122,3.03045 0,2.18866 2.24478,3.03046 8.08122,3.03046 5.83643,0 8.08122,-0.8418 8.08122,-3.03046 z m 20.20305,0 c 0,-2.18865 -2.24478,-3.03045 -8.08122,-3.03045 -5.83644,0 -8.08122,0.8418 -8.08122,3.03045 0,2.18866 2.24478,3.03046 8.08122,3.03046 5.83644,0 8.08122,-0.8418 8.08122,-3.03046 z m 20.20305,0 c 0,-2.18865 -2.24478,-3.03045 -8.08122,-3.03045 -5.83644,0 -8.08122,0.8418 -8.08122,3.03045 0,2.18866 2.24478,3.03046 8.08122,3.03046 5.83644,0 8.08122,-0.8418 8.08122,-3.03046 z m 20.20305,0 c 0,-2.18865 -2.24478,-3.03045 -8.08122,-3.03045 -5.83644,0 -8.08122,0.8418 -8.08122,3.03045 0,2.18866 2.24478,3.03046 8.08122,3.03046 5.83644,0 8.08122,-0.8418 8.08122,-3.03046 z m 20.20305,0 c 0,-2.18865 -2.24478,-3.03045 -8.08122,-3.03045 -5.83644,0 -8.08122,0.8418 -8.08122,3.03045 0,2.18866 2.24478,3.03046 8.08122,3.03046 5.83644,0 8.08122,-0.8418 8.08122,-3.03046 z m 20.20305,0 c 0,-2.24478 -2.35703,-3.03045 -9.09137,-3.03045 -6.73435,0 -9.09138,0.78567 -9.09138,3.03045 0,2.24478 2.35703,3.03046 9.09138,3.03046 6.73434,0 9.09137,-0.78568 9.09137,-3.03046 z m 20.20305,0 c 0,-2.24478 -2.35703,-3.03045 -9.09137,-3.03045 -6.73435,0 -9.09137,0.78567 -9.09137,3.03045 0,2.24478 2.35702,3.03046 9.09137,3.03046 6.73434,0 9.09137,-0.78568 9.09137,-3.03046 z m 20.20305,0 c 0,-2.24478 -2.35703,-3.03045 -9.09137,-3.03045 -6.73434,0 -9.09137,0.78567 -9.09137,3.03045 0,2.24478 2.35703,3.03046 9.09137,3.03046 6.73434,0 9.09137,-0.78568 9.09137,-3.03046 z m 18.18275,0 c 0,-2.18865 -2.24478,-3.03045 -8.08122,-3.03045 -5.83644,0 -8.08122,0.8418 -8.08122,3.03045 0,2.18866 2.24478,3.03046 8.08122,3.03046 5.83644,0 8.08122,-0.8418 8.08122,-3.03046 z m 20.20305,0 c 0,-2.18865 -2.24478,-3.03045 -8.08122,-3.03045 -5.83644,0 -8.08122,0.8418 -8.08122,3.03045 0,2.18866 2.24478,3.03046 8.08122,3.03046 5.83644,0 8.08122,-0.8418 8.08122,-3.03046 z m 20.20305,0 c 0,-2.18865 -2.24478,-3.03045 -8.08122,-3.03045 -5.83644,0 -8.08122,0.8418 -8.08122,3.03045 0,2.18866 2.24478,3.03046 8.08122,3.03046 5.83644,0 8.08122,-0.8418 8.08122,-3.03046 z m 20.20305,0 c 0,-2.18865 -2.24478,-3.03045 -8.08122,-3.03045 -5.83644,0 -8.08122,0.8418 -8.08122,3.03045 0,2.18866 2.24478,3.03046 8.08122,3.03046 5.83644,0 8.08122,-0.8418 8.08122,-3.03046 z m 20.20305,0 c 0,-2.18865 -2.24478,-3.03045 -8.08122,-3.03045 -5.83644,0 -8.08122,0.8418 -8.08122,3.03045 0,2.18866 2.24478,3.03046 8.08122,3.03046 5.83644,0 8.08122,-0.8418 8.08122,-3.03046 z M 524.30194,722.54007 c 0,-4.71403 -0.8979,-6.06091 -4.04061,-6.06091 -3.1427,0 -4.04061,1.34688 -4.04061,6.06091 0,4.71404 0.89791,6.06092 4.04061,6.06092 3.14271,0 4.04061,-1.34688 4.04061,-6.06092 z m 0,-15.15228 c 0,-3.70389 -1.07749,-5.05077 -4.04061,-5.05077 -2.96312,0 -4.04061,1.34688 -4.04061,5.05077 0,3.70388 1.07749,5.05076 4.04061,5.05076 2.96312,0 4.04061,-1.34688 4.04061,-5.05076 z m 0,-15.15229 c 0,-4.71404 -0.8979,-6.06092 -4.04061,-6.06092 -3.1427,0 -4.04061,1.34688 -4.04061,6.06092 0,4.71404 0.89791,6.06091 4.04061,6.06091 3.14271,0 4.04061,-1.34687 4.04061,-6.06091 z m -0.37089,-14.80302 c 0.5111,-4.31727 -0.19782,-5.40003 -3.53553,-5.40003 -3.02672,0 -4.1748,1.29637 -4.1748,4.71404 0,9.17297 6.63573,9.76334 7.71033,0.68599 z m 0,-14.97921 c -0.38555,-3.34047 -2.0424,-5.80466 -4.17479,-6.20904 -2.7457,-0.52072 -3.53554,0.71662 -3.53554,5.53856 0,4.9287 0.86087,6.20905 4.1748,6.20905 3.35977,0 4.05001,-1.08129 3.53553,-5.53857 z m 0,-15.18683 c 0.51448,-4.45728 -0.17576,-5.53857 -3.53553,-5.53857 -3.31393,0 -4.1748,1.28035 -4.1748,6.20905 0,4.82194 0.78984,6.05927 3.53554,5.53856 2.13239,-0.40438 3.78924,-2.86857 4.17479,-6.20904 z m 0,-15.11774 c -0.38555,-3.34048 -2.0424,-5.80466 -4.17479,-6.20906 -2.7457,-0.5207 -3.53554,0.71663 -3.53554,5.53858 0,4.92869 0.86087,6.20904 4.1748,6.20904 3.35977,0 4.05001,-1.08129 3.53553,-5.53856 z m 0.37089,-14.66449 c 0,-4.71404 -0.8979,-6.06091 -4.04061,-6.06091 -3.1427,0 -4.04061,1.34687 -4.04061,6.06091 0,4.71404 0.89791,6.06092 4.04061,6.06092 3.14271,0 4.04061,-1.34688 4.04061,-6.06092 z m 16.55135,-8.56887 c 0.45318,-6.25065 1.57774,-8.7503 4.15678,-9.23951 2.94954,-0.55949 3.53553,0.86072 3.53553,8.56887 0,6.86603 0.77849,9.23951 3.03046,9.23951 4.95211,0 4.19389,-19.43823 -0.8638,-22.14503 -2.14183,-1.14628 -5.32381,-1.53557 -7.07107,-0.86508 -2.38824,0.91645 -3.17681,-0.0883 -3.17681,-4.04786 0,-3.33483 -1.11167,-5.26691 -3.03045,-5.26691 -2.4412,0 -3.03046,3.1427 -3.03046,16.16244 0,12.73342 0.61829,16.16244 2.91429,16.16244 1.98313,0 3.11278,-2.73788 3.53553,-8.56887 z m -16.55135,-6.58342 c 0,-3.70389 -1.07749,-5.05076 -4.04061,-5.05076 -2.96312,0 -4.04061,1.34687 -4.04061,5.05076 0,3.70389 1.07749,5.05076 4.04061,5.05076 2.96312,0 4.04061,-1.34687 4.04061,-5.05076 z m 0,-15.15229 c 0,-4.71404 -0.8979,-6.06091 -4.04061,-6.06091 -3.1427,0 -4.04061,1.34687 -4.04061,6.06091 0,4.71405 0.89791,6.06092 4.04061,6.06092 3.14271,0 4.04061,-1.34687 4.04061,-6.06092 z m -0.37089,-14.66448 c 0.51448,-4.45728 -0.17576,-5.53857 -3.53553,-5.53857 -3.31393,0 -4.1748,1.28035 -4.1748,6.20906 0,4.82193 0.78984,6.05926 3.53554,5.53856 2.13239,-0.40439 3.78924,-2.86858 4.17479,-6.20905 z m 0,-15.11774 c -0.38555,-3.34047 -2.0424,-5.80466 -4.17479,-6.20905 -2.7457,-0.5207 -3.53554,0.71662 -3.53554,5.53856 0,4.92871 0.86087,6.20905 4.1748,6.20905 3.35977,0 4.05001,-1.08128 3.53553,-5.53856 z m 0,-15.18684 c 0.51448,-4.45728 -0.17576,-5.53856 -3.53553,-5.53856 -3.31393,0 -4.1748,1.28034 -4.1748,6.20905 0,4.82194 0.78984,6.05926 3.53554,5.53856 2.13239,-0.40439 3.78924,-2.86858 4.17479,-6.20905 z m 0,-15.13501 c -0.38056,-3.30754 -1.86561,-5.55584 -3.66972,-5.55584 -1.80411,0 -3.28916,2.2483 -3.66972,5.55584 -0.52057,4.52413 0.16082,5.55584 3.66972,5.55584 3.50883,0 4.1903,-1.03171 3.66972,-5.55584 z m 0.37089,-14.64721 c 0,-4.71405 -0.8979,-6.06092 -4.04061,-6.06092 -3.1427,0 -4.04061,1.34687 -4.04061,6.06092 0,4.71404 0.89791,6.06091 4.04061,6.06091 3.14271,0 4.04061,-1.34687 4.04061,-6.06091 z m 0,-15.15229 c 0,-3.70389 -1.07749,-5.05077 -4.04061,-5.05077 -2.96312,0 -4.04061,1.34688 -4.04061,5.05077 0,3.70389 1.07749,5.05076 4.04061,5.05076 2.96312,0 4.04061,-1.34687 4.04061,-5.05076 z m 0,-15.15229 c 0,-4.71405 -0.8979,-6.06092 -4.04061,-6.06092 -3.1427,0 -4.04061,1.34687 -4.04061,6.06092 0,4.71404 0.89791,6.06091 4.04061,6.06091 3.14271,0 4.04061,-1.34687 4.04061,-6.06091 z m -0.37089,-14.66449 c 0.51448,-4.45728 -0.17576,-5.53856 -3.53553,-5.53856 -3.31393,0 -4.1748,1.28034 -4.1748,6.20905 0,4.82194 0.78984,6.05927 3.53554,5.53857 2.13239,-0.4044 3.78924,-2.86858 4.17479,-6.20906 z m 0,-15.11774 c -0.38555,-3.34047 -2.0424,-5.80466 -4.17479,-6.20905 -2.7457,-0.5207 -3.53554,0.71663 -3.53554,5.53857 0,4.92871 0.86087,6.20905 4.1748,6.20905 3.35977,0 4.05001,-1.08129 3.53553,-5.53857 z"
       id="path4215"
       inkscape:connector-curvature="0"
       transform="translate(0,-364.96063)" />
    <path
       style="fill:none;fill-rule:evenodd;stroke:#000000;stroke-width:5;stroke-linecap:butt;stroke-linejoin:miter;stroke-miterlimit:4;stroke-dasharray:5, 5;stroke-dashoffset:0;stroke-opacity:1"
       d="m 149.99998,702.36212 2e-5,-329.99987 190,0 179.99994,-1.3e-4 0,-309.999966 -169.99998,309.999966"
       id="path4219"
       inkscape:connector-curvature="0" />
    <path
       style="fill:none;fill-rule:evenodd;stroke:#000000;stroke-width:3.99999952;stroke-linecap:butt;stroke-linejoin:miter;stroke-miterlimit:4;stroke-dasharray:none;stroke-opacity:1"
       d="m 520,342.36225 40,0 -7e-5,29.99991"
       id="path4221"
       inkscape:connector-curvature="0" />
    <path
       style="fill:none;fill-rule:evenodd;stroke:#000000;stroke-width:4.99999952;stroke-linecap:butt;stroke-linejoin:miter;stroke-miterlimit:4;stroke-dasharray:none;stroke-opacity:1"
       d="m 520,662.36227 30,0"
       id="path4223"
       inkscape:connector-curvature="0" />
    <path
       style="fill:none;fill-rule:evenodd;stroke:#000000;stroke-width:4.99999952;stroke-linecap:butt;stroke-linejoin:miter;stroke-miterlimit:4;stroke-dasharray:none;stroke-opacity:1"
       d="m 550,662.36227 0,30"
       id="path4225"
       inkscape:connector-curvature="0" />
    <path
       style="fill:none;fill-rule:evenodd;stroke:#000000;stroke-width:4.99999952;stroke-linecap:butt;stroke-linejoin:miter;stroke-miterlimit:4;stroke-dasharray:none;stroke-opacity:1;marker-end:url(#Arrow1Lend)"
       d="m 680,312.36225 c 66.34801,-67.3268 175.17441,-98.17064 263.21286,-56.89479 54.4118,25.9372 103.79494,65.81305 131.58924,120.23944 12.646,23.88129 21.3783,49.88384 25.1979,76.65535"
       id="path4227"
       inkscape:connector-curvature="0" />
    <path
       style="fill:none;fill-rule:evenodd;stroke:#000000;stroke-width:4.99999952;stroke-linecap:butt;stroke-linejoin:miter;stroke-miterlimit:4;stroke-dasharray:none;stroke-opacity:1;marker-end:url(#marker4641)"
       d="M 480,292.36225 C 380.62255,269.00165 223.24301,239.6193 182.37373,366.12241 168.49766,399.44887 164.7007,438.79784 180,472.36225"
       id="path4619"
       inkscape:connector-curvature="0" />
    <path
       style="fill:none;fill-rule:evenodd;stroke:#000000;stroke-width:1px;stroke-linecap:butt;stroke-linejoin:miter;stroke-opacity:1"
       d="m 930,412.36225 c 3.88006,3.694 9.74311,1.80184 13.71375,-0.73084 7.20787,-4.63688 13.89655,-10.1265 19.89341,-16.25266 3.31191,-3.4527 6.33837,-7.19228 8.89012,-11.24351 3.82656,-2.61578 1.97081,-8.06577 4.31927,-11.53301 0.78348,-1.0521 2.19643,-0.77998 3.18345,-0.23998"
       id="path4675"
       inkscape:connector-curvature="0" />
    <path
       style="fill:none;fill-rule:evenodd;stroke:#000000;stroke-width:1px;stroke-linecap:butt;stroke-linejoin:miter;stroke-opacity:1"
       d="m 820,322.36225 c -15.79055,1.63401 -21.00096,19.45925 -22.14934,32.90068 -0.64601,5.66461 -2.71113,12.58711 2.14934,17.09932"
       id="path4684"
       inkscape:connector-curvature="0" />
    <path
       style="fill:none;fill-rule:evenodd;stroke:#000000;stroke-width:1px;stroke-linecap:butt;stroke-linejoin:miter;stroke-opacity:1"
       d="m 780,342.36225 40,10"
       id="path4698"
       inkscape:connector-curvature="0" />
    <path
       style="fill:none;fill-rule:evenodd;stroke:#000000;stroke-width:1px;stroke-linecap:butt;stroke-linejoin:miter;stroke-opacity:1"
       d="m 940,392.36225 30,20"
       id="path4700"
       inkscape:connector-curvature="0" />
    <text
       xml:space="preserve"
       style="font-style:normal;font-weight:normal;font-size:40px;line-height:125%;font-family:sans-serif;letter-spacing:0px;word-spacing:0px;fill:#000000;fill-opacity:1;stroke:none;stroke-width:1px;stroke-linecap:butt;stroke-linejoin:miter;stroke-opacity:1"
       x="560"
       y="252.36224"
       id="text4706"
       sodipodi:linespacing="125%"><tspan
         sodipodi:role="line"
         id="tspan4708"
         x="560"
         y="252.36224">/2</tspan></text>
    <text
       xml:space="preserve"
       style="font-style:normal;font-weight:normal;font-size:40px;line-height:125%;font-family:sans-serif;letter-spacing:0px;word-spacing:0px;fill:#000000;fill-opacity:1;stroke:none;stroke-width:1px;stroke-linecap:butt;stroke-linejoin:miter;stroke-opacity:1"
       x="560"
       y="532.36224"
       id="text4710"
       sodipodi:linespacing="125%"><tspan
         sodipodi:role="line"
         id="tspan4712"
         x="560"
         y="532.36224">/2</tspan></text>
    <text
       xml:space="preserve"
       style="font-style:normal;font-weight:normal;font-size:40px;line-height:125%;font-family:sans-serif;letter-spacing:0px;word-spacing:0px;fill:#000000;fill-opacity:1;stroke:none;stroke-width:1px;stroke-linecap:butt;stroke-linejoin:miter;stroke-opacity:1"
       x="1258.5714"
       y="532.36224"
       id="text4714"
       sodipodi:linespacing="125%"><tspan
         sodipodi:role="line"
         id="tspan4716"
         x="1258.5714"
         y="532.36224">h/2</tspan></text>
    <text
       xml:space="preserve"
       style="font-style:normal;font-weight:normal;font-size:40px;line-height:125%;font-family:sans-serif;letter-spacing:0px;word-spacing:0px;fill:#000000;fill-opacity:1;stroke:none;stroke-width:1px;stroke-linecap:butt;stroke-linejoin:miter;stroke-opacity:1"
       x="71.428665"
       y="528.07654"
       id="text4714-2"
       sodipodi:linespacing="125%"><tspan
         sodipodi:role="line"
         id="tspan4716-2"
         x="71.428665"
         y="528.07654">h/2</tspan></text>
    <path
       style="fill:none;fill-rule:evenodd;stroke:#000000;stroke-width:1px;stroke-linecap:butt;stroke-linejoin:miter;stroke-opacity:1"
       d="m 370,322.36225 c 20.70946,-6.79764 45.54963,8.44434 45.57932,31.01589 0.58709,6.70094 -0.94829,13.89562 -5.57932,18.98411"
       id="path4746"
       inkscape:connector-curvature="0" />
    <path
       style="fill:none;fill-rule:evenodd;stroke:#000000;stroke-width:1px;stroke-linecap:butt;stroke-linejoin:miter;stroke-opacity:1"
       d="m 280,372.36225 c -16.05846,14.10123 0.0375,39.72295 17.40762,43.70551 4.54012,1.12627 9.77652,2.10044 12.59238,6.29449"
       id="path4760"
       inkscape:connector-curvature="0" />
    <path
       style="fill:none;fill-rule:evenodd;stroke:#000000;stroke-width:1px;stroke-linecap:butt;stroke-linejoin:miter;stroke-opacity:1"
       d="m 420,322.36225 -20,20"
       id="path4817"
       inkscape:connector-curvature="0" />
    <path
       style="fill:none;fill-rule:evenodd;stroke:#000000;stroke-width:1px;stroke-linecap:butt;stroke-linejoin:miter;stroke-opacity:1"
       d="m 430,322.36225 -20,20"
       id="path4819"
       inkscape:connector-curvature="0" />
    <path
       style="fill:none;fill-rule:evenodd;stroke:#000000;stroke-width:1px;stroke-linecap:butt;stroke-linejoin:miter;stroke-opacity:1"
       d="m 260,402.36225 20,-10"
       id="path4821"
       inkscape:connector-curvature="0" />
    <path
       style="fill:none;fill-rule:evenodd;stroke:#000000;stroke-width:1px;stroke-linecap:butt;stroke-linejoin:miter;stroke-opacity:1"
       d="m 270,412.36225 20,-10"
       id="path4823"
       inkscape:connector-curvature="0" />
    <path
       style="fill:none;fill-rule:evenodd;stroke:#000000;stroke-width:4.99999905;stroke-linecap:butt;stroke-linejoin:miter;stroke-miterlimit:4;stroke-dasharray:none;stroke-dashoffset:0;stroke-opacity:1"
       d="m 2132.6815,374.45641 -531.4286,0"
       id="path4201-3"
       inkscape:connector-curvature="0" />
    <path
       style="fill:none;fill-rule:evenodd;stroke:#000000;stroke-width:4.99999952;stroke-linecap:butt;stroke-linejoin:miter;stroke-miterlimit:4;stroke-dasharray:none;stroke-dashoffset:0;stroke-opacity:1"
       d="m 2125.5386,374.45641 374.2857,0"
       id="path4211-6"
       inkscape:connector-curvature="0" />
    <path
       style="fill:none;fill-rule:evenodd;stroke:#000000;stroke-width:4.99999952;stroke-linecap:butt;stroke-linejoin:miter;stroke-miterlimit:4;stroke-dasharray:none;stroke-dashoffset:0;stroke-opacity:1"
       d="m 2499.822,374.46264 c -2.0634,4.33108 -2.0634,4.33108 0,0 l -1e-4,325.05538"
       id="path4213-3"
       inkscape:connector-curvature="0" />
    <path
       style="fill:none;fill-rule:evenodd;stroke:#000000;stroke-width:4.99999905;stroke-linecap:butt;stroke-linejoin:miter;stroke-miterlimit:4;stroke-dasharray:none;stroke-dashoffset:0;stroke-opacity:1"
       d="m 1599.8243,374.45641 -189.9999,0 -10e-5,329.99983"
       id="path4219-8"
       inkscape:connector-curvature="0" />
    <path
       style="fill:none;fill-rule:evenodd;stroke:#000000;stroke-width:4.99999952;stroke-linecap:butt;stroke-linejoin:miter;stroke-miterlimit:4;stroke-dasharray:none;stroke-opacity:1"
       d="m 1600.4285,373.93364 -179,326.99997"
       id="path4385"
       inkscape:connector-curvature="0" />
    <path
       style="fill:none;fill-rule:evenodd;stroke:#000000;stroke-width:4.99999952;stroke-linecap:butt;stroke-linejoin:miter;stroke-miterlimit:4;stroke-dasharray:none;stroke-opacity:1"
       d="m 2141.4285,375.93364 360,324.99997"
       id="path4387"
       inkscape:connector-curvature="0" />
    <path
       style="fill:none;fill-rule:evenodd;stroke:#000000;stroke-width:4.99999952;stroke-linecap:butt;stroke-linejoin:miter;stroke-miterlimit:4;stroke-dasharray:none;stroke-opacity:1"
       d="m 2501.4285,700.93361 -1090,0"
       id="path4395"
       inkscape:connector-curvature="0" />
    <path
       style="fill:none;fill-rule:evenodd;stroke:#000000;stroke-width:1px;stroke-linecap:butt;stroke-linejoin:miter;stroke-opacity:1"
       d="m 520,62.3622 0,310 359.9999,-8e-5"
       id="path4397"
       inkscape:connector-curvature="0" />
    <path
       style="fill:#0000ff;fill-rule:evenodd;stroke:#000000;stroke-width:1px;stroke-linecap:butt;stroke-linejoin:miter;stroke-opacity:1"
       d="m 880,372.3622 -360,-310"
       id="path4399"
       inkscape:connector-curvature="0" />
    <path
       style="fill:#00c8ff;fill-opacity:1;stroke:none;stroke-width:5;stroke-miterlimit:4;stroke-dasharray:none;stroke-dashoffset:0;stroke-opacity:1"
       d="m 573.34273,735.68104 c 0,-0.85714 -1.07142,-1.07143 -5.35714,-1.07143 l -5.35714,0 0,-14.64285 0,-14.64286 -19.16502,0 -19.16501,0 -0.95568,-1.78572 c -0.52563,-0.98214 -1.38352,-1.78571 -1.90642,-1.78571 -1.5994,0 -1.09943,-3.166 0.62185,-3.93776 3.21723,-1.4425 3.22572,-9.97929 0.0113,-11.41019 -1.99263,-0.88703 -1.99122,-1.62642 0.007,-3.75357 1.25507,-1.33596 1.59445,-2.55238 1.60714,-5.76032 0.014,-3.54028 -0.19195,-4.15801 -1.59104,-4.77182 -2.08376,-0.9142 -2.08376,-3.38991 0,-4.3041 1.13779,-0.49918 1.67622,-1.4329 1.8437,-3.19724 0.29482,-3.10591 -1.21414,-7.865 -2.49375,-7.865 -1.31759,0 -1.22347,-3.51405 0.1078,-4.02491 1.38994,-0.53336 2.68823,-4.94873 2.38701,-8.11795 -0.18628,-1.95983 -0.58488,-2.54932 -1.84476,-2.72825 -1.23898,-0.17596 -1.60715,-0.69638 -1.60715,-2.27175 0,-1.57536 0.36817,-2.09578 1.60715,-2.27175 1.25988,-0.17893 1.65848,-0.76842 1.84476,-2.72825 0.30122,-3.16921 -0.99707,-7.58458 -2.38701,-8.11795 -1.5289,-0.58669 -1.3125,-2.42148 0.34774,-2.94842 3.307,-1.0496 3.307,-11.10337 0,-12.15297 -1.6361,-0.51928 -2.00803,-3.92351 -0.42867,-3.92351 1.56515,0 2.72184,-1.89535 2.79808,-4.58493 0.0808,-2.85072 -1.43369,-6.12936 -2.83132,-6.12936 -1.60736,0 -1.09809,-3.16707 0.63319,-3.93776 3.14222,-1.39878 3.14396,-10.0137 0.002,-11.41019 -1.55716,-0.69217 -2.25628,-3.22348 -0.89029,-3.22348 1.34007,0 2.95519,-4.34566 2.73603,-7.36158 -0.16735,-2.30299 -0.58925,-3.15858 -1.82482,-3.70065 -2.08376,-0.9142 -2.08376,-3.38991 0,-4.3041 1.13779,-0.49918 1.67622,-1.4329 1.8437,-3.19724 0.29482,-3.10591 -1.21414,-7.865 -2.49375,-7.865 -1.31759,0 -1.22347,-3.51405 0.1078,-4.02491 1.38994,-0.53336 2.68823,-4.94873 2.38701,-8.11795 -0.18628,-1.95983 -0.58488,-2.54932 -1.84476,-2.72825 -1.23898,-0.17596 -1.60715,-0.69638 -1.60715,-2.27175 0,-1.57536 0.36817,-2.09578 1.60715,-2.27175 1.25988,-0.17892 1.65848,-0.76842 1.84476,-2.72825 0.31299,-3.29305 -1.08644,-7.85714 -2.40915,-7.85714 -1.60568,0 -1.27428,-2.93034 0.38033,-3.36303 3.30904,-0.86533 3.30026,-10.94839 -0.0104,-11.99917 -1.6361,-0.51928 -2.00803,-3.92351 -0.42867,-3.92351 1.56515,0 2.72184,-1.89535 2.79808,-4.58493 0.0808,-2.85072 -1.43369,-6.12936 -2.83132,-6.12936 -1.60736,0 -1.09809,-3.16707 0.63319,-3.93776 3.14222,-1.39878 3.14396,-10.01369 0.002,-11.41019 -1.55716,-0.69217 -2.25628,-3.22348 -0.89029,-3.22348 1.34007,0 2.95519,-4.34566 2.73603,-7.36158 -0.16735,-2.30299 -0.58925,-3.15858 -1.82482,-3.70065 -2.18891,-0.96033 -2.08906,-3.48889 0.17857,-4.52209 1.43646,-0.65449 1.78571,-1.33057 1.78571,-3.45679 0,-3.36743 -1.43851,-7.38746 -2.64349,-7.38746 -1.26642,0 -1.18429,-3.51789 0.0936,-4.00826 1.26783,-0.48651 2.54991,-4.02882 2.54991,-7.04525 0,-1.49661 -0.60782,-2.83992 -1.78571,-3.94649 -0.98215,-0.92267 -1.78572,-1.95268 -1.78572,-2.28891 0,-0.33622 11.29788,9.1216 25.10639,21.01737 13.80851,11.89578 35.77056,30.7894 48.80455,41.98583 13.03399,11.19643 34.92361,30.31442 48.64361,42.48442 47.0373,41.72335 76.38599,67.81918 89.43582,79.52323 l 13.0618,11.71479 -8.41894,4.6423 c -11.30228,6.23221 -27.16738,16.80881 -36.80807,24.53841 -9.52444,7.63639 -21.96802,19.04482 -21.96802,20.14055 0,0.43604 0.67673,1.51313 1.50383,2.39354 l 1.50382,1.60075 8.67475,-7.84304 c 17.62253,-15.93293 36.95956,-29.51485 54.8604,-38.53274 l 5.47135,-2.75631 17.74293,15.83688 c 34.76572,31.03098 46.68331,41.9715 45.71984,41.9715 -1.98702,0 -7.05598,4.47035 -9.68998,8.54567 -1.49326,2.31035 -3.44909,6.48363 -4.3463,9.27395 -1.26606,3.93744 -1.88979,4.99598 -2.78596,4.728 -5.68048,-1.69867 -16.66114,-4.06497 -17.05155,-3.67455 -0.83327,0.83326 0.94701,1.49357 9.69267,3.59502 l 8.44142,2.02836 -0.98741,6.50177 c -0.97248,6.4035 -0.90361,13.87569 0.15043,16.32321 0.44692,1.03777 0.16152,1.25 -1.68096,1.25 -1.4965,0 -2.21928,-0.34894 -2.21928,-1.07143 0,-0.88681 -1.34071,-1.07143 -7.78072,-1.07143 -6.25728,0 -7.86122,0.20979 -8.19187,1.07143 -0.22613,0.58929 -1.2248,1.07143 -2.21928,1.07143 -1.13103,0 -1.80813,-0.40122 -1.80813,-1.07143 0,-0.88681 -1.34071,-1.07143 -7.78072,-1.07143 -6.25728,0 -7.86122,0.20979 -8.19187,1.07143 -0.22613,0.58929 -1.07418,1.07143 -1.88455,1.07143 -0.81037,0 -1.65842,-0.48214 -1.88455,-1.07143 -0.3303,-0.86074 -1.92611,-1.07143 -8.11545,-1.07143 -6.18934,0 -7.78515,0.21069 -8.11545,1.07143 -0.22613,0.58929 -1.07418,1.07143 -1.88455,1.07143 -0.81037,0 -1.65842,-0.48214 -1.88455,-1.07143 -0.33025,-0.86061 -1.92488,-1.07143 -8.10441,-1.07143 -5.96706,0 -7.89278,0.24041 -8.58247,1.07143 -0.48906,0.58929 -1.34208,1.07143 -1.89559,1.07143 -0.55351,0 -1.1914,-0.48214 -1.41753,-1.07143 -0.33025,-0.86061 -1.92488,-1.07143 -8.10441,-1.07143 -5.96706,0 -7.89278,0.24041 -8.58247,1.07143 -0.48906,0.58929 -1.34208,1.07143 -1.89559,1.07143 -0.55351,0 -1.1914,-0.48214 -1.41753,-1.07143 -0.33065,-0.86164 -1.93459,-1.07143 -8.19187,-1.07143 -6.44001,0 -7.78072,0.18462 -7.78072,1.07143 0,0.71429 -0.71429,1.07143 -2.14286,1.07143 -1.42857,0 -2.14286,-0.35714 -2.14286,-1.07143 0,-0.88744 -1.3492,-1.07143 -7.85714,-1.07143 -6.50793,0 -7.85714,0.18399 -7.85714,1.07143 0,0.71429 -0.71429,1.07143 -2.14286,1.07143 -1.42857,0 -2.14286,-0.35714 -2.14286,-1.07143 0,-0.88744 -1.3492,-1.07143 -7.85714,-1.07143 -6.50793,0 -7.85714,0.18399 -7.85714,1.07143 0,0.71429 -0.71429,1.07143 -2.14286,1.07143 -1.42857,0 -2.14286,-0.35714 -2.14286,-1.07143 0,-0.88744 -1.3492,-1.07143 -7.85714,-1.07143 -6.50793,0 -7.85714,0.18399 -7.85714,1.07143 0,0.71429 -0.71429,1.07143 -2.14286,1.07143 -1.42857,0 -2.14286,-0.35714 -2.14286,-1.07143 0,-0.88744 -1.3492,-1.07143 -7.85714,-1.07143 -6.50793,0 -7.85714,0.18399 -7.85714,1.07143 0,0.71429 -0.71429,1.07143 -2.14286,1.07143 -1.42857,0 -2.14286,-0.35714 -2.14286,-1.07143 0,-0.88681 -1.34071,-1.07143 -7.78072,-1.07143 -6.25727,0 -7.86122,0.20979 -8.19187,1.07143 -0.22613,0.58929 -1.2248,1.07143 -2.21927,1.07143 -1.13104,0 -1.80814,-0.40122 -1.80814,-1.07143 z m -4.58164,-131.07416 5.06121,-16.42584 -1.99478,0 c -1.93503,0 -2.08297,0.28351 -4.93874,9.46429 -2.62645,8.44355 -5.78503,18.67598 -6.83513,22.14285 -0.29824,0.98465 0.0486,1.24943 1.63381,1.24727 2.0016,-0.003 2.03962,-0.091 7.07363,-16.42857 z m -28.34882,8.33708 c 0.43318,-2.48754 0.78761,-5.23 0.78761,-6.09437 0,-2.68558 1.93457,-6.36331 3.63037,-6.90154 2.55275,-0.81022 3.51248,1.25234 3.51248,7.54864 0,7.31782 0.94491,9.97007 3.55202,9.97007 2.35016,0 2.87889,-1.6927 2.87257,-9.19643 -0.005,-5.80844 -0.96971,-9.4808 -3.15976,-12.02689 -1.46726,-1.70579 -2.17453,-1.93773 -5.85961,-1.92158 -4.64334,0.0204 -5.23548,-0.4156 -5.25142,-3.86635 -0.022,-4.76284 -3.21977,-6.9496 -5.15394,-3.52447 -1.03667,1.83577 -1.31504,23.35567 -0.36035,27.85714 0.4955,2.33633 0.82837,2.67858 2.60525,2.67858 1.94262,0 2.07372,-0.20991 2.82478,-4.5228 z m 55.07332,2.73708 c 0,-1.78236 -0.013,-1.78571 -6.94753,-1.78571 l -6.94753,0 5.4176,-5.53572 c 6.97203,-7.12404 7.76318,-8.37973 7.76318,-12.32143 0,-7.1234 -5.98255,-10.14318 -15.39799,-7.77235 -2.99585,0.75437 -3.17344,0.93853 -3.17344,3.29071 0,2.10095 0.19599,2.40759 1.25,1.95571 6.98362,-2.99414 10.36408,-2.85899 12.25268,0.48984 1.66808,2.95779 0.40312,5.34026 -6.74841,12.71027 -5.08658,5.24195 -6.75427,7.42896 -6.75427,8.8575 l 0,1.8969 9.64285,0 9.64286,0 0,-1.78572 z"
       id="path4401"
       inkscape:connector-curvature="0"
       transform="translate(0,-364.96063)" />
    <path
       style="fill:#00c8ff;fill-opacity:1;stroke:none;stroke-width:5;stroke-miterlimit:4;stroke-dasharray:none;stroke-dashoffset:0;stroke-opacity:1"
       d="m 813.34273,735.68104 c 0,-0.8811 -1.27154,-1.07143 -7.15817,-1.07143 -6.94461,0 -7.18247,-0.0533 -7.97281,-1.78795 -0.61704,-1.35424 -0.58634,-3.77007 0.12655,-9.95926 0.51766,-4.49422 1.14026,-8.4934 1.38356,-8.88707 0.27805,-0.4499 4.11633,0.21004 10.33326,1.77666 9.21808,2.32289 11.66491,2.58586 10.02571,1.0775 -0.36667,-0.33739 -5.05126,-1.67745 -10.4102,-2.9779 l -9.74353,-2.36445 1.07319,-3.61733 c 2.43015,-8.19117 7.10287,-14.82326 12.35558,-17.53656 l 2.51315,-1.29816 15.70114,14.39096 c 18.45652,16.91643 31.05829,29.24096 31.05829,30.37502 0,0.44786 -1.11523,0.80854 -2.5,0.80854 -1.74603,0 -2.5,0.32313 -2.5,1.07143 0,0.71429 -0.71429,1.07143 -2.14286,1.07143 -1.42857,0 -2.14286,-0.35714 -2.14286,-1.07143 0,-0.88744 -1.3492,-1.07143 -7.85714,-1.07143 -6.50794,0 -7.85714,0.18399 -7.85714,1.07143 0,0.71429 -0.71429,1.07143 -2.14286,1.07143 -1.42857,0 -2.14286,-0.35714 -2.14286,-1.07143 0,-0.88744 -1.3492,-1.07143 -7.85714,-1.07143 -6.50794,0 -7.85714,0.18399 -7.85714,1.07143 0,0.71429 -0.71429,1.07143 -2.14286,1.07143 -1.42857,0 -2.14286,-0.35714 -2.14286,-1.07143 z"
       id="path4403"
       inkscape:connector-curvature="0"
       transform="translate(0,-364.96063)" />
    <path
       style="fill:#ffff00;fill-opacity:1;stroke:none;stroke-width:0.1;stroke-miterlimit:4;stroke-dasharray:none;stroke-dashoffset:0;stroke-opacity:1"
       d="m 413.05972,735.95683 c 0,-0.73578 0.7078,-2.90542 1.57289,-4.82143 2.08053,-4.60798 2.24224,-15.68468 0.32104,-21.99098 l -1.28611,-4.22162 8.26752,-8.28911 c 4.54713,-4.55901 8.26751,-8.76161 8.26751,-9.33909 0,-0.5775 -3.9375,2.87334 -8.75,7.66852 l -8.75,8.71851 -1.54732,-2.37795 -1.54732,-2.37795 5.29732,-5.26198 c 2.91353,-2.89407 5.29732,-5.74461 5.29732,-6.33451 0,-0.5899 -2.53321,1.44581 -5.62936,4.5238 l -5.62936,5.59634 -4.04796,-3.2971 c -6.86401,-5.59082 -15.18543,-9.00053 -21.96582,-9.00053 -1.89298,0 -3.44178,-0.17717 -3.44178,-0.3937 0,-0.27713 20.78599,-38.62058 21.74176,-40.10653 0.45959,-0.71454 49.324,8.71961 68.97252,13.31638 4.91072,1.14886 9.13578,1.86915 9.38904,1.60063 0.58464,-0.61988 1.55293,-5.13107 1.10134,-5.13107 -0.18558,0 -8.16648,-1.74338 -17.73533,-3.87418 -17.94167,-3.99527 -33.65552,-7.09963 -49.16899,-9.71363 -4.90268,-0.8261 -9.01591,-1.60395 -9.14053,-1.72857 -0.12461,-0.12461 8.83321,-16.73833 19.90628,-36.91938 11.07307,-20.18105 26.46737,-48.26424 34.20955,-62.4071 17.27769,-31.5616 37.11487,-66.20238 51.20508,-89.41711 l 5.28219,-8.70282 2.11403,1.20282 c 2.43474,1.38531 2.73237,2.66259 0.74172,3.18316 -2.79269,0.7303 -2.80198,9.67936 -0.0119,11.42181 1.83841,1.14811 1.77406,3.67073 -0.12582,4.9322 -2.90883,1.9314 -2.51685,11.30852 0.47272,11.30852 1.5032,0 1.28908,1.6476 -0.34689,2.66928 -2.78585,1.73979 -2.79396,10.38375 -0.0106,11.26716 1.64839,0.52318 2.04492,4.63498 0.447,4.63498 -1.07877,0 -2.61466,2.93709 -2.61466,5 0,2.06292 1.53589,5 2.61466,5 1.58882,0 1.20463,4.05429 -0.42457,4.48033 -2.79269,0.73031 -2.80198,9.67936 -0.0119,11.42182 1.71011,1.06798 1.80836,3.08024 0.19448,3.98342 -0.85563,0.47883 -1.28997,1.9325 -1.51757,5.07908 -0.29142,4.02875 -0.18822,4.44243 1.1987,4.80512 2.09825,0.5487 1.96519,3.28912 -0.26813,5.52244 -1.30659,1.30659 -1.78572,2.54856 -1.78572,4.62883 0,3.64431 1.09219,6.50754 2.48232,6.50754 0.59901,0 1.08911,0.48214 1.08911,1.07142 0,0.58929 -0.4901,1.07143 -1.08911,1.07143 -1.39013,0 -2.48232,2.86322 -2.48232,6.50754 0,2.08027 0.47913,3.32224 1.78572,4.62883 2.18602,2.18601 2.27915,4.07604 0.2667,5.41226 -2.90884,1.93139 -2.51686,11.30852 0.47271,11.30852 1.52402,0 1.28058,1.96721 -0.35153,2.84069 -2.792,1.49423 -2.77878,10.51943 0.0165,11.25041 1.65183,0.43196 2.01017,4.48032 0.39657,4.48032 -2.85238,0 -3.2191,9.06728 -0.39657,9.80539 1.91656,0.50119 1.91656,4.17375 0,4.67494 -2.79269,0.7303 -2.80198,9.67936 -0.0119,11.42182 1.63597,1.02168 1.85009,2.66928 0.34689,2.66928 -2.98957,0 -3.38155,9.37712 -0.47271,11.30852 1.89988,1.26147 1.96423,3.78409 0.12582,4.9322 -2.79012,1.74245 -2.78084,10.69151 0.0119,11.42181 1.63127,0.42659 1.87017,2.33747 0.29223,2.33747 -1.39013,0 -2.48232,2.86322 -2.48232,6.50754 0,2.08027 0.47913,3.32224 1.78571,4.62883 2.16738,2.16737 2.36654,4.9737 0.38968,5.49066 -2.75857,0.72138 -2.75367,7.79469 0.007,10.55567 1.75338,1.75338 1.75126,2.57302 -0.009,3.51514 -2.792,1.49423 -2.77877,10.51943 0.0165,11.25041 1.65183,0.43196 2.01017,4.48032 0.39657,4.48032 -2.85238,0 -3.2191,9.06728 -0.39657,9.80539 1.99136,0.52075 1.74348,3.33897 -0.49013,5.57258 -1.65724,1.65724 -1.83131,2.28943 -1.52063,5.52278 0.25584,2.66258 0.79102,4.00772 1.97638,4.96757 l 1.62553,1.31628 -1.52249,1.62061 c -0.83736,0.89134 -1.72832,2.64981 -1.9799,3.9077 -0.5262,2.63101 -1.31673,2.8933 -2.58747,0.85852 -0.80031,-1.28148 -1.66573,-1.42857 -8.40566,-1.42857 -6.73993,0 -7.60536,0.14709 -8.40567,1.42857 -0.49068,0.78572 -1.34991,1.42857 -1.9094,1.42857 -0.55948,0 -1.22127,-0.64285 -1.47065,-1.42857 -0.41698,-1.31381 -1.08073,-1.42857 -8.26242,-1.42857 -7.33276,0 -7.80895,0.0871 -7.80895,1.42857 0,1.06137 -0.47619,1.42857 -1.85258,1.42857 -1.25188,0 -1.97373,-0.46323 -2.22617,-1.42857 -0.34471,-1.31818 -0.9743,-1.42857 -8.14741,-1.42857 -7.29765,0 -7.77384,0.0875 -7.77384,1.42857 0,1.06137 -0.47619,1.42857 -1.85258,1.42857 -1.25188,0 -1.97373,-0.46323 -2.22617,-1.42857 -0.34471,-1.31818 -0.9743,-1.42857 -8.14741,-1.42857 -7.29765,0 -7.77384,0.0875 -7.77384,1.42857 0,1.11112 -0.47619,1.42857 -2.14286,1.42857 -1.66666,0 -2.14285,-0.31745 -2.14285,-1.42857 0,-1.34199 -0.47619,-1.42857 -7.85715,-1.42857 -7.38095,0 -7.85714,0.0866 -7.85714,1.42857 0,1.11112 -0.47619,1.42857 -2.14286,1.42857 -1.61818,0 -2.14285,-0.32755 -2.14285,-1.33777 z"
       id="path4409"
       inkscape:connector-curvature="0"
       transform="translate(0,-364.96063)" />
    <path
       style="fill:#ffff00;fill-opacity:1;stroke:none;stroke-width:0.1;stroke-miterlimit:4;stroke-dasharray:none;stroke-dashoffset:0;stroke-opacity:1"
       d="m 354.48829,736.48049 c 0,-0.44776 -0.50234,-1.18143 -1.11631,-1.63038 -0.96645,-0.70669 0.62905,-4.00146 11.88503,-24.54303 l 13.00135,-23.72676 3.30899,0 c 7.42046,0 16.557,3.8251 22.73191,9.51694 l 3.1154,2.87167 -4.10091,4.14416 c -2.2555,2.27928 -3.86982,4.37525 -3.58737,4.6577 0.28246,0.28246 2.38695,-1.34029 4.67666,-3.60611 l 4.1631,-4.11966 1.49455,2.36048 c 1.3785,2.17719 1.4054,2.45901 0.34641,3.62917 -1.32374,1.46271 -0.72187,2.5785 0.73753,1.3673 1.4305,-1.18721 2.66078,1.96128 3.28017,8.3945 0.59531,6.18318 -0.0719,12.124 -1.78927,15.93253 l -1.22135,2.70846 -7.03437,0 c -6.55819,0 -7.03438,0.0967 -7.03438,1.42857 0,1.11111 -0.47619,1.42857 -2.14286,1.42857 -1.66666,0 -2.14285,-0.31746 -2.14285,-1.42857 0,-1.34106 -0.47619,-1.42857 -7.77384,-1.42857 -7.17311,0 -7.8027,0.11039 -8.14741,1.42857 -0.25244,0.96535 -0.9743,1.42857 -2.22617,1.42857 -1.37639,0 -1.85258,-0.3672 -1.85258,-1.42857 0,-1.34146 -0.47619,-1.42857 -7.80901,-1.42857 -7.18168,0 -7.84543,0.11476 -8.26242,1.42857 -0.47849,1.5076 -2.5,2.00445 -2.5,0.61446 z"
       id="path4411"
       inkscape:connector-curvature="0"
       transform="translate(0,-364.96063)" />
    <path
       style="fill:#ff0000;fill-opacity:0.19607843;stroke:none;stroke-width:0.1;stroke-miterlimit:4;stroke-dasharray:none;stroke-dashoffset:0;stroke-opacity:1"
       d="m 1515.0211,538.10513 87.5529,-159.97461 267.6793,-0.0254 267.6794,-0.0254 165.1778,148.89719 c 90.8478,81.89345 170.3017,153.89339 176.5643,159.99999 l 11.3866,11.1028 -531.7966,0 -531.7965,0 87.5528,-159.97458 z"
       id="path4421"
       inkscape:connector-curvature="0" />
    <path
       style="fill:#00c8ff;fill-opacity:1;stroke:none;stroke-width:0.1;stroke-miterlimit:4;stroke-dasharray:none;stroke-dashoffset:0;stroke-opacity:1"
       d="m 2322.5363,535.07578 -173.7384,-156.83568 173.6137,-0.36286 c 95.4875,-0.19957 173.8333,-0.14315 174.1018,0.12537 0.2686,0.26852 0.3247,71.00787 0.1248,157.19855 l -0.3635,156.71035 -173.7384,-156.83573 z"
       id="path4425"
       inkscape:connector-curvature="0" />
    <path
       style="fill:#ffff00;fill-opacity:1;stroke:none;stroke-width:0.1;stroke-miterlimit:4;stroke-dasharray:none;stroke-dashoffset:0;stroke-opacity:1"
       d="m 1412.9672,538.43647 0,-159.75224 90.1197,0 c 71.2841,0 89.9101,0.52782 89.1165,2.52538 -0.5518,1.38896 -39.6011,72.98352 -86.7762,159.09902 -53.4869,97.63729 -87.0315,156.81948 -89.1165,157.22688 -3.0884,0.6034 -3.3435,-11.5327 -3.3435,-159.09904 z"
       id="path4427"
       inkscape:connector-curvature="0" />
    <text
       xml:space="preserve"
       style="font-style:normal;font-weight:normal;font-size:40px;line-height:125%;font-family:sans-serif;letter-spacing:0px;word-spacing:0px;fill:#000000;fill-opacity:1;stroke:none;stroke-width:1px;stroke-linecap:butt;stroke-linejoin:miter;stroke-opacity:1"
       x="520"
       y="732.36212"
       id="text4429"
       sodipodi:linespacing="125%"><tspan
         sodipodi:role="line"
         id="tspan4431"
         x="520"
         y="732.36212" /></text>
    <path
       style="fill:none;fill-rule:evenodd;stroke:#000000;stroke-width:10;stroke-linecap:butt;stroke-linejoin:miter;stroke-miterlimit:4;stroke-dasharray:none;stroke-opacity:1"
       d="m 1350,722.36218 0,-799.999993"
       id="path4475"
       inkscape:connector-curvature="0" />
    <circle
       style="fill:#000000;fill-opacity:1;stroke:none;stroke-width:10;stroke-miterlimit:4;stroke-dasharray:none;stroke-dashoffset:0;stroke-opacity:1"
       id="path4241"
       cx="154.89845"
       cy="693.65167"
       r="15" />
    <circle
       style="fill:#000000;fill-opacity:1;stroke:none;stroke-width:10;stroke-miterlimit:4;stroke-dasharray:none;stroke-dashoffset:0;stroke-opacity:1"
       id="path4241-0"
       cx="342.48224"
       cy="372.11859"
       r="15" />
    <circle
       style="fill:#000000;fill-opacity:1;stroke:none;stroke-width:10;stroke-miterlimit:4;stroke-dasharray:none;stroke-dashoffset:0;stroke-opacity:1"
       id="path4241-5"
       cx="520.85785"
       cy="51.402805"
       r="15" />
    <circle
       style="fill:#000000;fill-opacity:1;stroke:none;stroke-width:10;stroke-miterlimit:4;stroke-dasharray:none;stroke-dashoffset:0;stroke-opacity:1"
       id="path4241-7"
       cx="879.18414"
       cy="375.08023"
       r="15" />
    <circle
       style="fill:#000000;fill-opacity:1;stroke:none;stroke-width:10;stroke-miterlimit:4;stroke-dasharray:none;stroke-dashoffset:0;stroke-opacity:1"
       id="path4241-8"
       cx="524.89844"
       cy="369.36597"
       r="15" />
    <circle
       style="fill:#000000;fill-opacity:1;stroke:none;stroke-width:10;stroke-miterlimit:4;stroke-dasharray:none;stroke-dashoffset:0;stroke-opacity:1"
       id="path4241-6"
       cx="1240.6127"
       cy="692.22308"
       r="15" />
    <text
       xml:space="preserve"
       style="font-style:normal;font-weight:normal;font-size:89.99999237px;line-height:125%;font-family:sans-serif;letter-spacing:0px;word-spacing:0px;fill:#000000;fill-opacity:1;stroke:none;stroke-width:1px;stroke-linecap:butt;stroke-linejoin:miter;stroke-opacity:1"
       x="92.857124"
       y="703.79083"
       id="text4169-4"
       sodipodi:linespacing="125%"><tspan
         sodipodi:role="line"
         id="tspan4171-3"
         x="92.857124"
         y="703.79083"
         style="font-size:65px">B</tspan></text>
    <text
       xml:space="preserve"
       style="font-style:normal;font-weight:normal;font-size:89.99999237px;line-height:125%;font-family:sans-serif;letter-spacing:0px;word-spacing:0px;fill:#000000;fill-opacity:1;stroke:none;stroke-width:1px;stroke-linecap:butt;stroke-linejoin:miter;stroke-opacity:1"
       x="1258.5714"
       y="699.50507"
       id="text4169-8"
       sodipodi:linespacing="125%"><tspan
         sodipodi:role="line"
         id="tspan4171-2"
         x="1258.5714"
         y="699.50507"
         style="font-size:65px">C</tspan></text>
    <text
       xml:space="preserve"
       style="font-style:normal;font-weight:normal;font-size:89.99999237px;line-height:125%;font-family:sans-serif;letter-spacing:0px;word-spacing:0px;fill:#000000;fill-opacity:1;stroke:none;stroke-width:1px;stroke-linecap:butt;stroke-linejoin:miter;stroke-opacity:1"
       x="350"
       y="433.79083"
       id="text4169-2"
       sodipodi:linespacing="125%"><tspan
         sodipodi:role="line"
         id="tspan4171-6"
         x="350"
         y="433.79083"
         style="font-size:65px">D</tspan></text>
    <text
       xml:space="preserve"
       style="font-style:normal;font-weight:normal;font-size:89.99999237px;line-height:125%;font-family:sans-serif;letter-spacing:0px;word-spacing:0px;fill:#000000;fill-opacity:1;stroke:none;stroke-width:1px;stroke-linecap:butt;stroke-linejoin:miter;stroke-opacity:1"
       x="528.57141"
       y="436.64795"
       id="text4169-44"
       sodipodi:linespacing="125%"><tspan
         sodipodi:role="line"
         id="tspan4171-7"
         x="528.57141"
         y="436.64795"
         style="font-size:65px">E</tspan></text>
    <text
       xml:space="preserve"
       style="font-style:normal;font-weight:normal;font-size:89.99999237px;line-height:125%;font-family:sans-serif;letter-spacing:0px;word-spacing:0px;fill:#000000;fill-opacity:1;stroke:none;stroke-width:1px;stroke-linecap:butt;stroke-linejoin:miter;stroke-opacity:1"
       x="827.14282"
       y="429.5051"
       id="text4169-5"
       sodipodi:linespacing="125%"><tspan
         sodipodi:role="line"
         id="tspan4171-1"
         x="827.14282"
         y="429.5051"
         style="font-size:65px">F</tspan></text>
    <circle
       style="fill:#000000;fill-opacity:1;stroke:none;stroke-width:10;stroke-miterlimit:4;stroke-dasharray:none;stroke-dashoffset:0;stroke-opacity:1"
       id="path4241-0-6"
       cx="149.62509"
       cy="373.54715"
       r="15" />
    <circle
       style="fill:#000000;fill-opacity:1;stroke:none;stroke-width:10;stroke-miterlimit:4;stroke-dasharray:none;stroke-dashoffset:0;stroke-opacity:1"
       id="path4241-0-4"
       cx="1239.6251"
       cy="372.11859"
       r="15" />
    <text
       xml:space="preserve"
       style="font-style:normal;font-weight:normal;font-size:89.99999237px;line-height:125%;font-family:sans-serif;letter-spacing:0px;word-spacing:0px;fill:#000000;fill-opacity:1;stroke:none;stroke-width:1px;stroke-linecap:butt;stroke-linejoin:miter;stroke-opacity:1"
       x="82.857147"
       y="385.21939"
       id="text4169-2-0"
       sodipodi:linespacing="125%"><tspan
         sodipodi:role="line"
         id="tspan4171-6-4"
         x="82.857147"
         y="385.21939"
         style="font-size:65px">G</tspan></text>
    <text
       xml:space="preserve"
       style="font-style:normal;font-weight:normal;font-size:89.99999237px;line-height:125%;font-family:sans-serif;letter-spacing:0px;word-spacing:0px;fill:#000000;fill-opacity:1;stroke:none;stroke-width:1px;stroke-linecap:butt;stroke-linejoin:miter;stroke-opacity:1"
       x="1257.1428"
       y="395.21942"
       id="text4169-2-4"
       sodipodi:linespacing="125%"><tspan
         sodipodi:role="line"
         id="tspan4171-6-6"
         x="1257.1428"
         y="395.21942"
         style="font-size:65px">H</tspan></text>
  </g>
</svg>
