<?xml version="1.0" encoding="UTF-8" standalone="no"?>
<!-- Created with Inkscape (http://www.inkscape.org/) -->

<svg
   xmlns:dc="http://purl.org/dc/elements/1.1/"
   xmlns:cc="http://creativecommons.org/ns#"
   xmlns:rdf="http://www.w3.org/1999/02/22-rdf-syntax-ns#"
   xmlns:svg="http://www.w3.org/2000/svg"
   xmlns="http://www.w3.org/2000/svg"
   xmlns:sodipodi="http://sodipodi.sourceforge.net/DTD/sodipodi-0.dtd"
   xmlns:inkscape="http://www.inkscape.org/namespaces/inkscape"
   width="316.80078"
   height="297.95703"
   viewBox="0 0 316.80077 297.95702"
   id="svg2"
   version="1.1"
   inkscape:version="0.91 r13725"
   sodipodi:docname="ConvexPolygonCastLines2.svg"
   inkscape:export-filename="/media/ExtraDrive/Dropbox/LogbookOrganizer/COMPSCI290/Lectures/4_NormalsPlanesInterior/PointOutsideArea.png"
   inkscape:export-xdpi="142.05"
   inkscape:export-ydpi="142.05">
  <defs
     id="defs4">
    <inkscape:perspective
       sodipodi:type="inkscape:persp3d"
       inkscape:vp_x="0 : 148.97851 : 1"
       inkscape:vp_y="0 : 1000 : 0"
       inkscape:vp_z="316.80077 : 148.97851 : 1"
       inkscape:persp3d-origin="158.40038 : 99.319007 : 1"
       id="perspective4232" />
    <marker
       inkscape:stockid="Arrow1Lend"
       orient="auto"
       refY="0"
       refX="0"
       id="marker6655"
       style="overflow:visible"
       inkscape:isstock="true">
      <path
         id="path6657"
         d="M 0,0 5,-5 -12.5,0 5,5 0,0 Z"
         style="fill:#000000;fill-opacity:1;fill-rule:evenodd;stroke:#000000;stroke-width:1pt;stroke-opacity:1"
         transform="matrix(-0.8,0,0,-0.8,-10,0)"
         inkscape:connector-curvature="0" />
    </marker>
    <marker
       inkscape:stockid="Arrow1Lstart"
       orient="auto"
       refY="0"
       refX="0"
       id="Arrow1Lstart"
       style="overflow:visible"
       inkscape:isstock="true">
      <path
         id="path4165"
         d="M 0,0 5,-5 -12.5,0 5,5 0,0 Z"
         style="fill:#000000;fill-opacity:1;fill-rule:evenodd;stroke:#000000;stroke-width:1pt;stroke-opacity:1"
         transform="matrix(0.8,0,0,0.8,10,0)"
         inkscape:connector-curvature="0" />
    </marker>
    <marker
       inkscape:stockid="Arrow1Lend"
       orient="auto"
       refY="0"
       refX="0"
       id="Arrow1Lend"
       style="overflow:visible"
       inkscape:isstock="true">
      <path
         id="path4168"
         d="M 0,0 5,-5 -12.5,0 5,5 0,0 Z"
         style="fill:#000000;fill-opacity:1;fill-rule:evenodd;stroke:#000000;stroke-width:1pt;stroke-opacity:1"
         transform="matrix(-0.8,0,0,-0.8,-10,0)"
         inkscape:connector-curvature="0" />
    </marker>
    <marker
       inkscape:isstock="true"
       style="overflow:visible"
       id="marker4373-6"
       refX="0"
       refY="0"
       orient="auto"
       inkscape:stockid="Arrow1Lend">
      <path
         inkscape:connector-curvature="0"
         transform="matrix(-0.8,0,0,-0.8,-10,0)"
         style="fill:#000000;fill-opacity:1;fill-rule:evenodd;stroke:#000000;stroke-width:1pt;stroke-opacity:1"
         d="M 0,0 5,-5 -12.5,0 5,5 0,0 Z"
         id="path4375-3" />
    </marker>
    <marker
       inkscape:isstock="true"
       style="overflow:visible"
       id="marker4373-6-0"
       refX="0"
       refY="0"
       orient="auto"
       inkscape:stockid="Arrow1Lend">
      <path
         inkscape:connector-curvature="0"
         transform="matrix(-0.8,0,0,-0.8,-10,0)"
         style="fill:#000000;fill-opacity:1;fill-rule:evenodd;stroke:#000000;stroke-width:1pt;stroke-opacity:1"
         d="M 0,0 5,-5 -12.5,0 5,5 0,0 Z"
         id="path4375-3-8" />
    </marker>
    <marker
       inkscape:isstock="true"
       style="overflow:visible"
       id="marker4373-6-2"
       refX="0"
       refY="0"
       orient="auto"
       inkscape:stockid="Arrow1Lend">
      <path
         inkscape:connector-curvature="0"
         transform="matrix(-0.8,0,0,-0.8,-10,0)"
         style="fill:#000000;fill-opacity:1;fill-rule:evenodd;stroke:#000000;stroke-width:1pt;stroke-opacity:1"
         d="M 0,0 5,-5 -12.5,0 5,5 0,0 Z"
         id="path4375-3-3" />
    </marker>
  </defs>
  <sodipodi:namedview
     id="base"
     pagecolor="#ffffff"
     bordercolor="#666666"
     borderopacity="1.0"
     inkscape:pageopacity="0.0"
     inkscape:pageshadow="2"
     inkscape:zoom="2.0000001"
     inkscape:cx="128.29391"
     inkscape:cy="158.63259"
     inkscape:document-units="px"
     inkscape:current-layer="layer1"
     showgrid="true"
     inkscape:window-width="1678"
     inkscape:window-height="754"
     inkscape:window-x="2057"
     inkscape:window-y="170"
     inkscape:window-maximized="0"
     fit-margin-top="0"
     fit-margin-left="0"
     fit-margin-right="0"
     fit-margin-bottom="0"
     units="px">
    <inkscape:grid
       type="xygrid"
       id="grid4209"
       originx="-90.186978"
       originy="-276.33139" />
  </sodipodi:namedview>
  <metadata
     id="metadata7">
    <rdf:RDF>
      <cc:Work
         rdf:about="">
        <dc:format>image/svg+xml</dc:format>
        <dc:type
           rdf:resource="http://purl.org/dc/dcmitype/StillImage" />
        <dc:title></dc:title>
      </cc:Work>
    </rdf:RDF>
  </metadata>
  <g
     inkscape:groupmode="layer"
     id="layer2"
     inkscape:label="Layer 2"
     transform="translate(-90.186981,-25.711569)" />
  <g
     inkscape:label="Layer 1"
     inkscape:groupmode="layer"
     id="layer1"
     transform="translate(-176.60439,-286.43921)">
    <path
       style="fill:#ff00ff;fill-opacity:1;stroke:#000000;stroke-width:0.53850001;stroke-miterlimit:4;stroke-dasharray:none;stroke-dashoffset:0;stroke-opacity:1"
       d=""
       id="path4243"
       inkscape:connector-curvature="0"
       transform="translate(176.60439,286.43921)" />
    <ellipse
       style="fill:#000000;fill-opacity:1;stroke:#000000;stroke-width:0.26796043;stroke-miterlimit:4;stroke-dasharray:none;stroke-dashoffset:0;stroke-opacity:1"
       id="path4226-3-7"
       cx="196.79466"
       cy="405.25525"
       rx="1.8660198"
       ry="1.8660197" />
    <ellipse
       style="fill:#000000;fill-opacity:1;stroke:#000000;stroke-width:0.26796043;stroke-miterlimit:4;stroke-dasharray:none;stroke-dashoffset:0;stroke-opacity:1"
       id="path4226-3-7-7"
       cx="207.04466"
       cy="375.13025"
       rx="1.8660198"
       ry="1.8660197" />
    <ellipse
       style="fill:#000000;fill-opacity:1;stroke:#000000;stroke-width:0.26796043;stroke-miterlimit:4;stroke-dasharray:none;stroke-dashoffset:0;stroke-opacity:1"
       id="path4226-3-7-2"
       cx="226.60716"
       cy="345.19275"
       rx="1.8660198"
       ry="1.8660197" />
    <ellipse
       style="fill:#000000;fill-opacity:1;stroke:#000000;stroke-width:0.26796043;stroke-miterlimit:4;stroke-dasharray:none;stroke-dashoffset:0;stroke-opacity:1"
       id="path4226-3-7-75"
       cx="246.60716"
       cy="325.38025"
       rx="1.8660198"
       ry="1.8660197" />
    <ellipse
       style="fill:#000000;fill-opacity:1;stroke:#000000;stroke-width:0.26796043;stroke-miterlimit:4;stroke-dasharray:none;stroke-dashoffset:0;stroke-opacity:1"
       id="path4226-3-7-0"
       cx="266.60715"
       cy="315.44275"
       rx="1.8660198"
       ry="1.8660197" />
    <ellipse
       style="fill:#000000;fill-opacity:1;stroke:#000000;stroke-width:0.26796043;stroke-miterlimit:4;stroke-dasharray:none;stroke-dashoffset:0;stroke-opacity:1"
       id="path4226-3-7-3"
       cx="297.29465"
       cy="310.00525"
       rx="1.8660198"
       ry="1.8660197" />
    <ellipse
       style="fill:#000000;fill-opacity:1;stroke:#000000;stroke-width:0.26796043;stroke-miterlimit:4;stroke-dasharray:none;stroke-dashoffset:0;stroke-opacity:1"
       id="path4226-3-7-4"
       cx="324.04465"
       cy="308.50525"
       rx="1.8660198"
       ry="1.8660197" />
    <ellipse
       style="fill:#000000;fill-opacity:1;stroke:#000000;stroke-width:0.26796043;stroke-miterlimit:4;stroke-dasharray:none;stroke-dashoffset:0;stroke-opacity:1"
       id="path4226-3-7-9"
       cx="374.54465"
       cy="309.25525"
       rx="1.8660198"
       ry="1.8660197" />
    <ellipse
       style="fill:#000000;fill-opacity:1;stroke:#000000;stroke-width:0.26796043;stroke-miterlimit:4;stroke-dasharray:none;stroke-dashoffset:0;stroke-opacity:1"
       id="path4226-3-7-5"
       cx="407.79465"
       cy="311.25525"
       rx="1.8660198"
       ry="1.8660197" />
    <ellipse
       style="fill:#000000;fill-opacity:1;stroke:#000000;stroke-width:0.26796043;stroke-miterlimit:4;stroke-dasharray:none;stroke-dashoffset:0;stroke-opacity:1"
       id="path4226-3-7-33"
       cx="453.29465"
       cy="324.25525"
       rx="1.8660198"
       ry="1.8660197" />
    <ellipse
       style="fill:#000000;fill-opacity:1;stroke:#000000;stroke-width:0.26796043;stroke-miterlimit:4;stroke-dasharray:none;stroke-dashoffset:0;stroke-opacity:1"
       id="path4226-3-7-6"
       cx="471.5434"
       cy="361.96487"
       rx="1.8660198"
       ry="1.8660197" />
    <ellipse
       style="fill:#000000;fill-opacity:1;stroke:#000000;stroke-width:0.26796043;stroke-miterlimit:4;stroke-dasharray:none;stroke-dashoffset:0;stroke-opacity:1"
       id="path4226-3-7-43"
       cx="474.57281"
       cy="385.19177"
       rx="1.8660198"
       ry="1.8660197" />
    <ellipse
       style="fill:#000000;fill-opacity:1;stroke:#000000;stroke-width:0.26796043;stroke-miterlimit:4;stroke-dasharray:none;stroke-dashoffset:0;stroke-opacity:1"
       id="path4226-3-7-68"
       cx="466.97144"
       cy="429.59048"
       rx="1.8660198"
       ry="1.8660197" />
    <ellipse
       style="fill:#000000;fill-opacity:1;stroke:#000000;stroke-width:0.26796043;stroke-miterlimit:4;stroke-dasharray:none;stroke-dashoffset:0;stroke-opacity:1"
       id="path4226-3-7-21"
       cx="450.935"
       cy="470.17465"
       rx="1.8660198"
       ry="1.8660197" />
    <ellipse
       style="fill:#000000;fill-opacity:1;stroke:#000000;stroke-width:0.26796043;stroke-miterlimit:4;stroke-dasharray:none;stroke-dashoffset:0;stroke-opacity:1"
       id="path4226-3-7-8"
       cx="425.22791"
       cy="510.93024"
       rx="1.8660198"
       ry="1.8660197" />
    <ellipse
       style="fill:#000000;fill-opacity:1;stroke:#000000;stroke-width:0.26796043;stroke-miterlimit:4;stroke-dasharray:none;stroke-dashoffset:0;stroke-opacity:1"
       id="path4226-3-7-44"
       cx="387.79465"
       cy="533.75525"
       rx="1.8660198"
       ry="1.8660197" />
    <ellipse
       style="fill:#000000;fill-opacity:1;stroke:#000000;stroke-width:0.26796043;stroke-miterlimit:4;stroke-dasharray:none;stroke-dashoffset:0;stroke-opacity:1"
       id="path4226-3-7-63"
       cx="355.29465"
       cy="546.25525"
       rx="1.8660198"
       ry="1.8660197" />
    <ellipse
       style="fill:#000000;fill-opacity:1;stroke:#000000;stroke-width:0.26796043;stroke-miterlimit:4;stroke-dasharray:none;stroke-dashoffset:0;stroke-opacity:1"
       id="path4226-3-7-34"
       cx="318.29465"
       cy="548.25525"
       rx="1.8660198"
       ry="1.8660197" />
    <ellipse
       style="fill:#000000;fill-opacity:1;stroke:#000000;stroke-width:0.26796043;stroke-miterlimit:4;stroke-dasharray:none;stroke-dashoffset:0;stroke-opacity:1"
       id="path4226-3-7-46"
       cx="286.29465"
       cy="542.00525"
       rx="1.8660198"
       ry="1.8660197" />
    <ellipse
       style="fill:#000000;fill-opacity:1;stroke:#000000;stroke-width:0.26796043;stroke-miterlimit:4;stroke-dasharray:none;stroke-dashoffset:0;stroke-opacity:1"
       id="path4226-3-7-49"
       cx="240.04465"
       cy="529.50525"
       rx="1.8660198"
       ry="1.8660197" />
    <ellipse
       style="fill:#000000;fill-opacity:1;stroke:#000000;stroke-width:0.26796043;stroke-miterlimit:4;stroke-dasharray:none;stroke-dashoffset:0;stroke-opacity:1"
       id="path4226-3-7-91"
       cx="186.79465"
       cy="470.75525"
       rx="1.8660198"
       ry="1.8660197" />
    <path
       style="fill:none;fill-rule:evenodd;stroke:#ff0000;stroke-width:2;stroke-linecap:butt;stroke-linejoin:miter;stroke-opacity:1;stroke-miterlimit:4;stroke-dasharray:none"
       d="m 355.41741,545.72764 33,-12 37,-23 26,-41"
       id="path4388"
       inkscape:connector-curvature="0" />
    <path
       style="fill:none;fill-rule:evenodd;stroke:#ff0000;stroke-width:2;stroke-linecap:butt;stroke-linejoin:miter;stroke-opacity:1;stroke-miterlimit:4;stroke-dasharray:none"
       d="m 451.41741,469.72764 16,-40 7,-45 -3,-23 -18,-37 -46,-13"
       id="path4390"
       inkscape:connector-curvature="0" />
    <path
       style="fill:none;fill-rule:evenodd;stroke:#000000;stroke-width:1px;stroke-linecap:butt;stroke-linejoin:miter;stroke-opacity:1"
       d="m 408.41741,311.72764 -34,-3 -50,0 -27,1 -31,6 -20,10 -19,20"
       id="path4392"
       inkscape:connector-curvature="0" />
    <path
       style="fill:none;fill-rule:evenodd;stroke:#000000;stroke-width:1px;stroke-linecap:butt;stroke-linejoin:miter;stroke-opacity:1"
       d="m 227.41741,344.72764 -20,31"
       id="path4394"
       inkscape:connector-curvature="0" />
    <path
       style="fill:none;fill-rule:evenodd;stroke:#000000;stroke-width:1px;stroke-linecap:butt;stroke-linejoin:miter;stroke-opacity:1"
       d="m 207.41741,374.72764 -11,30 -9,66"
       id="path4396"
       inkscape:connector-curvature="0" />
    <path
       style="fill:none;fill-rule:evenodd;stroke:#ff0000;stroke-width:2;stroke-linecap:butt;stroke-linejoin:miter;stroke-opacity:1;stroke-miterlimit:4;stroke-dasharray:none"
       d="m 187.41741,470.72764 53,59"
       id="path4398"
       inkscape:connector-curvature="0" />
    <path
       style="fill:none;fill-rule:evenodd;stroke:#ff0000;stroke-width:2;stroke-linecap:butt;stroke-linejoin:miter;stroke-opacity:1;stroke-miterlimit:4;stroke-dasharray:none"
       d="m 241.41741,530.72764 45,11 32,7"
       id="path4400"
       inkscape:connector-curvature="0" />
    <path
       style="fill:none;fill-rule:evenodd;stroke:#ff0000;stroke-width:2;stroke-linecap:butt;stroke-linejoin:miter;stroke-opacity:1;stroke-miterlimit:4;stroke-dasharray:none"
       d="m 318.41741,548.72764 37,-2"
       id="path4402"
       inkscape:connector-curvature="0" />
    <path
       style="fill:none;fill-rule:evenodd;stroke:#000000;stroke-width:3;stroke-linecap:butt;stroke-linejoin:miter;stroke-opacity:1;stroke-miterlimit:4;stroke-dasharray:none"
       d="m 186.41741,290.72764 0,290"
       id="path4404"
       inkscape:connector-curvature="0" />
    <path
       style="fill:none;fill-rule:evenodd;stroke:#000000;stroke-width:3;stroke-linecap:butt;stroke-linejoin:miter;stroke-miterlimit:4;stroke-dasharray:none;stroke-opacity:1"
       d="m 475.52,289.11599 0,290"
       id="path4404-1"
       inkscape:connector-curvature="0" />
    <circle
       style="fill:#000000;fill-opacity:1;stroke:#000000;stroke-width:0.66990113;stroke-miterlimit:4;stroke-dasharray:none;stroke-dashoffset:0;stroke-opacity:1"
       id="path4226-3-2"
       cx="187.31543"
       cy="468.41443"
       r="4.6650496" />
    <circle
       style="fill:#000000;fill-opacity:1;stroke:#000000;stroke-width:0.66990113;stroke-miterlimit:4;stroke-dasharray:none;stroke-dashoffset:0;stroke-opacity:1"
       id="path4226-3-2-1"
       cx="475.69662"
       cy="384.87534"
       r="4.6650496" />
    <path
       style="fill:none;fill-rule:evenodd;stroke:#000000;stroke-width:3;stroke-linecap:butt;stroke-linejoin:miter;stroke-miterlimit:4;stroke-dasharray:6,3;stroke-opacity:1;stroke-dashoffset:0"
       d="m 260.15752,290.63071 0,290"
       id="path4404-8"
       inkscape:connector-curvature="0" />
    <path
       style="fill:none;fill-rule:evenodd;stroke:#0000ff;stroke-width:2;stroke-linecap:butt;stroke-linejoin:miter;stroke-opacity:1;stroke-miterlimit:4;stroke-dasharray:none"
       d="m 186.41741,470.72764 10,-65"
       id="path4234"
       inkscape:connector-curvature="0" />
    <path
       style="fill:none;fill-rule:evenodd;stroke:#0000ff;stroke-width:2;stroke-linecap:butt;stroke-linejoin:miter;stroke-opacity:1;stroke-miterlimit:4;stroke-dasharray:none"
       d="m 196.41741,405.72764 10,-30 20,-30 20,-20 20,-10"
       id="path4236"
       inkscape:connector-curvature="0" />
    <path
       style="fill:none;fill-rule:evenodd;stroke:#0000ff;stroke-width:2;stroke-linecap:butt;stroke-linejoin:miter;stroke-opacity:1;stroke-miterlimit:4;stroke-dasharray:none"
       d="m 266.41741,315.72764 31,-6"
       id="path4242"
       inkscape:connector-curvature="0" />
    <path
       style="fill:none;fill-rule:evenodd;stroke:#0000ff;stroke-width:2;stroke-linecap:butt;stroke-linejoin:miter;stroke-opacity:1;stroke-miterlimit:4;stroke-dasharray:none"
       d="m 297.41741,309.72764 27,-1 50,0 34,3 45,13 18,37 3,24"
       id="path4244"
       inkscape:connector-curvature="0" />
    <circle
       style="fill:#ff00ff;fill-opacity:1;stroke:#000000;stroke-width:1.07700002;stroke-miterlimit:4;stroke-dasharray:none;stroke-dashoffset:0;stroke-opacity:1"
       id="path4226-3"
       cx="261.77173"
       cy="406.1835"
       r="7.5" />
    <path
       style="fill:none;fill-rule:evenodd;stroke:#000000;stroke-width:3.05128574;stroke-linecap:butt;stroke-linejoin:miter;stroke-miterlimit:4;stroke-dasharray:none;stroke-dashoffset:0;stroke-opacity:1"
       d="m 297.15752,285.13071 0,300"
       id="path4404-8-3"
       inkscape:connector-curvature="0" />
    <path
       style="fill:none;fill-rule:evenodd;stroke:#000000;stroke-width:3.05128574;stroke-linecap:butt;stroke-linejoin:miter;stroke-miterlimit:4;stroke-dasharray:none;stroke-dashoffset:0;stroke-opacity:1"
       d="m 225.65752,283.63071 0,300"
       id="path4404-8-3-4"
       inkscape:connector-curvature="0" />
    <path
       style="fill:#e9afaf;fill-opacity:1;stroke:#ff0000;stroke-width:1.5;stroke-miterlimit:4;stroke-dasharray:none;stroke-dashoffset:0;stroke-opacity:1"
       d="m 115.14391,255.2414 c -1.65,-0.38485 -3.3907,-0.92861 -3.86822,-1.20835 -0.47752,-0.27974 -1.49002,-0.51269 -2.25,-0.51767 -2.24157,-0.0147 -23.330833,-5.3381 -23.531421,-5.93986 -0.101032,-0.30309 -1.112149,-0.55108 -2.246928,-0.55108 -1.134778,0 -5.527929,-0.83704 -9.762558,-1.86008 -6.681118,-1.61408 -7.75664,-2.01082 -8.132724,-3 -0.23837,-0.62696 -0.757168,-1.13992 -1.152885,-1.13992 -0.395716,0 -3.551285,-3.12868 -7.012375,-6.95262 l -6.29289,-6.95261 0,-83.06848 c 0,-65.705056 0.13064,-83.231691 0.625,-83.849251 4.665792,-5.828573 17.896927,-19.177034 19.008477,-19.177034 0.493849,0 1.032184,-0.349921 1.1963,-0.777601 0.164117,-0.427681 2.519555,-1.892232 5.234308,-3.254559 l 4.935914,-2.476957 0,1.504558 c 0,1.386162 0.13771,1.504559 1.75,1.504559 l 1.75,0 0,-2.407394 c 0,-2.26342 0.105672,-2.457785 1.766963,-3.25 0.97183,-0.463433 2.27683,-0.842606 2.9,-0.842606 0.62317,0 1.346786,-0.209299 1.608036,-0.465109 0.370664,-0.362946 25.501543,-5.534891 26.894453,-5.534891 0.1818,0 0.33055,51.974999 0.33055,115.499995 0,63.525 -0.16875,115.48125 -0.375,115.45834 -0.20625,-0.0229 -1.725,-0.35653 -3.375,-0.74138 z m -29.750002,-13.96696 0,-3.25 -1.75,0 -1.75,0 0,3.25 0,3.25 1.75,0 1.75,0 0,-3.25 z m 0,-9 0,-3.25 -1.75,0 -1.75,0 0,3.25 0,3.25 1.75,0 1.75,0 0,-3.25 z m 0,-9 0,-3.25 -1.75,0 -1.75,0 0,3.25 0,3.25 1.75,0 1.75,0 0,-3.25 z m 0,-9 0,-3.25 -1.75,0 -1.75,0 0,3.25 0,3.25 1.75,0 1.75,0 0,-3.25 z m 0,-9 0,-3.25 -1.75,0 -1.75,0 0,3.25 0,3.25 1.75,0 1.75,0 0,-3.25 z m 0,-9 0,-3.25 -1.75,0 -1.75,0 0,3.25 0,3.25 1.75,0 1.75,0 0,-3.25 z m 0,-9 0,-3.25 -1.75,0 -1.75,0 0,3.25 0,3.25 1.75,0 1.75,0 0,-3.25 z m 0,-9 0,-3.25 -1.75,0 -1.75,0 0,3.25 0,3.25 1.75,0 1.75,0 0,-3.25 z m 0,-9 0,-3.25 -1.75,0 -1.75,0 0,3.25 0,3.25 1.75,0 1.75,0 0,-3.25 z m 0,-9 0,-3.25 -1.75,0 -1.75,0 0,3.25 0,3.25 1.75,0 1.75,0 0,-3.25 z m 0,-9 0,-3.25 -1.75,0 -1.75,0 0,3.25 0,3.25 1.75,0 1.75,0 0,-3.25 z m 0,-9 0,-3.25 -1.75,0 -1.75,0 0,3.25 0,3.25 1.75,0 1.75,0 0,-3.25 z m 0,-9 0,-3.25 -1.75,0 -1.75,0 0,3.25 0,3.25 1.75,0 1.75,0 0,-3.25 z m 3.299465,-6.20271 c 3.097377,-1.40666 4.450534,-3.63719 4.450534,-7.33621 0,-2.52939 -0.225811,-3.33497 -1.346777,-4.80464 -3.81237,-4.99827 -11.413057,-4.29321 -13.950505,1.2941 -1.233326,2.7157 -1.188498,4.62001 0.172283,7.31852 0.821847,1.62977 1.726171,2.5341 3.355945,3.35594 2.698511,1.36078 4.602812,1.40561 7.31852,0.17229 z m -3.299465,-20.79729 0,-3.25 -1.75,0 -1.75,0 0,3.25 0,3.25 1.75,0 1.75,0 0,-3.25 z m 0,-8.999997 0,-3.25 -1.75,0 -1.75,0 0,3.25 0,3.249997 1.75,0 1.75,0 0,-3.249997 z m 0,-8.999999 0,-3.25 -1.75,0 -1.75,0 0,3.25 0,3.25 1.75,0 1.75,0 0,-3.25 z m 0,-9 0,-3.25 -1.75,0 -1.75,0 0,3.25 0,3.25 1.75,0 1.75,0 0,-3.25 z m 0,-9 0,-3.25 -1.75,0 -1.75,0 0,3.25 0,3.25 1.75,0 1.75,0 0,-3.25 z m 0,-9 0,-3.25 -1.75,0 -1.75,0 0,3.25 0,3.25 1.75,0 1.75,0 0,-3.25 z m 0,-8.999999 0,-3.25 -1.75,0 -1.75,0 0,3.25 0,3.249999 1.75,0 1.75,0 0,-3.249999 z m 0,-9 0,-3.25 -1.75,0 -1.75,0 0,3.25 0,3.25 1.75,0 1.75,0 0,-3.25 z"
       id="path4300"
       inkscape:connector-curvature="0"
       transform="translate(176.60439,286.43921)" />
  </g>
</svg>
