<?xml version="1.0" encoding="UTF-8" standalone="no"?>
<!-- Created with Inkscape (http://www.inkscape.org/) -->

<svg
   xmlns:dc="http://purl.org/dc/elements/1.1/"
   xmlns:cc="http://creativecommons.org/ns#"
   xmlns:rdf="http://www.w3.org/1999/02/22-rdf-syntax-ns#"
   xmlns:svg="http://www.w3.org/2000/svg"
   xmlns="http://www.w3.org/2000/svg"
   xmlns:sodipodi="http://sodipodi.sourceforge.net/DTD/sodipodi-0.dtd"
   xmlns:inkscape="http://www.inkscape.org/namespaces/inkscape"
   width="316.80078"
   height="297.95703"
   viewBox="0 0 316.80077 297.95702"
   id="svg2"
   version="1.1"
   inkscape:version="0.91 r13725"
   sodipodi:docname="ConvexPolygonCastLines3.svg"
   inkscape:export-filename="/media/ExtraDrive/Dropbox/LogbookOrganizer/COMPSCI290/Lectures/4_NormalsPlanesInterior/PointOutsideArea.png"
   inkscape:export-xdpi="142.05"
   inkscape:export-ydpi="142.05">
  <defs
     id="defs4">
    <inkscape:perspective
       sodipodi:type="inkscape:persp3d"
       inkscape:vp_x="0 : 148.97851 : 1"
       inkscape:vp_y="0 : 1000 : 0"
       inkscape:vp_z="316.80077 : 148.97851 : 1"
       inkscape:persp3d-origin="158.40038 : 99.319007 : 1"
       id="perspective4232" />
    <marker
       inkscape:stockid="Arrow1Lend"
       orient="auto"
       refY="0"
       refX="0"
       id="marker6655"
       style="overflow:visible"
       inkscape:isstock="true">
      <path
         id="path6657"
         d="M 0,0 5,-5 -12.5,0 5,5 0,0 Z"
         style="fill:#000000;fill-opacity:1;fill-rule:evenodd;stroke:#000000;stroke-width:1pt;stroke-opacity:1"
         transform="matrix(-0.8,0,0,-0.8,-10,0)"
         inkscape:connector-curvature="0" />
    </marker>
    <marker
       inkscape:stockid="Arrow1Lstart"
       orient="auto"
       refY="0"
       refX="0"
       id="Arrow1Lstart"
       style="overflow:visible"
       inkscape:isstock="true">
      <path
         id="path4165"
         d="M 0,0 5,-5 -12.5,0 5,5 0,0 Z"
         style="fill:#000000;fill-opacity:1;fill-rule:evenodd;stroke:#000000;stroke-width:1pt;stroke-opacity:1"
         transform="matrix(0.8,0,0,0.8,10,0)"
         inkscape:connector-curvature="0" />
    </marker>
    <marker
       inkscape:stockid="Arrow1Lend"
       orient="auto"
       refY="0"
       refX="0"
       id="Arrow1Lend"
       style="overflow:visible"
       inkscape:isstock="true">
      <path
         id="path4168"
         d="M 0,0 5,-5 -12.5,0 5,5 0,0 Z"
         style="fill:#000000;fill-opacity:1;fill-rule:evenodd;stroke:#000000;stroke-width:1pt;stroke-opacity:1"
         transform="matrix(-0.8,0,0,-0.8,-10,0)"
         inkscape:connector-curvature="0" />
    </marker>
    <marker
       inkscape:isstock="true"
       style="overflow:visible"
       id="marker4373-6"
       refX="0"
       refY="0"
       orient="auto"
       inkscape:stockid="Arrow1Lend">
      <path
         inkscape:connector-curvature="0"
         transform="matrix(-0.8,0,0,-0.8,-10,0)"
         style="fill:#000000;fill-opacity:1;fill-rule:evenodd;stroke:#000000;stroke-width:1pt;stroke-opacity:1"
         d="M 0,0 5,-5 -12.5,0 5,5 0,0 Z"
         id="path4375-3" />
    </marker>
    <marker
       inkscape:isstock="true"
       style="overflow:visible"
       id="marker4373-6-0"
       refX="0"
       refY="0"
       orient="auto"
       inkscape:stockid="Arrow1Lend">
      <path
         inkscape:connector-curvature="0"
         transform="matrix(-0.8,0,0,-0.8,-10,0)"
         style="fill:#000000;fill-opacity:1;fill-rule:evenodd;stroke:#000000;stroke-width:1pt;stroke-opacity:1"
         d="M 0,0 5,-5 -12.5,0 5,5 0,0 Z"
         id="path4375-3-8" />
    </marker>
    <marker
       inkscape:isstock="true"
       style="overflow:visible"
       id="marker4373-6-2"
       refX="0"
       refY="0"
       orient="auto"
       inkscape:stockid="Arrow1Lend">
      <path
         inkscape:connector-curvature="0"
         transform="matrix(-0.8,0,0,-0.8,-10,0)"
         style="fill:#000000;fill-opacity:1;fill-rule:evenodd;stroke:#000000;stroke-width:1pt;stroke-opacity:1"
         d="M 0,0 5,-5 -12.5,0 5,5 0,0 Z"
         id="path4375-3-3" />
    </marker>
  </defs>
  <sodipodi:namedview
     id="base"
     pagecolor="#ffffff"
     bordercolor="#666666"
     borderopacity="1.0"
     inkscape:pageopacity="0.0"
     inkscape:pageshadow="2"
     inkscape:zoom="1.0000001"
     inkscape:cx="-262.6604"
     inkscape:cy="113.36872"
     inkscape:document-units="px"
     inkscape:current-layer="layer1"
     showgrid="true"
     inkscape:window-width="1678"
     inkscape:window-height="754"
     inkscape:window-x="2057"
     inkscape:window-y="170"
     inkscape:window-maximized="0"
     fit-margin-top="0"
     fit-margin-left="0"
     fit-margin-right="0"
     fit-margin-bottom="0"
     units="px">
    <inkscape:grid
       type="xygrid"
       id="grid4209"
       originx="-90.186978"
       originy="-276.33139" />
  </sodipodi:namedview>
  <metadata
     id="metadata7">
    <rdf:RDF>
      <cc:Work
         rdf:about="">
        <dc:format>image/svg+xml</dc:format>
        <dc:type
           rdf:resource="http://purl.org/dc/dcmitype/StillImage" />
        <dc:title />
      </cc:Work>
    </rdf:RDF>
  </metadata>
  <g
     inkscape:groupmode="layer"
     id="layer2"
     inkscape:label="Layer 2"
     transform="translate(-90.186981,-25.711569)" />
  <g
     inkscape:label="Layer 1"
     inkscape:groupmode="layer"
     id="layer1"
     transform="translate(-176.60439,-286.43921)">
    <path
       style="fill:#ff00ff;fill-opacity:1;stroke:#000000;stroke-width:0.53850001;stroke-miterlimit:4;stroke-dasharray:none;stroke-dashoffset:0;stroke-opacity:1"
       d=""
       id="path4243"
       inkscape:connector-curvature="0"
       transform="translate(176.60439,286.43921)" />
    <ellipse
       style="fill:#000000;fill-opacity:1;stroke:#000000;stroke-width:0.26796043;stroke-miterlimit:4;stroke-dasharray:none;stroke-dashoffset:0;stroke-opacity:1"
       id="path4226-3-7"
       cx="196.79466"
       cy="405.25525"
       rx="1.8660198"
       ry="1.8660197" />
    <ellipse
       style="fill:#000000;fill-opacity:1;stroke:#000000;stroke-width:0.26796043;stroke-miterlimit:4;stroke-dasharray:none;stroke-dashoffset:0;stroke-opacity:1"
       id="path4226-3-7-7"
       cx="207.04466"
       cy="375.13025"
       rx="1.8660198"
       ry="1.8660197" />
    <ellipse
       style="fill:#000000;fill-opacity:1;stroke:#000000;stroke-width:0.26796043;stroke-miterlimit:4;stroke-dasharray:none;stroke-dashoffset:0;stroke-opacity:1"
       id="path4226-3-7-2"
       cx="226.60716"
       cy="345.19275"
       rx="1.8660198"
       ry="1.8660197" />
    <ellipse
       style="fill:#000000;fill-opacity:1;stroke:#000000;stroke-width:0.26796043;stroke-miterlimit:4;stroke-dasharray:none;stroke-dashoffset:0;stroke-opacity:1"
       id="path4226-3-7-75"
       cx="246.60716"
       cy="325.38025"
       rx="1.8660198"
       ry="1.8660197" />
    <ellipse
       style="fill:#000000;fill-opacity:1;stroke:#000000;stroke-width:0.26796043;stroke-miterlimit:4;stroke-dasharray:none;stroke-dashoffset:0;stroke-opacity:1"
       id="path4226-3-7-0"
       cx="266.60715"
       cy="315.44275"
       rx="1.8660198"
       ry="1.8660197" />
    <ellipse
       style="fill:#000000;fill-opacity:1;stroke:#000000;stroke-width:0.26796043;stroke-miterlimit:4;stroke-dasharray:none;stroke-dashoffset:0;stroke-opacity:1"
       id="path4226-3-7-3"
       cx="297.29465"
       cy="310.00525"
       rx="1.8660198"
       ry="1.8660197" />
    <ellipse
       style="fill:#000000;fill-opacity:1;stroke:#000000;stroke-width:0.26796043;stroke-miterlimit:4;stroke-dasharray:none;stroke-dashoffset:0;stroke-opacity:1"
       id="path4226-3-7-4"
       cx="324.04465"
       cy="308.50525"
       rx="1.8660198"
       ry="1.8660197" />
    <ellipse
       style="fill:#000000;fill-opacity:1;stroke:#000000;stroke-width:0.26796043;stroke-miterlimit:4;stroke-dasharray:none;stroke-dashoffset:0;stroke-opacity:1"
       id="path4226-3-7-9"
       cx="374.54465"
       cy="309.25525"
       rx="1.8660198"
       ry="1.8660197" />
    <ellipse
       style="fill:#000000;fill-opacity:1;stroke:#000000;stroke-width:0.26796043;stroke-miterlimit:4;stroke-dasharray:none;stroke-dashoffset:0;stroke-opacity:1"
       id="path4226-3-7-5"
       cx="407.79465"
       cy="311.25525"
       rx="1.8660198"
       ry="1.8660197" />
    <ellipse
       style="fill:#000000;fill-opacity:1;stroke:#000000;stroke-width:0.26796043;stroke-miterlimit:4;stroke-dasharray:none;stroke-dashoffset:0;stroke-opacity:1"
       id="path4226-3-7-33"
       cx="453.29465"
       cy="324.25525"
       rx="1.8660198"
       ry="1.8660197" />
    <ellipse
       style="fill:#000000;fill-opacity:1;stroke:#000000;stroke-width:0.26796043;stroke-miterlimit:4;stroke-dasharray:none;stroke-dashoffset:0;stroke-opacity:1"
       id="path4226-3-7-6"
       cx="471.5434"
       cy="361.96487"
       rx="1.8660198"
       ry="1.8660197" />
    <ellipse
       style="fill:#000000;fill-opacity:1;stroke:#000000;stroke-width:0.26796043;stroke-miterlimit:4;stroke-dasharray:none;stroke-dashoffset:0;stroke-opacity:1"
       id="path4226-3-7-43"
       cx="474.57281"
       cy="385.19177"
       rx="1.8660198"
       ry="1.8660197" />
    <ellipse
       style="fill:#000000;fill-opacity:1;stroke:#000000;stroke-width:0.26796043;stroke-miterlimit:4;stroke-dasharray:none;stroke-dashoffset:0;stroke-opacity:1"
       id="path4226-3-7-68"
       cx="466.97144"
       cy="429.59048"
       rx="1.8660198"
       ry="1.8660197" />
    <ellipse
       style="fill:#000000;fill-opacity:1;stroke:#000000;stroke-width:0.26796043;stroke-miterlimit:4;stroke-dasharray:none;stroke-dashoffset:0;stroke-opacity:1"
       id="path4226-3-7-21"
       cx="450.935"
       cy="470.17465"
       rx="1.8660198"
       ry="1.8660197" />
    <ellipse
       style="fill:#000000;fill-opacity:1;stroke:#000000;stroke-width:0.26796043;stroke-miterlimit:4;stroke-dasharray:none;stroke-dashoffset:0;stroke-opacity:1"
       id="path4226-3-7-8"
       cx="425.22791"
       cy="510.93024"
       rx="1.8660198"
       ry="1.8660197" />
    <ellipse
       style="fill:#000000;fill-opacity:1;stroke:#000000;stroke-width:0.26796043;stroke-miterlimit:4;stroke-dasharray:none;stroke-dashoffset:0;stroke-opacity:1"
       id="path4226-3-7-44"
       cx="387.79465"
       cy="533.75525"
       rx="1.8660198"
       ry="1.8660197" />
    <ellipse
       style="fill:#000000;fill-opacity:1;stroke:#000000;stroke-width:0.26796043;stroke-miterlimit:4;stroke-dasharray:none;stroke-dashoffset:0;stroke-opacity:1"
       id="path4226-3-7-63"
       cx="355.29465"
       cy="546.25525"
       rx="1.8660198"
       ry="1.8660197" />
    <ellipse
       style="fill:#000000;fill-opacity:1;stroke:#000000;stroke-width:0.26796043;stroke-miterlimit:4;stroke-dasharray:none;stroke-dashoffset:0;stroke-opacity:1"
       id="path4226-3-7-34"
       cx="318.29465"
       cy="548.25525"
       rx="1.8660198"
       ry="1.8660197" />
    <ellipse
       style="fill:#000000;fill-opacity:1;stroke:#000000;stroke-width:0.26796043;stroke-miterlimit:4;stroke-dasharray:none;stroke-dashoffset:0;stroke-opacity:1"
       id="path4226-3-7-46"
       cx="286.29465"
       cy="542.00525"
       rx="1.8660198"
       ry="1.8660197" />
    <ellipse
       style="fill:#000000;fill-opacity:1;stroke:#000000;stroke-width:0.26796043;stroke-miterlimit:4;stroke-dasharray:none;stroke-dashoffset:0;stroke-opacity:1"
       id="path4226-3-7-49"
       cx="240.04465"
       cy="529.50525"
       rx="1.8660198"
       ry="1.8660197" />
    <ellipse
       style="fill:#000000;fill-opacity:1;stroke:#000000;stroke-width:0.26796043;stroke-miterlimit:4;stroke-dasharray:none;stroke-dashoffset:0;stroke-opacity:1"
       id="path4226-3-7-91"
       cx="186.79465"
       cy="470.75525"
       rx="1.8660198"
       ry="1.8660197" />
    <path
       style="fill:none;fill-rule:evenodd;stroke:#ff0000;stroke-width:2;stroke-linecap:butt;stroke-linejoin:miter;stroke-opacity:1;stroke-miterlimit:4;stroke-dasharray:none"
       d="m 355.41741,545.72764 33,-12 37,-23 26,-41"
       id="path4388"
       inkscape:connector-curvature="0" />
    <path
       style="fill:none;fill-rule:evenodd;stroke:#ff0000;stroke-width:2;stroke-linecap:butt;stroke-linejoin:miter;stroke-opacity:1;stroke-miterlimit:4;stroke-dasharray:none"
       d="m 451.41741,469.72764 16,-40 7,-45 -3,-23 -18,-37 -46,-13"
       id="path4390"
       inkscape:connector-curvature="0" />
    <path
       style="fill:none;fill-rule:evenodd;stroke:#000000;stroke-width:1px;stroke-linecap:butt;stroke-linejoin:miter;stroke-opacity:1"
       d="m 408.41741,311.72764 -34,-3 -50,0 -27,1 -31,6 -20,10 -19,20"
       id="path4392"
       inkscape:connector-curvature="0" />
    <path
       style="fill:none;fill-rule:evenodd;stroke:#000000;stroke-width:1px;stroke-linecap:butt;stroke-linejoin:miter;stroke-opacity:1"
       d="m 227.41741,344.72764 -20,31"
       id="path4394"
       inkscape:connector-curvature="0" />
    <path
       style="fill:none;fill-rule:evenodd;stroke:#000000;stroke-width:1px;stroke-linecap:butt;stroke-linejoin:miter;stroke-opacity:1"
       d="m 207.41741,374.72764 -11,30 -9,66"
       id="path4396"
       inkscape:connector-curvature="0" />
    <path
       style="fill:none;fill-rule:evenodd;stroke:#ff0000;stroke-width:2;stroke-linecap:butt;stroke-linejoin:miter;stroke-opacity:1;stroke-miterlimit:4;stroke-dasharray:none"
       d="m 187.41741,470.72764 53,59"
       id="path4398"
       inkscape:connector-curvature="0" />
    <path
       style="fill:none;fill-rule:evenodd;stroke:#ff0000;stroke-width:2;stroke-linecap:butt;stroke-linejoin:miter;stroke-opacity:1;stroke-miterlimit:4;stroke-dasharray:none"
       d="m 241.41741,530.72764 45,11 32,7"
       id="path4400"
       inkscape:connector-curvature="0" />
    <path
       style="fill:none;fill-rule:evenodd;stroke:#ff0000;stroke-width:2;stroke-linecap:butt;stroke-linejoin:miter;stroke-opacity:1;stroke-miterlimit:4;stroke-dasharray:none"
       d="m 318.41741,548.72764 37,-2"
       id="path4402"
       inkscape:connector-curvature="0" />
    <path
       style="fill:none;fill-rule:evenodd;stroke:#000000;stroke-width:3;stroke-linecap:butt;stroke-linejoin:miter;stroke-opacity:1;stroke-miterlimit:4;stroke-dasharray:none"
       d="m 186.41741,290.72764 0,290"
       id="path4404"
       inkscape:connector-curvature="0" />
    <path
       style="fill:none;fill-rule:evenodd;stroke:#000000;stroke-width:3;stroke-linecap:butt;stroke-linejoin:miter;stroke-miterlimit:4;stroke-dasharray:none;stroke-opacity:1"
       d="m 475.52,289.11599 0,290"
       id="path4404-1"
       inkscape:connector-curvature="0" />
    <circle
       style="fill:#000000;fill-opacity:1;stroke:#000000;stroke-width:0.66990113;stroke-miterlimit:4;stroke-dasharray:none;stroke-dashoffset:0;stroke-opacity:1"
       id="path4226-3-2"
       cx="187.31543"
       cy="468.41443"
       r="4.6650496" />
    <circle
       style="fill:#000000;fill-opacity:1;stroke:#000000;stroke-width:0.66990113;stroke-miterlimit:4;stroke-dasharray:none;stroke-dashoffset:0;stroke-opacity:1"
       id="path4226-3-2-1"
       cx="475.69662"
       cy="384.87534"
       r="4.6650496" />
    <path
       style="fill:none;fill-rule:evenodd;stroke:#000000;stroke-width:3;stroke-linecap:butt;stroke-linejoin:miter;stroke-miterlimit:4;stroke-dasharray:6,3;stroke-opacity:1;stroke-dashoffset:0"
       d="m 260.15752,290.63071 0,290"
       id="path4404-8"
       inkscape:connector-curvature="0" />
    <path
       style="fill:none;fill-rule:evenodd;stroke:#0000ff;stroke-width:2;stroke-linecap:butt;stroke-linejoin:miter;stroke-opacity:1;stroke-miterlimit:4;stroke-dasharray:none"
       d="m 186.41741,470.72764 10,-65"
       id="path4234"
       inkscape:connector-curvature="0" />
    <path
       style="fill:none;fill-rule:evenodd;stroke:#0000ff;stroke-width:2;stroke-linecap:butt;stroke-linejoin:miter;stroke-opacity:1;stroke-miterlimit:4;stroke-dasharray:none"
       d="m 196.41741,405.72764 10,-30 20,-30 20,-20 20,-10"
       id="path4236"
       inkscape:connector-curvature="0" />
    <path
       style="fill:none;fill-rule:evenodd;stroke:#0000ff;stroke-width:2;stroke-linecap:butt;stroke-linejoin:miter;stroke-opacity:1;stroke-miterlimit:4;stroke-dasharray:none"
       d="m 266.41741,315.72764 31,-6"
       id="path4242"
       inkscape:connector-curvature="0" />
    <path
       style="fill:none;fill-rule:evenodd;stroke:#0000ff;stroke-width:2;stroke-linecap:butt;stroke-linejoin:miter;stroke-opacity:1;stroke-miterlimit:4;stroke-dasharray:none"
       d="m 297.41741,309.72764 27,-1 50,0 34,3 45,13 18,37 3,24"
       id="path4244"
       inkscape:connector-curvature="0" />
    <circle
       style="fill:#ff00ff;fill-opacity:1;stroke:#000000;stroke-width:1.07700002;stroke-miterlimit:4;stroke-dasharray:none;stroke-dashoffset:0;stroke-opacity:1"
       id="path4226-3"
       cx="261.77173"
       cy="406.1835"
       r="7.5" />
    <path
       style="fill:none;fill-rule:evenodd;stroke:#000000;stroke-width:3.05128574;stroke-linecap:butt;stroke-linejoin:miter;stroke-miterlimit:4;stroke-dasharray:none;stroke-dashoffset:0;stroke-opacity:1"
       d="m 266.16614,284.30228 0,300"
       id="path4404-8-3"
       inkscape:connector-curvature="0" />
    <path
       style="fill:none;fill-rule:evenodd;stroke:#000000;stroke-width:3.05128574;stroke-linecap:butt;stroke-linejoin:miter;stroke-miterlimit:4;stroke-dasharray:none;stroke-dashoffset:0;stroke-opacity:1"
       d="m 225.65752,283.63071 0,300"
       id="path4404-8-3-4"
       inkscape:connector-curvature="0" />
    <path
       style="fill:#e9afaf;fill-opacity:1;stroke:#ff0000;stroke-width:2.12132025;stroke-miterlimit:4;stroke-dasharray:none;stroke-dashoffset:0;stroke-opacity:1"
       d="m 85.630671,247.70773 c 0,-0.38891 -0.96428,-0.70711 -2.142845,-0.70711 -1.178565,0 -5.486352,-0.8378 -9.572859,-1.86178 -8.281286,-2.0751 -9.689361,-3.0813 -18.631018,-13.3137 l -4.301509,-4.92244 0,-83.36059 0,-83.360584 9.314576,-9.474483 c 5.123017,-5.210966 9.721077,-9.474483 10.217912,-9.474483 0.496835,0 1.157795,-0.437658 1.468802,-0.972575 0.311006,-0.534915 2.520362,-1.954303 4.909678,-3.154195 4.138699,-2.078415 4.361364,-2.116034 4.706771,-0.795193 0.239774,0.916893 0.969205,1.386429 2.153841,1.386429 1.551982,0 1.8206,-0.346935 2.010743,-2.596991 0.120704,-1.428345 0.617209,-2.727654 1.103345,-2.887353 0.700102,-0.229988 0.883883,8.015036 0.883883,39.653897 0,39.141291 -0.02749,39.937061 -1.367499,39.586651 -2.100387,-0.54927 -6.22681,1.09385 -7.813832,3.11143 -1.943902,2.47126 -1.943902,7.84223 0,10.3135 1.587022,2.01757 5.713445,3.66069 7.813832,3.11143 1.344044,-0.35148 1.367499,0.67819 1.367499,60.03382 0,53.20987 -0.12613,60.39143 -1.06066,60.39143 -0.583363,0 -1.06066,-0.3182 -1.06066,-0.70711 z m 0,-6.76448 c 0,-3.10533 -0.07445,-3.22038 -1.944544,-3.0052 -1.73999,0.2002 -1.967416,0.53986 -2.161977,3.22894 -0.211825,2.92768 -0.161662,3.00521 1.944543,3.00521 2.095598,0 2.161978,-0.0991 2.161978,-3.22895 z m -0.138034,-8.61509 c -0.195951,-3.0538 -0.376024,-3.35876 -1.983286,-3.35876 -1.48816,0 -1.803608,0.37414 -1.994366,2.36541 -0.316961,3.30869 0.249919,4.3521 2.364469,4.3521 1.740455,0 1.818303,-0.16208 1.613183,-3.35875 z m 0.138034,-9.01561 c 0,-3.06413 -0.07857,-3.18198 -2.12132,-3.18198 -1.988098,0 -2.121321,0.17023 -2.121321,2.71057 0,3.15562 0.353255,3.65339 2.592725,3.65339 1.484051,0 1.649916,-0.31988 1.649916,-3.18198 z m 0,-9.23936 c 0,-3.10533 -0.07445,-3.22038 -1.944544,-3.0052 -1.73999,0.2002 -1.967416,0.53987 -2.161977,3.22895 -0.211825,2.92767 -0.161662,3.0052 1.944543,3.0052 2.095598,0 2.161978,-0.0991 2.161978,-3.22895 z m -0.135955,-9.01955 c 0.214576,-3.36229 0.190013,-3.4065 -1.767767,-3.18198 -1.678913,0.19254 -2.020342,0.5928 -2.211964,2.5931 -0.316606,3.30498 0.292138,4.49129 2.167981,4.22492 1.365462,-0.1939 1.625367,-0.71551 1.81175,-3.63604 z m -0.0021,-8.78793 c -0.195951,-3.05379 -0.376024,-3.35875 -1.983286,-3.35875 -1.48816,0 -1.803608,0.37413 -1.994366,2.36541 -0.316961,3.30869 0.249919,4.3521 2.364469,4.3521 1.740455,0 1.818303,-0.16208 1.613183,-3.35876 z m 0.138034,-9.01561 c 0,-3.06412 -0.07857,-3.18198 -2.12132,-3.18198 -1.988098,0 -2.121321,0.17023 -2.121321,2.71058 0,3.15562 0.353255,3.65338 2.592725,3.65338 1.484051,0 1.649916,-0.31988 1.649916,-3.18198 z m 0,-9.23935 c 0,-3.10533 -0.07445,-3.22038 -1.944544,-3.0052 -1.73999,0.2002 -1.967416,0.53986 -2.161977,3.22894 -0.211825,2.92768 -0.161662,3.00521 1.944543,3.00521 2.095598,0 2.161978,-0.0991 2.161978,-3.22895 z m -0.135955,-9.01955 c 0.214576,-3.36229 0.190013,-3.4065 -1.767767,-3.18198 -1.678913,0.19254 -2.020342,0.5928 -2.211964,2.59309 -0.316606,3.30499 0.292138,4.49129 2.167981,4.22492 1.365462,-0.19389 1.625367,-0.7155 1.81175,-3.63603 z m 0.135955,-8.61115 c 0,-3.06413 -0.07857,-3.18198 -2.12132,-3.18198 -1.988098,0 -2.121321,0.17023 -2.121321,2.71057 0,3.15562 0.353255,3.65339 2.592725,3.65339 1.484051,0 1.649916,-0.31988 1.649916,-3.18198 z m 0,-9.19239 c 0,-3.06413 -0.07857,-3.18198 -2.12132,-3.18198 -2.042753,0 -2.121321,0.11785 -2.121321,3.18198 0,3.06413 0.07857,3.18198 2.121321,3.18198 2.042752,0 2.12132,-0.11785 2.12132,-3.18198 z m 0,-9.23935 c 0,-3.10533 -0.07445,-3.22039 -1.944544,-3.00521 -1.73999,0.2002 -1.967416,0.53987 -2.161977,3.22895 -0.211825,2.92767 -0.161662,3.0052 1.944543,3.0052 2.095598,0 2.161978,-0.0991 2.161978,-3.22894 z m -0.138034,-8.6151 c -0.195951,-3.05379 -0.376024,-3.35875 -1.983286,-3.35875 -1.48816,0 -1.803608,0.37413 -1.994366,2.36541 -0.316961,3.30869 0.249919,4.3521 2.364469,4.3521 1.740455,0 1.818303,-0.16208 1.613183,-3.35876 z m 0.0021,-27.27451 c 0.214576,-3.36229 0.190013,-3.4065 -1.767767,-3.18198 -1.678913,0.19254 -2.020343,0.59279 -2.211964,2.59309 -0.316606,3.30499 0.292137,4.49129 2.16798,4.22492 1.365463,-0.19389 1.625368,-0.7155 1.811751,-3.63603 z m -0.0021,-8.787931 c -0.195951,-3.053797 -0.376024,-3.358757 -1.983286,-3.358757 -1.48816,0 -1.803608,0.374137 -1.994366,2.365411 -0.316961,3.308689 0.249919,4.352107 2.364469,4.352107 1.740455,0 1.818303,-0.16209 1.613183,-3.358761 z m 0.138034,-9.015611 c 0,-3.064129 -0.07857,-3.18198 -2.12132,-3.18198 -1.988098,0 -2.121321,0.17023 -2.121321,2.710576 0,3.155617 0.353255,3.653385 2.592725,3.653385 1.484051,0 1.649916,-0.319882 1.649916,-3.181981 z m 0,-9.239355 c 0,-3.105325 -0.07445,-3.220382 -1.944544,-3.005203 -1.73999,0.200207 -1.967416,0.539871 -2.161977,3.228947 -0.211825,2.92768 -0.161662,3.005204 1.944543,3.005204 2.095598,0 2.161978,-0.09914 2.161978,-3.228948 z m -0.135955,-9.01955 c 0.214576,-3.362288 0.190013,-3.4065 -1.767767,-3.18198 -1.678913,0.192539 -2.020342,0.592798 -2.211964,2.593094 -0.316606,3.304983 0.292138,4.491292 2.167981,4.224921 1.365462,-0.193897 1.625367,-0.715507 1.81175,-3.636035 z m 0.135955,-8.611151 c 0,-3.064129 -0.07857,-3.18198 -2.12132,-3.18198 -1.988098,0 -2.121321,0.170229 -2.121321,2.710575 0,3.155618 0.353255,3.653385 2.592725,3.653385 1.484051,0 1.649916,-0.319881 1.649916,-3.18198 z m 0,-9.192388 c 0,-3.064129 -0.07857,-3.18198 -2.12132,-3.18198 -2.042753,0 -2.121321,0.117851 -2.121321,3.18198 0,3.064129 0.07857,3.181981 2.121321,3.181981 2.042752,0 2.12132,-0.117852 2.12132,-3.181981 z m 0,-9.239355 c 0,-3.105325 -0.07445,-3.220382 -1.944544,-3.005203 -1.73999,0.200207 -1.967416,0.539871 -2.161977,3.228947 -0.211825,2.92768 -0.161662,3.005204 1.944543,3.005204 2.095598,0 2.161978,-0.09914 2.161978,-3.228948 z"
       id="path4227"
       inkscape:connector-curvature="0"
       transform="translate(176.60439,286.43921)" />
  </g>
</svg>
