<?xml version="1.0" encoding="UTF-8" standalone="no"?>
<!-- Created with Inkscape (http://www.inkscape.org/) -->

<svg
   xmlns:dc="http://purl.org/dc/elements/1.1/"
   xmlns:cc="http://creativecommons.org/ns#"
   xmlns:rdf="http://www.w3.org/1999/02/22-rdf-syntax-ns#"
   xmlns:svg="http://www.w3.org/2000/svg"
   xmlns="http://www.w3.org/2000/svg"
   xmlns:sodipodi="http://sodipodi.sourceforge.net/DTD/sodipodi-0.dtd"
   xmlns:inkscape="http://www.inkscape.org/namespaces/inkscape"
   width="316.80078"
   height="297.95703"
   viewBox="0 0 316.80077 297.95702"
   id="svg2"
   version="1.1"
   inkscape:version="0.91 r13725"
   sodipodi:docname="ConvexNonconvex2.svg"
   inkscape:export-filename="/media/ExtraDrive/Dropbox/LogbookOrganizer/COMPSCI290/Lectures/4_NormalsPlanesInterior/PointOutsideArea.png"
   inkscape:export-xdpi="142.05"
   inkscape:export-ydpi="142.05">
  <defs
     id="defs4">
    <inkscape:perspective
       sodipodi:type="inkscape:persp3d"
       inkscape:vp_x="0 : 148.97851 : 1"
       inkscape:vp_y="0 : 1000 : 0"
       inkscape:vp_z="316.80077 : 148.97851 : 1"
       inkscape:persp3d-origin="158.40038 : 99.319007 : 1"
       id="perspective4232" />
    <marker
       inkscape:stockid="Arrow1Lend"
       orient="auto"
       refY="0"
       refX="0"
       id="marker6655"
       style="overflow:visible"
       inkscape:isstock="true">
      <path
         id="path6657"
         d="M 0,0 5,-5 -12.5,0 5,5 0,0 Z"
         style="fill:#000000;fill-opacity:1;fill-rule:evenodd;stroke:#000000;stroke-width:1pt;stroke-opacity:1"
         transform="matrix(-0.8,0,0,-0.8,-10,0)"
         inkscape:connector-curvature="0" />
    </marker>
    <marker
       inkscape:stockid="Arrow1Lstart"
       orient="auto"
       refY="0"
       refX="0"
       id="Arrow1Lstart"
       style="overflow:visible"
       inkscape:isstock="true">
      <path
         id="path4165"
         d="M 0,0 5,-5 -12.5,0 5,5 0,0 Z"
         style="fill:#000000;fill-opacity:1;fill-rule:evenodd;stroke:#000000;stroke-width:1pt;stroke-opacity:1"
         transform="matrix(0.8,0,0,0.8,10,0)"
         inkscape:connector-curvature="0" />
    </marker>
    <marker
       inkscape:stockid="Arrow1Lend"
       orient="auto"
       refY="0"
       refX="0"
       id="Arrow1Lend"
       style="overflow:visible"
       inkscape:isstock="true">
      <path
         id="path4168"
         d="M 0,0 5,-5 -12.5,0 5,5 0,0 Z"
         style="fill:#000000;fill-opacity:1;fill-rule:evenodd;stroke:#000000;stroke-width:1pt;stroke-opacity:1"
         transform="matrix(-0.8,0,0,-0.8,-10,0)"
         inkscape:connector-curvature="0" />
    </marker>
    <marker
       inkscape:isstock="true"
       style="overflow:visible"
       id="marker4373-6"
       refX="0"
       refY="0"
       orient="auto"
       inkscape:stockid="Arrow1Lend">
      <path
         inkscape:connector-curvature="0"
         transform="matrix(-0.8,0,0,-0.8,-10,0)"
         style="fill:#000000;fill-opacity:1;fill-rule:evenodd;stroke:#000000;stroke-width:1pt;stroke-opacity:1"
         d="M 0,0 5,-5 -12.5,0 5,5 0,0 Z"
         id="path4375-3" />
    </marker>
    <marker
       inkscape:isstock="true"
       style="overflow:visible"
       id="marker4373-6-0"
       refX="0"
       refY="0"
       orient="auto"
       inkscape:stockid="Arrow1Lend">
      <path
         inkscape:connector-curvature="0"
         transform="matrix(-0.8,0,0,-0.8,-10,0)"
         style="fill:#000000;fill-opacity:1;fill-rule:evenodd;stroke:#000000;stroke-width:1pt;stroke-opacity:1"
         d="M 0,0 5,-5 -12.5,0 5,5 0,0 Z"
         id="path4375-3-8" />
    </marker>
    <marker
       inkscape:isstock="true"
       style="overflow:visible"
       id="marker4373-6-2"
       refX="0"
       refY="0"
       orient="auto"
       inkscape:stockid="Arrow1Lend">
      <path
         inkscape:connector-curvature="0"
         transform="matrix(-0.8,0,0,-0.8,-10,0)"
         style="fill:#000000;fill-opacity:1;fill-rule:evenodd;stroke:#000000;stroke-width:1pt;stroke-opacity:1"
         d="M 0,0 5,-5 -12.5,0 5,5 0,0 Z"
         id="path4375-3-3" />
    </marker>
  </defs>
  <sodipodi:namedview
     id="base"
     pagecolor="#ffffff"
     bordercolor="#666666"
     borderopacity="1.0"
     inkscape:pageopacity="0.0"
     inkscape:pageshadow="2"
     inkscape:zoom="1"
     inkscape:cx="38.990323"
     inkscape:cy="159.70874"
     inkscape:document-units="px"
     inkscape:current-layer="layer1"
     showgrid="true"
     inkscape:window-width="1678"
     inkscape:window-height="754"
     inkscape:window-x="2057"
     inkscape:window-y="170"
     inkscape:window-maximized="0"
     fit-margin-top="0"
     fit-margin-left="0"
     fit-margin-right="0"
     fit-margin-bottom="0"
     units="px">
    <inkscape:grid
       type="xygrid"
       id="grid4209"
       originx="-90.186978"
       originy="-276.33139" />
  </sodipodi:namedview>
  <metadata
     id="metadata7">
    <rdf:RDF>
      <cc:Work
         rdf:about="">
        <dc:format>image/svg+xml</dc:format>
        <dc:type
           rdf:resource="http://purl.org/dc/dcmitype/StillImage" />
        <dc:title />
      </cc:Work>
    </rdf:RDF>
  </metadata>
  <g
     inkscape:groupmode="layer"
     id="layer2"
     inkscape:label="Layer 2"
     transform="translate(-90.186981,-25.711569)" />
  <g
     inkscape:label="Layer 1"
     inkscape:groupmode="layer"
     id="layer1"
     transform="translate(-176.60439,-286.43921)">
    <path
       style="fill:#ff00ff;fill-opacity:1;stroke:#000000;stroke-width:0.53850001;stroke-miterlimit:4;stroke-dasharray:none;stroke-dashoffset:0;stroke-opacity:1"
       d=""
       id="path4243"
       inkscape:connector-curvature="0"
       transform="translate(176.60439,286.43921)" />
    <ellipse
       style="fill:#000000;fill-opacity:1;stroke:#000000;stroke-width:0.26796043;stroke-miterlimit:4;stroke-dasharray:none;stroke-dashoffset:0;stroke-opacity:1"
       id="path4226-3-7"
       cx="259.29465"
       cy="391.75525"
       rx="1.8660198"
       ry="1.8660197" />
    <ellipse
       style="fill:#000000;fill-opacity:1;stroke:#000000;stroke-width:0.26796043;stroke-miterlimit:4;stroke-dasharray:none;stroke-dashoffset:0;stroke-opacity:1"
       id="path4226-3-7-7"
       cx="269.54465"
       cy="361.63025"
       rx="1.8660198"
       ry="1.8660197" />
    <ellipse
       style="fill:#000000;fill-opacity:1;stroke:#000000;stroke-width:0.26796043;stroke-miterlimit:4;stroke-dasharray:none;stroke-dashoffset:0;stroke-opacity:1"
       id="path4226-3-7-91"
       cx="249.29465"
       cy="457.25525"
       rx="1.8660198"
       ry="1.8660197" />
    <path
       style="fill:none;fill-rule:evenodd;stroke:#000000;stroke-width:1px;stroke-linecap:butt;stroke-linejoin:miter;stroke-opacity:1"
       d="m 289.91741,331.22764 -20,31"
       id="path4394"
       inkscape:connector-curvature="0" />
    <path
       style="fill:none;fill-rule:evenodd;stroke:#000000;stroke-width:1px;stroke-linecap:butt;stroke-linejoin:miter;stroke-opacity:1"
       d="m 269.91741,361.22764 -11,30 -9,66"
       id="path4396"
       inkscape:connector-curvature="0" />
    <path
       style="fill:none;fill-rule:evenodd;stroke:#000000;stroke-width:1px;stroke-linecap:butt;stroke-linejoin:miter;stroke-opacity:1"
       d="m 249.91741,457.22764 53,59"
       id="path4398"
       inkscape:connector-curvature="0" />
    <ellipse
       style="fill:#000000;fill-opacity:1;stroke:#000000;stroke-width:0.26796043;stroke-miterlimit:4;stroke-dasharray:none;stroke-dashoffset:0;stroke-opacity:1"
       id="path4226-3-7-5"
       cx="288.86124"
       cy="332.64767"
       rx="1.8660198"
       ry="1.8660197" />
    <ellipse
       style="fill:#000000;fill-opacity:1;stroke:#000000;stroke-width:0.26796043;stroke-miterlimit:4;stroke-dasharray:none;stroke-dashoffset:0;stroke-opacity:1"
       id="path4226-3-7-54"
       cx="382.01901"
       cy="344.78113"
       rx="1.8660198"
       ry="1.8660197" />
    <ellipse
       style="fill:#000000;fill-opacity:1;stroke:#000000;stroke-width:0.26796043;stroke-miterlimit:4;stroke-dasharray:none;stroke-dashoffset:0;stroke-opacity:1"
       id="path4226-3-7-2"
       cx="362.92712"
       cy="399.52985"
       rx="1.8660198"
       ry="1.8660197" />
    <ellipse
       style="fill:#000000;fill-opacity:1;stroke:#000000;stroke-width:0.26796043;stroke-miterlimit:4;stroke-dasharray:none;stroke-dashoffset:0;stroke-opacity:1"
       id="path4226-3-7-6"
       cx="417.47485"
       cy="447.30801"
       rx="1.8660198"
       ry="1.8660197" />
    <ellipse
       style="fill:#000000;fill-opacity:1;stroke:#000000;stroke-width:0.26796043;stroke-miterlimit:4;stroke-dasharray:none;stroke-dashoffset:0;stroke-opacity:1"
       id="path4226-3-7-1"
       cx="304.4903"
       cy="516.09839"
       rx="1.8660198"
       ry="1.8660197" />
    <ellipse
       style="fill:#000000;fill-opacity:1;stroke:#000000;stroke-width:0.26796043;stroke-miterlimit:4;stroke-dasharray:none;stroke-dashoffset:0;stroke-opacity:1"
       id="path4226-3-7-23"
       cx="374.84741"
       cy="507.36188"
       rx="1.8660198"
       ry="1.8660197" />
    <path
       style="fill:none;fill-rule:evenodd;stroke:#000000;stroke-width:1px;stroke-linecap:butt;stroke-linejoin:miter;stroke-opacity:1"
       d="m 288.91741,332.22764 93,13 -19,54 55,48 -43,60 -71,9"
       id="path4260"
       inkscape:connector-curvature="0" />
    <path
       style="fill:#ffaaaa;fill-opacity:1;stroke:#0000ff;stroke-width:2;stroke-miterlimit:4;stroke-dasharray:none;stroke-dashoffset:0;stroke-opacity:1"
       d="m 127.9794,227.79878 c -1.89913,-0.4557 -10.07733,-8.86416 -27.31068,-28.07962 -13.529868,-15.08602 -24.963524,-28.13602 -25.408123,-29 -1.13685,-2.20922 7.059637,-61.32466 8.7916,-63.40757 0.749031,-0.9008 1.100279,-2.31953 0.780551,-3.15273 -0.692827,-1.80548 6.254089,-21.649148 9.806621,-28.012338 4.472313,-8.010676 15.680051,-24.94658 17.892831,-27.037674 l 2.15812,-2.03945 44,6.216283 c 24.2,3.418956 44.1125,6.249208 44.25,6.289449 1.10968,0.324766 -14.76434,46.68672 -17.42917,50.90395 -1.65672,2.62184 -1.12511,5.16922 1.07875,5.16922 1.79024,0 50.84287,42.59751 51.74559,44.9361 0.45083,1.16788 -5.4234,10.16341 -19.5,29.86141 -11.07984,15.50452 -20.67017,28.19284 -21.31184,28.19626 -0.64166,0.003 -1.31666,0.36608 -1.5,0.80592 -0.18333,0.43983 -14.05833,2.50235 -30.83333,4.58337 -16.775,2.08103 -31.4,3.92638 -32.5,4.1008 -1.1,0.17441 -3.21991,0.0244 -4.71092,-0.33338 z"
       id="path4262"
       inkscape:connector-curvature="0"
       transform="translate(176.60439,286.43921)" />
  </g>
</svg>
