<?xml version="1.0" encoding="UTF-8" standalone="no"?>
<!-- Created with Inkscape (http://www.inkscape.org/) -->

<svg
   xmlns:dc="http://purl.org/dc/elements/1.1/"
   xmlns:cc="http://creativecommons.org/ns#"
   xmlns:rdf="http://www.w3.org/1999/02/22-rdf-syntax-ns#"
   xmlns:svg="http://www.w3.org/2000/svg"
   xmlns="http://www.w3.org/2000/svg"
   xmlns:sodipodi="http://sodipodi.sourceforge.net/DTD/sodipodi-0.dtd"
   xmlns:inkscape="http://www.inkscape.org/namespaces/inkscape"
   width="316.80078"
   height="198.96875"
   viewBox="0 0 316.80077 198.96874"
   id="svg2"
   version="1.1"
   inkscape:version="0.91 r13725"
   sodipodi:docname="PointInsideArea.svg"
   inkscape:export-filename="/media/ExtraDrive/Dropbox/LogbookOrganizer/COMPSCI290/Lectures/3_SegmentIntersection_Circumcenter/LinesParam.png"
   inkscape:export-xdpi="44.13998"
   inkscape:export-ydpi="44.13998">
  <defs
     id="defs4">
    <marker
       inkscape:stockid="Arrow1Lend"
       orient="auto"
       refY="0"
       refX="0"
       id="marker6655"
       style="overflow:visible"
       inkscape:isstock="true">
      <path
         id="path6657"
         d="M 0,0 5,-5 -12.5,0 5,5 0,0 Z"
         style="fill:#000000;fill-opacity:1;fill-rule:evenodd;stroke:#000000;stroke-width:1pt;stroke-opacity:1"
         transform="matrix(-0.8,0,0,-0.8,-10,0)"
         inkscape:connector-curvature="0" />
    </marker>
    <marker
       inkscape:stockid="Arrow1Lstart"
       orient="auto"
       refY="0"
       refX="0"
       id="Arrow1Lstart"
       style="overflow:visible"
       inkscape:isstock="true">
      <path
         id="path4165"
         d="M 0,0 5,-5 -12.5,0 5,5 0,0 Z"
         style="fill:#000000;fill-opacity:1;fill-rule:evenodd;stroke:#000000;stroke-width:1pt;stroke-opacity:1"
         transform="matrix(0.8,0,0,0.8,10,0)"
         inkscape:connector-curvature="0" />
    </marker>
    <marker
       inkscape:stockid="Arrow1Lend"
       orient="auto"
       refY="0"
       refX="0"
       id="Arrow1Lend"
       style="overflow:visible"
       inkscape:isstock="true">
      <path
         id="path4168"
         d="M 0,0 5,-5 -12.5,0 5,5 0,0 Z"
         style="fill:#000000;fill-opacity:1;fill-rule:evenodd;stroke:#000000;stroke-width:1pt;stroke-opacity:1"
         transform="matrix(-0.8,0,0,-0.8,-10,0)"
         inkscape:connector-curvature="0" />
    </marker>
    <marker
       inkscape:isstock="true"
       style="overflow:visible"
       id="marker4373-6"
       refX="0"
       refY="0"
       orient="auto"
       inkscape:stockid="Arrow1Lend">
      <path
         inkscape:connector-curvature="0"
         transform="matrix(-0.8,0,0,-0.8,-10,0)"
         style="fill:#000000;fill-opacity:1;fill-rule:evenodd;stroke:#000000;stroke-width:1pt;stroke-opacity:1"
         d="M 0,0 5,-5 -12.5,0 5,5 0,0 Z"
         id="path4375-3" />
    </marker>
    <marker
       inkscape:isstock="true"
       style="overflow:visible"
       id="marker4373-6-0"
       refX="0"
       refY="0"
       orient="auto"
       inkscape:stockid="Arrow1Lend">
      <path
         inkscape:connector-curvature="0"
         transform="matrix(-0.8,0,0,-0.8,-10,0)"
         style="fill:#000000;fill-opacity:1;fill-rule:evenodd;stroke:#000000;stroke-width:1pt;stroke-opacity:1"
         d="M 0,0 5,-5 -12.5,0 5,5 0,0 Z"
         id="path4375-3-8" />
    </marker>
    <marker
       inkscape:isstock="true"
       style="overflow:visible"
       id="marker4373-6-2"
       refX="0"
       refY="0"
       orient="auto"
       inkscape:stockid="Arrow1Lend">
      <path
         inkscape:connector-curvature="0"
         transform="matrix(-0.8,0,0,-0.8,-10,0)"
         style="fill:#000000;fill-opacity:1;fill-rule:evenodd;stroke:#000000;stroke-width:1pt;stroke-opacity:1"
         d="M 0,0 5,-5 -12.5,0 5,5 0,0 Z"
         id="path4375-3-3" />
    </marker>
  </defs>
  <sodipodi:namedview
     id="base"
     pagecolor="#ffffff"
     bordercolor="#666666"
     borderopacity="1.0"
     inkscape:pageopacity="0.0"
     inkscape:pageshadow="2"
     inkscape:zoom="1"
     inkscape:cx="11.0782"
     inkscape:cy="98.686194"
     inkscape:document-units="px"
     inkscape:current-layer="layer1"
     showgrid="true"
     inkscape:window-width="1287"
     inkscape:window-height="754"
     inkscape:window-x="2057"
     inkscape:window-y="170"
     inkscape:window-maximized="0"
     fit-margin-top="0"
     fit-margin-left="0"
     fit-margin-right="0"
     fit-margin-bottom="0"
     units="px">
    <inkscape:grid
       type="xygrid"
       id="grid4209"
       originx="-68.973768"
       originy="-238.37301" />
  </sodipodi:namedview>
  <metadata
     id="metadata7">
    <rdf:RDF>
      <cc:Work
         rdf:about="">
        <dc:format>image/svg+xml</dc:format>
        <dc:type
           rdf:resource="http://purl.org/dc/dcmitype/StillImage" />
        <dc:title></dc:title>
      </cc:Work>
    </rdf:RDF>
  </metadata>
  <g
     inkscape:label="Layer 1"
     inkscape:groupmode="layer"
     id="layer1"
     transform="translate(-155.39117,-423.38586)">
    <circle
       style="fill:#000000;fill-opacity:1;stroke:none;stroke-width:5;stroke-miterlimit:4;stroke-dasharray:none;stroke-dashoffset:0;stroke-opacity:1"
       id="path4136-1-2"
       cx="196.41193"
       cy="541.66034"
       r="10" />
    <circle
       style="fill:#000000;fill-opacity:1;stroke:none;stroke-width:5;stroke-miterlimit:4;stroke-dasharray:none;stroke-dashoffset:0;stroke-opacity:1"
       id="path4136-1-2-3"
       cx="436.44064"
       cy="601.53186"
       r="10" />
    <text
       xml:space="preserve"
       style="font-style:normal;font-weight:normal;font-size:40px;line-height:125%;font-family:sans-serif;letter-spacing:0px;word-spacing:0px;fill:#000000;fill-opacity:1;stroke:none;stroke-width:1px;stroke-linecap:butt;stroke-linejoin:miter;stroke-opacity:1"
       x="448.98883"
       y="621.78821"
       id="text4357-8"
       sodipodi:linespacing="125%"><tspan
         sodipodi:role="line"
         id="tspan4359-9"
         x="448.98883"
         y="621.78821">b</tspan></text>
    <circle
       style="fill:#000000;fill-opacity:1;stroke:none;stroke-width:5;stroke-miterlimit:4;stroke-dasharray:none;stroke-dashoffset:0;stroke-opacity:1"
       id="path4136-1-2-6"
       cx="367.36166"
       cy="461.19589"
       r="10" />
    <text
       xml:space="preserve"
       style="font-style:normal;font-weight:normal;font-size:40px;line-height:125%;font-family:sans-serif;letter-spacing:0px;word-spacing:0px;fill:#000000;fill-opacity:1;stroke:none;stroke-width:1px;stroke-linecap:butt;stroke-linejoin:miter;stroke-opacity:1"
       x="376.98883"
       y="445.78821"
       id="text4357-8-0"
       sodipodi:linespacing="125%"><tspan
         sodipodi:role="line"
         id="tspan4359-9-9"
         x="376.98883"
         y="445.78821">c</tspan></text>
    <text
       xml:space="preserve"
       style="font-style:normal;font-weight:normal;font-size:40px;line-height:125%;font-family:sans-serif;letter-spacing:0px;word-spacing:0px;fill:#000000;fill-opacity:1;stroke:none;stroke-width:1px;stroke-linecap:butt;stroke-linejoin:miter;stroke-opacity:1"
       x="152.98883"
       y="540.78821"
       id="text4357-8-6"
       sodipodi:linespacing="125%"><tspan
         sodipodi:role="line"
         id="tspan4359-9-1"
         x="152.98883"
         y="540.78821">a</tspan></text>
    <path
       style="fill:none;fill-rule:evenodd;stroke:#000000;stroke-width:1px;stroke-linecap:butt;stroke-linejoin:miter;stroke-opacity:1"
       d="m 196.4174,540.72764 240,60 -70,-140 z"
       id="path4844"
       inkscape:connector-curvature="0" />
    <circle
       style="fill:#000000;fill-opacity:1;stroke:none;stroke-width:5;stroke-miterlimit:4;stroke-dasharray:none;stroke-dashoffset:0;stroke-opacity:1"
       id="path4136-1-2-3-8"
       cx="336.03149"
       cy="528.79681"
       r="10" />
    <path
       style="fill:none;fill-rule:evenodd;stroke:#000000;stroke-width:1px;stroke-linecap:butt;stroke-linejoin:miter;stroke-opacity:1"
       d="m 196.4174,540.72764 140,-10"
       id="path4863"
       inkscape:connector-curvature="0" />
    <path
       style="fill:none;fill-rule:evenodd;stroke:#000000;stroke-width:1px;stroke-linecap:butt;stroke-linejoin:miter;stroke-opacity:1"
       d="m 436.4174,600.72764 -100,-70"
       id="path4865"
       inkscape:connector-curvature="0" />
    <path
       style="fill:#ff5555;fill-rule:evenodd;stroke:#000000;stroke-width:1px;stroke-linecap:butt;stroke-linejoin:miter;stroke-opacity:1"
       d="m 366.4174,460.72764 -30,70"
       id="path4867"
       inkscape:connector-curvature="0" />
    <path
       style="fill:#ffaaaa;fill-opacity:1;stroke:#000000;stroke-width:1;stroke-miterlimit:4;stroke-dasharray:2, 1;stroke-dashoffset:0;stroke-opacity:1"
       d="m 300.36626,303.90006 c -27.4618,-19.26176 -41.65174,-29.79726 -41.34072,-30.69395 1.16393,-3.35568 0.39488,-9.80071 -1.40706,-11.79183 -1.86353,-2.05918 -1.76557,-2.36377 8.52415,-26.50682 l 10.40934,-24.42371 3.85677,0.14527 3.85677,0.14527 30.3497,60.69296 c 22.34742,44.69011 29.98262,60.83382 28.95752,61.22719 -0.79834,0.30635 -19.22792,-11.9758 -43.20647,-28.79438 z"
       id="path4875"
       inkscape:connector-curvature="0"
       transform="translate(86.417404,260.72764)" />
    <path
       style="fill:#ffaaaa;fill-opacity:1;stroke:#000000;stroke-width:1;stroke-miterlimit:4;stroke-dasharray:2, 1;stroke-dashoffset:0;stroke-opacity:1"
       d="M 229.37613,308.99941 C 134.23681,285.11373 116.69549,280.48373 120.6353,280.29744 c 0.50417,-0.0238 27.404,-1.95401 59.77741,-4.28926 l 58.86074,-4.24592 3.28926,3.28926 c 3.54052,3.54052 7.33316,4.22877 11.88191,2.15622 2.31607,-1.05527 5.37277,0.88383 44.53188,28.25 23.12482,16.16067 42.05196,29.72054 42.0603,30.13304 0.008,0.4125 -0.77233,0.70889 -1.73483,0.65863 -0.9625,-0.0503 -50.42913,-12.31276 -109.92584,-27.25 z"
       id="path4877"
       inkscape:connector-curvature="0"
       transform="translate(86.417404,260.72764)" />
    <path
       style="fill:#ffaaaa;fill-opacity:1;stroke:#000000;stroke-width:1;stroke-miterlimit:4;stroke-dasharray:2, 1;stroke-dashoffset:0;stroke-opacity:1"
       d="m 120.20322,277.38702 c 0.23229,-0.69686 34.3248,-17.21652 75.76115,-36.71036 74.77584,-35.17849 75.35272,-35.42842 77.1997,-33.44593 1.82631,1.96031 1.66722,2.449 -8.56268,26.30374 l -10.42356,24.30631 -3.33721,-0.30245 c -5.02466,-0.45538 -10.05671,3.30979 -11.18827,8.37148 l -0.89961,4.02417 -53.60039,3.78665 c -29.48021,2.08266 -56.24888,4.04467 -59.48592,4.36003 -4.4991,0.4383 -5.78606,0.2749 -5.46321,-0.69364 z"
       id="path4879"
       inkscape:connector-curvature="0"
       transform="translate(86.417404,260.72764)" />
    <text
       xml:space="preserve"
       style="font-style:normal;font-weight:normal;font-size:40px;line-height:125%;font-family:sans-serif;letter-spacing:0px;word-spacing:0px;fill:#000000;fill-opacity:1;stroke:none;stroke-width:1px;stroke-linecap:butt;stroke-linejoin:miter;stroke-opacity:1"
       x="303.98883"
       y="523.78821"
       id="text4357-8-6-0"
       sodipodi:linespacing="125%"><tspan
         sodipodi:role="line"
         id="tspan4359-9-1-3"
         x="303.98883"
         y="523.78821">d</tspan></text>
  </g>
</svg>
